<svg width="30" height="30" viewBox="0 0 30 30" fill="none" xmlns="http://www.w3.org/2000/svg">
<g clip-path="url(#clip0)">
<path fill-rule="evenodd" clip-rule="evenodd" d="M2.06109 10.0231C-0.687357 12.7716 -0.687357 17.2275 2.06109 19.9759L10.0234 27.9382C12.7718 30.6867 17.2277 30.6867 19.9762 27.9382L27.9385 19.9759C30.6869 17.2275 30.6869 12.7714 27.9385 10.0231L19.9762 2.06085C17.2277 -0.687601 12.7717 -0.687601 10.0234 2.06085L2.06109 10.0231ZM18.4832 18.483C20.4071 16.5591 20.4071 13.44 18.4832 11.5161C16.5593 9.5922 13.4402 9.5922 11.5163 11.5161C9.59244 13.44 9.59244 16.5591 11.5163 18.483C13.4402 20.4069 16.5593 20.4069 18.4832 18.483Z" fill="white"/>
</g>
<defs>
<clipPath id="clip0">
<rect width="30" height="30" fill="white"/>
</clipPath>
</defs>
</svg>
