<svg width="36" height="36" viewBox="0 0 36 36" fill="none" xmlns="http://www.w3.org/2000/svg">
<path d="M27.5025 27.5085H23.505V21.243C23.505 19.749 23.475 17.826 21.42 17.826C19.3365 17.826 19.0185 19.452 19.0185 21.1335V27.5085H15.0195V14.625H18.8595V16.38H18.912C19.449 15.369 20.754 14.2995 22.704 14.2995C26.754 14.2995 27.504 16.9665 27.504 20.436V27.5085H27.5025ZM10.5045 12.8625C10.1993 12.8629 9.89709 12.8031 9.6151 12.6864C9.3331 12.5698 9.0769 12.3986 8.86119 12.1828C8.64547 11.9669 8.47448 11.7106 8.35802 11.4285C8.24155 11.1464 8.18191 10.8442 8.1825 10.539C8.1828 10.0798 8.31927 9.63091 8.57466 9.24922C8.83005 8.86753 9.19289 8.57015 9.6173 8.39468C10.0417 8.21921 10.5086 8.17352 10.959 8.26341C11.4093 8.3533 11.8229 8.57471 12.1475 8.89966C12.472 9.22461 12.6929 9.63849 12.7822 10.089C12.8715 10.5395 12.8252 11.0063 12.6492 11.4305C12.4732 11.8547 12.1753 12.2171 11.7933 12.472C11.4113 12.7269 10.9622 12.8628 10.503 12.8625H10.5045ZM12.5085 27.5085H8.499V14.625H12.51V27.5085H12.5085ZM29.505 4.5H6.4935C5.3895 4.5 4.5 5.37 4.5 6.4455V29.5545C4.5 30.63 5.391 31.5 6.492 31.5H29.499C30.6 31.5 31.5 30.63 31.5 29.5545V6.4455C31.5 5.37 30.6 4.5 29.499 4.5H29.5035H29.505Z" fill="white"/>
</svg>
