<svg width="36" height="36" viewBox="0 0 36 36" fill="none" xmlns="http://www.w3.org/2000/svg">
<path d="M33.243 8.48389C32.0978 8.99043 30.8834 9.3231 29.64 9.47089C30.9506 8.68704 31.9315 7.45341 32.4 5.99989C31.17 6.73189 29.8215 7.24489 28.416 7.52239C27.4719 6.51226 26.2205 5.84233 24.8564 5.61677C23.4923 5.3912 22.0919 5.62263 20.8729 6.27507C19.6538 6.92751 18.6845 7.96442 18.1156 9.22458C17.5467 10.4847 17.4101 11.8976 17.727 13.2434C15.2326 13.1184 12.7925 12.4702 10.5649 11.3409C8.33732 10.2116 6.37215 8.62646 4.79696 6.68839C4.23939 7.64607 3.94639 8.73473 3.94796 9.84289C3.94796 12.0179 5.05496 13.9394 6.73796 15.0644C5.74197 15.033 4.76791 14.7641 3.89696 14.2799V14.3579C3.89726 15.8064 4.39851 17.2103 5.31573 18.3315C6.23295 19.4526 7.50968 20.2221 8.92946 20.5094C8.00488 20.7599 7.03542 20.7969 6.09446 20.6174C6.49476 21.8642 7.27497 22.9547 8.32584 23.7361C9.37672 24.5174 10.6456 24.9506 11.955 24.9749C10.6537 25.9969 9.16372 26.7524 7.57028 27.1981C5.97683 27.6439 4.31115 27.7713 2.66846 27.5729C5.536 29.417 8.8741 30.3961 12.2835 30.3929C23.823 30.3929 30.1335 20.8334 30.1335 12.5429C30.1335 12.2729 30.126 11.9999 30.114 11.7329C31.3423 10.8451 32.4024 9.74542 33.2445 8.48539L33.243 8.48389Z" fill="white"/>
</svg>
