<svg width="36" height="36" viewBox="0 0 36 36" fill="none" xmlns="http://www.w3.org/2000/svg">
<path d="M18 33C9.7155 33 3 26.2845 3 18C3 9.7155 9.7155 3 18 3C26.2845 3 33 9.7155 33 18C33 26.2845 26.2845 33 18 33ZM27.5325 23.928V23.7705C27.5325 22.3875 27.5325 21.756 26.5545 21.1965C26.2402 21.0183 25.9173 20.8556 25.587 20.709C25.0365 20.4585 24.672 20.295 24.18 19.575C24.1213 19.4895 24.0633 19.4035 24.006 19.317C23.4885 18.5295 23.115 17.9625 21.693 18.1875C18.8955 18.6315 18.6885 19.1235 18.5655 19.9545L18.546 20.091C18.3645 21.306 18.3315 21.714 18.8385 22.2465C20.736 24.237 21.873 25.6725 22.218 26.5125C22.386 26.922 22.818 28.1625 22.521 29.3895C24.3417 28.6643 25.9624 27.5137 27.2475 26.034C27.4125 25.473 27.5325 24.774 27.5325 23.928ZM18 5.7495C14.5245 5.7495 11.385 7.1985 9.156 9.5235C9.4215 9.708 9.6525 9.9675 9.8115 10.3245C10.1175 11.01 10.1175 11.7165 10.1175 12.342C10.1175 12.834 10.1175 13.302 10.275 13.6395C10.491 14.1015 11.424 14.2995 12.2475 14.4705C12.543 14.5335 12.846 14.5965 13.122 14.673C13.881 14.883 14.469 15.5655 14.9385 16.113C15.1335 16.3395 15.423 16.674 15.5685 16.758C15.6435 16.704 15.885 16.4415 16.0035 16.011C16.0965 15.681 16.0695 15.39 15.936 15.231C15.096 14.241 15.1425 12.336 15.402 11.6325C15.81 10.524 17.085 10.6065 18.018 10.6665C18.366 10.689 18.693 10.7115 18.939 10.68C19.872 10.563 20.16 9.1425 20.3625 8.865C20.8005 8.265 22.1415 7.3605 22.9725 6.8025C21.4072 6.10649 19.713 5.74771 18 5.7495Z" fill="white"/>
</svg>
