<svg width="303" height="65" viewBox="0 0 303 65" fill="none" xmlns="http://www.w3.org/2000/svg">
<path opacity="0.33" d="M165.874 51.2877L165.868 51.2917C165.097 51.7416 164.294 52.1328 163.46 52.4655C163.204 52.5678 162.913 52.4428 162.811 52.1864C162.81 52.1842 162.809 52.182 162.808 52.1798C161.521 52.6521 160.16 52.9849 158.724 53.1784C158.724 53.1803 158.724 53.1822 158.724 53.1841C158.755 53.4586 158.557 53.7058 158.283 53.7363C157.421 53.8321 156.536 53.8798 155.626 53.8798C154.71 53.8798 153.818 53.8315 152.948 53.7345C152.673 53.7039 152.476 53.4566 152.506 53.1822C152.506 53.1803 152.507 53.1784 152.507 53.1765C151.061 52.9818 149.686 52.6471 148.38 52.1725C148.38 52.1746 148.379 52.1767 148.378 52.1788C148.277 52.4357 147.986 52.5618 147.729 52.4605C146.89 52.1295 146.079 51.7406 145.298 51.2939L145.287 51.2879L145.287 51.2877C144.537 50.8347 143.828 50.3338 143.161 49.785C142.947 49.6097 142.917 49.2946 143.092 49.0813C143.094 49.0794 143.095 49.0775 143.097 49.0757C142.084 48.1925 141.174 47.1909 140.369 46.0709C140.367 46.0721 140.365 46.0734 140.363 46.0746C140.135 46.2299 139.824 46.1706 139.669 45.9422C139.191 45.2392 138.751 44.4939 138.35 43.7067C137.911 42.8444 137.53 41.9461 137.208 41.0121C137.117 40.7511 137.256 40.4664 137.517 40.3763C137.519 40.3757 137.521 40.375 137.522 40.3744C137.059 38.925 136.735 37.388 136.55 35.7634C136.549 35.7635 136.547 35.7637 136.546 35.7638C136.271 35.79 136.027 35.5884 136 35.3135C135.911 34.3726 135.866 33.4046 135.866 32.4098C135.866 31.4208 135.91 30.46 135.999 29.5274C136.025 29.2525 136.269 29.0508 136.544 29.077C136.545 29.0771 136.547 29.0773 136.548 29.0775C136.732 27.4622 137.055 25.9394 137.516 24.509C137.514 24.5084 137.512 24.5077 137.51 24.5071C137.249 24.4161 137.112 24.131 137.203 23.8703C137.526 22.9428 137.909 22.0535 138.35 21.2025M165.874 51.2877L138.796 21.4298M165.874 51.2877C166.624 50.8347 167.333 50.3338 168.001 49.785C168.214 49.6097 168.245 49.2946 168.07 49.0813C168.068 49.0794 168.067 49.0775 168.065 49.0757C169.078 48.1925 169.987 47.1909 170.793 46.0709C170.795 46.0721 170.797 46.0734 170.799 46.0746C171.027 46.2299 171.338 46.1706 171.493 45.9422C171.971 45.2392 172.41 44.4939 172.811 43.7067C173.251 42.8444 173.632 41.9461 173.954 41.0121C174.044 40.7511 173.906 40.4664 173.645 40.3763C173.643 40.3757 173.641 40.375 173.639 40.3744C174.103 38.925 174.427 37.388 174.612 35.7634C174.613 35.7635 174.615 35.7637 174.616 35.7638C174.891 35.79 175.135 35.5884 175.161 35.3135C175.251 34.3726 175.296 33.4046 175.296 32.4098C175.296 31.4208 175.252 30.46 175.163 29.5274C175.137 29.2525 174.893 29.0508 174.618 29.077C174.616 29.0771 174.615 29.0773 174.613 29.0775C174.429 27.4622 174.107 25.9394 173.646 24.509C173.595 24.3499 173.542 24.1918 173.487 24.035C173.171 23.1284 172.797 22.26 172.366 21.4298L172.811 21.2028C172.811 21.2027 172.811 21.2026 172.811 21.2025C172.412 20.4185 171.974 19.6777 171.498 18.9804C171.343 18.7523 171.032 18.6936 170.804 18.8493C170.802 18.8505 170.8 18.8518 170.798 18.8531C169.993 17.7407 169.086 16.7514 168.074 15.8853C168.076 15.8834 168.077 15.8814 168.079 15.8795C168.252 15.6644 168.218 15.3496 168.003 15.1764C167.333 14.6367 166.621 14.1472 165.868 13.7079C165.097 13.258 164.294 12.8667 163.46 12.5341C163.204 12.4318 162.913 12.5567 162.811 12.8132C162.81 12.8154 162.809 12.8176 162.808 12.8197C161.521 12.3475 160.16 12.0147 158.724 11.8212C158.724 11.8193 158.724 11.8174 158.724 11.8155C158.755 11.541 158.557 11.2938 158.283 11.2633C157.421 11.1675 156.536 11.1198 155.626 11.1198C154.71 11.1198 153.818 11.1681 152.948 11.2651C152.673 11.2956 152.476 11.5429 152.506 11.8174C152.506 11.8193 152.507 11.8212 152.507 11.823C151.061 12.0178 149.686 12.3524 148.38 12.8271M165.874 51.2877L148.38 12.8271M138.35 21.2025C138.351 21.2015 138.352 21.2004 138.352 21.1994L138.796 21.4298M138.35 21.2025C138.35 21.2026 138.35 21.2027 138.35 21.2028L138.796 21.4298M138.35 21.2025C138.75 20.4185 139.187 19.6777 139.663 18.9804C139.819 18.7523 140.13 18.6936 140.358 18.8493C140.36 18.8505 140.362 18.8518 140.364 18.8531C140.266 18.9877 140.171 19.1241 140.076 19.2623C139.613 19.9412 139.186 20.6638 138.796 21.4298M148.38 12.8271C148.38 12.825 148.379 12.8229 148.378 12.8208C148.277 12.5639 147.986 12.4378 147.729 12.5391C146.89 12.8701 146.079 13.259 145.298 13.7056L145.294 13.7079C144.541 14.1472 143.829 14.6367 143.159 15.1764C142.944 15.3496 142.91 15.6644 143.083 15.8795C143.084 15.8814 143.086 15.8834 143.088 15.8853L148.38 12.8271ZM43.2025 51.8664L43.0861 51.5298H42.73H36.475C36.1988 51.5298 35.975 51.7536 35.975 52.0298H24.465C24.465 51.7536 24.2411 51.5298 23.965 51.5298H17.71H17.3538L17.2374 51.8664L16.2024 54.8589C16.1122 55.1198 16.2506 55.4046 16.5115 55.4948L14.7684 60.5348C14.5074 60.4445 14.2227 60.5829 14.1324 60.8439L13.2138 63.4998H10.2625C9.98632 63.4998 9.76247 63.7236 9.76247 63.9998H4.14747C4.14747 63.7236 3.92361 63.4998 3.64747 63.4998H1.05077L2.69305 58.9263C2.78637 58.6664 2.65134 58.38 2.39144 58.2867L5.81849 48.7429C6.07838 48.8362 6.36472 48.7012 6.45805 48.4413L10.223 37.9563C10.3164 37.6964 10.1813 37.41 9.92144 37.3167L13.3485 27.7729C13.6084 27.8662 13.8947 27.7312 13.988 27.4713L17.753 16.9863C17.8464 16.7264 17.7113 16.44 17.4514 16.3467L20.8785 6.80286C21.1384 6.89618 21.4247 6.76115 21.518 6.50126L23.2817 1.58978H26.5975C26.8736 1.58978 27.0975 1.36592 27.0975 1.08978H33.4325C33.4325 1.36592 33.6563 1.58978 33.9325 1.58978H37.2483L39.0119 6.50126C39.1052 6.76115 39.3916 6.89619 39.6514 6.80286L43.0785 16.3467C42.8186 16.44 42.6836 16.7264 42.7769 16.9863L46.5419 27.4713C46.6352 27.7312 46.9216 27.8662 47.1814 27.7729L50.6085 37.3167C50.3486 37.41 50.2136 37.6964 50.3069 37.9563L54.0719 48.4413C54.1652 48.7012 54.4516 48.8362 54.7114 48.7429L58.1385 58.2867C57.8786 58.38 57.7436 58.6664 57.8369 58.9263L59.4792 63.4998H56.86C56.5838 63.4998 56.36 63.7236 56.36 63.9998H50.7C50.7 63.7236 50.4761 63.4998 50.2 63.4998H47.2261L46.3075 60.8439C46.2172 60.5829 45.9325 60.4445 45.6715 60.5348L43.9284 55.4948C44.1894 55.4046 44.3278 55.1198 44.2375 54.8589L43.2025 51.8664ZM40.012 42.4498L39.7825 41.7863L37.51 35.2163C37.4197 34.9554 37.135 34.817 36.874 34.9073L32.6559 22.7123C32.9169 22.622 33.0553 22.3373 32.965 22.0763L30.6925 15.5063L30.22 14.1402L29.7474 15.5063L27.4749 22.0763C27.3847 22.3373 27.5231 22.622 27.784 22.7123L23.5659 34.9073C23.3049 34.817 23.0202 34.9554 22.9299 35.2163L20.6574 41.7863L20.428 42.4498H21.13H25.675C25.9511 42.4498 26.175 42.2259 26.175 41.9498H34.265C34.265 42.2259 34.4888 42.4498 34.765 42.4498H39.31H40.012ZM104.124 31.3029L104.182 32.2713C105.032 32.4298 105.842 32.6539 106.614 32.9431C106.87 33.039 107.154 32.9118 107.254 32.6587C108.559 33.2015 109.756 33.9326 110.847 34.8521C110.668 35.0571 110.686 35.3686 110.888 35.5519C111.498 36.1026 112.072 36.7184 112.612 37.4001C113.16 38.0928 113.64 38.8092 114.051 39.5492C114.183 39.7883 114.483 39.8759 114.724 39.7474C115.387 41.0391 115.857 42.4025 116.132 43.8375C115.864 43.8844 115.682 44.1384 115.725 44.4085C115.857 45.2427 115.924 46.1031 115.924 46.9898C115.924 47.773 115.877 48.5328 115.784 49.2696C115.749 49.5411 115.94 49.7893 116.21 49.8274C116.015 51.074 115.687 52.2588 115.227 53.3819C114.976 53.2743 114.685 53.3869 114.573 53.6362C114.264 54.3242 113.901 54.9877 113.485 55.6269L113.483 55.6294C113.075 56.2651 112.616 56.8653 112.109 57.4301C111.926 57.6333 111.941 57.9451 112.14 58.1305C111.308 58.9957 110.358 59.7756 109.289 60.4704C109.143 60.2394 108.839 60.1677 108.605 60.3106C107.973 60.6971 107.3 61.0556 106.584 61.3858C105.763 61.7651 104.899 62.0937 103.993 62.3713C103.731 62.4517 103.583 62.7282 103.66 62.9906C102.224 63.3967 100.691 63.6803 99.0608 63.8412C99.0361 63.568 98.7956 63.3654 98.5218 63.388C97.6198 63.4625 96.6872 63.4998 95.7238 63.4998H88.9513C88.6751 63.4998 88.4513 63.7236 88.4513 63.9998H75.9063C75.9063 63.7236 75.6824 63.4998 75.4063 63.4998H69.1338V58.7648C69.1338 58.4886 68.9099 58.2648 68.6338 58.2648V48.7948C68.9099 48.7948 69.1338 48.5709 69.1338 48.2948V37.8248C69.1338 37.5486 68.9099 37.3248 68.6338 37.3248V27.8548C68.9099 27.8548 69.1338 27.6309 69.1338 27.3548V16.8848C69.1338 16.6086 68.9099 16.3848 68.6338 16.3848V6.91478C68.9099 6.91478 69.1338 6.69093 69.1338 6.41478V1.67978H75.1138C75.3899 1.67978 75.6138 1.45593 75.6138 1.17978H87.5738C87.5738 1.45593 87.7977 1.67978 88.0738 1.67978H94.5538C95.5098 1.67978 96.434 1.71498 97.3264 1.78519C97.6004 1.80674 97.8402 1.60315 97.8638 1.3298C99.4824 1.48254 101 1.75191 102.415 2.13792C102.341 2.40109 102.491 2.67615 102.754 2.75408C103.658 3.0217 104.515 3.33899 105.328 3.70559L105.332 3.70705C106.04 4.02048 106.706 4.36166 107.329 4.7303C107.565 4.86969 107.868 4.79353 108.01 4.56061C109.068 5.22759 110.003 5.97891 110.817 6.81458C110.619 7.00074 110.605 7.31227 110.789 7.51469C111.289 8.06656 111.736 8.65412 112.132 9.27756L112.131 9.2776L112.136 9.28478C112.532 9.88651 112.878 10.508 113.174 11.1493C113.288 11.3975 113.58 11.5075 113.829 11.3978C114.266 12.4414 114.579 13.5355 114.768 14.6802C114.499 14.7202 114.31 14.9692 114.346 15.2403C114.438 15.9334 114.484 16.6464 114.484 17.3798C114.484 18.2092 114.432 19.0046 114.328 19.7664C114.291 20.0374 114.479 20.2873 114.748 20.3281C114.523 21.6701 114.137 22.9141 113.588 24.0603C113.346 23.9382 113.049 24.0325 112.922 24.2739C112.554 24.9705 112.122 25.6279 111.624 26.2463L111.62 26.2521C111.145 26.86 110.63 27.4219 110.073 27.938C109.872 28.1238 109.858 28.4355 110.04 28.6383C109.11 29.4427 108.074 30.1322 106.934 30.7069C106.815 30.4615 106.52 30.3563 106.272 30.472C105.594 30.7883 104.878 31.0653 104.124 31.3029ZM99.9996 25.5074L99.9997 25.5075L100.008 25.5004C100.463 25.1131 100.86 24.6823 101.197 24.2081C101.358 23.9831 101.305 23.6709 101.08 23.5107C101.075 23.507 101.07 23.5033 101.064 23.4998C101.443 22.8694 101.72 22.1668 101.893 21.392C101.898 21.3929 101.903 21.3937 101.908 21.3945C102.18 21.439 102.437 21.254 102.482 20.9815C102.57 20.4381 102.614 19.8673 102.614 19.2698C102.614 18.6722 102.57 18.1014 102.482 17.5581C102.437 17.2855 102.18 17.1006 101.908 17.145C101.903 17.1458 101.898 17.1467 101.893 17.1476C101.72 16.3728 101.443 15.6702 101.064 15.0398C101.07 15.0363 101.075 15.0326 101.08 15.0288C101.305 14.8686 101.358 14.5564 101.197 14.3315C100.86 13.8572 100.463 13.4264 100.008 13.0392C99.5161 12.6201 98.9669 12.2622 98.3622 11.9647C98.1144 11.8428 97.8147 11.9449 97.6928 12.1927C97.6906 12.1972 97.6885 12.2017 97.6864 12.2062C96.9141 11.8817 96.0496 11.6494 95.0929 11.5093C95.0933 11.5064 95.0936 11.5035 95.0939 11.5006C95.1241 11.2261 94.9261 10.9791 94.6516 10.9489C94.0494 10.8826 93.4166 10.8498 92.7538 10.8498H89.8738C89.5976 10.8498 89.3738 11.0736 89.3738 11.3498H84.6138C84.6138 11.0736 84.3899 10.8498 84.1138 10.8498H81.2338H80.7338V11.3498V15.2873C80.7338 15.5634 80.9576 15.7873 81.2338 15.7873V22.6623C80.9576 22.6623 80.7338 22.8861 80.7338 23.1623V27.0998V27.5998H81.2338H84.1138C84.3899 27.5998 84.6138 27.3759 84.6138 27.0998H89.3738C89.3738 27.3759 89.5976 27.5998 89.8738 27.5998H92.7538C93.4126 27.5998 94.0416 27.5687 94.6403 27.5061C94.9149 27.4773 95.1143 27.2314 95.0855 26.9567C95.0852 26.9539 95.0849 26.9511 95.0846 26.9483C96.0376 26.8155 96.8992 26.5951 97.6694 26.2874C97.6714 26.2918 97.6734 26.2963 97.6754 26.3007C97.7926 26.5508 98.0903 26.6586 98.3403 26.5414C98.9498 26.256 99.5036 25.9116 99.9996 25.5074ZM102.497 49.9195C102.917 49.2477 103.221 48.4964 103.411 47.6654C103.415 47.6663 103.42 47.6672 103.425 47.668C103.697 47.7137 103.955 47.53 104.001 47.2577C104.097 46.6874 104.144 46.0878 104.144 45.4598C104.144 44.8139 104.094 44.1969 103.994 43.6095C103.948 43.3373 103.689 43.1543 103.417 43.2007C103.413 43.2015 103.408 43.2023 103.403 43.2032C103.205 42.3398 102.885 41.5579 102.442 40.8576C102.447 40.8543 102.452 40.8508 102.457 40.8473C102.679 40.6835 102.727 40.3704 102.563 40.1481C102.194 39.6473 101.762 39.1909 101.268 38.7789C100.749 38.3299 100.182 37.9423 99.566 37.6164C99.3219 37.4872 99.0193 37.5802 98.8901 37.8243C98.888 37.8284 98.8859 37.8325 98.8838 37.8366C98.0452 37.4498 97.1175 37.1733 96.1007 37.0072C96.1011 37.0042 96.1015 37.0011 96.1019 36.9981C96.1362 36.7241 95.9419 36.4741 95.6679 36.4399C95.0261 36.3596 94.3546 36.3198 93.6538 36.3198H90.5488C90.2727 36.3198 90.0488 36.5436 90.0488 36.8198H84.8388C84.8388 36.5436 84.6149 36.3198 84.3388 36.3198H81.2338H80.7338V36.8198V41.0498C80.7338 41.3259 80.9576 41.5498 81.2338 41.5498V49.0098C80.9576 49.0098 80.7338 49.2336 80.7338 49.5098V53.7398V54.2398H81.2338H84.4063C84.6824 54.2398 84.9063 54.0159 84.9063 53.7398H90.2513C90.2513 54.0159 90.4752 54.2398 90.7513 54.2398H93.9238C94.6045 54.2398 95.2547 54.205 95.874 54.135C96.1484 54.1039 96.3456 53.8563 96.3146 53.5819C96.3143 53.579 96.3139 53.5761 96.3135 53.5732C97.3038 53.4253 98.1996 53.1788 99.0009 52.8338C99.003 52.8382 99.0051 52.8425 99.0073 52.8469C99.1309 53.0938 99.4313 53.1937 99.6782 53.0701C100.293 52.7625 100.852 52.3934 101.356 51.9624C101.838 51.563 102.259 51.1187 102.619 50.6292C102.782 50.4066 102.734 50.0937 102.512 49.9302C102.507 49.9265 102.502 49.9229 102.497 49.9195ZM125.613 44.6971C124.694 42.3399 124.062 39.8572 123.717 37.2489C123.989 37.2149 124.184 36.9674 124.151 36.6943C123.988 35.3032 123.906 33.8751 123.906 32.4098C123.906 30.959 123.988 29.5454 124.151 28.1689C124.184 27.8959 123.99 27.6482 123.718 27.6138C124.063 25.0352 124.694 22.582 125.612 20.2541C125.866 20.3568 126.156 20.2355 126.261 19.9816C126.8 18.679 127.432 17.4168 128.156 16.1947L128.157 16.1924C128.858 14.9962 129.618 13.8657 130.44 12.8005C130.608 12.5829 130.568 12.2709 130.352 12.1017C131.882 10.1824 133.613 8.47605 135.545 6.9827C135.711 7.2011 136.022 7.24516 136.243 7.08068C137.322 6.27371 138.465 5.53208 139.67 4.85585C140.891 4.17094 142.142 3.57258 143.422 3.0606C143.677 2.95853 143.802 2.66983 143.702 2.41433C146.01 1.53296 148.414 0.924535 150.912 0.589051C150.947 0.861328 151.194 1.05521 151.467 1.02266C152.824 0.860819 154.21 0.779785 155.626 0.779785C157.045 0.779785 158.432 0.859603 159.786 1.01899C160.059 1.05111 160.307 0.856824 160.341 0.584481C162.852 0.917472 165.257 1.52339 167.555 2.40226C167.455 2.65763 167.579 2.9464 167.834 3.0487C169.116 3.56302 170.365 4.16492 171.579 4.85457L171.581 4.85585C172.784 5.53036 173.921 6.26991 174.995 7.07441C175.215 7.23917 175.526 7.19553 175.693 6.9774C177.618 8.47006 179.335 10.1757 180.846 12.0942C180.629 12.2621 180.588 12.5738 180.755 12.7924C181.566 13.8587 182.316 14.9907 183.002 16.1884L183.006 16.1947C183.73 17.4168 184.361 18.679 184.9 19.9816C185.005 20.2355 185.295 20.3568 185.549 20.2541C186.467 22.582 187.099 25.0352 187.444 27.6138C187.172 27.6482 186.978 27.8959 187.01 28.1689C187.174 29.5454 187.256 30.959 187.256 32.4098C187.256 33.8751 187.174 35.3032 187.01 36.6943C186.978 36.9674 187.172 37.2149 187.445 37.2489C187.1 39.8572 186.468 42.3399 185.548 44.6971C185.294 44.5953 185.004 44.7178 184.9 44.9722C184.361 46.2909 183.729 47.5692 183.004 48.8072L183.003 48.8088C182.314 49.9963 181.562 51.1194 180.747 52.1782C180.579 52.3959 180.619 52.7078 180.835 52.8769C179.324 54.7737 177.606 56.4637 175.682 57.9471C175.517 57.7285 175.205 57.684 174.985 57.8482C173.914 58.6461 172.78 59.3813 171.581 60.0537C170.36 60.7386 169.11 61.337 167.83 61.849C167.575 61.951 167.45 62.2397 167.55 62.4952C165.241 63.3766 162.838 63.985 160.34 64.3205C160.305 64.0482 160.057 63.8544 159.784 63.8869C158.427 64.0487 157.041 64.1298 155.626 64.1298C154.21 64.1298 152.824 64.0487 151.467 63.8869C151.194 63.8544 150.947 64.0482 150.912 64.3205C148.414 63.985 146.01 63.3766 143.702 62.4952C143.802 62.2397 143.677 61.951 143.422 61.849C142.142 61.337 140.891 60.7386 139.67 60.0537C138.469 59.3796 137.33 58.6423 136.253 57.8419C136.032 57.678 135.721 57.7229 135.555 57.9418C133.624 56.4577 131.894 54.7669 130.364 52.8693C130.579 52.6989 130.617 52.3867 130.448 52.17C129.623 51.1128 128.859 49.9918 128.157 48.8066C127.432 47.5687 126.801 46.2906 126.262 44.9722C126.158 44.7178 125.868 44.5953 125.613 44.6971ZM212.522 50.2186L212.526 50.2233C213.159 50.8556 213.861 51.4021 214.632 51.8623C214.869 52.0038 215.176 51.9264 215.317 51.6893C215.319 51.6859 215.321 51.6825 215.323 51.6791C216.466 52.2908 217.759 52.7179 219.201 52.9605C219.201 52.9631 219.201 52.9657 219.2 52.9682C219.163 53.2418 219.355 53.4938 219.628 53.5311C220.456 53.6438 221.327 53.6998 222.24 53.6998C223.16 53.6998 224.038 53.6445 224.872 53.5331C225.146 53.4966 225.338 53.245 225.301 52.9713C225.301 52.9688 225.301 52.9663 225.3 52.9638C226.764 52.7226 228.072 52.2965 229.225 51.6855C229.227 51.6889 229.229 51.6923 229.231 51.6957C229.372 51.9334 229.678 52.0122 229.916 51.8716C230.697 51.4096 231.407 50.86 232.043 50.2234L232.048 50.2186C232.693 49.5562 233.248 48.8147 233.713 47.9956C233.85 47.7554 233.765 47.4502 233.525 47.3139C233.522 47.312 233.519 47.3102 233.515 47.3084C234.127 46.1073 234.552 44.7397 234.791 43.2057C234.793 43.206 234.796 43.2063 234.798 43.2066C235.072 43.2413 235.322 43.0474 235.357 42.7734C235.466 41.9142 235.52 41.0095 235.52 40.0598V35.1998C235.52 34.9236 235.296 34.6998 235.02 34.6998V25.9798C235.296 25.9798 235.52 25.7559 235.52 25.4798V15.7598C235.52 15.4836 235.296 15.2598 235.02 15.2598V6.53978C235.296 6.53978 235.52 6.31593 235.52 6.03978V1.67978H238.192C238.469 1.67978 238.692 1.45593 238.692 1.17978H244.037C244.037 1.45593 244.261 1.67978 244.537 1.67978H247.21V6.02853C247.21 6.30467 247.434 6.52853 247.71 6.52853V15.226C247.434 15.226 247.21 15.4499 247.21 15.726V25.4235C247.21 25.6997 247.434 25.9235 247.71 25.9235V34.621C247.434 34.621 247.21 34.8449 247.21 35.121V39.9698C247.21 41.1792 247.149 42.3446 247.028 43.4663C246.998 43.7394 247.195 43.9849 247.467 44.0167C247.201 46.1419 246.715 48.1155 246.011 49.9377C245.757 49.8362 245.468 49.9578 245.364 50.2112C244.916 51.2961 244.387 52.3234 243.777 53.2936L243.775 53.2954C243.223 54.1827 242.622 55.015 241.973 55.7926C241.798 56.0032 241.825 56.3156 242.033 56.4932C240.864 57.8303 239.55 59.0044 238.088 60.0156C237.935 59.7889 237.628 59.727 237.399 59.8778C236.553 60.4346 235.659 60.9382 234.715 61.3885L234.712 61.3898C233.737 61.8619 232.733 62.2731 231.698 62.6232C231.438 62.7113 231.298 62.9924 231.384 63.2528C229.629 63.811 227.792 64.1995 225.873 64.4183C225.844 64.1454 225.6 63.9465 225.327 63.9734C224.264 64.0776 223.175 64.1298 222.06 64.1298C220.954 64.1298 219.872 64.0771 218.816 63.9719C218.542 63.9447 218.298 64.1432 218.269 64.4159C216.371 64.1961 214.549 63.8069 212.804 63.2483C212.89 62.9881 212.751 62.7067 212.491 62.6182C211.466 62.2693 210.468 61.8599 209.498 61.3901C208.579 60.9373 207.707 60.4305 206.883 59.8698C206.656 59.7156 206.348 59.7728 206.192 59.997C204.78 58.987 203.509 57.8151 202.378 56.4812C202.588 56.3068 202.62 55.9948 202.447 55.7816C201.822 55.0089 201.242 54.1823 200.708 53.3014C200.126 52.3256 199.621 51.2917 199.195 50.1993C199.095 49.9437 198.808 49.8166 198.552 49.9134C197.888 48.0939 197.43 46.1237 197.179 44.0025C197.451 43.9725 197.649 43.7281 197.621 43.4547C197.507 42.3365 197.45 41.1749 197.45 39.9698V35.121C197.45 34.8449 197.226 34.621 196.95 34.621V25.9235C197.226 25.9235 197.45 25.6997 197.45 25.4235V15.726C197.45 15.4499 197.226 15.226 196.95 15.226V6.52853C197.226 6.52853 197.45 6.30468 197.45 6.02853V1.67978H200.1C200.376 1.67978 200.6 1.45593 200.6 1.17978H205.9C205.9 1.45593 206.124 1.67978 206.4 1.67978H209.05V6.03978C209.05 6.31593 209.274 6.53978 209.55 6.53978V15.2598C209.274 15.2598 209.05 15.4836 209.05 15.7598V25.4798C209.05 25.7559 209.274 25.9798 209.55 25.9798V34.6998C209.274 34.6998 209.05 34.9236 209.05 35.1998V40.0598C209.05 41.0095 209.104 41.9142 209.213 42.7734C209.248 43.0474 209.498 43.2413 209.772 43.2066C209.774 43.2063 209.776 43.206 209.779 43.2057C210.017 44.7397 210.443 46.1073 211.055 47.3084C211.051 47.3102 211.048 47.312 211.045 47.3139C210.804 47.4502 210.72 47.7554 210.857 47.9956C211.322 48.8147 211.877 49.5562 212.522 50.2186ZM296.374 1.17978C296.374 1.45593 296.598 1.67978 296.874 1.67978H302.134V3.72228C302.134 3.99843 302.358 4.22228 302.634 4.22228V8.30728C302.358 8.30728 302.134 8.53114 302.134 8.80728V10.8498H298.449C298.173 10.8498 297.949 11.0736 297.949 11.3498H290.579C290.579 11.0736 290.355 10.8498 290.079 10.8498H285.894H285.394V11.3498V15.7373C285.394 16.0134 285.618 16.2373 285.894 16.2373V24.0123C285.618 24.0123 285.394 24.2361 285.394 24.5123V33.2873C285.394 33.5634 285.618 33.7873 285.894 33.7873V41.5623C285.618 41.5623 285.394 41.7861 285.394 42.0623V50.8373C285.394 51.1134 285.618 51.3373 285.894 51.3373V59.1123C285.618 59.1123 285.394 59.3361 285.394 59.6123V63.4998H282.744C282.468 63.4998 282.244 63.7236 282.244 63.9998H276.944C276.944 63.7236 276.72 63.4998 276.444 63.4998H273.794V59.6123C273.794 59.3361 273.57 59.1123 273.294 59.1123V51.3373C273.57 51.3373 273.794 51.1134 273.794 50.8373V42.0623C273.794 41.7861 273.57 41.5623 273.294 41.5623V33.7873C273.57 33.7873 273.794 33.5634 273.794 33.2873V24.5123C273.794 24.2361 273.57 24.0123 273.294 24.0123V16.2373C273.57 16.2373 273.794 16.0134 273.794 15.7373V11.3498V10.8498H273.294H269.109C268.833 10.8498 268.609 11.0736 268.609 11.3498H261.239C261.239 11.0736 261.015 10.8498 260.739 10.8498H257.054V8.80728C257.054 8.53114 256.83 8.30728 256.554 8.30728V4.22228C256.83 4.22228 257.054 3.99843 257.054 3.72228V1.67978H262.314C262.59 1.67978 262.814 1.45593 262.814 1.17978H273.334C273.334 1.45593 273.558 1.67978 273.834 1.67978H285.354C285.63 1.67978 285.854 1.45593 285.854 1.17978H296.374Z" stroke="white" stroke-linecap="round" stroke-dasharray="10 10"/>
</svg>
