<svg width="438" height="65" viewBox="0 0 438 65" fill="none" xmlns="http://www.w3.org/2000/svg">
<g opacity="0.33">
<mask id="path-1-inside-1" fill="white">
<path d="M0.150024 32.4998C0.150024 26.3198 1.53002 20.7998 4.29002 15.9398C7.11002 11.0198 10.92 7.20978 15.72 4.50978C20.58 1.74978 26.01 0.369784 32.01 0.369784C39.03 0.369784 45.18 2.16978 50.46 5.76978C55.74 9.36978 59.43 14.3498 61.53 20.7098H47.04C45.6 17.7098 43.56 15.4598 40.92 13.9598C38.34 12.4598 35.34 11.7098 31.92 11.7098C28.26 11.7098 24.99 12.5798 22.11 14.3198C19.29 15.9998 17.07 18.3998 15.45 21.5198C13.89 24.6398 13.11 28.2998 13.11 32.4998C13.11 36.6398 13.89 40.2998 15.45 43.4798C17.07 46.5998 19.29 49.0298 22.11 50.7698C24.99 52.4498 28.26 53.2898 31.92 53.2898C35.34 53.2898 38.34 52.5398 40.92 51.0398C43.56 49.4798 45.6 47.1998 47.04 44.1998H61.53C59.43 50.6198 55.74 55.6298 50.46 59.2298C45.24 62.7698 39.09 64.5398 32.01 64.5398C26.01 64.5398 20.58 63.1898 15.72 60.4898C10.92 57.7298 7.11002 53.9198 4.29002 49.0598C1.53002 44.1998 0.150024 38.6798 0.150024 32.4998ZM101.452 64.6298C95.5721 64.6298 90.1721 63.2498 85.2521 60.4898C80.3321 57.7298 76.4321 53.9198 73.5521 49.0598C70.6721 44.1398 69.2321 38.5898 69.2321 32.4098C69.2321 26.2898 70.6721 20.7998 73.5521 15.9398C76.4321 11.0198 80.3321 7.17978 85.2521 4.41978C90.1721 1.65978 95.5721 0.279785 101.452 0.279785C107.392 0.279785 112.792 1.65978 117.652 4.41978C122.572 7.17978 126.442 11.0198 129.262 15.9398C132.142 20.7998 133.582 26.2898 133.582 32.4098C133.582 38.5898 132.142 44.1398 129.262 49.0598C126.442 53.9198 122.572 57.7298 117.652 60.4898C112.732 63.2498 107.332 64.6298 101.452 64.6298ZM101.452 53.3798C105.232 53.3798 108.562 52.5398 111.442 50.8598C114.322 49.1198 116.572 46.6598 118.192 43.4798C119.812 40.2998 120.622 36.6098 120.622 32.4098C120.622 28.2098 119.812 24.5498 118.192 21.4298C116.572 18.2498 114.322 15.8198 111.442 14.1398C108.562 12.4598 105.232 11.6198 101.452 11.6198C97.6721 11.6198 94.3121 12.4598 91.3721 14.1398C88.4921 15.8198 86.2421 18.2498 84.6221 21.4298C83.0021 24.5498 82.1921 28.2098 82.1921 32.4098C82.1921 36.6098 83.0021 40.2998 84.6221 43.4798C86.2421 46.6598 88.4921 49.1198 91.3721 50.8598C94.3121 52.5398 97.6721 53.3798 101.452 53.3798ZM196.686 63.9998H184.086L155.556 20.8898V63.9998H142.956V1.08978H155.556L184.086 44.2898V1.08978H196.686V63.9998ZM251.888 1.17978V11.3498H235.148V63.9998H222.548V11.3498H205.808V1.17978H251.888ZM299.601 52.0298H274.581L270.441 63.9998H257.211L279.801 1.08978H294.471L317.061 63.9998H303.741L299.601 52.0298ZM296.181 41.9498L287.091 15.6698L278.001 41.9498H296.181ZM322.445 32.4998C322.445 26.3198 323.825 20.7998 326.585 15.9398C329.405 11.0198 333.215 7.20978 338.015 4.50978C342.875 1.74978 348.305 0.369784 354.305 0.369784C361.325 0.369784 367.475 2.16978 372.755 5.76978C378.035 9.36978 381.725 14.3498 383.825 20.7098H369.335C367.895 17.7098 365.855 15.4598 363.215 13.9598C360.635 12.4598 357.635 11.7098 354.215 11.7098C350.555 11.7098 347.285 12.5798 344.405 14.3198C341.585 15.9998 339.365 18.3998 337.745 21.5198C336.185 24.6398 335.405 28.2998 335.405 32.4998C335.405 36.6398 336.185 40.2998 337.745 43.4798C339.365 46.5998 341.585 49.0298 344.405 50.7698C347.285 52.4498 350.555 53.2898 354.215 53.2898C357.635 53.2898 360.635 52.5398 363.215 51.0398C365.855 49.4798 367.895 47.1998 369.335 44.1998H383.825C381.725 50.6198 378.035 55.6298 372.755 59.2298C367.535 62.7698 361.385 64.5398 354.305 64.5398C348.305 64.5398 342.875 63.1898 338.015 60.4898C333.215 57.7298 329.405 53.9198 326.585 49.0598C323.825 44.1998 322.445 38.6798 322.445 32.4998ZM437.337 1.17978V11.3498H420.597V63.9998H407.997V11.3498H391.257V1.17978H437.337Z"/>
</mask>
<path d="M0.150024 32.4998C0.150024 26.3198 1.53002 20.7998 4.29002 15.9398C7.11002 11.0198 10.92 7.20978 15.72 4.50978C20.58 1.74978 26.01 0.369784 32.01 0.369784C39.03 0.369784 45.18 2.16978 50.46 5.76978C55.74 9.36978 59.43 14.3498 61.53 20.7098H47.04C45.6 17.7098 43.56 15.4598 40.92 13.9598C38.34 12.4598 35.34 11.7098 31.92 11.7098C28.26 11.7098 24.99 12.5798 22.11 14.3198C19.29 15.9998 17.07 18.3998 15.45 21.5198C13.89 24.6398 13.11 28.2998 13.11 32.4998C13.11 36.6398 13.89 40.2998 15.45 43.4798C17.07 46.5998 19.29 49.0298 22.11 50.7698C24.99 52.4498 28.26 53.2898 31.92 53.2898C35.34 53.2898 38.34 52.5398 40.92 51.0398C43.56 49.4798 45.6 47.1998 47.04 44.1998H61.53C59.43 50.6198 55.74 55.6298 50.46 59.2298C45.24 62.7698 39.09 64.5398 32.01 64.5398C26.01 64.5398 20.58 63.1898 15.72 60.4898C10.92 57.7298 7.11002 53.9198 4.29002 49.0598C1.53002 44.1998 0.150024 38.6798 0.150024 32.4998ZM101.452 64.6298C95.5721 64.6298 90.1721 63.2498 85.2521 60.4898C80.3321 57.7298 76.4321 53.9198 73.5521 49.0598C70.6721 44.1398 69.2321 38.5898 69.2321 32.4098C69.2321 26.2898 70.6721 20.7998 73.5521 15.9398C76.4321 11.0198 80.3321 7.17978 85.2521 4.41978C90.1721 1.65978 95.5721 0.279785 101.452 0.279785C107.392 0.279785 112.792 1.65978 117.652 4.41978C122.572 7.17978 126.442 11.0198 129.262 15.9398C132.142 20.7998 133.582 26.2898 133.582 32.4098C133.582 38.5898 132.142 44.1398 129.262 49.0598C126.442 53.9198 122.572 57.7298 117.652 60.4898C112.732 63.2498 107.332 64.6298 101.452 64.6298ZM101.452 53.3798C105.232 53.3798 108.562 52.5398 111.442 50.8598C114.322 49.1198 116.572 46.6598 118.192 43.4798C119.812 40.2998 120.622 36.6098 120.622 32.4098C120.622 28.2098 119.812 24.5498 118.192 21.4298C116.572 18.2498 114.322 15.8198 111.442 14.1398C108.562 12.4598 105.232 11.6198 101.452 11.6198C97.6721 11.6198 94.3121 12.4598 91.3721 14.1398C88.4921 15.8198 86.2421 18.2498 84.6221 21.4298C83.0021 24.5498 82.1921 28.2098 82.1921 32.4098C82.1921 36.6098 83.0021 40.2998 84.6221 43.4798C86.2421 46.6598 88.4921 49.1198 91.3721 50.8598C94.3121 52.5398 97.6721 53.3798 101.452 53.3798ZM196.686 63.9998H184.086L155.556 20.8898V63.9998H142.956V1.08978H155.556L184.086 44.2898V1.08978H196.686V63.9998ZM251.888 1.17978V11.3498H235.148V63.9998H222.548V11.3498H205.808V1.17978H251.888ZM299.601 52.0298H274.581L270.441 63.9998H257.211L279.801 1.08978H294.471L317.061 63.9998H303.741L299.601 52.0298ZM296.181 41.9498L287.091 15.6698L278.001 41.9498H296.181ZM322.445 32.4998C322.445 26.3198 323.825 20.7998 326.585 15.9398C329.405 11.0198 333.215 7.20978 338.015 4.50978C342.875 1.74978 348.305 0.369784 354.305 0.369784C361.325 0.369784 367.475 2.16978 372.755 5.76978C378.035 9.36978 381.725 14.3498 383.825 20.7098H369.335C367.895 17.7098 365.855 15.4598 363.215 13.9598C360.635 12.4598 357.635 11.7098 354.215 11.7098C350.555 11.7098 347.285 12.5798 344.405 14.3198C341.585 15.9998 339.365 18.3998 337.745 21.5198C336.185 24.6398 335.405 28.2998 335.405 32.4998C335.405 36.6398 336.185 40.2998 337.745 43.4798C339.365 46.5998 341.585 49.0298 344.405 50.7698C347.285 52.4498 350.555 53.2898 354.215 53.2898C357.635 53.2898 360.635 52.5398 363.215 51.0398C365.855 49.4798 367.895 47.1998 369.335 44.1998H383.825C381.725 50.6198 378.035 55.6298 372.755 59.2298C367.535 62.7698 361.385 64.5398 354.305 64.5398C348.305 64.5398 342.875 63.1898 338.015 60.4898C333.215 57.7298 329.405 53.9198 326.585 49.0598C323.825 44.1998 322.445 38.6798 322.445 32.4998ZM437.337 1.17978V11.3498H420.597V63.9998H407.997V11.3498H391.257V1.17978H437.337Z" stroke="white" stroke-width="2" stroke-linecap="round" stroke-dasharray="10 10" mask="url(#path-1-inside-1)"/>
</g>
</svg>
