<svg width="375" height="65" viewBox="0 0 375 65" fill="none" xmlns="http://www.w3.org/2000/svg">
<g opacity="0.33">
<mask id="path-1-inside-1" fill="white">
<path d="M52.32 1.17978V63.9998H39.72V37.2698H12.81V63.9998H0.209961V1.17978H12.81V27.0098H39.72V1.17978H52.32ZM77.3217 1.17978V63.9998H64.7217V1.17978H77.3217ZM111.461 64.6298C107.081 64.6298 103.121 63.8798 99.5805 62.3798C96.1005 60.8798 93.3405 58.7198 91.3005 55.8998C89.2605 53.0798 88.2105 49.7498 88.1505 45.9098H101.651C101.831 48.4898 102.731 50.5298 104.351 52.0298C106.031 53.5298 108.311 54.2798 111.191 54.2798C114.131 54.2798 116.441 53.5898 118.121 52.2098C119.801 50.7698 120.641 48.9098 120.641 46.6298C120.641 44.7698 120.071 43.2398 118.931 42.0398C117.791 40.8398 116.351 39.9098 114.611 39.2498C112.931 38.5298 110.591 37.7498 107.591 36.9098C103.511 35.7098 100.181 34.5398 97.6005 33.3998C95.0805 32.1998 92.8905 30.4298 91.0305 28.0898C89.2305 25.6898 88.3305 22.5098 88.3305 18.5498C88.3305 14.8298 89.2605 11.5898 91.1205 8.82978C92.9805 6.06978 95.5905 3.96978 98.9505 2.52978C102.311 1.02978 106.151 0.279785 110.471 0.279785C116.951 0.279785 122.201 1.86978 126.221 5.04978C130.301 8.16978 132.551 12.5498 132.971 18.1898H119.111C118.991 16.0298 118.061 14.2598 116.321 12.8798C114.641 11.4398 112.391 10.7198 109.571 10.7198C107.111 10.7198 105.131 11.3498 103.631 12.6098C102.191 13.8698 101.471 15.6998 101.471 18.0998C101.471 19.7798 102.011 21.1898 103.091 22.3298C104.231 23.4098 105.611 24.3098 107.231 25.0298C108.911 25.6898 111.251 26.4698 114.251 27.3698C118.331 28.5698 121.661 29.7698 124.241 30.9698C126.821 32.1698 129.041 33.9698 130.901 36.3698C132.761 38.7698 133.691 41.9198 133.691 45.8198C133.691 49.1798 132.821 52.2998 131.081 55.1798C129.341 58.0598 126.791 60.3698 123.431 62.1098C120.071 63.7898 116.081 64.6298 111.461 64.6298ZM187.364 1.17978V11.3498H170.624V63.9998H158.024V11.3498H141.284V1.17978H187.364ZM225.718 64.6298C219.838 64.6298 214.438 63.2498 209.518 60.4898C204.598 57.7298 200.698 53.9198 197.818 49.0598C194.938 44.1398 193.498 38.5898 193.498 32.4098C193.498 26.2898 194.938 20.7998 197.818 15.9398C200.698 11.0198 204.598 7.17978 209.518 4.41978C214.438 1.65978 219.838 0.279785 225.718 0.279785C231.658 0.279785 237.058 1.65978 241.918 4.41978C246.838 7.17978 250.708 11.0198 253.528 15.9398C256.408 20.7998 257.848 26.2898 257.848 32.4098C257.848 38.5898 256.408 44.1398 253.528 49.0598C250.708 53.9198 246.838 57.7298 241.918 60.4898C236.998 63.2498 231.598 64.6298 225.718 64.6298ZM225.718 53.3798C229.498 53.3798 232.828 52.5398 235.708 50.8598C238.588 49.1198 240.838 46.6598 242.458 43.4798C244.078 40.2998 244.888 36.6098 244.888 32.4098C244.888 28.2098 244.078 24.5498 242.458 21.4298C240.838 18.2498 238.588 15.8198 235.708 14.1398C232.828 12.4598 229.498 11.6198 225.718 11.6198C221.938 11.6198 218.578 12.4598 215.638 14.1398C212.758 15.8198 210.508 18.2498 208.888 21.4298C207.268 24.5498 206.458 28.2098 206.458 32.4098C206.458 36.6098 207.268 40.2998 208.888 43.4798C210.508 46.6598 212.758 49.1198 215.638 50.8598C218.578 52.5398 221.938 53.3798 225.718 53.3798ZM299.622 63.9998L285.762 39.5198H279.822V63.9998H267.222V1.17978H290.802C295.662 1.17978 299.802 2.04978 303.222 3.78978C306.642 5.46978 309.192 7.77978 310.872 10.7198C312.612 13.5998 313.482 16.8398 313.482 20.4398C313.482 24.5798 312.282 28.3298 309.882 31.6898C307.482 34.9898 303.912 37.2698 299.172 38.5298L314.202 63.9998H299.622ZM279.822 30.0698H290.352C293.772 30.0698 296.322 29.2598 298.002 27.6398C299.682 25.9598 300.522 23.6498 300.522 20.7098C300.522 17.8298 299.682 15.6098 298.002 14.0498C296.322 12.4298 293.772 11.6198 290.352 11.6198H279.822V30.0698ZM374.828 1.17978L353.588 42.1298V63.9998H340.988V42.1298L319.658 1.17978H333.878L347.378 29.8898L360.788 1.17978H374.828Z"/>
</mask>
<path d="M52.32 1.17978V63.9998H39.72V37.2698H12.81V63.9998H0.209961V1.17978H12.81V27.0098H39.72V1.17978H52.32ZM77.3217 1.17978V63.9998H64.7217V1.17978H77.3217ZM111.461 64.6298C107.081 64.6298 103.121 63.8798 99.5805 62.3798C96.1005 60.8798 93.3405 58.7198 91.3005 55.8998C89.2605 53.0798 88.2105 49.7498 88.1505 45.9098H101.651C101.831 48.4898 102.731 50.5298 104.351 52.0298C106.031 53.5298 108.311 54.2798 111.191 54.2798C114.131 54.2798 116.441 53.5898 118.121 52.2098C119.801 50.7698 120.641 48.9098 120.641 46.6298C120.641 44.7698 120.071 43.2398 118.931 42.0398C117.791 40.8398 116.351 39.9098 114.611 39.2498C112.931 38.5298 110.591 37.7498 107.591 36.9098C103.511 35.7098 100.181 34.5398 97.6005 33.3998C95.0805 32.1998 92.8905 30.4298 91.0305 28.0898C89.2305 25.6898 88.3305 22.5098 88.3305 18.5498C88.3305 14.8298 89.2605 11.5898 91.1205 8.82978C92.9805 6.06978 95.5905 3.96978 98.9505 2.52978C102.311 1.02978 106.151 0.279785 110.471 0.279785C116.951 0.279785 122.201 1.86978 126.221 5.04978C130.301 8.16978 132.551 12.5498 132.971 18.1898H119.111C118.991 16.0298 118.061 14.2598 116.321 12.8798C114.641 11.4398 112.391 10.7198 109.571 10.7198C107.111 10.7198 105.131 11.3498 103.631 12.6098C102.191 13.8698 101.471 15.6998 101.471 18.0998C101.471 19.7798 102.011 21.1898 103.091 22.3298C104.231 23.4098 105.611 24.3098 107.231 25.0298C108.911 25.6898 111.251 26.4698 114.251 27.3698C118.331 28.5698 121.661 29.7698 124.241 30.9698C126.821 32.1698 129.041 33.9698 130.901 36.3698C132.761 38.7698 133.691 41.9198 133.691 45.8198C133.691 49.1798 132.821 52.2998 131.081 55.1798C129.341 58.0598 126.791 60.3698 123.431 62.1098C120.071 63.7898 116.081 64.6298 111.461 64.6298ZM187.364 1.17978V11.3498H170.624V63.9998H158.024V11.3498H141.284V1.17978H187.364ZM225.718 64.6298C219.838 64.6298 214.438 63.2498 209.518 60.4898C204.598 57.7298 200.698 53.9198 197.818 49.0598C194.938 44.1398 193.498 38.5898 193.498 32.4098C193.498 26.2898 194.938 20.7998 197.818 15.9398C200.698 11.0198 204.598 7.17978 209.518 4.41978C214.438 1.65978 219.838 0.279785 225.718 0.279785C231.658 0.279785 237.058 1.65978 241.918 4.41978C246.838 7.17978 250.708 11.0198 253.528 15.9398C256.408 20.7998 257.848 26.2898 257.848 32.4098C257.848 38.5898 256.408 44.1398 253.528 49.0598C250.708 53.9198 246.838 57.7298 241.918 60.4898C236.998 63.2498 231.598 64.6298 225.718 64.6298ZM225.718 53.3798C229.498 53.3798 232.828 52.5398 235.708 50.8598C238.588 49.1198 240.838 46.6598 242.458 43.4798C244.078 40.2998 244.888 36.6098 244.888 32.4098C244.888 28.2098 244.078 24.5498 242.458 21.4298C240.838 18.2498 238.588 15.8198 235.708 14.1398C232.828 12.4598 229.498 11.6198 225.718 11.6198C221.938 11.6198 218.578 12.4598 215.638 14.1398C212.758 15.8198 210.508 18.2498 208.888 21.4298C207.268 24.5498 206.458 28.2098 206.458 32.4098C206.458 36.6098 207.268 40.2998 208.888 43.4798C210.508 46.6598 212.758 49.1198 215.638 50.8598C218.578 52.5398 221.938 53.3798 225.718 53.3798ZM299.622 63.9998L285.762 39.5198H279.822V63.9998H267.222V1.17978H290.802C295.662 1.17978 299.802 2.04978 303.222 3.78978C306.642 5.46978 309.192 7.77978 310.872 10.7198C312.612 13.5998 313.482 16.8398 313.482 20.4398C313.482 24.5798 312.282 28.3298 309.882 31.6898C307.482 34.9898 303.912 37.2698 299.172 38.5298L314.202 63.9998H299.622ZM279.822 30.0698H290.352C293.772 30.0698 296.322 29.2598 298.002 27.6398C299.682 25.9598 300.522 23.6498 300.522 20.7098C300.522 17.8298 299.682 15.6098 298.002 14.0498C296.322 12.4298 293.772 11.6198 290.352 11.6198H279.822V30.0698ZM374.828 1.17978L353.588 42.1298V63.9998H340.988V42.1298L319.658 1.17978H333.878L347.378 29.8898L360.788 1.17978H374.828Z" stroke="white" stroke-width="2" stroke-linecap="round" stroke-dasharray="10 10" mask="url(#path-1-inside-1)"/>
</g>
</svg>
