<svg width="410" height="65" viewBox="0 0 410 65" fill="none" xmlns="http://www.w3.org/2000/svg">
<g opacity="0.33">
<mask id="path-1-inside-1" fill="white">
<path d="M39.84 1.17978V45.2798C39.84 51.3998 38.07 56.1698 34.53 59.5898C30.99 62.9498 26.25 64.6298 20.31 64.6298C14.31 64.6298 9.44999 62.8898 5.72999 59.4098C2.06999 55.9298 0.23999 51.0698 0.23999 44.8298H12.84C12.9 47.5298 13.53 49.6298 14.73 51.1298C15.99 52.6298 17.79 53.3798 20.13 53.3798C22.41 53.3798 24.15 52.6598 25.35 51.2198C26.55 49.7798 27.15 47.7998 27.15 45.2798V1.17978H39.84ZM83.6981 64.6298C77.8181 64.6298 72.4181 63.2498 67.4981 60.4898C62.5781 57.7298 58.6781 53.9198 55.7981 49.0598C52.9181 44.1398 51.4781 38.5898 51.4781 32.4098C51.4781 26.2898 52.9181 20.7998 55.7981 15.9398C58.6781 11.0198 62.5781 7.17978 67.4981 4.41978C72.4181 1.65978 77.8181 0.279785 83.6981 0.279785C89.6381 0.279785 95.0381 1.65978 99.8981 4.41978C104.818 7.17978 108.688 11.0198 111.508 15.9398C114.388 20.7998 115.828 26.2898 115.828 32.4098C115.828 38.5898 114.388 44.1398 111.508 49.0598C108.688 53.9198 104.818 57.7298 99.8981 60.4898C94.9781 63.2498 89.5781 64.6298 83.6981 64.6298ZM83.6981 53.3798C87.4781 53.3798 90.8081 52.5398 93.6881 50.8598C96.5681 49.1198 98.8181 46.6598 100.438 43.4798C102.058 40.2998 102.868 36.6098 102.868 32.4098C102.868 28.2098 102.058 24.5498 100.438 21.4298C98.8181 18.2498 96.5681 15.8198 93.6881 14.1398C90.8081 12.4598 87.4781 11.6198 83.6981 11.6198C79.9181 11.6198 76.5581 12.4598 73.6181 14.1398C70.7381 15.8198 68.4881 18.2498 66.8681 21.4298C65.2481 24.5498 64.4381 28.2098 64.4381 32.4098C64.4381 36.6098 65.2481 40.2998 66.8681 43.4798C68.4881 46.6598 70.7381 49.1198 73.6181 50.8598C76.5581 52.5398 79.9181 53.3798 83.6981 53.3798ZM137.622 1.17978V40.0598C137.622 44.3198 138.732 47.5898 140.952 49.8698C143.172 52.0898 146.292 53.1998 150.312 53.1998C154.392 53.1998 157.542 52.0898 159.762 49.8698C161.982 47.5898 163.092 44.3198 163.092 40.0598V1.17978H175.782V39.9698C175.782 45.3098 174.612 49.8398 172.272 53.5598C169.992 57.2198 166.902 59.9798 163.002 61.8398C159.162 63.6998 154.872 64.6298 150.132 64.6298C145.452 64.6298 141.192 63.6998 137.352 61.8398C133.572 59.9798 130.572 57.2198 128.352 53.5598C126.132 49.8398 125.022 45.3098 125.022 39.9698V1.17978H137.622ZM220.356 63.9998L206.496 39.5198H200.556V63.9998H187.956V1.17978H211.536C216.396 1.17978 220.536 2.04978 223.956 3.78978C227.376 5.46978 229.926 7.77978 231.606 10.7198C233.346 13.5998 234.216 16.8398 234.216 20.4398C234.216 24.5798 233.016 28.3298 230.616 31.6898C228.216 34.9898 224.646 37.2698 219.906 38.5298L234.936 63.9998H220.356ZM200.556 30.0698H211.086C214.506 30.0698 217.056 29.2598 218.736 27.6398C220.416 25.9598 221.256 23.6498 221.256 20.7098C221.256 17.8298 220.416 15.6098 218.736 14.0498C217.056 12.4298 214.506 11.6198 211.086 11.6198H200.556V30.0698ZM299.342 63.9998H286.742L258.212 20.8898V63.9998H245.612V1.08978H258.212L286.742 44.2898V1.08978H299.342V63.9998ZM324.394 11.3498V27.0998H345.544V37.0898H324.394V53.7398H348.244V63.9998H311.794V1.08978H348.244V11.3498H324.394ZM409.644 1.17978L388.404 42.1298V63.9998H375.804V42.1298L354.474 1.17978H368.694L382.194 29.8898L395.604 1.17978H409.644Z"/>
</mask>
<path d="M39.84 1.17978V45.2798C39.84 51.3998 38.07 56.1698 34.53 59.5898C30.99 62.9498 26.25 64.6298 20.31 64.6298C14.31 64.6298 9.44999 62.8898 5.72999 59.4098C2.06999 55.9298 0.23999 51.0698 0.23999 44.8298H12.84C12.9 47.5298 13.53 49.6298 14.73 51.1298C15.99 52.6298 17.79 53.3798 20.13 53.3798C22.41 53.3798 24.15 52.6598 25.35 51.2198C26.55 49.7798 27.15 47.7998 27.15 45.2798V1.17978H39.84ZM83.6981 64.6298C77.8181 64.6298 72.4181 63.2498 67.4981 60.4898C62.5781 57.7298 58.6781 53.9198 55.7981 49.0598C52.9181 44.1398 51.4781 38.5898 51.4781 32.4098C51.4781 26.2898 52.9181 20.7998 55.7981 15.9398C58.6781 11.0198 62.5781 7.17978 67.4981 4.41978C72.4181 1.65978 77.8181 0.279785 83.6981 0.279785C89.6381 0.279785 95.0381 1.65978 99.8981 4.41978C104.818 7.17978 108.688 11.0198 111.508 15.9398C114.388 20.7998 115.828 26.2898 115.828 32.4098C115.828 38.5898 114.388 44.1398 111.508 49.0598C108.688 53.9198 104.818 57.7298 99.8981 60.4898C94.9781 63.2498 89.5781 64.6298 83.6981 64.6298ZM83.6981 53.3798C87.4781 53.3798 90.8081 52.5398 93.6881 50.8598C96.5681 49.1198 98.8181 46.6598 100.438 43.4798C102.058 40.2998 102.868 36.6098 102.868 32.4098C102.868 28.2098 102.058 24.5498 100.438 21.4298C98.8181 18.2498 96.5681 15.8198 93.6881 14.1398C90.8081 12.4598 87.4781 11.6198 83.6981 11.6198C79.9181 11.6198 76.5581 12.4598 73.6181 14.1398C70.7381 15.8198 68.4881 18.2498 66.8681 21.4298C65.2481 24.5498 64.4381 28.2098 64.4381 32.4098C64.4381 36.6098 65.2481 40.2998 66.8681 43.4798C68.4881 46.6598 70.7381 49.1198 73.6181 50.8598C76.5581 52.5398 79.9181 53.3798 83.6981 53.3798ZM137.622 1.17978V40.0598C137.622 44.3198 138.732 47.5898 140.952 49.8698C143.172 52.0898 146.292 53.1998 150.312 53.1998C154.392 53.1998 157.542 52.0898 159.762 49.8698C161.982 47.5898 163.092 44.3198 163.092 40.0598V1.17978H175.782V39.9698C175.782 45.3098 174.612 49.8398 172.272 53.5598C169.992 57.2198 166.902 59.9798 163.002 61.8398C159.162 63.6998 154.872 64.6298 150.132 64.6298C145.452 64.6298 141.192 63.6998 137.352 61.8398C133.572 59.9798 130.572 57.2198 128.352 53.5598C126.132 49.8398 125.022 45.3098 125.022 39.9698V1.17978H137.622ZM220.356 63.9998L206.496 39.5198H200.556V63.9998H187.956V1.17978H211.536C216.396 1.17978 220.536 2.04978 223.956 3.78978C227.376 5.46978 229.926 7.77978 231.606 10.7198C233.346 13.5998 234.216 16.8398 234.216 20.4398C234.216 24.5798 233.016 28.3298 230.616 31.6898C228.216 34.9898 224.646 37.2698 219.906 38.5298L234.936 63.9998H220.356ZM200.556 30.0698H211.086C214.506 30.0698 217.056 29.2598 218.736 27.6398C220.416 25.9598 221.256 23.6498 221.256 20.7098C221.256 17.8298 220.416 15.6098 218.736 14.0498C217.056 12.4298 214.506 11.6198 211.086 11.6198H200.556V30.0698ZM299.342 63.9998H286.742L258.212 20.8898V63.9998H245.612V1.08978H258.212L286.742 44.2898V1.08978H299.342V63.9998ZM324.394 11.3498V27.0998H345.544V37.0898H324.394V53.7398H348.244V63.9998H311.794V1.08978H348.244V11.3498H324.394ZM409.644 1.17978L388.404 42.1298V63.9998H375.804V42.1298L354.474 1.17978H368.694L382.194 29.8898L395.604 1.17978H409.644Z" stroke="white" stroke-width="2" stroke-linecap="round" stroke-dasharray="10 10" mask="url(#path-1-inside-1)"/>
</g>
</svg>
