<svg width="277" height="65" viewBox="0 0 277 65" fill="none" xmlns="http://www.w3.org/2000/svg">
<g opacity="0.33">
<mask id="path-1-inside-1" fill="white">
<path d="M46.02 20.6198C46.02 23.9798 45.21 27.1298 43.59 30.0698C42.03 33.0098 39.54 35.3798 36.12 37.1798C32.76 38.9798 28.5 39.8798 23.34 39.8798H12.81V63.9998H0.209961V1.17978H23.34C28.2 1.17978 32.34 2.01978 35.76 3.69978C39.18 5.37978 41.73 7.68978 43.41 10.6298C45.15 13.5698 46.02 16.8998 46.02 20.6198ZM22.8 29.7098C26.28 29.7098 28.86 28.9298 30.54 27.3698C32.22 25.7498 33.06 23.4998 33.06 20.6198C33.06 14.4998 29.64 11.4398 22.8 11.4398H12.81V29.7098H22.8ZM84.1258 64.6298C78.2458 64.6298 72.8458 63.2498 67.9258 60.4898C63.0058 57.7298 59.1058 53.9198 56.2258 49.0598C53.3458 44.1398 51.9058 38.5898 51.9058 32.4098C51.9058 26.2898 53.3458 20.7998 56.2258 15.9398C59.1058 11.0198 63.0058 7.17978 67.9258 4.41978C72.8458 1.65978 78.2458 0.279785 84.1258 0.279785C90.0658 0.279785 95.4658 1.65978 100.326 4.41978C105.246 7.17978 109.116 11.0198 111.936 15.9398C114.816 20.7998 116.256 26.2898 116.256 32.4098C116.256 38.5898 114.816 44.1398 111.936 49.0598C109.116 53.9198 105.246 57.7298 100.326 60.4898C95.4058 63.2498 90.0058 64.6298 84.1258 64.6298ZM84.1258 53.3798C87.9058 53.3798 91.2358 52.5398 94.1158 50.8598C96.9958 49.1198 99.2458 46.6598 100.866 43.4798C102.486 40.2998 103.296 36.6098 103.296 32.4098C103.296 28.2098 102.486 24.5498 100.866 21.4298C99.2458 18.2498 96.9958 15.8198 94.1158 14.1398C91.2358 12.4598 87.9058 11.6198 84.1258 11.6198C80.3458 11.6198 76.9858 12.4598 74.0458 14.1398C71.1658 15.8198 68.9158 18.2498 67.2958 21.4298C65.6758 24.5498 64.8658 28.2098 64.8658 32.4098C64.8658 36.6098 65.6758 40.2998 67.2958 43.4798C68.9158 46.6598 71.1658 49.1198 74.0458 50.8598C76.9858 52.5398 80.3458 53.3798 84.1258 53.3798ZM147.32 64.6298C142.94 64.6298 138.98 63.8798 135.44 62.3798C131.96 60.8798 129.2 58.7198 127.16 55.8998C125.12 53.0798 124.07 49.7498 124.01 45.9098H137.51C137.69 48.4898 138.59 50.5298 140.21 52.0298C141.89 53.5298 144.17 54.2798 147.05 54.2798C149.99 54.2798 152.3 53.5898 153.98 52.2098C155.66 50.7698 156.5 48.9098 156.5 46.6298C156.5 44.7698 155.93 43.2398 154.79 42.0398C153.65 40.8398 152.21 39.9098 150.47 39.2498C148.79 38.5298 146.45 37.7498 143.45 36.9098C139.37 35.7098 136.04 34.5398 133.46 33.3998C130.94 32.1998 128.75 30.4298 126.89 28.0898C125.09 25.6898 124.19 22.5098 124.19 18.5498C124.19 14.8298 125.12 11.5898 126.98 8.82978C128.84 6.06978 131.45 3.96978 134.81 2.52978C138.17 1.02978 142.01 0.279785 146.33 0.279785C152.81 0.279785 158.06 1.86978 162.08 5.04978C166.16 8.16978 168.41 12.5498 168.83 18.1898H154.97C154.85 16.0298 153.92 14.2598 152.18 12.8798C150.5 11.4398 148.25 10.7198 145.43 10.7198C142.97 10.7198 140.99 11.3498 139.49 12.6098C138.05 13.8698 137.33 15.6998 137.33 18.0998C137.33 19.7798 137.87 21.1898 138.95 22.3298C140.09 23.4098 141.47 24.3098 143.09 25.0298C144.77 25.6898 147.11 26.4698 150.11 27.3698C154.19 28.5698 157.52 29.7698 160.1 30.9698C162.68 32.1698 164.9 33.9698 166.76 36.3698C168.62 38.7698 169.55 41.9198 169.55 45.8198C169.55 49.1798 168.68 52.2998 166.94 55.1798C165.2 58.0598 162.65 60.3698 159.29 62.1098C155.93 63.7898 151.94 64.6298 147.32 64.6298ZM223.224 1.17978V11.3498H206.484V63.9998H193.884V11.3498H177.144V1.17978H223.224ZM254.107 64.6298C249.727 64.6298 245.767 63.8798 242.227 62.3798C238.747 60.8798 235.987 58.7198 233.947 55.8998C231.907 53.0798 230.857 49.7498 230.797 45.9098H244.297C244.477 48.4898 245.377 50.5298 246.997 52.0298C248.677 53.5298 250.957 54.2798 253.837 54.2798C256.777 54.2798 259.087 53.5898 260.767 52.2098C262.447 50.7698 263.287 48.9098 263.287 46.6298C263.287 44.7698 262.717 43.2398 261.577 42.0398C260.437 40.8398 258.997 39.9098 257.257 39.2498C255.577 38.5298 253.237 37.7498 250.237 36.9098C246.157 35.7098 242.827 34.5398 240.247 33.3998C237.727 32.1998 235.537 30.4298 233.677 28.0898C231.877 25.6898 230.977 22.5098 230.977 18.5498C230.977 14.8298 231.907 11.5898 233.767 8.82978C235.627 6.06978 238.237 3.96978 241.597 2.52978C244.957 1.02978 248.797 0.279785 253.117 0.279785C259.597 0.279785 264.847 1.86978 268.867 5.04978C272.947 8.16978 275.197 12.5498 275.617 18.1898H261.757C261.637 16.0298 260.707 14.2598 258.967 12.8798C257.287 11.4398 255.037 10.7198 252.217 10.7198C249.757 10.7198 247.777 11.3498 246.277 12.6098C244.837 13.8698 244.117 15.6998 244.117 18.0998C244.117 19.7798 244.657 21.1898 245.737 22.3298C246.877 23.4098 248.257 24.3098 249.877 25.0298C251.557 25.6898 253.897 26.4698 256.897 27.3698C260.977 28.5698 264.307 29.7698 266.887 30.9698C269.467 32.1698 271.687 33.9698 273.547 36.3698C275.407 38.7698 276.337 41.9198 276.337 45.8198C276.337 49.1798 275.467 52.2998 273.727 55.1798C271.987 58.0598 269.437 60.3698 266.077 62.1098C262.717 63.7898 258.727 64.6298 254.107 64.6298Z"/>
</mask>
<path d="M46.02 20.6198C46.02 23.9798 45.21 27.1298 43.59 30.0698C42.03 33.0098 39.54 35.3798 36.12 37.1798C32.76 38.9798 28.5 39.8798 23.34 39.8798H12.81V63.9998H0.209961V1.17978H23.34C28.2 1.17978 32.34 2.01978 35.76 3.69978C39.18 5.37978 41.73 7.68978 43.41 10.6298C45.15 13.5698 46.02 16.8998 46.02 20.6198ZM22.8 29.7098C26.28 29.7098 28.86 28.9298 30.54 27.3698C32.22 25.7498 33.06 23.4998 33.06 20.6198C33.06 14.4998 29.64 11.4398 22.8 11.4398H12.81V29.7098H22.8ZM84.1258 64.6298C78.2458 64.6298 72.8458 63.2498 67.9258 60.4898C63.0058 57.7298 59.1058 53.9198 56.2258 49.0598C53.3458 44.1398 51.9058 38.5898 51.9058 32.4098C51.9058 26.2898 53.3458 20.7998 56.2258 15.9398C59.1058 11.0198 63.0058 7.17978 67.9258 4.41978C72.8458 1.65978 78.2458 0.279785 84.1258 0.279785C90.0658 0.279785 95.4658 1.65978 100.326 4.41978C105.246 7.17978 109.116 11.0198 111.936 15.9398C114.816 20.7998 116.256 26.2898 116.256 32.4098C116.256 38.5898 114.816 44.1398 111.936 49.0598C109.116 53.9198 105.246 57.7298 100.326 60.4898C95.4058 63.2498 90.0058 64.6298 84.1258 64.6298ZM84.1258 53.3798C87.9058 53.3798 91.2358 52.5398 94.1158 50.8598C96.9958 49.1198 99.2458 46.6598 100.866 43.4798C102.486 40.2998 103.296 36.6098 103.296 32.4098C103.296 28.2098 102.486 24.5498 100.866 21.4298C99.2458 18.2498 96.9958 15.8198 94.1158 14.1398C91.2358 12.4598 87.9058 11.6198 84.1258 11.6198C80.3458 11.6198 76.9858 12.4598 74.0458 14.1398C71.1658 15.8198 68.9158 18.2498 67.2958 21.4298C65.6758 24.5498 64.8658 28.2098 64.8658 32.4098C64.8658 36.6098 65.6758 40.2998 67.2958 43.4798C68.9158 46.6598 71.1658 49.1198 74.0458 50.8598C76.9858 52.5398 80.3458 53.3798 84.1258 53.3798ZM147.32 64.6298C142.94 64.6298 138.98 63.8798 135.44 62.3798C131.96 60.8798 129.2 58.7198 127.16 55.8998C125.12 53.0798 124.07 49.7498 124.01 45.9098H137.51C137.69 48.4898 138.59 50.5298 140.21 52.0298C141.89 53.5298 144.17 54.2798 147.05 54.2798C149.99 54.2798 152.3 53.5898 153.98 52.2098C155.66 50.7698 156.5 48.9098 156.5 46.6298C156.5 44.7698 155.93 43.2398 154.79 42.0398C153.65 40.8398 152.21 39.9098 150.47 39.2498C148.79 38.5298 146.45 37.7498 143.45 36.9098C139.37 35.7098 136.04 34.5398 133.46 33.3998C130.94 32.1998 128.75 30.4298 126.89 28.0898C125.09 25.6898 124.19 22.5098 124.19 18.5498C124.19 14.8298 125.12 11.5898 126.98 8.82978C128.84 6.06978 131.45 3.96978 134.81 2.52978C138.17 1.02978 142.01 0.279785 146.33 0.279785C152.81 0.279785 158.06 1.86978 162.08 5.04978C166.16 8.16978 168.41 12.5498 168.83 18.1898H154.97C154.85 16.0298 153.92 14.2598 152.18 12.8798C150.5 11.4398 148.25 10.7198 145.43 10.7198C142.97 10.7198 140.99 11.3498 139.49 12.6098C138.05 13.8698 137.33 15.6998 137.33 18.0998C137.33 19.7798 137.87 21.1898 138.95 22.3298C140.09 23.4098 141.47 24.3098 143.09 25.0298C144.77 25.6898 147.11 26.4698 150.11 27.3698C154.19 28.5698 157.52 29.7698 160.1 30.9698C162.68 32.1698 164.9 33.9698 166.76 36.3698C168.62 38.7698 169.55 41.9198 169.55 45.8198C169.55 49.1798 168.68 52.2998 166.94 55.1798C165.2 58.0598 162.65 60.3698 159.29 62.1098C155.93 63.7898 151.94 64.6298 147.32 64.6298ZM223.224 1.17978V11.3498H206.484V63.9998H193.884V11.3498H177.144V1.17978H223.224ZM254.107 64.6298C249.727 64.6298 245.767 63.8798 242.227 62.3798C238.747 60.8798 235.987 58.7198 233.947 55.8998C231.907 53.0798 230.857 49.7498 230.797 45.9098H244.297C244.477 48.4898 245.377 50.5298 246.997 52.0298C248.677 53.5298 250.957 54.2798 253.837 54.2798C256.777 54.2798 259.087 53.5898 260.767 52.2098C262.447 50.7698 263.287 48.9098 263.287 46.6298C263.287 44.7698 262.717 43.2398 261.577 42.0398C260.437 40.8398 258.997 39.9098 257.257 39.2498C255.577 38.5298 253.237 37.7498 250.237 36.9098C246.157 35.7098 242.827 34.5398 240.247 33.3998C237.727 32.1998 235.537 30.4298 233.677 28.0898C231.877 25.6898 230.977 22.5098 230.977 18.5498C230.977 14.8298 231.907 11.5898 233.767 8.82978C235.627 6.06978 238.237 3.96978 241.597 2.52978C244.957 1.02978 248.797 0.279785 253.117 0.279785C259.597 0.279785 264.847 1.86978 268.867 5.04978C272.947 8.16978 275.197 12.5498 275.617 18.1898H261.757C261.637 16.0298 260.707 14.2598 258.967 12.8798C257.287 11.4398 255.037 10.7198 252.217 10.7198C249.757 10.7198 247.777 11.3498 246.277 12.6098C244.837 13.8698 244.117 15.6998 244.117 18.0998C244.117 19.7798 244.657 21.1898 245.737 22.3298C246.877 23.4098 248.257 24.3098 249.877 25.0298C251.557 25.6898 253.897 26.4698 256.897 27.3698C260.977 28.5698 264.307 29.7698 266.887 30.9698C269.467 32.1698 271.687 33.9698 273.547 36.3698C275.407 38.7698 276.337 41.9198 276.337 45.8198C276.337 49.1798 275.467 52.2998 273.727 55.1798C271.987 58.0598 269.437 60.3698 266.077 62.1098C262.717 63.7898 258.727 64.6298 254.107 64.6298Z" stroke="white" stroke-width="2" stroke-linecap="round" stroke-dasharray="10 10" mask="url(#path-1-inside-1)"/>
</g>
</svg>
