<svg xmlns="http://www.w3.org/2000/svg" width="266" height="65" fill="none">
  <path fill="white" d="m12.02 62.38-.198.46h.003l.195-.46ZM3.74 55.9l-.405.293.405-.293ZM.59 45.91v-.5H.082l.008.508.5-.008Zm13.5 0 .499-.035-.033-.465h-.466v.5Zm2.7 6.12-.34.367.007.006.333-.373Zm13.77.18.317.386.008-.006-.325-.38Zm.81-10.17-.363.344.363-.344Zm-4.32-2.79-.197.46.01.004.01.004.177-.468Zm-7.02-2.34-.141.48.006.002.135-.482Zm-9.99-3.51-.215.451.006.004.007.002.202-.457Zm-6.57-5.31-.4.3.009.011.391-.311Zm.09-19.26.415.28-.415-.28Zm7.83-6.3.197.46.007-.003-.204-.457Zm27.27 2.52-.31.392.006.005.304-.397Zm6.75 13.14v.5h.539l-.04-.537-.499.037Zm-13.86 0-.5.028.027.472h.473v-.5Zm-2.79-5.31-.325.38.007.006.007.006.311-.392Zm-12.69-.27-.322-.383-.007.007.329.376Zm-.54 9.72-.363.344.01.01.01.009.343-.363Zm4.14 2.7-.203.457.01.004.01.004.183-.465Zm7.02 2.34-.144.479h.003l.141-.479Zm9.99 3.6-.21.453.21-.453Zm6.66 5.4-.395.306.395-.306Zm.18 18.81-.428-.259.428.259Zm-7.65 6.93.224.447.006-.003-.23-.444Zm-14.968 1.896a.5.5 0 1 0-.084.996l.084-.996Zm-6.159-.123a.5.5 0 1 0 .283-.96l-.283.96Zm-4.85-3.128a.5.5 0 0 0-.502.865l.502-.865Zm-4.803-2.47a.5.5 0 0 0 .718-.696l-.718.696Zm-2.278-4.882a.5.5 0 0 0-.896.445l.896-.445ZM.306 48.634a.5.5 0 1 0 .99-.146l-.99.146Zm3.659-2.224a.5.5 0 0 0 0-1v1Zm6.75-1a.5.5 0 0 0 0 1v-1Zm3.126 2.304a.5.5 0 0 0 .976-.215l-.976.215Zm2.234 2.74a.5.5 0 0 0-.82.572l.82-.572Zm1.98 3.072a.5.5 0 1 0 .477-.878l-.478.878Zm3.801.146a.5.5 0 0 0-.127.992l.127-.992Zm3.671 1.006a.5.5 0 1 0-.112-.994l.113.994Zm3.263-1.925a.5.5 0 0 0 .44.898l-.44-.898Zm3.257-1.382a.5.5 0 1 0-.793-.609l.793.61Zm.396-3.263a.5.5 0 1 0 .982.192l-.982-.192Zm1.037-2.807a.5.5 0 0 0-.988.155l.988-.155Zm-1.768-2.006a.5.5 0 1 0 .85-.526l-.85.526Zm-.976-2.523a.5.5 0 1 0-.633.774l.633-.774Zm-2.718-.558a.5.5 0 1 0 .442-.896l-.442.896Zm-2.52-2.11a.5.5 0 1 0-.341.94l.341-.94Zm-3.832-.2a.5.5 0 0 0 .286-.959l-.286.958Zm-4.02-2.243a.5.5 0 1 0-.3.954l.3-.954Zm-5.335-.789a.5.5 0 0 0 .358-.933l-.358.933Zm-3.867-2.924a.5.5 0 0 0-.536.845l.536-.845Zm-3.924-1.91a.5.5 0 0 0 .715-.7l-.715.7Zm-1.88-4.322a.5.5 0 0 0-.909.418l.909-.418ZM.406 21.123a.5.5 0 1 0 .994-.11l-.994.11Zm1.016-5.071a.5.5 0 1 0-.992-.125l.992.125Zm.428-5.195a.5.5 0 0 0 .909.417l-.909-.417Zm3.658-3.682a.5.5 0 1 0-.734-.68l.734.68ZM8.862 3.24a.5.5 0 1 0 .504.864l-.504-.864Zm5.442-1.266a.5.5 0 0 0-.292-.956l.292.956Zm5.61-2.07A.5.5 0 0 0 20 .901l-.086-.996Zm7.121 1.113a.5.5 0 0 0 .12-.993l-.12.993Zm8.307 1.349a.5.5 0 0 0-.443.896l.443-.896Zm5.691 5.627a.5.5 0 0 0 .767-.642l-.767.642Zm4.264 6.312a.5.5 0 0 0-.97.245l.97-.245Zm-3.352 3.384a.5.5 0 0 0 0 1v-1Zm-6.93 1a.5.5 0 0 0 0-1v1Zm-3.218-2.155a.5.5 0 1 0-.967.255l.967-.255ZM29.5 14.274a.5.5 0 0 0 .758-.652l-.758.652Zm-2.002-2.85a.5.5 0 0 0-.466.884l.466-.884Zm-3.744-.1a.5.5 0 1 0 .125-.992l-.125.992ZM20.36 10.32a.5.5 0 0 0 .125.992l-.125-.992Zm-2.738 1.85a.5.5 0 1 0-.463-.886l.463.886Zm-2.972 1.3a.5.5 0 1 0 .83.558l-.83-.558Zm-.138 3.186a.5.5 0 0 0-.99-.148l.99.148Zm-1.003 2.683a.5.5 0 0 0 .986-.164l-.986.164Zm1.73 1.81a.5.5 0 0 0-.846.534l.845-.534Zm.925 2.384a.5.5 0 0 0 .615-.789l-.615.79Zm2.626.512a.5.5 0 1 0-.472.881l.472-.881Zm2.45 2.099a.5.5 0 1 0 .33-.943l-.33.943Zm3.829.208a.5.5 0 0 0-.298.954l.298-.954Zm4.01 2.272a.5.5 0 1 0 .304-.952l-.305.952Zm5.345.835a.5.5 0 1 0-.37.929l.37-.93Zm3.89 2.967a.5.5 0 1 0 .532-.846l-.532.846Zm3.972 1.96a.5.5 0 1 0-.72.694l.72-.694Zm1.918 4.333a.5.5 0 1 0 .901-.434l-.9.434Zm2.283 4.539a.5.5 0 0 0-.993.116l.993-.116Zm-1.013 4.95a.5.5 0 1 0 .991.131l-.99-.132Zm-.364 4.99a.5.5 0 1 0-.916-.4l.916.4Zm-3.49 3.787a.5.5 0 1 0 .767.641l-.768-.641Zm-3.221 4.209a.5.5 0 1 0-.56-.83l.56.83Zm-5.537 1.616a.5.5 0 0 0 .315.949l-.315-.95Zm-5.835 2.185a.5.5 0 0 0-.089-.996l.089.996ZM23.9 64.13c-1.023 0-2.023-.041-2.998-.124l-.084.996c1.004.085 2.032.128 3.082.128v-1Zm-8.874-1.206a26.11 26.11 0 0 1-2.81-1.004l-.391.92c.944.4 1.917.748 2.918 1.043l.283-.96Zm-2.808-1.003a22.007 22.007 0 0 1-2.325-1.166l-.502.865c.77.446 1.58.852 2.431 1.22l.396-.92Zm-6.41-4.332a17.924 17.924 0 0 1-1.663-1.982l-.81.586a18.941 18.941 0 0 0 1.755 2.092l.718-.696Zm-1.663-1.982a15.586 15.586 0 0 1-1.333-2.204l-.896.445a16.59 16.59 0 0 0 1.419 2.345l.81-.586Zm-2.85-7.119a19.838 19.838 0 0 1-.205-2.586l-1 .016c.015.933.086 1.839.216 2.716l.99-.146ZM.59 46.41h3.375v-1H.59v1Zm10.125 0h3.375v-1h-3.375v1Zm2.876-.465c.043.616.126 1.206.25 1.769l.976-.215a11.213 11.213 0 0 1-.228-1.624l-.998.07Zm1.664 5.081c.346.497.745.954 1.195 1.37l.68-.733a7.45 7.45 0 0 1-1.055-1.209l-.82.572Zm1.202 1.377a8.47 8.47 0 0 0 1.597 1.123l.478-.878a7.475 7.475 0 0 1-1.409-.991l-.666.746Zm5.272 2.261c.606.078 1.24.116 1.901.116v-1c-.623 0-1.214-.036-1.774-.108l-.127.992Zm1.901.116c.661 0 1.294-.034 1.898-.102l-.113-.994c-.563.064-1.158.096-1.785.096v1Zm5.6-1.129a8.435 8.435 0 0 0 1.647-1.055l-.634-.772c-.437.358-.921.669-1.453.93l.44.897Zm1.655-1.061c.44-.377.827-.783 1.162-1.219l-.793-.609c-.29.378-.63.734-1.02 1.068l.651.76Zm2.54-4.29c.104-.535.155-1.091.155-1.67h-1c0 .52-.046 1.012-.137 1.478l.982.192Zm.155-1.67c0-.46-.033-.902-.1-1.329l-.988.155c.059.371.088.763.088 1.174h1Zm-1.018-3.86a6.582 6.582 0 0 0-.83-1.074l-.724.688c.27.285.504.588.704.91l.85-.525Zm-.83-1.074a10.816 10.816 0 0 0-.995-.924l-.633.774c.32.262.622.542.904.838l.725-.688Zm-3.272-2.378a14.034 14.034 0 0 0-1.233-.535l-.354.934c.399.152.78.318 1.145.497l.442-.896Zm-1.213-.528a33.541 33.541 0 0 0-1.749-.686l-.341.94c.628.228 1.194.45 1.696.666l.394-.92Zm-5.295-1.845c-.568-.17-1.163-.342-1.787-.517l-.27.964c.619.173 1.209.343 1.77.511l.287-.958Zm-1.78-.515c-.878-.258-1.719-.514-2.526-.769l-.3.954c.813.257 1.66.515 2.543.775l.282-.96Zm-7.503-2.491a52.935 52.935 0 0 1-2.427-.996l-.404.914c.761.337 1.586.675 2.473 1.015l.358-.933Zm-2.414-.99a17.151 17.151 0 0 1-1.811-1l-.536.844c.617.39 1.256.744 1.917 1.058l.43-.902Zm-5.02-3.61a20.187 20.187 0 0 1-1.374-1.56l-.782.622c.46.58.94 1.125 1.441 1.637l.715-.7ZM3.87 27.79a11.367 11.367 0 0 1-1.23-2.074l-.909.418c.374.812.82 1.564 1.339 2.256l.8-.6ZM1.4 21.013a22.464 22.464 0 0 1-.13-2.463h-1c0 .894.045 1.752.136 2.573l.994-.11Zm-.13-2.463c0-.86.05-1.693.152-2.498l-.992-.125c-.107.848-.16 1.723-.16 2.623h1Zm1.489-7.276c.345-.752.75-1.474 1.216-2.165l-.83-.558a16.219 16.219 0 0 0-1.295 2.306l.909.417Zm1.216-2.165c.463-.687.974-1.332 1.533-1.934l-.734-.68A16.948 16.948 0 0 0 3.145 8.55l.83.558Zm5.391-5.004a20.03 20.03 0 0 1 2.221-1.115l-.394-.92a21.04 21.04 0 0 0-2.331 1.171l.504.864Zm2.228-1.118c.87-.389 1.773-.726 2.71-1.012l-.292-.956c-.976.297-1.918.649-2.826 1.054l.408.914ZM20 .9A34.09 34.09 0 0 1 22.91.78v-1a35.09 35.09 0 0 0-2.996.125L20 .901ZM22.91.78c1.439 0 2.814.08 4.125.238l.12-.993A35.445 35.445 0 0 0 22.91-.22v1Zm11.989 2.483c1.24.613 2.39 1.34 3.45 2.18l.621-.785a20.426 20.426 0 0 0-3.628-2.291l-.443.896Zm3.457 2.184c1.01.772 1.901 1.621 2.677 2.547l.767-.642a17.731 17.731 0 0 0-2.836-2.7l-.608.795Zm5.971 9.104c.293 1.154.488 2.38.584 3.676l.998-.074c-.1-1.35-.304-2.632-.612-3.847l-.97.245Zm1.083 3.139h-3.465v1h3.465v-1Zm-10.395 0H31.55v1h3.465v-1Zm-2.966.472a8.12 8.12 0 0 0-.252-1.627l-.967.255c.119.45.193.926.22 1.428l1-.056Zm-1.791-4.54a8.651 8.651 0 0 0-1.187-1.134l-.622.784c.397.315.747.649 1.05 1.002l.759-.652ZM29.085 12.5a8.576 8.576 0 0 0-1.587-1.076l-.466.884c.508.268.975.585 1.403.952l.65-.76Zm-5.206-2.168a15.009 15.009 0 0 0-1.869-.112v1c.612 0 1.193.035 1.744.104l.125-.992Zm-1.869-.112c-.573 0-1.123.033-1.65.1l.125.992c.482-.061.99-.092 1.525-.092v-1Zm-4.851 1.064c-.507.265-.977.58-1.41.943l.643.766c.377-.317.787-.591 1.23-.823l-.463-.886Zm-1.418.95a6.336 6.336 0 0 0-1.09 1.236l.83.558c.258-.384.564-.731.918-1.042l-.658-.752Zm-2.218 4.274a10.788 10.788 0 0 0-.113 1.592h1c0-.512.034-.993.102-1.444l-.99-.148ZM13.41 18.1c0 .427.033.84.099 1.239l.986-.164a6.552 6.552 0 0 1-.085-1.075h-1Zm.983 3.583c.222.35.48.68.774.99l.726-.687a5.464 5.464 0 0 1-.655-.837l-.845.534Zm.793 1.01c.31.293.636.573.978.84l.615-.789c-.318-.247-.62-.506-.905-.777l-.688.726Zm3.132 2.233c.37.198.753.385 1.149.56l.406-.913a16.54 16.54 0 0 1-1.083-.528l-.472.881Zm1.17.57c.522.205 1.106.42 1.751.648l.332-.943a51.297 51.297 0 0 1-1.718-.636l-.366.93Zm5.283 1.81c.564.176 1.156.357 1.775.543l.288-.958a171.03 171.03 0 0 1-1.765-.54l-.298.955Zm1.778.544c.878.258 1.722.516 2.53.774l.304-.952c-.816-.26-1.667-.521-2.552-.782l-.282.96Zm7.505 2.538c.87.346 1.674.69 2.415 1.035l.422-.906a47.557 47.557 0 0 0-2.467-1.058l-.37.929Zm2.415 1.035c.638.297 1.253.631 1.845 1.003l.532-.846a17.741 17.741 0 0 0-1.955-1.063l-.422.906Zm5.097 3.657c.48.497.94 1.03 1.379 1.596l.79-.612a20.544 20.544 0 0 0-1.45-1.678l-.719.694Zm1.379 1.596c.485.627.905 1.307 1.26 2.043l.9-.434a12.377 12.377 0 0 0-1.37-2.221l-.79.612Zm2.549 6.698c.09.776.136 1.591.136 2.446h1c0-.89-.047-1.744-.143-2.562l-.993.116Zm.136 2.446c0 .811-.052 1.607-.156 2.387l.991.132c.11-.825.165-1.665.165-2.519h-1Zm-1.436 6.977c-.315.722-.682 1.43-1.102 2.124l.856.518c.442-.731.83-1.478 1.162-2.241l-.916-.4Zm-1.102 2.124a16.58 16.58 0 0 1-1.473 2.064l.767.641a17.596 17.596 0 0 0 1.562-2.187l-.856-.518Zm-5.253 5.444c-.687.464-1.42.898-2.199 1.301l.46.888a23.02 23.02 0 0 0 2.298-1.36l-.56-.83Zm-2.193 1.298c-.882.441-1.81.823-2.784 1.147l.315.949a22.01 22.01 0 0 0 2.917-1.202l-.448-.894Zm-8.708 2.336c-.979.087-1.991.131-3.038.131v1c1.075 0 2.117-.045 3.127-.135L26.938 64ZM12.02 62.38l-.396.918.006.003.39-.921ZM3.74 55.9l-.81.586.81-.586ZM.59 45.91v-1H-.426l.016 1.016 1-.016Zm13.5 0 .998-.07-.065-.93h-.933v1Zm2.7 6.12-.68.734.007.006.007.006.666-.746Zm13.77.18.635.773.008-.007.008-.007-.651-.759Zm.81-10.17-.725.689.725-.689Zm-4.32-2.79-.394.92.02.008.02.007.354-.935Zm-7.02-2.34-.282.96.012.003.27-.963Zm-9.99-3.51-.43.903.013.006.013.006.404-.915Zm-6.57-5.31-.8.6.008.011.01.011.782-.622Zm.09-19.26.83.559-.83-.559Zm7.83-6.3.394.92.007-.004.007-.003-.408-.913Zm27.27 2.52-.62.784.006.005.007.005.607-.794Zm6.75 13.14v1h1.077l-.08-1.074-.997.074Zm-13.86 0-.998.055.052.945h.946v-1Zm-2.79-5.31-.65.76.014.012.015.012.621-.784Zm-12.69-.27-.643-.766-.008.007-.008.006.659.753Zm-.54 9.72-.726.688.019.02.02.018.687-.726Zm4.14 2.7-.406.914.02.009.02.008.366-.931Zm7.02 2.34-.287.958.005.001.282-.959Zm9.99 3.6-.422.907.422-.907Zm6.66 5.4-.79.613.79-.613Zm.18 18.81-.856-.517.856.517Zm-7.65 6.93.447.894.007-.003.006-.003-.46-.888Zm-14.925 1.398a1 1 0 0 0-.17 1.992l.17-1.992Zm-6.343.854a1 1 0 1 0 .565-1.918l-.565 1.918Zm-4.459-4.04a1 1 0 1 0-1.002 1.731l1.002-1.73Zm-5.411-1.689a1 1 0 1 0 1.435-1.393l-1.435 1.393Zm-1.473-5.452a1 1 0 1 0-1.79.89l1.79-.89Zm-3.448-4.474a1 1 0 1 0 1.979-.292l-1.979.292Zm4.154-1.797a1 1 0 1 0 0-2v2Zm6.75-2a1 1 0 1 0 0 2v-2Zm2.637 2.91a1 1 0 1 0 1.954-.428l-1.954.429Zm3.134 2.348a1 1 0 1 0-1.641 1.144l1.64-1.144Zm1.33 3.797a1 1 0 1 0 .955-1.756l-.956 1.756Zm4.104-.789a1 1 0 1 0-.254 1.984l.254-1.984Zm3.664 1.998a1 1 0 1 0-.226-1.987l.226 1.987Zm2.986-2.87a1 1 0 0 0 .88 1.796l-.88-1.796Zm3.874-.628a1 1 0 1 0-1.586-1.218l1.586 1.218Zm-.492-3.663a1 1 0 0 0 1.963.382l-1.963-.382Zm2.022-2.79a1 1 0 1 0-1.976.31l1.976-.31Zm-2.688-1.665a1 1 0 1 0 1.702-1.052l-1.702 1.052Zm-.233-3.173a1 1 0 0 0-1.266 1.548l1.266-1.548Zm-3.256.278a1 1 0 1 0 .885-1.794l-.885 1.794Zm-2.128-3.029a1 1 0 0 0-.683 1.88l.683-1.88Zm-4.147.748a1 1 0 1 0 .573-1.916l-.573 1.916Zm-3.725-3.197a1 1 0 0 0-.602 1.907l.602-1.907Zm-5.665.154a1 1 0 0 0 .716-1.867l-.716 1.867Zm-3.42-3.813a1 1 0 0 0-1.071 1.69l1.07-1.69Zm-4.549-1.139a1 1 0 1 0 1.43-1.398l-1.43 1.398Zm-1.07-4.88a1 1 0 1 0-1.816.836l1.817-.837Zm-3.184-4.33a1 1 0 1 0 1.988-.219l-1.988.22Zm2.01-5.063a1 1 0 0 0-1.985-.25l1.984.25Zm-.523-5.465a1 1 0 1 0 1.818.833l-1.818-.833Zm4.478-3.134a1 1 0 1 0-1.466-1.36l1.466 1.36ZM8.61 2.81a1 1 0 0 0 1.01 1.726L8.609 2.81Zm5.84-.357A1 1 0 1 0 13.867.54l.584 1.913Zm5.423-3.046a1 1 0 0 0 .17 1.992l-.17-1.992Zm7.103 2.107a1 1 0 0 0 .24-1.986l-.24 1.986Zm8.59.405a1 1 0 1 0-.888 1.792l.887-1.792Zm5.085 6.397a1 1 0 1 0 1.533-1.285L40.65 8.316Zm5.132 5.867a1 1 0 1 0-1.94.49l1.94-.49Zm-3.837 3.007a1 1 0 1 0 0 2v-2Zm-6.93 2a1 1 0 1 0 0-2v2Zm-2.735-2.783a1 1 0 1 0-1.934.51l1.934-.51ZM29.12 14.6a1 1 0 0 0 1.517-1.304L29.12 14.6Zm-1.389-3.619a1 1 0 1 0-.933 1.77l.933-1.77Zm-4.04.84a1 1 0 1 0 .25-1.985l-.25 1.984Zm-3.394-1.997a1 1 0 0 0 .25 1.984l-.25-1.984Zm-2.444 2.79a1 1 0 1 0-.926-1.773l.927 1.772Zm-3.618.577a1 1 0 1 0 1.66 1.116l-1.66-1.116Zm.771 3.539a1 1 0 0 0-1.978-.296l1.978.296Zm-1.99 2.69a1 1 0 1 0 1.973-.327l-1.973.328Zm2.645 1.461a1 1 0 0 0-1.69 1.07l1.69-1.07Zm.196 3.046a1 1 0 0 0 1.23-1.577l-1.23 1.577Zm3.17-.323a1 1 0 1 0-.944 1.763l.943-1.763Zm2.046 3.012a1 1 0 0 0 .664-1.887l-.664 1.887Zm4.145-.742a1 1 0 1 0-.596 1.91l.596-1.91Zm3.708 3.227a1 1 0 1 0 .609-1.905l-.609 1.905Zm5.682-.107a1 1 0 1 0-.739 1.858l.74-1.858Zm3.44 3.856a1 1 0 1 0 1.064-1.694l-1.064 1.694Zm4.598 1.188a1 1 0 1 0-1.44 1.389l1.44-1.389Zm1.108 4.898a1 1 0 1 0 1.802-.868l-1.802.868Zm3.23 4.264a1 1 0 1 0-1.987.231l1.987-.231Zm-2.006 4.941a1 1 0 0 0 1.983.264l-1.983-.264Zm.59 5.257a1 1 0 0 0-1.832-.8l1.833.8Zm-4.332 3.266a1 1 0 0 0 1.534 1.283l-1.534-1.283Zm-2.558 4.944a1 1 0 1 0-1.119-1.657l1.12 1.657Zm-5.974.727a1 1 0 1 0 .63 1.898l-.63-1.898Zm-5.633 3.158a1 1 0 1 0-.177-1.992l.177 1.992ZM23.9 63.63c-1.01 0-1.995-.04-2.955-.123l-.17 1.993c1.02.087 2.061.13 3.125.13v-2Zm-8.733-1.186a25.574 25.574 0 0 1-2.757-.985l-.78 1.842c.962.407 1.952.761 2.972 1.061l.565-1.918Zm-2.751-.982c-.8-.345-1.557-.725-2.273-1.14l-1.002 1.731c.787.456 1.615.871 2.483 1.245l.792-1.836Zm-6.25-4.222a17.443 17.443 0 0 1-1.616-1.926l-1.62 1.172c.55.761 1.15 1.477 1.802 2.147l1.435-1.393ZM4.55 55.314a15.087 15.087 0 0 1-1.29-2.133l-1.792.89c.418.841.906 1.647 1.462 2.415l1.62-1.172Zm-2.76-6.899a19.34 19.34 0 0 1-.2-2.52l-2 .03c.015.954.088 1.882.221 2.782l1.979-.292ZM.59 46.91h3.375v-2H.59v2Zm10.125 0h3.375v-2h-3.375v2Zm2.377-.93c.045.639.131 1.253.26 1.84l1.954-.428a10.7 10.7 0 0 1-.218-1.552l-1.996.14Zm1.753 5.332c.367.527.79 1.01 1.266 1.452l1.358-1.468c-.372-.345-.7-.72-.983-1.128l-1.641 1.144Zm1.279 1.464c.515.46 1.08.856 1.691 1.19l.956-1.757a6.974 6.974 0 0 1-1.315-.925l-1.332 1.492Zm5.542 2.384c.628.08 1.283.12 1.964.12v-2a13.48 13.48 0 0 1-1.71-.104l-.254 1.984Zm1.964.12c.678 0 1.33-.035 1.954-.106l-.226-1.987c-.542.062-1.118.093-1.728.093v2Zm5.82-1.18a8.933 8.933 0 0 0 1.745-1.117l-1.27-1.546a6.936 6.936 0 0 1-1.355.867l.88 1.796Zm1.76-1.13a8.625 8.625 0 0 0 1.234-1.294l-1.586-1.218c-.268.348-.583.68-.949.993l1.302 1.518Zm2.706-4.575c.11-.568.164-1.157.164-1.765h-2c0 .49-.043.95-.128 1.383l1.963.382Zm.164-1.765c0-.483-.035-.952-.106-1.406l-1.976.309c.054.344.082.71.082 1.097h2Zm-1.092-4.124a7.08 7.08 0 0 0-.893-1.155l-1.45 1.378c.247.26.46.536.641.829l1.702-1.052Zm-.893-1.155a11.314 11.314 0 0 0-1.042-.966l-1.266 1.548c.305.25.59.514.858.796l1.45-1.378Zm-3.413-2.482c-.41-.202-.835-.386-1.277-.554l-.71 1.87c.385.146.752.305 1.102.478l.885-1.794Zm-1.238-.538a33.88 33.88 0 0 0-1.775-.697l-.683 1.88c.622.226 1.178.444 1.67.655l.788-1.838Zm-5.349-1.865c-.57-.17-1.17-.344-1.795-.519l-.54 1.926c.616.172 1.204.342 1.762.51l.573-1.917Zm-1.783-.515c-.873-.257-1.712-.513-2.515-.766l-.602 1.907c.816.258 1.667.517 2.553.777l.564-1.918Zm-7.464-2.48a52.515 52.515 0 0 1-2.404-.986l-.808 1.83c.77.34 1.602.681 2.496 1.024l.716-1.867Zm-2.378-.974a16.645 16.645 0 0 1-1.758-.971l-1.071 1.69c.634.4 1.29.764 1.97 1.087l.859-1.806ZM5.593 28.99c-.464-.474-.91-.981-1.34-1.521l-1.566 1.244c.47.592.963 1.15 1.476 1.675l1.43-1.398ZM4.27 27.49a10.867 10.867 0 0 1-1.176-1.983l-1.817.836c.388.843.852 1.626 1.393 2.347l1.6-1.2Zm-2.373-6.532a21.963 21.963 0 0 1-.127-2.408h-2c0 .911.046 1.787.139 2.628l1.988-.22ZM1.77 18.55c0-.84.05-1.653.148-2.436l-1.984-.25c-.11.87-.164 1.766-.164 2.686h2Zm1.444-7.068c.333-.727.725-1.425 1.175-2.093L2.731 8.27c-.511.758-.956 1.55-1.335 2.378l1.818.833ZM4.389 9.39c.45-.666.944-1.29 1.485-1.874l-1.466-1.36A17.45 17.45 0 0 0 2.73 8.27L4.389 9.39Zm5.23-4.853c.678-.396 1.4-.759 2.165-1.087l-.788-1.838c-.837.359-1.633.758-2.387 1.199l1.01 1.726Zm2.179-1.093c.85-.38 1.734-.71 2.652-.99L13.866.54c-.995.304-1.956.663-2.884 1.077l.816 1.826ZM20.042 1.4a33.59 33.59 0 0 1 2.868-.119v-2c-1.038 0-2.05.042-3.038.127l.17 1.992Zm2.868-.119c1.42 0 2.775.078 4.065.234l.24-1.986A35.946 35.946 0 0 0 22.91-.72v2Zm11.767 2.431a18.925 18.925 0 0 1 3.363 2.123l1.24-1.568a20.924 20.924 0 0 0-3.716-2.347l-.887 1.792Zm3.376 2.133c.98.75 1.846 1.575 2.597 2.472l1.533-1.285a18.233 18.233 0 0 0-2.916-2.775l-1.214 1.588Zm5.79 8.83c.284 1.124.475 2.32.57 3.59l1.994-.148a22.927 22.927 0 0 0-.625-3.933l-1.94.49Zm1.567 2.516h-3.465v2h3.465v-2Zm-10.395 0H31.55v2h3.465v-2Zm-2.467.944a8.627 8.627 0 0 0-.268-1.727l-1.934.51c.11.417.18.859.206 1.328l1.996-.11Zm-1.911-4.838c-.37-.43-.79-.83-1.256-1.2l-1.242 1.568c.374.296.7.609.982.936l1.516-1.304ZM29.41 12.12a9.078 9.078 0 0 0-1.68-1.14l-.933 1.77c.476.25.912.546 1.311.888l1.302-1.518Zm-5.47-2.285a15.505 15.505 0 0 0-1.931-.116v2c.593 0 1.153.034 1.682.1l.249-1.984ZM22.01 9.72c-.592 0-1.163.034-1.713.104l.25 1.984c.46-.058.948-.088 1.463-.088v-2Zm-5.083 1.12a8.315 8.315 0 0 0-1.5 1.004l1.286 1.532a6.314 6.314 0 0 1 1.14-.763l-.926-1.772Zm-1.515 1.017c-.452.395-.845.84-1.177 1.334l1.66 1.116c.234-.348.511-.662.834-.944l-1.317-1.506Zm-2.384 4.577c-.08.532-.118 1.087-.118 1.666h2c0-.49.033-.946.096-1.37l-1.978-.296ZM12.91 18.1c0 .452.035.893.106 1.32l1.973-.327a6.041 6.041 0 0 1-.079-.993h-2Zm1.061 3.85c.24.38.518.735.833 1.068l1.452-1.376a4.978 4.978 0 0 1-.595-.76l-1.69 1.069Zm.871 1.106c.322.304.66.595 1.015.871l1.23-1.577a11.875 11.875 0 0 1-.87-.746l-1.375 1.452Zm3.24 2.311c.381.204.775.396 1.182.577l.812-1.828a15.994 15.994 0 0 1-1.05-.512l-.943 1.763Zm1.222.594c.53.208 1.12.426 1.77.655l.663-1.887a50.822 50.822 0 0 1-1.701-.63l-.732 1.862Zm5.318 1.823c.566.176 1.16.358 1.78.544l.575-1.916c-.615-.184-1.201-.364-1.76-.538l-.595 1.91Zm1.786.545c.875.258 1.714.515 2.518.772l.609-1.905c-.82-.262-1.674-.524-2.563-.785l-.564 1.918Zm7.461 2.523c.862.343 1.658.685 2.39 1.025l.843-1.814c-.77-.358-1.601-.714-2.494-1.07l-.739 1.86Zm2.39 1.025c.618.288 1.215.612 1.79.973l1.063-1.694a18.224 18.224 0 0 0-2.01-1.093l-.844 1.814Zm4.947 3.55c.467.484.915 1.002 1.344 1.556l1.58-1.226a21.064 21.064 0 0 0-1.484-1.718l-1.44 1.388Zm1.344 1.556c.463.597.864 1.248 1.204 1.953l1.802-.868a12.875 12.875 0 0 0-1.426-2.31l-1.58 1.225Zm2.447 6.449c.088.755.133 1.551.133 2.388h2c0-.908-.048-1.781-.146-2.62l-1.987.231Zm.133 2.388c0 .79-.05 1.563-.152 2.322l1.983.263c.113-.848.169-1.71.169-2.585h-2Zm-1.394 6.777c-.306.701-.663 1.39-1.072 2.066l1.712 1.034c.453-.75.85-1.516 1.193-2.3l-1.833-.8Zm-1.072 2.066c-.425.703-.9 1.37-1.428 2.001l1.534 1.283c.593-.71 1.128-1.46 1.606-2.25l-1.712-1.034ZM37.56 59.95c-.67.452-1.386.876-2.149 1.271l.92 1.776c.827-.428 1.61-.892 2.348-1.39l-1.119-1.657Zm-2.136 1.265c-.86.43-1.766.803-2.719 1.12l.63 1.897a22.526 22.526 0 0 0 2.983-1.229l-.894-1.788Zm-8.53 2.285c-.962.086-1.96.129-2.993.129v2c1.088 0 2.146-.045 3.171-.137l-.177-1.992Zm42.76-52.151v-.5h-.5v.5h.5Zm0 15.75h-.5v.5h.5v-.5Zm21.15 0h.5v-.5h-.5v.5Zm0 9.99v.5h.5v-.5h-.5Zm-21.15 0v-.5h-.5v.5h.5Zm0 16.65h-.5v.5h.5v-.5Zm23.85 0h.5v-.5h-.5v.5Zm0 10.26v.5h.5V64h-.5Zm-36.45 0h-.5v.5h.5V64Zm0-62.91v-.5h-.5v.5h.5Zm36.45 0h.5v-.5h-.5v.5Zm0 10.26v.5h.5v-.5h-.5Zm-24.35 3.938a.5.5 0 1 0 1 0h-1Zm1 7.875a.5.5 0 0 0-1 0h1Zm4.788 4.437a.5.5 0 0 0 0-1v1Zm10.575-1a.5.5 0 1 0 0 1v-1Zm4.788 2.997a.5.5 0 1 0 1 0h-1Zm1 4.995a.5.5 0 0 0-1 0h1Zm-5.788 1.998a.5.5 0 1 0 0 1v-1Zm-10.575 1a.5.5 0 0 0 0-1v1Zm-5.787 3.662a.5.5 0 1 0 1 0h-1Zm1 8.325a.5.5 0 0 0-1 0h1Zm5.462 4.663a.5.5 0 0 0 0-1v1Zm11.925-1a.5.5 0 1 0 0 1v-1Zm5.463 3.065a.5.5 0 1 0 1 0h-1Zm1 5.13a.5.5 0 0 0-1 0h1ZM88.948 63.5a.5.5 0 0 0 0 1v-1Zm-9.113 1a.5.5 0 0 0 0-1v1Zm-9.112-1a.5.5 0 0 0 0 1v-1Zm-9.113 1a.5.5 0 0 0 0-1v1Zm-4.056-5.742a.5.5 0 0 0-1 0h1Zm-1-10.486a.5.5 0 1 0 1 0h-1Zm1-10.484a.5.5 0 0 0-1 0h1Zm-1-10.485a.5.5 0 1 0 1 0h-1Zm1-10.486a.5.5 0 0 0-1 0h1Zm-1-10.485a.5.5 0 1 0 1 0h-1ZM61.61 1.59a.5.5 0 0 0 0-1v1Zm9.112-1a.5.5 0 0 0 0 1v-1Zm9.113 1a.5.5 0 0 0 0-1v1Zm9.113-1a.5.5 0 0 0 0 1v-1Zm4.056 3.065a.5.5 0 1 0 1 0h-1Zm1 5.13a.5.5 0 0 0-1 0h1ZM87.54 10.85a.5.5 0 1 0 0 1v-1Zm-11.925 1a.5.5 0 0 0 0-1v1Zm-6.462-.5v3.938h1V11.35h-1Zm0 11.813V27.1h1v-3.938h-1Zm.5 4.437h5.287v-1h-5.287v1Zm15.862 0h5.288v-1h-5.288v1Zm4.788-.5v2.497h1V27.1h-1Zm0 7.492v2.498h1v-2.498h-1Zm.5 1.998h-5.288v1h5.288v-1Zm-15.863 0h-5.287v1h5.287v-1Zm-5.787.5v4.162h1V37.09h-1Zm0 12.487v4.163h1v-4.163h-1Zm.5 4.663h5.962v-1h-5.962v1Zm17.887 0h5.963v-1H87.54v1Zm5.463-.5v2.565h1V53.74h-1Zm0 7.695V64h1v-2.565h-1Zm.5 2.065h-4.556v1h4.556v-1Zm-13.669 0h-9.112v1h9.112v-1Zm-18.225 0h-4.556v1h4.556v-1Zm-4.056.5v-5.242h-1V64h1Zm0-15.727V37.787h-1v10.486h1Zm0-20.97V16.816h-1v10.485h1Zm0-20.97V1.09h-1v5.242h1Zm-.5-4.743h4.556v-1h-4.556v1Zm13.668 0h9.113v-1h-9.112v1Zm18.226 0h4.556v-1h-4.556v1Zm4.056-.5v2.565h1V1.09h-1Zm0 7.695v2.565h1V8.785h-1Zm.5 2.065H87.54v1h5.963v-1Zm-17.888 0h-5.962v1h5.962v-1Zm-5.962.5v-1h-1v1h1Zm0 15.75h-1v1h1v-1Zm21.15 0h1v-1h-1v1Zm0 9.99v1h1v-1h-1Zm-21.15 0v-1h-1v1h1Zm0 16.65h-1v1h1v-1Zm23.85 0h1v-1h-1v1Zm0 10.26v1h1v-1h-1Zm-36.45 0h-1v1h1v-1Zm0-62.91v-1h-1v1h1Zm36.45 0h1v-1h-1v1Zm0 10.26v1h1v-1h-1Zm-24.85 3.938a1 1 0 1 0 2 0h-2Zm2 7.875a1 1 0 0 0-2 0h2ZM74.94 28.1a1 1 0 0 0 0-2v2Zm10.575-2a1 1 0 1 0 0 2v-2Zm4.288 3.497a1 1 0 1 0 2 0h-2Zm2 4.995a1 1 0 0 0-2 0h2Zm-6.288 1.498a1 1 0 1 0 0 2v-2Zm-10.575 2a1 1 0 0 0 0-2v2Zm-6.287 3.162a1 1 0 1 0 2 0h-2Zm2 8.325a1 1 0 0 0-2 0h2Zm4.962 5.163a1 1 0 0 0 0-2v2Zm11.925-2a1 1 0 1 0 0 2v-2Zm4.963 3.565a1 1 0 1 0 2 0h-2Zm2 5.13a1 1 0 0 0-2 0h2ZM88.948 63a1 1 0 1 0 0 2v-2Zm-9.113 2a1 1 0 1 0 0-2v2Zm-9.112-2a1 1 0 1 0 0 2v-2Zm-9.113 2a1 1 0 1 0 0-2v2Zm-3.556-6.242a1 1 0 0 0-2 0h2Zm-2-10.486a1 1 0 1 0 2 0h-2Zm2-10.484a1 1 0 0 0-2 0h2Zm-2-10.485a1 1 0 1 0 2 0h-2Zm2-10.486a1 1 0 0 0-2 0h2Zm-2-10.485a1 1 0 1 0 2 0h-2ZM61.61 2.09a1 1 0 1 0 0-2v2Zm9.112-2a1 1 0 1 0 0 2v-2Zm9.113 2a1 1 0 1 0 0-2v2Zm9.113-2a1 1 0 1 0 0 2v-2Zm3.556 3.565a1 1 0 1 0 2 0h-2Zm2 5.13a1 1 0 0 0-2 0h2ZM87.54 10.35a1 1 0 1 0 0 2v-2Zm-11.925 2a1 1 0 0 0 0-2v2Zm-6.962-1v3.938h2V11.35h-2Zm0 11.813V27.1h2v-3.938h-2Zm1 4.937h5.287v-2h-5.287v2Zm15.862 0h5.288v-2h-5.288v2Zm4.288-1v2.497h2V27.1h-2Zm0 7.492v2.498h2v-2.498h-2Zm1 1.498h-5.288v2h5.288v-2Zm-15.863 0h-5.287v2h5.287v-2Zm-6.287 1v4.162h2V37.09h-2Zm0 12.487v4.163h2v-4.163h-2Zm1 5.163h5.962v-2h-5.962v2Zm17.887 0h5.963v-2H87.54v2Zm4.963-1v2.565h2V53.74h-2Zm0 7.695V64h2v-2.565h-2Zm1 1.565h-4.556v2h4.556v-2Zm-13.669 0h-9.112v2h9.112v-2ZM61.61 63h-4.556v2h4.556v-2Zm-3.556 1v-5.242h-2V64h2Zm0-15.727V37.787h-2v10.486h2Zm0-20.97V16.816h-2v10.485h2Zm0-20.97V1.09h-2v5.242h2Zm-1-4.243h4.556v-2h-4.556v2Zm13.668 0h9.113v-2h-9.112v2Zm18.226 0h4.556v-2h-4.556v2Zm3.556-1v2.565h2V1.09h-2Zm0 7.695v2.565h2V8.785h-2Zm1 1.565H87.54v2h5.963v-2Zm-17.888 0h-5.962v2h5.962v-2Zm72.088-9.17h.5v-.5h-.5v.5Zm0 10.17v.5h.5v-.5h-.5Zm-16.74 0v-.5h-.5v.5h.5Zm0 52.65v.5h.5V64h-.5Zm-12.6 0h-.5v.5h.5V64Zm0-52.65h.5v-.5h-.5v.5Zm-16.74 0h-.5v.5h.5v-.5Zm0-10.17v-.5h-.5v.5h.5Zm40.32-.5a.5.5 0 0 0 0 1v-1Zm-11.52 1a.5.5 0 0 0 0-1v1Zm-11.52-1a.5.5 0 0 0 0 1v-1Zm-11.52 1a.5.5 0 0 0 0-1v1Zm-6.26 2.043a.5.5 0 0 0 1 0h-1Zm1 5.084a.5.5 0 0 0-1 0h1Zm3.685 3.043a.5.5 0 0 0 0-1v1Zm8.37-1a.5.5 0 0 0 0 1v-1Zm3.685 4.888a.5.5 0 0 0 1 0h-1Zm1 8.774a.5.5 0 0 0-1 0h1Zm-1 8.776a.5.5 0 0 0 1 0h-1Zm1 8.775a.5.5 0 0 0-1 0h1Zm-1 8.774a.5.5 0 0 0 1 0h-1Zm1 8.775a.5.5 0 0 0-1 0h1Zm2.65 4.888a.5.5 0 0 0 0-1v1Zm6.3-1a.5.5 0 0 0 0 1v-1Zm3.65-3.888a.5.5 0 0 0-1 0h1Zm-1-8.775a.5.5 0 0 0 1 0h-1Zm1-8.775a.5.5 0 0 0-1 0h1Zm-1-8.774a.5.5 0 0 0 1 0h-1Zm1-8.775a.5.5 0 0 0-1 0h1Zm-1-8.776a.5.5 0 0 0 1 0h-1Zm4.685-3.887a.5.5 0 0 0 0-1v1Zm8.37-1a.5.5 0 0 0 0 1v-1Zm4.685-2.043a.5.5 0 0 0-1 0h1Zm-1-5.085a.5.5 0 0 0 1 0h-1Zm.5-3.042h-5.76v1h5.76v-1Zm-17.28 0h-11.52v1h11.52v-1Zm-23.04 0h-5.76v1h5.76v-1Zm-6.26.5v2.543h1V1.18h-1Zm0 7.627v2.543h1V8.807h-1Zm.5 3.043h4.185v-1h-4.185v1Zm12.555 0h4.185v-1h-4.185v1Zm3.685-.5v4.388h1V11.35h-1Zm0 13.162v8.776h1v-8.775h-1Zm0 17.55v8.776h1v-8.776h-1Zm0 17.55V64h1v-4.388h-1Zm.5 4.888h3.15v-1h-3.15v1Zm9.45 0h3.15v-1h-3.15v1Zm3.65-.5v-4.388h-1V64h1Zm0-13.163v-8.775h-1v8.776h1Zm0-17.55v-8.774h-1v8.774h1Zm0-17.55V11.35h-1v4.388h1Zm-.5-3.887h4.185v-1h-4.185v1Zm12.555 0h4.185v-1h-4.185v1Zm4.685-.5V8.807h-1v2.543h1Zm0-7.627V1.18h-1v2.543h1Zm-.5-2.543h1v-1h-1v1Zm0 10.17v1h1v-1h-1Zm-16.74 0v-1h-1v1h1Zm0 52.65v1h1v-1h-1Zm-12.6 0h-1v1h1v-1Zm0-52.65h1v-1h-1v1Zm-16.74 0h-1v1h1v-1Zm0-10.17v-1h-1v1h1Zm40.32-1a1 1 0 0 0 0 2v-2Zm-11.52 2a1 1 0 0 0 0-2v2Zm-11.52-2a1 1 0 0 0 0 2v-2Zm-11.52 2a1 1 0 0 0 0-2v2Zm-6.76 1.542a1 1 0 0 0 2 0h-2Zm2 5.085a1 1 0 0 0-2 0h2Zm3.185 3.543a1 1 0 0 0 0-2v2Zm8.37-2a1 1 0 0 0 0 2v-2Zm3.185 5.388a1 1 0 0 0 2 0h-2Zm2 8.774a1 1 0 0 0-2 0h2Zm-2 8.776a1 1 0 0 0 2 0h-2Zm2 8.775a1 1 0 0 0-2 0h2Zm-2 8.774a1 1 0 0 0 2 0h-2Zm2 8.775a1 1 0 0 0-2 0h2Zm2.15 5.388a1 1 0 0 0 0-2v2Zm6.3-2a1 1 0 0 0 0 2v-2Zm4.15-3.388a1 1 0 0 0-2 0h2Zm-2-8.775a1 1 0 0 0 2 0h-2Zm2-8.775a1 1 0 0 0-2 0h2Zm-2-8.774a1 1 0 0 0 2 0h-2Zm2-8.775a1 1 0 0 0-2 0h2Zm-2-8.776a1 1 0 0 0 2 0h-2Zm5.185-3.387a1 1 0 0 0 0-2v2Zm8.37-2a1 1 0 0 0 0 2v-2Zm5.185-1.543a1 1 0 0 0-2 0h2Zm-2-5.085a1 1 0 0 0 2 0h-2Zm1-3.542h-5.76v2h5.76v-2Zm-17.28 0h-11.52v2h11.52v-2Zm-23.04 0h-5.76v2h5.76v-2Zm-6.76 1v2.543h2V1.18h-2Zm0 7.627v2.543h2V8.807h-2Zm1 3.543h4.185v-2h-4.185v2Zm12.555 0h4.185v-2h-4.185v2Zm3.185-1v4.388h2V11.35h-2Zm0 13.162v8.776h2v-8.775h-2Zm0 17.55v8.776h2v-8.776h-2Zm0 17.55V64h2v-4.388h-2Zm1 5.388h3.15v-2h-3.15v2Zm9.45 0h3.15v-2h-3.15v2Zm4.15-1v-4.388h-2V64h2Zm0-13.163v-8.775h-2v8.776h2Zm0-17.55v-8.774h-2v8.774h2Zm0-17.55V11.35h-2v4.388h2Zm-1-3.387h4.185v-2h-4.185v2Zm12.555 0h4.185v-2h-4.185v2Zm5.185-1V8.807h-2v2.543h2Zm0-7.627V1.18h-2v2.543h2Zm20.614-2.543h.5v-.5h-.5v.5Zm3.33 48.69-.359.349.005.005.354-.354Zm18.81 0 .353.354.005-.005-.358-.349Zm3.33-48.69v-.5h-.5v.5h.5Zm12.69 0h.5v-.5h-.5v.5Zm-3.51 52.38-.424-.266-.001.002.425.264Zm-9.27 8.28-.216-.451-.002.001.218.45Zm-25.65 0-.221.449.003.001.218-.45Zm-9-8.28-.43.256.002.003.428-.259Zm-3.33-52.38v-.5h-.5v.5h.5Zm9.45-.5a.5.5 0 1 0 0 1v-1Zm-6.3 1a.5.5 0 0 0 0-1v1Zm-3.65 4.349a.5.5 0 1 0 1 0h-1Zm1 9.697a.5.5 0 0 0-1 0h1Zm-1 9.698a.5.5 0 1 0 1 0h-1Zm1 9.697a.5.5 0 0 0-1 0h1Zm-.824 8.435a.5.5 0 0 0 .995-.101l-.995.102Zm2.568 6.644a.5.5 0 1 0-.931.363l.931-.364Zm2.476 6.21a.5.5 0 1 0 .777-.628l-.777.629Zm5.213 3.46a.5.5 0 0 0-.563.827l.563-.827Zm5.285 3.695a.5.5 0 1 0 .322-.947l-.322.947Zm6.647.407a.5.5 0 0 0-.099.995l.099-.995Zm6.609.997a.5.5 0 0 0-.097-.995l.097.995Zm6.274-2.345a.5.5 0 1 0 .321.947l-.321-.947Zm6.25-1.91a.5.5 0 1 0-.55-.836l.55.835Zm4.025-4.921a.5.5 0 0 0 .768.64l-.768-.64Zm4.315-5.2a.5.5 0 0 0-.925-.382l.925.382Zm.739-7.127a.5.5 0 0 0 .995.108l-.995-.107Zm1.183-8.345a.5.5 0 0 0-1 0h1Zm-1-9.697a.5.5 0 1 0 1 0h-1Zm1-9.698a.5.5 0 0 0-1 0h1Zm-1-9.697a.5.5 0 1 0 1 0h-1ZM204.305.68a.5.5 0 0 0 0 1v-1Zm-6.345 1a.5.5 0 0 0 0-1v1Zm-3.672 4.36a.5.5 0 1 0 1 0h-1Zm1 9.72a.5.5 0 0 0-1 0h1Zm-1 9.72a.5.5 0 1 0 1 0h-1Zm1 9.72a.5.5 0 0 0-1 0h1Zm-1.156 7.448a.501.501 0 0 0 .993.126l-.993-.126Zm-.651 5.348a.5.5 0 0 0-.87-.494l.87.494Zm-4.307 3.015a.5.5 0 0 0 .509.86l-.509-.86Zm-4.534 2.522a.5.5 0 1 0-.133-.99l.133.99Zm-5.109-.992a.5.5 0 1 0-.135.99l.135-.99Zm-5.132-.678a.5.5 0 0 0 .513-.86l-.513.86Zm-2.905-4.36a.5.5 0 0 0-.87.493l.87-.494Zm-2.514-4.73a.5.5 0 0 0 .993-.125l-.993.126Zm.838-7.573a.5.5 0 0 0-1 0h1Zm-1-9.72a.5.5 0 1 0 1 0h-1Zm1-9.72a.5.5 0 0 0-1 0h1Zm-1-9.72a.5.5 0 1 0 1 0h-1Zm.5-5.36h-3.15v1h3.15v-1Zm-9.45 0h-3.15v1h3.15v-1Zm-3.65.5v4.849h1V1.18h-1Zm0 14.546v9.698h1v-9.698h-1Zm0 19.395v4.849h1v-4.849h-1Zm0 4.849c0 1.237.058 2.432.176 3.587l.995-.102a34.365 34.365 0 0 1-.171-3.485h-1Zm1.813 10.593a21.775 21.775 0 0 0 1.587 3.253l.859-.512a20.817 20.817 0 0 1-1.515-3.105l-.931.364Zm1.589 3.256a23.386 23.386 0 0 0 1.818 2.592l.777-.63a22.554 22.554 0 0 1-1.74-2.48l-.855.518Zm6.468 6.878a22.529 22.529 0 0 0 2.739 1.592l.441-.898a21.58 21.58 0 0 1-2.617-1.521l-.563.827Zm2.742 1.593a27.27 27.27 0 0 0 3.106 1.275l.322-.947a26.387 26.387 0 0 1-2.993-1.228l-.435.9Zm9.654 2.677c1.091.109 2.206.163 3.344.163v-1c-1.107 0-2.188-.053-3.245-.158l-.099.995Zm3.344.163a34.46 34.46 0 0 0 3.364-.161l-.097-.995a33.478 33.478 0 0 1-3.267.156v1Zm9.959-1.56a27.103 27.103 0 0 0 3.128-1.28l-.435-.9c-.975.472-1.98.883-3.014 1.233l.321.948Zm3.126-1.279c.984-.47 1.919-.995 2.803-1.578l-.55-.835c-.845.557-1.74 1.06-2.684 1.51l.431.903Zm7.596-5.858a23.268 23.268 0 0 0 1.883-2.609l-.849-.528a22.29 22.29 0 0 1-1.802 2.497l.768.64Zm1.882-2.607a21.394 21.394 0 0 0 1.665-3.233l-.925-.382a20.243 20.243 0 0 1-1.587 3.083l.847.532Zm3.399-10.252c.125-1.16.188-2.361.188-3.604h-1c0 1.21-.061 2.375-.183 3.497l.995.107Zm.188-3.604v-4.849h-1v4.849h1Zm0-14.546v-9.698h-1v9.698h1Zm0-19.395V1.18h-1v4.849h1Zm-.5-5.349h-3.173v1h3.173v-1Zm-9.518 0h-3.172v1h3.172v-1Zm-3.672.5v4.86h1V1.18h-1Zm0 14.58v9.72h1v-9.72h-1Zm0 19.44v4.86h1V35.2h-1Zm0 4.86c0 .912-.052 1.774-.156 2.588l.993.126c.108-.86.163-1.764.163-2.714h-1Zm-1.677 7.442a9.86 9.86 0 0 1-1.512 2.02l.717.697c.645-.663 1.2-1.404 1.665-2.223l-.87-.494Zm-1.507 2.014a9.697 9.697 0 0 1-1.93 1.495l.509.86a10.69 10.69 0 0 0 2.128-1.647l-.707-.708Zm-6.597 3.026c-.786.105-1.619.158-2.499.158v1c.92 0 1.798-.055 2.632-.167l-.133-.99Zm-2.499.158c-.873 0-1.698-.053-2.477-.16l-.135.991c.828.113 1.699.169 2.612.169v-1Zm-7.096-1.696a9.777 9.777 0 0 1-1.911-1.488l-.707.708a10.77 10.77 0 0 0 2.105 1.639l.513-.86Zm-1.906-1.483a9.86 9.86 0 0 1-1.512-2.019l-.87.494c.465.819 1.02 1.56 1.665 2.223l.717-.698Zm-3.033-6.873a20.428 20.428 0 0 1-.155-2.588h-1c0 .95.054 1.854.162 2.714l.993-.126Zm-.155-2.588V35.2h-1v4.86h1Zm0-14.58v-9.72h-1v9.72h1Zm0-19.44V1.18h-1v4.86h1Zm-.5-4.86h1v-1h-1v1Zm3.33 48.69-.717.698.009.01.708-.708Zm18.81 0 .707.707.009-.01-.716-.697Zm3.33-48.69v-1h-1v1h1Zm12.69 0h1v-1h-1v1Zm-3.51 52.38-.847-.532-.002.003.849.529Zm-9.27 8.28-.431-.903-.005.003.436.9Zm-25.65 0-.442.897.006.003.436-.9Zm-9-8.28-.859.512.003.007.856-.519Zm-3.33-52.38v-1h-1v1h1Zm9.45-1a1 1 0 1 0 0 2v-2Zm-6.3 2a1 1 0 0 0 0-2v2Zm-4.15 3.849a1 1 0 1 0 2 0h-2Zm2 9.697a1 1 0 0 0-2 0h2Zm-2 9.698a1 1 0 1 0 2 0h-2Zm2 9.697a1 1 0 0 0-2 0h2Zm-1.821 8.486a1 1 0 1 0 1.989-.203l-1.989.203Zm3.531 6.41a1 1 0 0 0-1.863.728l1.863-.727Zm1.621 6.708a1 1 0 1 0 1.555-1.258l-1.555 1.258Zm5.883 2.732a1 1 0 1 0-1.125 1.653l1.125-1.653Zm4.843 4.581a1 1 0 1 0 .644-1.893l-.644 1.893Zm6.858-.563a1 1 0 1 0-.198 1.99l.198-1.99Zm6.608 1.991a1 1 0 1 0-.195-1.99l.195 1.99Zm6.065-3.316a1 1 0 1 0 .641 1.894l-.641-1.894Zm6.685-1.02a1 1 0 1 0-1.1-1.67l1.1 1.67Zm3.366-5.657a1 1 0 1 0 1.536 1.28l-1.536-1.28Zm5.161-4.69a1 1 0 1 0-1.849-.762l1.849.763Zm-.22-7.37a1 1 0 0 0 1.989.215l-1.989-.215Zm2.18-8.292a1 1 0 0 0-2 0h2Zm-2-9.697a1 1 0 1 0 2 0h-2Zm2-9.698a1 1 0 0 0-2 0h2Zm-2-9.697a1 1 0 1 0 2 0h-2ZM204.305.18a1 1 0 0 0 0 2v-2Zm-6.345 2a1 1 0 0 0 0-2v2Zm-4.172 3.86a1 1 0 1 0 2 0h-2Zm2 9.72a1 1 0 0 0-2 0h2Zm-2 9.72a1 1 0 1 0 2 0h-2Zm2 9.72a1 1 0 0 0-2 0h2Zm-2.152 7.385a1 1 0 0 0 1.985.252l-1.985-.252Zm.28 5.658a1 1 0 0 0-1.74-.988l1.74.988Zm-4.996 2.338a1 1 0 0 0 1.018 1.721l-1.018-1.721Zm-4.214 3.448a1 1 0 0 0-.265-1.983l.265 1.983Zm-5.108-1.984a1 1 0 0 0-.27 1.982l.27-1.982Zm-5.455.247a1 1 0 1 0 1.025-1.718l-1.025 1.718Zm-2.214-5.037a1 1 0 0 0-1.74.988l1.74-.988Zm-3.445-4.419a1 1 0 0 0 1.985-.251l-1.985.252Zm1.834-7.636a1 1 0 0 0-2 0h2Zm-2-9.72a1 1 0 1 0 2 0h-2Zm2-9.72a1 1 0 0 0-2 0h2Zm-2-9.72a1 1 0 1 0 2 0h-2Zm1-5.86h-3.15v2h3.15v-2Zm-9.45 0h-3.15v2h3.15v-2Zm-4.15 1v4.849h2V1.18h-2Zm0 14.546v9.698h2v-9.698h-2Zm0 19.395v4.849h2v-4.849h-2Zm0 4.849c0 1.253.059 2.465.179 3.637l1.989-.203a33.915 33.915 0 0 1-.168-3.434h-2Zm1.847 10.775a22.264 22.264 0 0 0 1.624 3.328l1.717-1.026a20.329 20.329 0 0 1-1.478-3.03l-1.863.728Zm1.627 3.334c.569.937 1.188 1.82 1.857 2.646l1.555-1.258a21.879 21.879 0 0 1-1.701-2.426l-1.711 1.038Zm6.615 7.031a23.06 23.06 0 0 0 2.799 1.627l.883-1.794c-.9-.443-1.752-.939-2.557-1.486l-1.125 1.653Zm2.805 1.63c1.025.497 2.08.93 3.163 1.298l.644-1.893a25.882 25.882 0 0 1-2.936-1.205l-.871 1.8Zm9.823 2.725c1.108.11 2.239.165 3.393.165v-2c-1.091 0-2.155-.052-3.195-.155l-.198 1.99Zm3.393.165c1.162 0 2.3-.054 3.413-.164l-.195-1.99a32.992 32.992 0 0 1-3.218.154v2Zm10.119-1.586a27.589 27.589 0 0 0 3.186-1.304l-.871-1.8c-.956.463-1.942.866-2.956 1.21l.641 1.894Zm3.181-1.301a23.87 23.87 0 0 0 2.863-1.612l-1.1-1.67a21.86 21.86 0 0 1-2.624 1.476l.861 1.806Zm7.765-5.99a23.8 23.8 0 0 0 1.923-2.664l-1.697-1.058a21.876 21.876 0 0 1-1.762 2.442l1.536 1.28Zm1.921-2.66a21.886 21.886 0 0 0 1.704-3.31l-1.849-.762a19.842 19.842 0 0 1-1.548 3.007l1.693 1.065Zm3.473-10.465c.127-1.179.191-2.398.191-3.658h-2c0 1.193-.06 2.34-.18 3.443l1.989.215Zm.191-3.658v-4.849h-2v4.849h2Zm0-14.546v-9.698h-2v9.698h2Zm0-19.395V1.18h-2v4.849h2Zm-1-5.849h-3.173v2h3.173v-2Zm-9.518 0h-3.172v2h3.172v-2Zm-4.172 1v4.86h2V1.18h-2Zm0 14.58v9.72h2v-9.72h-2Zm0 19.44v4.86h2V35.2h-2Zm0 4.86c0 .893-.051 1.734-.152 2.525l1.985.252c.111-.883.167-1.808.167-2.777h-2Zm-1.612 7.195a9.332 9.332 0 0 1-1.435 1.917l1.433 1.396a11.376 11.376 0 0 0 1.742-2.325l-1.74-.988Zm-1.426 1.908a9.175 9.175 0 0 1-1.83 1.418l1.018 1.721a11.213 11.213 0 0 0 2.227-1.725l-1.415-1.414Zm-6.309 2.884c-.762.101-1.573.153-2.433.153v2c.94 0 1.84-.056 2.698-.171l-.265-1.983Zm-2.433.153c-.852 0-1.655-.052-2.41-.155l-.27 1.982a19.87 19.87 0 0 0 2.68.173v-2Zm-6.84-1.626a9.275 9.275 0 0 1-1.813-1.411l-1.415 1.414a11.299 11.299 0 0 0 2.203 1.715l1.025-1.718Zm-1.804-1.402a9.332 9.332 0 0 1-1.435-1.917l-1.74.988a11.376 11.376 0 0 0 1.742 2.325l1.433-1.396Zm-2.895-6.587a19.947 19.947 0 0 1-.151-2.525h-2c0 .969.055 1.894.166 2.776l1.985-.251Zm-.151-2.525V35.2h-2v4.86h2Zm0-14.58v-9.72h-2v9.72h2Zm0-19.44V1.18h-2v4.86h2Zm92.713 24.03-.438-.241-.003.007.441.234Zm-7.47 7.11-.232-.443-.004.002.236.441Zm-23.31 2.7v-.5h-.5v.5h.5Zm0 24.12v.5h.5V64h-.5Zm-12.6 0h-.5v.5h.5V64Zm0-62.82v-.5h-.5v.5h.5Zm35.55 2.52.221-.449-.221.449Zm7.65 6.93-.434.248.004.007.43-.255Zm-12.87 16.74.341.366.006-.006-.347-.36Zm-17.73-15.93v-.5h-.5v.5h.5Zm0 18.27h-.5v.5h.5v-.5Zm33.557-11.756a.5.5 0 1 0-.993.117l.993-.117Zm-2.253-4.797a.5.5 0 0 0 .925-.382l-.925.382Zm-1.797-5.001a.5.5 0 1 0-.775.632l.775-.632Zm-4.555-2.743a.5.5 0 0 0 .549-.836l-.549.836Zm-4.812-3.378a.5.5 0 1 0-.305.953l.305-.953Zm-6.459-.227a.5.5 0 0 0 .084-.997l-.084.997ZM236.999.68a.5.5 0 0 0 0 1v-1Zm-11.565 1a.5.5 0 0 0 0-1v1Zm-6.283 4.735a.5.5 0 0 0 1 0h-1Zm1 10.47a.5.5 0 1 0-1 0h1Zm-1 10.47a.5.5 0 0 0 1 0h-1Zm1 10.47a.5.5 0 1 0-1 0h1Zm-1 10.47a.5.5 0 0 0 1 0h-1Zm1 10.47a.5.5 0 1 0-1 0h1Zm2.65 5.735a.5.5 0 1 0 0-1v1Zm6.3-1a.5.5 0 0 0 0 1v-1Zm3.65-5.53a.5.5 0 1 0-1 0h1Zm-1-12.06a.5.5 0 0 0 1 0h-1Zm3.133-5.53a.5.5 0 0 0 0-1v1Zm5.265-1a.5.5 0 0 0 0 1v-1Zm5.969.866a.5.5 0 0 0-.083-.997l.083.997Zm6.256-2.242a.5.5 0 0 0 .319.948l-.319-.948Zm5.712-1.765a.5.5 0 1 0-.568-.822l.568.822Zm3.131-4.28a.5.5 0 1 0 .79.613l-.79-.612Zm3.335-3.93a.5.5 0 0 0-.929-.372l.929.372Zm.264-5.01a.5.5 0 1 0 .992.122l-.992-.122Zm-25.072 6.191a.5.5 0 0 0 0 1v-1Zm-4.995 1a.5.5 0 0 0 0-1v1Zm-1.998-5.068a.5.5 0 1 0-1 0h1Zm-1-9.134a.5.5 0 0 0 1 0h-1Zm2.998-4.068a.5.5 0 0 0 0-1v1Zm4.995-1a.5.5 0 0 0 0 1v-1Zm6.295 1.405a.5.5 0 1 0 .237-.972l-.237.972Zm6.341 4.224a.501.501 0 0 0-.943.334l.943-.334Zm-.501 5.826a.5.5 0 0 0 .99.144l-.99-.144Zm-.307 3.808a.5.5 0 0 0-.847-.533l.847.532Zm-3.515 1.886a.5.5 0 1 0 .448.894l-.448-.894Zm-3.697 2.016a.5.5 0 0 0-.105-.995l.105.995Zm21.601-9.485c0-.91-.051-1.799-.153-2.666l-.993.117c.097.827.146 1.676.146 2.549h1Zm-1.481-7.845a18.719 18.719 0 0 0-1.198-2.4l-.861.51c.434.732.812 1.49 1.134 2.272l.925-.382Zm-1.194-2.393a16.342 16.342 0 0 0-1.528-2.226l-.775.632a15.268 15.268 0 0 1 1.434 2.09l.869-.496Zm-5.534-5.805a21.416 21.416 0 0 0-2.33-1.326l-.441.898c.79.388 1.53.81 2.222 1.264l.549-.836Zm-2.33-1.326a22.288 22.288 0 0 0-3.031-1.216l-.305.953c1.019.326 1.984.713 2.895 1.16l.441-.897Zm-9.406-2.44a38.666 38.666 0 0 0-3.235-.131v1c1.089 0 2.139.043 3.151.128l.084-.997ZM242.781.68h-5.782v1h5.782v-1Zm-17.347 0h-5.783v1h5.783v-1Zm-6.283.5v5.235h1V1.18h-1Zm0 15.705v10.47h1v-10.47h-1Zm0 20.94v10.47h1v-10.47h-1Zm0 20.94V64h1v-5.235h-1Zm.5 5.735h3.15v-1h-3.15v1Zm9.45 0h3.15v-1h-3.15v1Zm3.65-.5v-6.03h-1V64h1Zm0-18.09v-6.03h-1v6.03h1Zm-.5-5.53h2.633v-1h-2.633v1Zm7.898 0h2.632v-1h-2.632v1Zm2.632 0c1.156 0 2.268-.045 3.337-.134l-.083-.997c-1.04.087-2.124.131-3.254.131v1Zm9.912-1.428a20.158 20.158 0 0 0 3.105-1.331l-.473-.882c-.912.49-1.896.911-2.951 1.265l.319.948Zm3.101-1.33c.814-.428 1.579-.889 2.292-1.383l-.568-.822a21.3 21.3 0 0 1-2.189 1.32l.465.886Zm6.213-5.05a15.714 15.714 0 0 0 1.466-2.268l-.883-.468a14.805 14.805 0 0 1-1.373 2.124l.79.612Zm1.462-2.26a20.46 20.46 0 0 0 1.083-2.283l-.929-.372c-.294.736-.637 1.46-1.03 2.172l.876.482Zm2.339-7.17a20.6 20.6 0 0 0 .153-2.522h-1c0 .813-.048 1.613-.145 2.399l.992.122Zm-23.567 6.068h-2.497v1h2.497v-1Zm-7.492 0h-2.498v1h2.498v-1Zm-1.998.5v-4.568h-1v4.568h1Zm0-13.703V11.44h-1v4.568h1Zm-.5-4.067h2.498v-1h-2.498v1Zm7.493 0h2.497v-1h-2.497v1Zm2.497 0c1.431 0 2.696.137 3.798.405l.237-.972c-1.196-.29-2.542-.433-4.035-.433v1Zm9.196 4.963c.372 1.053.564 2.29.564 3.717h1c0-1.515-.203-2.868-.621-4.05l-.943.333Zm.564 3.717c0 .626-.041 1.217-.122 1.775l.99.144c.089-.61.132-1.25.132-1.919h-1Zm-1.276 5.05a7.09 7.09 0 0 1-1.091 1.34l.694.72c.478-.46.893-.97 1.244-1.527l-.847-.533Zm-1.084 1.334c-.453.42-.98.782-1.584 1.085l.448.894a7.761 7.761 0 0 0 1.817-1.247l-.681-.732Zm-5.386 2.106c-.63.067-1.301.1-2.014.1v1c.744 0 1.45-.035 2.119-.105l-.105-.995Zm18.776.96-.875-.483-.004.007-.004.007.883.469Zm-7.47 7.11-.465-.885-.007.003.472.882Zm-23.31 2.7v-1h-1v1h1Zm0 24.12v1h1v-1h-1Zm-12.6 0h-1v1h1v-1Zm0-62.82v-1h-1v1h1Zm35.55 2.52.441-.898-.441.898Zm7.65 6.93-.868.496.004.007.004.006.86-.509Zm-12.87 16.74.681.733.007-.007.007-.006-.695-.72Zm-17.73-15.93v-1h-1v1h1Zm0 18.27h-1v1h1v-1Zm34.054-11.815a1 1 0 0 0-1.987.235l1.987-.235Zm-3.212-4.548a1 1 0 1 0 1.849-.762l-1.849.762Zm-.947-5.507a1 1 0 1 0-1.55 1.264l1.55-1.264Zm-5.217-2.01a.999.999 0 1 0 1.098-1.67l-1.098 1.67Zm-4.386-4.27a1 1 0 1 0-.61 1.904l.61-1.905Zm-6.653.746a1 1 0 0 0 .168-1.993l-.168 1.993ZM236.999.18a1 1 0 0 0 0 2v-2Zm-11.565 2a1 1 0 0 0 0-2v2Zm-6.783 4.235a1 1 0 0 0 2 0h-2Zm2 10.47a1 1 0 1 0-2 0h2Zm-2 10.47a1 1 0 0 0 2 0h-2Zm2 10.47a1 1 0 1 0-2 0h2Zm-2 10.47a1 1 0 0 0 2 0h-2Zm2 10.47a1 1 0 1 0-2 0h2Zm2.15 6.235a1 1 0 1 0 0-2v2Zm6.3-2a1 1 0 0 0 0 2v-2Zm4.15-5.03a1 1 0 1 0-2 0h2Zm-2-12.06a1 1 0 0 0 2 0h-2Zm3.633-5.03a1 1 0 0 0 0-2v2Zm5.265-2a1 1 0 0 0 0 2v-2Zm6.011 1.864a1 1 0 0 0-.167-1.993l.167 1.993Zm6.055-3.214a1 1 0 0 0 .637 1.896l-.637-1.896Zm6.156-.88a1 1 0 1 0-1.138-1.644l1.138 1.644Zm2.451-4.997a1 1 0 1 0 1.58 1.226l-1.58-1.226Zm4.194-3.438a1 1 0 1 0-1.857-.743l1.857.743Zm-.696-5.258a1 1 0 1 0 1.985.245l-1.985-.245Zm-24.576 5.753a1 1 0 0 0 0 2v-2Zm-4.995 2a1 1 0 0 0 0-2v2Zm-1.498-5.568a1 1 0 1 0-2 0h2Zm-2-9.134a1 1 0 0 0 2 0h-2Zm3.498-3.568a1 1 0 0 0 0-2v2Zm4.995-2a1 1 0 0 0 0 2v-2Zm6.177 2.39a1 1 0 1 0 .473-1.943l-.473 1.944Zm6.93 3.572a1 1 0 0 0-1.886.668l1.886-.668Zm-1.467 5.921a1 1 0 0 0 1.98.288l-1.98-.288Zm.611 4.146a1 1 0 0 0-1.693-1.065l1.693 1.065Zm-4.162 1.173a1 1 0 0 0 .896 1.788l-.896-1.788Zm-3.421 2.96a1 1 0 0 0-.209-1.989l.209 1.99Zm22.049-9.982c0-.929-.052-1.837-.156-2.725l-1.987.235c.096.806.143 1.636.143 2.49h2Zm-1.519-8.035c-.35-.849-.76-1.67-1.23-2.464l-1.721 1.018a17.24 17.24 0 0 1 1.102 2.208l1.849-.762Zm-1.222-2.451a16.912 16.912 0 0 0-1.574-2.294l-1.55 1.264c.517.634.979 1.308 1.387 2.022l1.737-.992Zm-5.693-5.975a21.953 21.953 0 0 0-2.385-1.357l-.881 1.796c.772.379 1.494.79 2.168 1.233l1.098-1.672Zm-2.385-1.357a22.741 22.741 0 0 0-3.099-1.243l-.61 1.905c.997.32 1.939.697 2.828 1.134l.881-1.796Zm-9.584-2.49a39.174 39.174 0 0 0-3.277-.132v2c1.076 0 2.112.042 3.109.126l.168-1.993ZM242.781.18h-5.782v2h5.782v-2Zm-17.347 0h-5.783v2h5.783v-2Zm-6.783 1v5.235h2V1.18h-2Zm0 15.705v10.47h2v-10.47h-2Zm0 20.94v10.47h2v-10.47h-2Zm0 20.94V64h2v-5.235h-2Zm1 6.235h3.15v-2h-3.15v2Zm9.45 0h3.15v-2h-3.15v2Zm4.15-1v-6.03h-2V64h2Zm0-18.09v-6.03h-2v6.03h2Zm-1-5.03h2.633v-2h-2.633v2Zm7.898 0h2.632v-2h-2.632v2Zm2.632 0c1.168 0 2.295-.045 3.379-.136l-.167-1.993a38.503 38.503 0 0 1-3.212.129v2Zm10.071-1.454a20.642 20.642 0 0 0 3.182-1.364l-.945-1.764c-.886.475-1.844.886-2.874 1.232l.637 1.896Zm3.175-1.361a22.735 22.735 0 0 0 2.344-1.415l-1.138-1.644c-.661.457-1.373.887-2.137 1.29l.931 1.769Zm6.375-5.186a16.22 16.22 0 0 0 1.513-2.34l-1.767-.938c-.382.72-.824 1.405-1.326 2.052l1.58 1.226Zm1.505-2.326c.421-.765.791-1.544 1.109-2.338l-1.857-.743a19.206 19.206 0 0 1-1.003 2.115l1.751.966Zm2.398-7.35c.104-.85.156-1.71.156-2.583h-2c0 .793-.047 1.572-.141 2.337l1.985.245Zm-24.064 5.507h-2.497v2h2.497v-2Zm-7.492 0h-2.498v2h2.498v-2Zm-1.498 1v-4.568h-2v4.568h2Zm0-13.703V11.44h-2v4.568h2Zm-1-3.567h2.498v-2h-2.498v2Zm7.493 0h2.497v-2h-2.497v2Zm2.497 0c1.4 0 2.624.134 3.68.39l.473-1.943c-1.242-.302-2.629-.447-4.153-.447v2Zm8.724 4.63c.35.988.536 2.166.536 3.55h2c0-1.559-.209-2.97-.65-4.218l-1.886.668Zm.536 3.55c0 .604-.039 1.171-.117 1.703l1.98.288c.092-.636.137-1.3.137-1.991h-2Zm-1.199 4.784a6.627 6.627 0 0 1-1.015 1.246l1.389 1.44a8.672 8.672 0 0 0 1.319-1.621l-1.693-1.065Zm-1.001 1.233a6.27 6.27 0 0 1-1.468 1.005l.896 1.788a8.26 8.26 0 0 0 1.933-1.327l-1.361-1.466Zm-5.098 1.976a18.81 18.81 0 0 1-1.962.097v2c.759 0 1.483-.036 2.171-.108l-.209-1.989Z" opacity=".33"/>
</svg>