<svg width="294" height="65" viewBox="0 0 294 65" fill="none" xmlns="http://www.w3.org/2000/svg">
<path opacity="0.33" d="M192.064 13.891C192.821 13.4335 193.605 13.0343 194.415 12.6937C194.67 12.5866 194.963 12.7063 195.07 12.9608C195.071 12.963 195.072 12.9652 195.073 12.9674C196.341 12.4762 197.674 12.129 199.071 11.9255C199.071 11.9235 199.07 11.9214 199.07 11.9193C199.037 11.6452 199.233 11.3962 199.507 11.3633C200.36 11.2608 201.235 11.2098 202.131 11.2098C202.952 11.2098 203.751 11.2521 204.528 11.3371C204.802 11.3672 205.001 11.6141 204.971 11.8886C204.97 11.8907 204.97 11.8928 204.97 11.8949C206.23 12.0654 207.425 12.3539 208.553 12.7604C208.554 12.7579 208.555 12.7555 208.556 12.7531C208.658 12.4963 208.948 12.3705 209.205 12.4721C209.959 12.7706 210.684 13.1219 211.38 13.5263C212.079 13.9235 212.738 14.372 213.356 14.8716C213.571 15.0451 213.605 15.3599 213.431 15.5747C213.429 15.5771 213.427 15.5793 213.425 15.5816C214.324 16.3624 215.129 17.2613 215.839 18.2783C215.841 18.2769 215.844 18.2755 215.846 18.2741C216.077 18.1231 216.387 18.1881 216.538 18.4193C216.907 18.984 217.248 19.5809 217.563 20.2098H220.873C221.15 20.2098 221.373 20.4336 221.373 20.7098H227.618C227.618 20.4336 227.842 20.2098 228.118 20.2098H231.042C230.591 18.9339 230.074 17.7175 229.491 16.5602C229.367 16.3149 229.464 16.016 229.708 15.8906C228.369 13.3408 226.702 11.0751 224.707 9.09352C224.516 9.28972 224.202 9.29537 224.003 9.10538C222.898 8.04642 221.694 7.07222 220.389 6.1829C219.057 5.27433 217.668 4.48262 216.224 3.80751C215.975 3.69117 215.867 3.39599 215.981 3.14662C213.361 1.97505 210.563 1.17421 207.585 0.744082C207.547 1.01604 207.298 1.2074 207.025 1.172C205.474 0.970665 203.873 0.869784 202.221 0.869784C200.793 0.869784 199.398 0.949008 198.037 1.1072C197.764 1.13894 197.517 0.944288 197.483 0.671873C194.951 1.00361 192.531 1.60858 190.224 2.48678C190.323 2.74231 190.199 3.03088 189.943 3.13278C188.652 3.64842 187.397 4.2523 186.178 4.94456L186.176 4.94558C184.993 5.61121 183.871 6.34502 182.811 7.14696C182.592 7.31271 182.281 7.27055 182.113 7.05327C180.233 8.52698 178.547 10.2187 177.055 12.1286C177.273 12.2956 177.315 12.6072 177.15 12.8265C176.354 13.8802 175.616 15.0002 174.936 16.1867C174.236 17.4194 173.626 18.6951 173.106 20.0141C173.006 20.2698 172.718 20.3961 172.462 20.2976C171.586 22.6324 170.984 25.0983 170.655 27.6953C170.928 27.7278 171.124 27.9743 171.093 28.2475C170.938 29.6266 170.861 31.044 170.861 32.4998C170.861 33.9556 170.938 35.3729 171.093 36.752C171.124 37.0253 170.928 37.2718 170.655 37.3043C170.984 39.9012 171.586 42.3671 172.462 44.702C172.718 44.6035 173.006 44.7298 173.106 44.9854C173.626 46.304 174.235 47.5793 174.935 48.8116C175.619 49.9905 176.362 51.1059 177.163 52.158C177.33 52.3766 177.289 52.6884 177.072 52.8563C178.564 54.7516 180.251 56.4408 182.131 57.924C182.299 57.7072 182.611 57.6662 182.83 57.8328C183.884 58.637 185 59.3775 186.177 60.0544C187.398 60.7325 188.655 61.324 189.949 61.8289C190.205 61.9288 190.332 62.2165 190.234 62.4728C192.54 63.3305 194.959 63.9213 197.49 64.2451C197.523 63.9726 197.77 63.7772 198.043 63.8082C199.402 63.9625 200.794 64.0398 202.221 64.0398C203.874 64.0398 205.474 63.9422 207.02 63.7474C207.293 63.713 207.542 63.9053 207.579 64.1775C210.569 63.7582 213.368 62.9749 215.975 61.8277C215.863 61.5777 215.973 61.2832 216.222 61.1683C217.673 60.5008 219.062 59.7168 220.39 58.816C221.698 57.9241 222.906 56.9449 224.014 55.8786C224.212 55.6881 224.526 55.693 224.718 55.8888C226.712 53.8976 228.378 51.6159 229.717 49.0437C229.473 48.9192 229.374 48.6206 229.497 48.3748C230.079 47.2101 230.594 45.9852 231.044 44.6998H228.118C227.842 44.6998 227.618 44.4759 227.618 44.1998H221.373C221.373 44.4759 221.15 44.6998 220.873 44.6998H217.563C217.247 45.3321 216.903 45.9334 216.533 46.5034C216.382 46.7349 216.072 46.8005 215.841 46.6499C215.839 46.6485 215.837 46.6471 215.835 46.6457C215.123 47.6704 214.317 48.5815 213.416 49.3788C213.418 49.381 213.42 49.3832 213.422 49.3854C213.597 49.5983 213.567 49.9134 213.354 50.0893C212.738 50.5984 212.082 51.0588 211.385 51.4702L211.382 51.472C210.686 51.8769 209.96 52.2287 209.205 52.5274C208.948 52.629 208.658 52.5033 208.556 52.2465C208.555 52.2441 208.554 52.2416 208.553 52.2392C207.425 52.6456 206.23 52.9341 204.97 53.1047C204.97 53.1068 204.97 53.1089 204.971 53.111C205.001 53.3855 204.802 53.6324 204.528 53.6624C203.751 53.7474 202.952 53.7898 202.131 53.7898C201.238 53.7898 200.366 53.7408 199.516 53.6425C199.242 53.6108 199.045 53.3628 199.077 53.0884C199.077 53.0864 199.077 53.0844 199.078 53.0824C197.682 52.8868 196.352 52.5526 195.085 52.08C195.084 52.0822 195.083 52.0843 195.082 52.0865C194.979 52.3424 194.687 52.4658 194.431 52.3621C193.617 52.0323 192.83 51.6455 192.069 51.2017L192.058 51.1954L192.058 51.1953C191.324 50.7421 190.628 50.243 189.972 49.6981C189.76 49.5216 189.731 49.2064 189.907 48.994C189.909 48.9922 189.91 48.9903 189.912 48.9885C188.92 48.1159 188.027 47.1306 187.231 46.0327C187.229 46.0339 187.227 46.0351 187.225 46.0364C186.998 46.1925 186.686 46.1345 186.53 45.9068C186.056 45.215 185.618 44.4827 185.217 43.7102L185.212 43.7001L185.212 43.7C184.79 42.8403 184.424 41.947 184.115 41.0202C184.027 40.7583 184.168 40.475 184.43 40.3875C184.432 40.3869 184.434 40.3863 184.436 40.3857C183.99 38.9476 183.678 37.4273 183.5 35.825C183.498 35.8251 183.497 35.8253 183.495 35.8254C183.221 35.851 182.977 35.6489 182.951 35.374C182.864 34.4415 182.821 33.4834 182.821 32.4998C182.821 31.5136 182.863 30.5555 182.948 29.6255C182.973 29.3505 183.217 29.148 183.492 29.1731C183.493 29.1732 183.495 29.1734 183.496 29.1735C183.672 27.5602 183.982 26.039 184.425 24.61C184.423 24.6094 184.421 24.6088 184.419 24.6082C184.157 24.5203 184.016 24.2369 184.104 23.9751C184.417 23.0437 184.786 22.1506 185.214 21.2962L185.217 21.2893C185.617 20.5199 186.053 19.7919 186.525 19.1059C186.682 18.8784 186.993 18.821 187.22 18.9776C187.222 18.9788 187.224 18.9801 187.226 18.9814C188.02 17.8912 188.913 16.9183 189.903 16.0626C189.901 16.0607 189.899 16.0588 189.898 16.0569C189.724 15.8427 189.756 15.5277 189.97 15.3535C190.628 14.8178 191.326 14.3303 192.064 13.891ZM192.064 13.891C192.064 13.8907 192.065 13.8905 192.065 13.8902L192.321 14.3198L192.062 13.8918C192.063 13.8915 192.063 13.8913 192.064 13.891ZM9.89275 60.755C9.65554 60.6176 9.3523 60.6969 9.21248 60.9319C7.95475 60.1624 6.81801 59.282 5.80222 58.2907C5.9956 58.098 5.99868 57.785 5.80794 57.5885C5.20783 56.9702 4.65357 56.3096 4.14508 55.6067C3.63697 54.9043 3.19256 54.1698 2.81155 53.403C2.68984 53.1581 2.39426 53.0568 2.14833 53.1743C1.55833 51.8872 1.13557 50.5141 0.880047 49.0547C1.14966 49.0113 1.33509 48.7591 1.29513 48.4881C1.19584 47.8149 1.13201 47.1221 1.10387 46.4098H3.96497C4.24111 46.4098 4.46497 46.1859 4.46497 45.9098H10.215C10.215 46.1859 10.4388 46.4098 10.715 46.4098H13.6317C13.679 46.8594 13.7484 47.294 13.8405 47.7135C13.8997 47.9833 14.1663 48.1539 14.4361 48.0947C14.4401 48.0939 14.444 48.0929 14.448 48.092C14.6692 48.9052 14.984 49.6482 15.3924 50.321C15.388 50.3239 15.3836 50.3268 15.3793 50.3299C15.1528 50.4878 15.0971 50.7994 15.2551 51.026C15.6014 51.5228 16.0001 51.9798 16.4503 52.3967L16.4502 52.3967L16.457 52.4028C16.9428 52.8365 17.4755 53.211 18.0542 53.526C18.2967 53.6581 18.6003 53.5685 18.7324 53.326C18.7348 53.3216 18.7371 53.3172 18.7393 53.3127C19.5107 53.6751 20.3636 53.9357 21.298 54.0944C21.2975 54.0977 21.297 54.101 21.2966 54.1044C21.2615 54.3783 21.4551 54.6287 21.729 54.6638C22.3346 54.7414 22.9684 54.7798 23.63 54.7798C24.2909 54.7798 24.9236 54.7458 25.5274 54.6773C25.8018 54.6462 25.999 54.3985 25.9679 54.1241C25.9676 54.1211 25.9672 54.1182 25.9668 54.1152C26.9141 53.9726 27.7767 53.7373 28.5548 53.4093C28.5567 53.4136 28.5588 53.418 28.5609 53.4223C28.6825 53.6702 28.982 53.7727 29.2299 53.6511C29.8288 53.3575 30.3784 53.006 30.8773 52.5961L30.8774 52.5962L30.8854 52.5894C31.3247 52.2128 31.7125 51.8068 32.0473 51.3709C32.2155 51.1519 32.1743 50.838 31.9553 50.6698C31.9505 50.6662 31.9456 50.6626 31.9408 50.6591C32.3385 50.0551 32.6321 49.3991 32.8215 48.691C32.8271 48.6922 32.8327 48.6934 32.8383 48.6945C33.1094 48.7473 33.3719 48.5703 33.4246 48.2993C33.5286 47.7652 33.58 47.2084 33.58 46.6298C33.58 46.1706 33.547 45.7275 33.4803 45.3009C33.4376 45.0281 33.1819 44.8415 32.9091 44.8842C32.9032 44.8851 32.8974 44.8861 32.8917 44.8872C32.7755 44.383 32.6054 43.9099 32.3815 43.468C32.3876 43.4645 32.3937 43.4609 32.3998 43.4572C32.6347 43.312 32.7074 43.0039 32.5622 42.769C32.3258 42.3864 32.0489 42.0285 31.7325 41.6954C31.4215 41.3681 31.0894 41.0601 30.7365 40.7715C30.5227 40.5967 30.2077 40.6283 30.0329 40.8421C30.0304 40.8451 30.0279 40.8482 30.0255 40.8513C29.6067 40.5404 29.1591 40.2553 28.683 39.996C28.6845 39.993 28.686 39.99 28.6875 39.9871C28.8097 39.7394 28.708 39.4396 28.4604 39.3174C28.069 39.1243 27.6612 38.9472 27.2372 38.786C26.7167 38.5632 26.1368 38.3359 25.498 38.1038C25.2385 38.0095 24.9516 38.1435 24.8573 38.4031C24.857 38.4039 24.8567 38.4048 24.8564 38.4056C24.0831 38.1341 23.2268 37.8551 22.2874 37.5684C22.2875 37.568 22.2877 37.5676 22.2878 37.5671C22.3669 37.3025 22.2165 37.0239 21.9519 36.9448C21.3852 36.7754 20.7905 36.6035 20.1679 36.4292C19.2924 36.1716 18.4519 35.9156 17.6465 35.6611C17.3835 35.578 17.103 35.7235 17.0194 35.9862C15.546 35.5136 14.192 35.0457 12.9573 34.5826C13.055 34.3252 12.9261 34.0371 12.6689 33.9385C11.7976 33.6043 10.991 33.2732 10.2486 32.9453C9.62619 32.6486 9.02464 32.3162 8.44382 31.948C8.21259 31.8014 7.90695 31.8682 7.75765 32.0967C6.86675 31.496 6.02484 30.8107 5.23192 30.0408C5.42481 29.8473 5.42673 29.5341 5.23511 29.3382C4.76053 28.8532 4.30405 28.3352 3.86575 27.7842C3.3928 27.1527 2.98392 26.4635 2.63949 25.7154C2.52536 25.4675 2.23399 25.3574 1.98506 25.4664C1.49843 24.2922 1.15797 22.9914 0.963676 21.564C1.2349 21.5307 1.42963 21.2853 1.39956 21.0129C1.31333 20.2316 1.26997 19.4107 1.26997 18.5498C1.26997 17.6891 1.32089 16.8565 1.42231 16.0518C1.45656 15.78 1.26585 15.5317 0.995371 15.494C1.21058 14.0908 1.5799 12.7671 2.10333 11.523C2.35277 11.6327 2.64499 11.5222 2.75899 11.2736C3.104 10.5213 3.50913 9.7999 3.9746 9.10921C4.43783 8.42183 4.94877 7.77701 5.50749 7.17449C5.69352 6.97387 5.68353 6.66147 5.48639 6.47311C6.42908 5.51672 7.49552 4.66922 8.6857 3.93062C8.82656 4.16463 9.12981 4.24256 9.36632 4.10432C10.0636 3.69678 10.8037 3.32504 11.5869 2.98936L11.5869 2.98941L11.5938 2.98635C12.4634 2.59812 13.3667 2.26093 14.3036 1.97492C14.5662 1.89479 14.7147 1.6182 14.6373 1.3555C16.1612 0.92322 17.7684 0.621227 19.459 0.449517C19.4846 0.722674 19.7257 0.924565 19.9996 0.901101C20.9428 0.820283 21.9129 0.779785 22.91 0.779785C24.3488 0.779785 25.7237 0.859176 27.0349 1.01739C27.3078 1.0503 27.5557 0.856951 27.5907 0.584921C30.1932 0.942251 32.5529 1.61342 34.6699 2.59843C34.5515 2.8449 34.6533 3.14136 34.899 3.26291C36.1383 3.87594 37.2883 4.60229 38.3498 5.44192L38.3497 5.44198L38.3562 5.44696C39.3655 6.21871 40.2573 7.0679 41.0332 7.99427C41.2089 8.204 41.52 8.23331 41.7316 8.06142C43.0779 9.77311 44.0617 11.7343 44.6832 13.9451C44.4192 14.0155 44.2602 14.2853 44.3275 14.5509C44.5791 15.5445 44.7586 16.5906 44.8653 17.6898H41.945C41.6688 17.6898 41.445 17.9136 41.445 18.1898H35.515C35.515 17.9136 35.2911 17.6898 35.015 17.6898H32.0101C31.9663 17.2931 31.8953 16.9079 31.7966 16.5343C31.7261 16.2673 31.4524 16.1081 31.1855 16.1786C31.1796 16.1801 31.1739 16.1818 31.1682 16.1835C30.9407 15.5209 30.6152 14.9056 30.1914 14.3376C30.1959 14.334 30.2003 14.3304 30.2046 14.3266C30.414 14.1465 30.4378 13.8309 30.2577 13.6215C29.9119 13.2194 29.5182 12.8437 29.0781 12.4939C28.595 12.0808 28.068 11.7239 27.4979 11.4234C27.2536 11.2946 26.9512 11.3883 26.8225 11.6325C26.8202 11.6369 26.8179 11.6413 26.8158 11.6456C26.0572 11.3007 25.2222 11.0522 24.311 10.9C24.3115 10.8967 24.3119 10.8934 24.3124 10.8901C24.3468 10.6161 24.1525 10.3661 23.8785 10.3317C23.2825 10.2569 22.6595 10.2198 22.01 10.2198C21.4373 10.2198 20.887 10.2528 20.3595 10.3194C20.0856 10.354 19.8915 10.6042 19.9262 10.8782C19.9266 10.882 19.9272 10.8857 19.9277 10.8895C19.1743 11.0205 18.4786 11.2272 17.8406 11.5097C17.8383 11.5049 17.8358 11.5 17.8333 11.4952C17.7054 11.2505 17.4033 11.1558 17.1586 11.2837C16.6518 11.5486 16.1815 11.8631 15.7484 12.2269L15.7483 12.2269L15.7407 12.2335C15.3217 12.6002 14.9578 13.0124 14.6504 13.4697C14.4963 13.6989 14.5571 14.0095 14.7863 14.1636C14.7922 14.1676 14.7982 14.1714 14.8042 14.1751C14.4866 14.7463 14.2536 15.3845 14.1052 16.0896C14.1005 16.0887 14.0957 16.088 14.0909 16.0872C13.8177 16.0464 13.5633 16.2348 13.5225 16.5079C13.4471 17.0125 13.41 17.5434 13.41 18.0998C13.41 18.5264 13.4427 18.9394 13.509 19.3385C13.5543 19.6109 13.8118 19.7951 14.0842 19.7498C14.0908 19.7487 14.0973 19.7475 14.1038 19.7461C14.2126 20.181 14.3671 20.5929 14.5675 20.9819C14.5611 20.9856 14.5548 20.9894 14.5485 20.9933C14.3152 21.141 14.2458 21.4499 14.3934 21.6832C14.6151 22.0335 14.8732 22.3636 15.167 22.6737L15.1763 22.6835L15.1861 22.6928C15.4955 22.9859 15.8215 23.2659 16.1641 23.5329C16.3819 23.7026 16.6961 23.6637 16.8658 23.4459C16.8677 23.4434 16.8696 23.441 16.8715 23.4385C17.2652 23.7226 17.6804 23.9906 18.1172 24.2424C18.1159 24.2447 18.1147 24.247 18.1134 24.2493C17.9831 24.4928 18.0749 24.7958 18.3184 24.9261C18.6878 25.1238 19.0707 25.3106 19.4669 25.4867L19.4769 25.4911L19.4871 25.4952C20.0099 25.7005 20.594 25.9167 21.239 26.1436C21.4995 26.2353 21.785 26.0984 21.8766 25.8379C21.8768 25.8374 21.877 25.8368 21.8772 25.8363C22.6497 26.1022 23.5049 26.3832 24.4428 26.6792C24.4427 26.6795 24.4427 26.6797 24.4426 26.68C24.3604 26.9436 24.5075 27.224 24.7711 27.3062C25.335 27.482 25.9267 27.6628 26.5463 27.8487L26.5489 27.8495C27.4274 28.1079 28.2706 28.3661 29.0784 28.6242C29.3411 28.7082 29.622 28.5636 29.7065 28.3013C31.1819 28.7809 32.5375 29.2604 33.7734 29.74C33.6727 29.9961 33.798 30.2856 34.0539 30.3874C34.9235 30.7334 35.7284 31.0787 36.4691 31.4231C37.107 31.7198 37.722 32.0542 38.3143 32.4262C38.5461 32.5718 38.8513 32.5038 38.9997 32.2749C39.9119 32.8856 40.7701 33.5863 41.5742 34.3771C41.3801 34.5692 41.3759 34.8823 41.5661 35.0795C42.0456 35.5767 42.5052 36.1088 42.9448 36.6761C43.4301 37.3024 43.85 37.9829 44.2042 38.7185C44.3225 38.9644 44.6157 39.0694 44.8626 38.9563C45.3684 40.122 45.7228 41.4097 45.9258 42.8196C45.655 42.8548 45.462 43.1013 45.4938 43.3734C45.5844 44.1498 45.63 44.9652 45.63 45.8198C45.63 46.6309 45.5779 47.4266 45.4741 48.2072C45.438 48.4786 45.6268 48.7281 45.8969 48.7678C45.6875 50.0629 45.3371 51.3191 44.8457 52.5364C44.5941 52.4306 44.3034 52.5463 44.1938 52.7973C43.8788 53.5187 43.5116 54.2267 43.092 54.9212C42.6539 55.6463 42.163 56.3341 41.6192 56.9848C41.4436 57.1948 41.4698 57.5065 41.6766 57.6844C40.7625 58.716 39.7135 59.6526 38.5297 60.4944C38.374 60.2696 38.0661 60.2113 37.8389 60.3647C37.1524 60.8282 36.4206 61.2614 35.6431 61.6642C34.7617 62.1047 33.8347 62.4865 32.8619 62.8094C32.6015 62.8958 32.4597 63.1757 32.5431 63.4363C30.9666 63.922 29.2789 64.2594 27.4799 64.4487C27.4535 64.1756 27.2117 63.9746 26.9379 63.9989C25.9593 64.0861 24.9467 64.1298 23.9 64.1298C22.8766 64.1298 21.8774 64.0883 20.9022 64.0055C20.6283 63.9822 20.3872 64.1844 20.362 64.4577C18.6225 64.2837 16.9569 63.9777 15.3651 63.5399C15.4402 63.2763 15.289 63.001 15.0255 62.9233C14.0605 62.639 13.1243 62.3046 12.2166 61.9201C11.4004 61.5682 10.6258 61.1798 9.89275 60.755ZM147.99 51.8664L147.873 51.5298H147.517H141.262C140.986 51.5298 140.762 51.7536 140.762 52.0298H129.252C129.252 51.7536 129.028 51.5298 128.752 51.5298H122.497H122.141L122.025 51.8664L120.99 54.8589C120.899 55.1198 121.038 55.4046 121.299 55.4948L119.556 60.5348C119.295 60.4445 119.01 60.5829 118.92 60.8439L118.001 63.4998H115.05C114.773 63.4998 114.55 63.7236 114.55 63.9998H108.935C108.935 63.7236 108.711 63.4998 108.435 63.4998H105.838L107.48 58.9263C107.573 58.6664 107.438 58.38 107.179 58.2867L110.606 48.7429C110.865 48.8362 111.152 48.7012 111.245 48.4413L115.01 37.9563C115.103 37.6964 114.968 37.41 114.709 37.3167L118.136 27.7729C118.395 27.8662 118.682 27.7312 118.775 27.4713L122.54 16.9863C122.633 16.7264 122.498 16.44 122.239 16.3467L125.666 6.80286C125.925 6.89618 126.212 6.76115 126.305 6.50126L128.069 1.58978H131.385C131.661 1.58978 131.885 1.36592 131.885 1.08978H138.22C138.22 1.36592 138.443 1.58978 138.72 1.58978H142.035L143.799 6.50126C143.892 6.76115 144.179 6.89619 144.439 6.80286L147.866 16.3467C147.606 16.44 147.471 16.7264 147.564 16.9863L151.329 27.4713C151.422 27.7312 151.709 27.8662 151.969 27.7729L155.396 37.3167C155.136 37.41 155.001 37.6964 155.094 37.9563L158.859 48.4413C158.952 48.7012 159.239 48.8362 159.499 48.7429L162.926 58.2867C162.666 58.38 162.531 58.6664 162.624 58.9263L164.266 63.4998H161.647C161.371 63.4998 161.147 63.7236 161.147 63.9998H155.487C155.487 63.7236 155.263 63.4998 154.987 63.4998H152.013L151.095 60.8439C151.004 60.5829 150.72 60.4445 150.459 60.5348L148.716 55.4948C148.976 55.4046 149.115 55.1198 149.025 54.8589L147.99 51.8664ZM144.799 42.4498L144.57 41.7863L142.297 35.2163C142.207 34.9554 141.922 34.817 141.661 34.9073L137.443 22.7123C137.704 22.622 137.842 22.3373 137.752 22.0763L135.48 15.5063L135.007 14.1402L134.535 15.5063L132.262 22.0763C132.172 22.3373 132.31 22.622 132.571 22.7123L128.353 34.9073C128.092 34.817 127.807 34.9554 127.717 35.2163L125.445 41.7863L125.215 42.4498H125.917H130.462C130.738 42.4498 130.962 42.2259 130.962 41.9498H139.052C139.052 42.2259 139.276 42.4498 139.552 42.4498H144.097H144.799ZM255.49 35.6935L254.603 34.6071V36.0098V43.0073C254.603 43.2834 254.827 43.5073 255.103 43.5073V56.5023C254.827 56.5023 254.603 56.7261 254.603 57.0023V63.4998H251.953C251.677 63.4998 251.453 63.7236 251.453 63.9998H246.153C246.153 63.7236 245.929 63.4998 245.653 63.4998H243.003V58.7648C243.003 58.4886 242.779 58.2648 242.503 58.2648V48.7948C242.779 48.7948 243.003 48.5709 243.003 48.2948V37.8248C243.003 37.5486 242.779 37.3248 242.503 37.3248V27.8548C242.779 27.8548 243.003 27.6309 243.003 27.3548V16.8848C243.003 16.6086 242.779 16.3848 242.503 16.3848V6.91478C242.779 6.91478 243.003 6.69093 243.003 6.41478V1.67978H245.653C245.929 1.67978 246.153 1.45593 246.153 1.17978H251.453C251.453 1.45593 251.677 1.67978 251.953 1.67978H254.603V8.22228C254.603 8.49843 254.827 8.72228 255.103 8.72228V21.8073C254.827 21.8073 254.603 22.0311 254.603 22.3073V29.3498V30.7594L255.491 29.6648L258.349 26.1436C258.523 25.9292 258.49 25.6143 258.276 25.4403L263.36 19.1743C263.575 19.3483 263.89 19.3155 264.064 19.1011L269.779 12.0586C269.953 11.8442 269.92 11.5293 269.706 11.3553L274.79 5.08928C275.005 5.26329 275.32 5.23052 275.494 5.0161L278.201 1.67978H281.765C282.042 1.67978 282.265 1.45593 282.265 1.17978H288.87C288.87 1.45593 289.094 1.67978 289.37 1.67978H292.106L289.549 4.75241C289.372 4.96465 289.401 5.27992 289.613 5.45658L283.773 12.473C283.561 12.2963 283.245 12.3252 283.069 12.5374L276.589 20.3224C276.412 20.5346 276.441 20.8499 276.653 21.0266L270.813 28.043C270.601 27.8663 270.285 27.8952 270.109 28.1074L266.869 31.9999L266.601 32.3214L266.87 32.6416L270.2 36.6016C270.378 36.8129 270.693 36.8402 270.905 36.6625L276.921 43.8171C276.71 43.9948 276.683 44.3102 276.86 44.5216L283.52 52.4416C283.698 52.6529 284.013 52.6802 284.225 52.5025L290.241 59.6571C290.03 59.8348 290.003 60.1502 290.18 60.3616L292.819 63.4998H289.91C289.634 63.4998 289.41 63.7236 289.41 63.9998H282.445C282.445 63.7236 282.222 63.4998 281.945 63.4998H278.2L275.493 60.1848C275.318 59.9709 275.003 59.9391 274.789 60.1138L269.707 53.8908C269.921 53.7161 269.952 53.4011 269.778 53.1873L264.063 46.1898C263.888 45.9759 263.573 45.9441 263.359 46.1188L258.277 39.8958C258.491 39.7211 258.522 39.4061 258.348 39.1923L255.49 35.6935ZM93.5437 1.17978C93.5437 1.45593 93.7676 1.67978 94.0437 1.67978H99.3037V3.72228C99.3037 3.99843 99.5276 4.22228 99.8037 4.22228V8.30728C99.5276 8.30728 99.3037 8.53114 99.3037 8.80728V10.8498H95.6187C95.3426 10.8498 95.1187 11.0736 95.1187 11.3498H87.7487C87.7487 11.0736 87.5249 10.8498 87.2487 10.8498H83.0637H82.5637V11.3498V15.7373C82.5637 16.0134 82.7876 16.2373 83.0637 16.2373V24.0123C82.7876 24.0123 82.5637 24.2361 82.5637 24.5123V33.2873C82.5637 33.5634 82.7876 33.7873 83.0637 33.7873V41.5623C82.7876 41.5623 82.5637 41.7861 82.5637 42.0623V50.8373C82.5637 51.1134 82.7876 51.3373 83.0637 51.3373V59.1123C82.7876 59.1123 82.5637 59.3361 82.5637 59.6123V63.4998H79.9137C79.6376 63.4998 79.4137 63.7236 79.4137 63.9998H74.1137C74.1137 63.7236 73.8899 63.4998 73.6137 63.4998H70.9637V59.6123C70.9637 59.3361 70.7399 59.1123 70.4637 59.1123V51.3373C70.7399 51.3373 70.9637 51.1134 70.9637 50.8373V42.0623C70.9637 41.7861 70.7399 41.5623 70.4637 41.5623V33.7873C70.7399 33.7873 70.9637 33.5634 70.9637 33.2873V24.5123C70.9637 24.2361 70.7399 24.0123 70.4637 24.0123V16.2373C70.7399 16.2373 70.9637 16.0134 70.9637 15.7373V11.3498V10.8498H70.4637H66.2787C66.0026 10.8498 65.7787 11.0736 65.7787 11.3498H58.4087C58.4087 11.0736 58.1849 10.8498 57.9087 10.8498H54.2237V8.80728C54.2237 8.53114 53.9999 8.30728 53.7237 8.30728V4.22228C53.9999 4.22228 54.2237 3.99843 54.2237 3.72228V1.67978H59.4837C59.7599 1.67978 59.9837 1.45593 59.9837 1.17978H70.5037C70.5037 1.45593 70.7276 1.67978 71.0037 1.67978H82.5237C82.7999 1.67978 83.0237 1.45593 83.0237 1.17978H93.5437Z" stroke="white" stroke-linecap="round" stroke-dasharray="10 10"/>
</svg>
