<svg width="266" height="65" viewBox="0 0 266 65" fill="none" xmlns="http://www.w3.org/2000/svg">
<path opacity="0.33" d="M46.96 1.18H47.46V0.679998H46.96V1.18ZM46.96 11.35V11.85H47.46V11.35H46.96ZM30.22 11.35V10.85H29.72V11.35H30.22ZM30.22 64V64.5H30.72V64H30.22ZM17.62 64H17.12V64.5H17.62V64ZM17.62 11.35H18.12V10.85H17.62V11.35ZM0.88 11.35H0.38V11.85H0.88V11.35ZM0.88 1.18V0.679998H0.38V1.18H0.88ZM41.2 0.679998C40.9239 0.679998 40.7 0.903856 40.7 1.18C40.7 1.45614 40.9239 1.68 41.2 1.68V0.679998ZM29.68 1.68C29.9561 1.68 30.18 1.45614 30.18 1.18C30.18 0.903856 29.9561 0.679998 29.68 0.679998V1.68ZM18.16 0.679998C17.8839 0.679998 17.66 0.903856 17.66 1.18C17.66 1.45614 17.8839 1.68 18.16 1.68V0.679998ZM6.64 1.68C6.91615 1.68 7.14 1.45614 7.14 1.18C7.14 0.903856 6.91615 0.679998 6.64 0.679998V1.68ZM0.38 3.7225C0.38 3.99864 0.603858 4.2225 0.88 4.2225C1.15614 4.2225 1.38 3.99864 1.38 3.7225H0.38ZM1.38 8.8075C1.38 8.53135 1.15614 8.3075 0.88 8.3075C0.603858 8.3075 0.38 8.53135 0.38 8.8075H1.38ZM5.065 11.85C5.34114 11.85 5.565 11.6261 5.565 11.35C5.565 11.0739 5.34114 10.85 5.065 10.85L5.065 11.85ZM13.435 10.85C13.1589 10.85 12.935 11.0739 12.935 11.35C12.935 11.6261 13.1589 11.85 13.435 11.85V10.85ZM17.12 15.7375C17.12 16.0136 17.3439 16.2375 17.62 16.2375C17.8961 16.2375 18.12 16.0136 18.12 15.7375H17.12ZM18.12 24.5125C18.12 24.2364 17.8961 24.0125 17.62 24.0125C17.3439 24.0125 17.12 24.2364 17.12 24.5125H18.12ZM17.12 33.2875C17.12 33.5636 17.3439 33.7875 17.62 33.7875C17.8961 33.7875 18.12 33.5636 18.12 33.2875H17.12ZM18.12 42.0625C18.12 41.7864 17.8961 41.5625 17.62 41.5625C17.3439 41.5625 17.12 41.7864 17.12 42.0625H18.12ZM17.12 50.8375C17.12 51.1136 17.3439 51.3375 17.62 51.3375C17.8961 51.3375 18.12 51.1136 18.12 50.8375H17.12ZM18.12 59.6125C18.12 59.3364 17.8961 59.1125 17.62 59.1125C17.3439 59.1125 17.12 59.3364 17.12 59.6125H18.12ZM20.77 64.5C21.0461 64.5 21.27 64.2761 21.27 64C21.27 63.7239 21.0461 63.5 20.77 63.5V64.5ZM27.07 63.5C26.7939 63.5 26.57 63.7239 26.57 64C26.57 64.2761 26.7939 64.5 27.07 64.5V63.5ZM30.72 59.6125C30.72 59.3364 30.4961 59.1125 30.22 59.1125C29.9439 59.1125 29.72 59.3364 29.72 59.6125H30.72ZM29.72 50.8375C29.72 51.1136 29.9439 51.3375 30.22 51.3375C30.4961 51.3375 30.72 51.1136 30.72 50.8375H29.72ZM30.72 42.0625C30.72 41.7864 30.4961 41.5625 30.22 41.5625C29.9439 41.5625 29.72 41.7864 29.72 42.0625H30.72ZM29.72 33.2875C29.72 33.5636 29.9439 33.7875 30.22 33.7875C30.4961 33.7875 30.72 33.5636 30.72 33.2875H29.72ZM30.72 24.5125C30.72 24.2364 30.4961 24.0125 30.22 24.0125C29.9439 24.0125 29.72 24.2364 29.72 24.5125H30.72ZM29.72 15.7375C29.72 16.0136 29.9439 16.2375 30.22 16.2375C30.4961 16.2375 30.72 16.0136 30.72 15.7375H29.72ZM34.405 11.85C34.6811 11.85 34.905 11.6261 34.905 11.35C34.905 11.0739 34.6811 10.85 34.405 10.85V11.85ZM42.775 10.85C42.4989 10.85 42.275 11.0739 42.275 11.35C42.275 11.6261 42.4989 11.85 42.775 11.85V10.85ZM47.46 8.8075C47.46 8.53135 47.2361 8.3075 46.96 8.3075C46.6839 8.3075 46.46 8.53135 46.46 8.8075H47.46ZM46.46 3.7225C46.46 3.99864 46.6839 4.2225 46.96 4.2225C47.2361 4.2225 47.46 3.99864 47.46 3.7225H46.46ZM46.96 0.679998H41.2V1.68H46.96V0.679998ZM29.68 0.679998H18.16V1.68H29.68V0.679998ZM6.64 0.679998H0.88V1.68H6.64V0.679998ZM0.38 1.18L0.38 3.7225H1.38L1.38 1.18H0.38ZM0.38 8.8075L0.38 11.35H1.38L1.38 8.8075H0.38ZM0.88 11.85H5.065L5.065 10.85H0.88V11.85ZM13.435 11.85H17.62V10.85H13.435V11.85ZM17.12 11.35L17.12 15.7375H18.12L18.12 11.35H17.12ZM17.12 24.5125V33.2875H18.12V24.5125H17.12ZM17.12 42.0625V50.8375H18.12V42.0625H17.12ZM17.12 59.6125V64H18.12V59.6125H17.12ZM17.62 64.5H20.77V63.5H17.62V64.5ZM27.07 64.5H30.22V63.5H27.07V64.5ZM30.72 64V59.6125H29.72V64H30.72ZM30.72 50.8375L30.72 42.0625H29.72V50.8375H30.72ZM30.72 33.2875V24.5125H29.72V33.2875H30.72ZM30.72 15.7375V11.35H29.72L29.72 15.7375H30.72ZM30.22 11.85L34.405 11.85V10.85L30.22 10.85V11.85ZM42.775 11.85H46.96V10.85H42.775V11.85ZM47.46 11.35V8.8075H46.46V11.35H47.46ZM47.46 3.7225L47.46 1.18H46.46L46.46 3.7225H47.46ZM46.96 1.18H47.96V0.179998H46.96V1.18ZM46.96 11.35V12.35H47.96V11.35H46.96ZM30.22 11.35V10.35H29.22V11.35H30.22ZM30.22 64V65H31.22V64H30.22ZM17.62 64H16.62V65H17.62V64ZM17.62 11.35H18.62V10.35H17.62V11.35ZM0.88 11.35H-0.12L-0.12 12.35H0.88V11.35ZM0.88 1.18V0.179998H-0.12L-0.12 1.18H0.88ZM41.2 0.179998C40.6477 0.179998 40.2 0.627714 40.2 1.18C40.2 1.73228 40.6477 2.18 41.2 2.18V0.179998ZM29.68 2.18C30.2323 2.18 30.68 1.73228 30.68 1.18C30.68 0.627714 30.2323 0.179998 29.68 0.179998V2.18ZM18.16 0.179998C17.6077 0.179998 17.16 0.627714 17.16 1.18C17.16 1.73228 17.6077 2.18 18.16 2.18V0.179998ZM6.64 2.18C7.19229 2.18 7.64 1.73228 7.64 1.18C7.64 0.627714 7.19229 0.179998 6.64 0.179998V2.18ZM-0.12 3.7225C-0.12 4.27478 0.327715 4.7225 0.88 4.7225C1.43228 4.7225 1.88 4.27478 1.88 3.7225H-0.12ZM1.88 8.8075C1.88 8.25521 1.43228 7.8075 0.88 7.8075C0.327715 7.8075 -0.12 8.25521 -0.12 8.8075H1.88ZM5.065 12.35C5.61729 12.35 6.065 11.9023 6.065 11.35C6.065 10.7977 5.61729 10.35 5.065 10.35L5.065 12.35ZM13.435 10.35C12.8827 10.35 12.435 10.7977 12.435 11.35C12.435 11.9023 12.8827 12.35 13.435 12.35V10.35ZM16.62 15.7375C16.62 16.2898 17.0677 16.7375 17.62 16.7375C18.1723 16.7375 18.62 16.2898 18.62 15.7375H16.62ZM18.62 24.5125C18.62 23.9602 18.1723 23.5125 17.62 23.5125C17.0677 23.5125 16.62 23.9602 16.62 24.5125H18.62ZM16.62 33.2875C16.62 33.8398 17.0677 34.2875 17.62 34.2875C18.1723 34.2875 18.62 33.8398 18.62 33.2875H16.62ZM18.62 42.0625C18.62 41.5102 18.1723 41.0625 17.62 41.0625C17.0677 41.0625 16.62 41.5102 16.62 42.0625H18.62ZM16.62 50.8375C16.62 51.3898 17.0677 51.8375 17.62 51.8375C18.1723 51.8375 18.62 51.3898 18.62 50.8375H16.62ZM18.62 59.6125C18.62 59.0602 18.1723 58.6125 17.62 58.6125C17.0677 58.6125 16.62 59.0602 16.62 59.6125H18.62ZM20.77 65C21.3223 65 21.77 64.5523 21.77 64C21.77 63.4477 21.3223 63 20.77 63V65ZM27.07 63C26.5177 63 26.07 63.4477 26.07 64C26.07 64.5523 26.5177 65 27.07 65V63ZM31.22 59.6125C31.22 59.0602 30.7723 58.6125 30.22 58.6125C29.6677 58.6125 29.22 59.0602 29.22 59.6125H31.22ZM29.22 50.8375C29.22 51.3898 29.6677 51.8375 30.22 51.8375C30.7723 51.8375 31.22 51.3898 31.22 50.8375H29.22ZM31.22 42.0625C31.22 41.5102 30.7723 41.0625 30.22 41.0625C29.6677 41.0625 29.22 41.5102 29.22 42.0625H31.22ZM29.22 33.2875C29.22 33.8398 29.6677 34.2875 30.22 34.2875C30.7723 34.2875 31.22 33.8398 31.22 33.2875H29.22ZM31.22 24.5125C31.22 23.9602 30.7723 23.5125 30.22 23.5125C29.6677 23.5125 29.22 23.9602 29.22 24.5125H31.22ZM29.22 15.7375C29.22 16.2898 29.6677 16.7375 30.22 16.7375C30.7723 16.7375 31.22 16.2898 31.22 15.7375H29.22ZM34.405 12.35C34.9573 12.35 35.405 11.9023 35.405 11.35C35.405 10.7977 34.9573 10.35 34.405 10.35V12.35ZM42.775 10.35C42.2227 10.35 41.775 10.7977 41.775 11.35C41.775 11.9023 42.2227 12.35 42.775 12.35V10.35ZM47.96 8.8075C47.96 8.25521 47.5123 7.8075 46.96 7.8075C46.4077 7.8075 45.96 8.25521 45.96 8.8075H47.96ZM45.96 3.7225C45.96 4.27478 46.4077 4.7225 46.96 4.7225C47.5123 4.7225 47.96 4.27478 47.96 3.7225H45.96ZM46.96 0.179998H41.2V2.18H46.96V0.179998ZM29.68 0.179998H18.16V2.18H29.68V0.179998ZM6.64 0.179998H0.88L0.88 2.18H6.64V0.179998ZM-0.12 1.18L-0.12 3.7225H1.88L1.88 1.18H-0.12ZM-0.12 8.8075L-0.12 11.35H1.88L1.88 8.8075H-0.12ZM0.88 12.35H5.065L5.065 10.35H0.88V12.35ZM13.435 12.35H17.62V10.35H13.435V12.35ZM16.62 11.35L16.62 15.7375H18.62L18.62 11.35H16.62ZM16.62 24.5125V33.2875H18.62V24.5125H16.62ZM16.62 42.0625V50.8375H18.62V42.0625H16.62ZM16.62 59.6125V64H18.62V59.6125H16.62ZM17.62 65H20.77V63H17.62V65ZM27.07 65H30.22V63H27.07V65ZM31.22 64V59.6125H29.22V64H31.22ZM31.22 50.8375L31.22 42.0625H29.22V50.8375H31.22ZM31.22 33.2875V24.5125H29.22V33.2875H31.22ZM31.22 15.7375V11.35L29.22 11.35L29.22 15.7375H31.22ZM30.22 12.35L34.405 12.35V10.35L30.22 10.35V12.35ZM42.775 12.35H46.96V10.35H42.775V12.35ZM47.96 11.35V8.8075H45.96V11.35H47.96ZM47.96 3.7225L47.96 1.18H45.96L45.96 3.7225H47.96ZM94.6734 52.03L95.1459 51.8666L95.0295 51.53H94.6734V52.03ZM69.6534 52.03V51.53H69.2972L69.1808 51.8666L69.6534 52.03ZM65.5134 64V64.5H65.8695L65.9859 64.1634L65.5134 64ZM52.2834 64L51.8128 63.831L51.5726 64.5H52.2834V64ZM74.8734 1.08999V0.589994H74.5216L74.4028 0.921017L74.8734 1.08999ZM89.5434 1.08999L90.0139 0.921017L89.8951 0.589994H89.5434V1.08999ZM112.133 64V64.5H112.844L112.604 63.831L112.133 64ZM98.8134 64L98.3408 64.1634L98.4572 64.5H98.8134V64ZM91.2534 41.95V42.45H91.9554L91.7259 41.7866L91.2534 41.95ZM82.1634 15.67L82.6359 15.5066L82.1634 14.1404L81.6908 15.5066L82.1634 15.67ZM73.0734 41.95L72.6008 41.7866L72.3713 42.45H73.0734V41.95ZM88.4184 51.53C88.1422 51.53 87.9184 51.7539 87.9184 52.03C87.9184 52.3061 88.1422 52.53 88.4184 52.53V51.53ZM75.9084 52.53C76.1845 52.53 76.4084 52.3061 76.4084 52.03C76.4084 51.7539 76.1845 51.53 75.9084 51.53V52.53ZM68.1458 54.8591C68.0556 55.12 68.194 55.4048 68.4549 55.495C68.7159 55.5853 69.0006 55.4469 69.0909 55.1859L68.1458 54.8591ZM67.0209 61.1709C67.1112 60.91 66.9728 60.6252 66.7118 60.535C66.4508 60.4447 66.1661 60.5831 66.0758 60.8441L67.0209 61.1709ZM62.2059 63.5C61.9297 63.5 61.7059 63.7239 61.7059 64C61.7059 64.2761 61.9297 64.5 62.2059 64.5V63.5ZM55.5909 64.5C55.867 64.5 56.0909 64.2761 56.0909 64C56.0909 63.7239 55.867 63.5 55.5909 63.5V64.5ZM54.6364 58.9265C54.7298 58.6666 54.5947 58.3802 54.3348 58.2869C54.0749 58.1936 53.7886 58.3286 53.6953 58.5885L54.6364 58.9265ZM57.4603 48.1035C57.367 48.3634 57.502 48.6498 57.7619 48.7431C58.0218 48.8364 58.3081 48.7014 58.4014 48.4415L57.4603 48.1035ZM62.1664 37.9565C62.2598 37.6966 62.1247 37.4102 61.8648 37.3169C61.6049 37.2236 61.3186 37.3586 61.2253 37.6185L62.1664 37.9565ZM64.9903 27.1335C64.897 27.3934 65.032 27.6798 65.2919 27.7731C65.5518 27.8664 65.8381 27.7314 65.9314 27.4715L64.9903 27.1335ZM69.6964 16.9865C69.7898 16.7266 69.6547 16.4402 69.3948 16.3469C69.1349 16.2536 68.8486 16.3886 68.7553 16.6485L69.6964 16.9865ZM72.5203 6.16352C72.427 6.42341 72.562 6.70975 72.8219 6.80307C73.0818 6.8964 73.3681 6.76137 73.4614 6.50147L72.5203 6.16352ZM78.5409 1.58999C78.817 1.58999 79.0409 1.36614 79.0409 1.08999C79.0409 0.813852 78.817 0.589994 78.5409 0.589994V1.58999ZM85.8759 0.589994C85.5997 0.589994 85.3759 0.813852 85.3759 1.08999C85.3759 1.36614 85.5997 1.58999 85.8759 1.58999V0.589994ZM90.9553 6.50147C91.0486 6.76137 91.3349 6.8964 91.5948 6.80308C91.8547 6.70975 91.9898 6.42341 91.8964 6.16352L90.9553 6.50147ZM95.6614 16.6485C95.5681 16.3886 95.2818 16.2536 95.0219 16.3469C94.762 16.4402 94.627 16.7266 94.7203 16.9865L95.6614 16.6485ZM98.4853 27.4715C98.5786 27.7314 98.8649 27.8664 99.1248 27.7731C99.3847 27.6798 99.5198 27.3934 99.4264 27.1335L98.4853 27.4715ZM103.191 37.6185C103.098 37.3586 102.812 37.2236 102.552 37.3169C102.292 37.4102 102.157 37.6966 102.25 37.9565L103.191 37.6185ZM106.015 48.4415C106.109 48.7014 106.395 48.8364 106.655 48.7431C106.915 48.6498 107.05 48.3634 106.956 48.1035L106.015 48.4415ZM110.721 58.5885C110.628 58.3286 110.342 58.1936 110.082 58.2869C109.822 58.3802 109.687 58.6666 109.78 58.9265L110.721 58.5885ZM108.803 63.5C108.527 63.5 108.303 63.7239 108.303 64C108.303 64.2761 108.527 64.5 108.803 64.5V63.5ZM102.143 64.5C102.42 64.5 102.643 64.2761 102.643 64C102.643 63.7239 102.42 63.5 102.143 63.5V64.5ZM98.2509 60.8441C98.1606 60.5831 97.8759 60.4447 97.6149 60.535C97.354 60.6252 97.2156 60.91 97.3058 61.1709L98.2509 60.8441ZM95.2358 55.1859C95.3261 55.4469 95.6108 55.5853 95.8718 55.495C96.1328 55.4048 96.2712 55.12 96.1809 54.8591L95.2358 55.1859ZM86.7084 41.45C86.4322 41.45 86.2084 41.6739 86.2084 41.95C86.2084 42.2261 86.4322 42.45 86.7084 42.45V41.45ZM77.6184 42.45C77.8945 42.45 78.1184 42.2261 78.1184 41.95C78.1184 41.6739 77.8945 41.45 77.6184 41.45V42.45ZM75.8184 35.5434C75.9087 35.2825 75.7703 34.9977 75.5093 34.9075C75.2483 34.8172 74.9636 34.9556 74.8733 35.2166L75.8184 35.5434ZM79.4183 22.0766C79.3281 22.3375 79.4664 22.6223 79.7274 22.7125C79.9884 22.8028 80.2731 22.6644 80.3634 22.4034L79.4183 22.0766ZM83.9633 22.4034C84.0536 22.6644 84.3383 22.8028 84.5993 22.7125C84.8603 22.6223 84.9987 22.3375 84.9084 22.0766L83.9633 22.4034ZM89.4534 35.2166C89.3631 34.9556 89.0784 34.8172 88.8174 34.9075C88.5564 34.9977 88.4181 35.2825 88.5083 35.5434L89.4534 35.2166ZM94.6734 51.53H88.4184V52.53H94.6734V51.53ZM75.9084 51.53H69.6534V52.53H75.9084V51.53ZM69.1808 51.8666L68.1458 54.8591L69.0909 55.1859L70.1259 52.1934L69.1808 51.8666ZM66.0758 60.8441L65.0408 63.8366L65.9859 64.1634L67.0209 61.1709L66.0758 60.8441ZM65.5134 63.5H62.2059V64.5H65.5134V63.5ZM55.5909 63.5H52.2834V64.5H55.5909V63.5ZM52.7539 64.169L54.6364 58.9265L53.6953 58.5885L51.8128 63.831L52.7539 64.169ZM58.4014 48.4415L62.1664 37.9565L61.2253 37.6185L57.4603 48.1035L58.4014 48.4415ZM65.9314 27.4715L69.6964 16.9865L68.7553 16.6485L64.9903 27.1335L65.9314 27.4715ZM73.4614 6.50147L75.3439 1.25897L74.4028 0.921017L72.5203 6.16352L73.4614 6.50147ZM74.8734 1.58999L78.5409 1.58999V0.589994L74.8734 0.589994V1.58999ZM85.8759 1.58999H89.5434V0.589994H85.8759V1.58999ZM89.0728 1.25897L90.9553 6.50147L91.8964 6.16352L90.0139 0.921017L89.0728 1.25897ZM94.7203 16.9865L98.4853 27.4715L99.4264 27.1335L95.6614 16.6485L94.7203 16.9865ZM102.25 37.9565L106.015 48.4415L106.956 48.1035L103.191 37.6185L102.25 37.9565ZM109.78 58.9265L111.663 64.169L112.604 63.831L110.721 58.5885L109.78 58.9265ZM112.133 63.5H108.803V64.5H112.133V63.5ZM102.143 63.5H98.8134V64.5H102.143V63.5ZM99.2859 63.8366L98.2509 60.8441L97.3058 61.1709L98.3408 64.1634L99.2859 63.8366ZM96.1809 54.8591L95.1459 51.8666L94.2008 52.1934L95.2358 55.1859L96.1809 54.8591ZM91.2534 41.45H86.7084V42.45H91.2534V41.45ZM77.6184 41.45H73.0734V42.45H77.6184V41.45ZM73.5459 42.1134L75.8184 35.5434L74.8733 35.2166L72.6008 41.7866L73.5459 42.1134ZM80.3634 22.4034L82.6359 15.8334L81.6908 15.5066L79.4183 22.0766L80.3634 22.4034ZM81.6908 15.8334L83.9633 22.4034L84.9084 22.0766L82.6359 15.5066L81.6908 15.8334ZM88.5083 35.5434L90.7808 42.1134L91.7259 41.7866L89.4534 35.2166L88.5083 35.5434ZM94.6734 52.03L95.6184 51.7031L95.3856 51.03H94.6734V52.03ZM69.6534 52.03V51.03H68.9411L68.7083 51.7031L69.6534 52.03ZM65.5134 64V65H66.2256L66.4584 64.3269L65.5134 64ZM52.2834 64L51.3422 63.662L50.8618 65H52.2834V64ZM74.8734 1.08999V0.0899944H74.1699L73.9322 0.752039L74.8734 1.08999ZM89.5434 1.08999L90.4845 0.752039L90.2468 0.0899944H89.5434V1.08999ZM112.133 64V65H113.555L113.075 63.662L112.133 64ZM98.8134 64L97.8683 64.3269L98.1011 65H98.8134V64ZM91.2534 41.95V42.95H92.6574L92.1984 41.6231L91.2534 41.95ZM82.1634 15.67L83.1084 15.3431L82.1634 12.6109L81.2183 15.3431L82.1634 15.67ZM73.0734 41.95L72.1283 41.6231L71.6693 42.95H73.0734V41.95ZM88.4184 51.03C87.8661 51.03 87.4184 51.4777 87.4184 52.03C87.4184 52.5823 87.8661 53.03 88.4184 53.03V51.03ZM75.9084 53.03C76.4606 53.03 76.9084 52.5823 76.9084 52.03C76.9084 51.4777 76.4606 51.03 75.9084 51.03V53.03ZM67.6733 54.6956C67.4928 55.2176 67.7695 55.787 68.2915 55.9676C68.8134 56.1481 69.3829 55.8713 69.5634 55.3494L67.6733 54.6956ZM67.4934 61.3344C67.674 60.8124 67.3972 60.243 66.8752 60.0624C66.3533 59.8819 65.7838 60.1587 65.6033 60.6806L67.4934 61.3344ZM62.2059 63C61.6536 63 61.2059 63.4477 61.2059 64C61.2059 64.5523 61.6536 65 62.2059 65V63ZM55.5909 65C56.1431 65 56.5909 64.5523 56.5909 64C56.5909 63.4477 56.1431 63 55.5909 63V65ZM55.107 59.0955C55.2937 58.5757 55.0236 58.003 54.5038 57.8163C53.984 57.6297 53.4113 57.8998 53.2247 58.4195L55.107 59.0955ZM56.9897 47.9345C56.8031 48.4543 57.0731 49.027 57.5929 49.2137C58.1127 49.4003 58.6854 49.1302 58.872 48.6105L56.9897 47.9345ZM62.637 38.1255C62.8237 37.6057 62.5536 37.033 62.0338 36.8463C61.514 36.6597 60.9413 36.9298 60.7547 37.4495L62.637 38.1255ZM64.5197 26.9645C64.333 27.4843 64.6031 28.057 65.1229 28.2437C65.6427 28.4303 66.2154 28.1602 66.402 27.6405L64.5197 26.9645ZM70.167 17.1555C70.3537 16.6357 70.0836 16.063 69.5638 15.8763C69.044 15.6897 68.4713 15.9598 68.2847 16.4795L70.167 17.1555ZM72.0497 5.99454C71.8631 6.51433 72.1331 7.08701 72.6529 7.27365C73.1727 7.4603 73.7454 7.19024 73.932 6.67045L72.0497 5.99454ZM78.5409 2.08999C79.0931 2.08999 79.5409 1.64228 79.5409 1.08999C79.5409 0.53771 79.0931 0.0899944 78.5409 0.0899944V2.08999ZM85.8759 0.0899944C85.3236 0.0899944 84.8759 0.53771 84.8759 1.08999C84.8759 1.64228 85.3236 2.08999 85.8759 2.08999V0.0899944ZM90.4847 6.67045C90.6713 7.19024 91.244 7.4603 91.7638 7.27366C92.2836 7.08701 92.5537 6.51433 92.367 5.99454L90.4847 6.67045ZM96.132 16.4795C95.9454 15.9598 95.3727 15.6897 94.8529 15.8763C94.3331 16.063 94.063 16.6357 94.2497 17.1555L96.132 16.4795ZM98.0147 27.6405C98.2013 28.1602 98.774 28.4303 99.2938 28.2437C99.8136 28.057 100.084 27.4843 99.897 26.9645L98.0147 27.6405ZM103.662 37.4495C103.475 36.9298 102.903 36.6597 102.383 36.8463C101.863 37.033 101.593 37.6057 101.78 38.1255L103.662 37.4495ZM105.545 48.6105C105.731 49.1302 106.304 49.4003 106.824 49.2137C107.344 49.027 107.614 48.4543 107.427 47.9345L105.545 48.6105ZM111.192 58.4195C111.005 57.8998 110.433 57.6297 109.913 57.8163C109.393 58.003 109.123 58.5757 109.31 59.0955L111.192 58.4195ZM108.803 63C108.251 63 107.803 63.4477 107.803 64C107.803 64.5523 108.251 65 108.803 65V63ZM102.143 65C102.696 65 103.143 64.5523 103.143 64C103.143 63.4477 102.696 63 102.143 63V65ZM98.7234 60.6806C98.5429 60.1587 97.9734 59.8819 97.4515 60.0624C96.9296 60.243 96.6528 60.8124 96.8333 61.3344L98.7234 60.6806ZM94.7633 55.3494C94.9438 55.8713 95.5133 56.1481 96.0352 55.9676C96.5572 55.787 96.834 55.2176 96.6534 54.6956L94.7633 55.3494ZM86.7084 40.95C86.1561 40.95 85.7084 41.3977 85.7084 41.95C85.7084 42.5023 86.1561 42.95 86.7084 42.95V40.95ZM77.6184 42.95C78.1706 42.95 78.6184 42.5023 78.6184 41.95C78.6184 41.3977 78.1706 40.95 77.6184 40.95V42.95ZM76.2909 35.7069C76.4715 35.1849 76.1947 34.6155 75.6727 34.4349C75.1508 34.2544 74.5813 34.5312 74.4008 35.0531L76.2909 35.7069ZM78.9458 21.9131C78.7653 22.4351 79.042 23.0045 79.564 23.1851C80.0859 23.3656 80.6554 23.0888 80.8359 22.5669L78.9458 21.9131ZM83.4908 22.5669C83.6713 23.0888 84.2408 23.3656 84.7627 23.1851C85.2847 23.0045 85.5615 22.4351 85.3809 21.9131L83.4908 22.5669ZM89.9259 35.0531C89.7454 34.5312 89.1759 34.2544 88.654 34.4349C88.132 34.6155 87.8553 35.1849 88.0358 35.7069L89.9259 35.0531ZM94.6734 51.03H88.4184V53.03H94.6734V51.03ZM75.9084 51.03H69.6534V53.03H75.9084V51.03ZM68.7083 51.7031L67.6733 54.6956L69.5634 55.3494L70.5984 52.3569L68.7083 51.7031ZM65.6033 60.6806L64.5683 63.6731L66.4584 64.3269L67.4934 61.3344L65.6033 60.6806ZM65.5134 63H62.2059V65H65.5134V63ZM55.5909 63H52.2834V65H55.5909V63ZM53.2245 64.338L55.107 59.0955L53.2247 58.4195L51.3422 63.662L53.2245 64.338ZM58.872 48.6105L62.637 38.1255L60.7547 37.4495L56.9897 47.9345L58.872 48.6105ZM66.402 27.6405L70.167 17.1555L68.2847 16.4795L64.5197 26.9645L66.402 27.6405ZM73.932 6.67045L75.8145 1.42795L73.9322 0.752039L72.0497 5.99454L73.932 6.67045ZM74.8734 2.08999L78.5409 2.08999V0.0899944L74.8734 0.0899944V2.08999ZM85.8759 2.08999H89.5434V0.0899944H85.8759V2.08999ZM88.6022 1.42795L90.4847 6.67045L92.367 5.99454L90.4845 0.752039L88.6022 1.42795ZM94.2497 17.1555L98.0147 27.6405L99.897 26.9645L96.132 16.4795L94.2497 17.1555ZM101.78 38.1255L105.545 48.6105L107.427 47.9345L103.662 37.4495L101.78 38.1255ZM109.31 59.0955L111.192 64.338L113.075 63.662L111.192 58.4195L109.31 59.0955ZM112.133 63H108.803V65H112.133V63ZM102.143 63H98.8134V65H102.143V63ZM99.7584 63.6731L98.7234 60.6806L96.8333 61.3344L97.8683 64.3269L99.7584 63.6731ZM96.6534 54.6956L95.6184 51.7031L93.7283 52.3569L94.7633 55.3494L96.6534 54.6956ZM91.2534 40.95H86.7084V42.95H91.2534V40.95ZM77.6184 40.95H73.0734V42.95H77.6184V40.95ZM74.0184 42.2769L76.2909 35.7069L74.4008 35.0531L72.1283 41.6231L74.0184 42.2769ZM80.8359 22.5669L83.1084 15.9969L81.2183 15.3431L78.9458 21.9131L80.8359 22.5669ZM81.2183 15.9969L83.4908 22.5669L85.3809 21.9131L83.1084 15.3431L81.2183 15.9969ZM88.0358 35.7069L90.3083 42.2769L92.1984 41.6231L89.9259 35.0531L88.0358 35.7069ZM133.177 54.01H132.677V54.51H133.177V54.01ZM153.877 54.01H154.377V53.51H153.877V54.01ZM153.877 64V64.5H154.377V64H153.877ZM120.577 64H120.077V64.5H120.577V64ZM120.577 1.18V0.679998H120.077V1.18H120.577ZM133.177 1.18H133.677V0.679998H133.177V1.18ZM133.677 49.6075C133.677 49.3314 133.453 49.1075 133.177 49.1075C132.901 49.1075 132.677 49.3314 132.677 49.6075H133.677ZM132.677 40.8025C132.677 41.0786 132.901 41.3025 133.177 41.3025C133.453 41.3025 133.677 41.0786 133.677 40.8025H132.677ZM133.677 31.9975C133.677 31.7214 133.453 31.4975 133.177 31.4975C132.901 31.4975 132.677 31.7214 132.677 31.9975H133.677ZM132.677 23.1925C132.677 23.4686 132.901 23.6925 133.177 23.6925C133.453 23.6925 133.677 23.4686 133.677 23.1925H132.677ZM133.677 14.3875C133.677 14.1114 133.453 13.8875 133.177 13.8875C132.901 13.8875 132.677 14.1114 132.677 14.3875H133.677ZM132.677 5.5825C132.677 5.85864 132.901 6.0825 133.177 6.0825C133.453 6.0825 133.677 5.85864 133.677 5.5825H132.677ZM130.027 0.679998C129.751 0.679998 129.527 0.903856 129.527 1.18C129.527 1.45614 129.751 1.68 130.027 1.68V0.679998ZM123.727 1.68C124.003 1.68 124.227 1.45614 124.227 1.18C124.227 0.903856 124.003 0.679998 123.727 0.679998V1.68ZM120.077 6.415C120.077 6.69114 120.301 6.915 120.577 6.915C120.853 6.915 121.077 6.69114 121.077 6.415H120.077ZM121.077 16.885C121.077 16.6089 120.853 16.385 120.577 16.385C120.301 16.385 120.077 16.6089 120.077 16.885H121.077ZM120.077 27.355C120.077 27.6311 120.301 27.855 120.577 27.855C120.853 27.855 121.077 27.6311 121.077 27.355H120.077ZM121.077 37.825C121.077 37.5489 120.853 37.325 120.577 37.325C120.301 37.325 120.077 37.5489 120.077 37.825H121.077ZM120.077 48.295C120.077 48.5711 120.301 48.795 120.577 48.795C120.853 48.795 121.077 48.5711 121.077 48.295H120.077ZM121.077 58.765C121.077 58.4889 120.853 58.265 120.577 58.265C120.301 58.265 120.077 58.4889 120.077 58.765H121.077ZM124.74 64.5C125.016 64.5 125.24 64.2761 125.24 64C125.24 63.7239 125.016 63.5 124.74 63.5V64.5ZM133.065 63.5C132.789 63.5 132.565 63.7239 132.565 64C132.565 64.2761 132.789 64.5 133.065 64.5V63.5ZM141.39 64.5C141.666 64.5 141.89 64.2761 141.89 64C141.89 63.7239 141.666 63.5 141.39 63.5V64.5ZM149.715 63.5C149.439 63.5 149.215 63.7239 149.215 64C149.215 64.2761 149.439 64.5 149.715 64.5V63.5ZM154.377 61.5025C154.377 61.2264 154.153 61.0025 153.877 61.0025C153.601 61.0025 153.377 61.2264 153.377 61.5025H154.377ZM153.377 56.5075C153.377 56.7836 153.601 57.0075 153.877 57.0075C154.153 57.0075 154.377 56.7836 154.377 56.5075H153.377ZM148.702 53.51C148.426 53.51 148.202 53.7339 148.202 54.01C148.202 54.2861 148.426 54.51 148.702 54.51V53.51ZM138.352 54.51C138.628 54.51 138.852 54.2861 138.852 54.01C138.852 53.7339 138.628 53.51 138.352 53.51V54.51ZM133.677 54.01V49.6075H132.677V54.01H133.677ZM133.677 40.8025V31.9975H132.677V40.8025H133.677ZM133.677 23.1925V14.3875H132.677V23.1925H133.677ZM133.677 5.5825V1.18H132.677V5.5825H133.677ZM133.177 0.679998H130.027V1.68H133.177V0.679998ZM123.727 0.679998H120.577V1.68H123.727V0.679998ZM120.077 1.18V6.415H121.077V1.18H120.077ZM120.077 16.885L120.077 27.355H121.077L121.077 16.885H120.077ZM120.077 37.825V48.295H121.077V37.825H120.077ZM120.077 58.765V64H121.077V58.765H120.077ZM120.577 64.5H124.74V63.5H120.577V64.5ZM133.065 64.5H141.39V63.5H133.065V64.5ZM149.715 64.5H153.877V63.5H149.715V64.5ZM154.377 64V61.5025H153.377V64H154.377ZM154.377 56.5075V54.01H153.377V56.5075H154.377ZM153.877 53.51H148.702V54.51H153.877V53.51ZM138.352 53.51H133.177V54.51H138.352V53.51ZM133.177 54.01H132.177V55.01H133.177V54.01ZM153.877 54.01H154.877V53.01H153.877V54.01ZM153.877 64V65H154.877V64H153.877ZM120.577 64H119.577V65H120.577V64ZM120.577 1.18V0.179998H119.577V1.18H120.577ZM133.177 1.18H134.177V0.179998H133.177V1.18ZM134.177 49.6075C134.177 49.0552 133.729 48.6075 133.177 48.6075C132.625 48.6075 132.177 49.0552 132.177 49.6075H134.177ZM132.177 40.8025C132.177 41.3548 132.625 41.8025 133.177 41.8025C133.729 41.8025 134.177 41.3548 134.177 40.8025H132.177ZM134.177 31.9975C134.177 31.4452 133.729 30.9975 133.177 30.9975C132.625 30.9975 132.177 31.4452 132.177 31.9975H134.177ZM132.177 23.1925C132.177 23.7448 132.625 24.1925 133.177 24.1925C133.729 24.1925 134.177 23.7448 134.177 23.1925H132.177ZM134.177 14.3875C134.177 13.8352 133.729 13.3875 133.177 13.3875C132.625 13.3875 132.177 13.8352 132.177 14.3875H134.177ZM132.177 5.5825C132.177 6.13478 132.625 6.5825 133.177 6.5825C133.729 6.5825 134.177 6.13478 134.177 5.5825H132.177ZM130.027 0.179998C129.475 0.179998 129.027 0.627714 129.027 1.18C129.027 1.73228 129.475 2.18 130.027 2.18V0.179998ZM123.727 2.18C124.279 2.18 124.727 1.73228 124.727 1.18C124.727 0.627714 124.279 0.179998 123.727 0.179998V2.18ZM119.577 6.415C119.577 6.96728 120.025 7.415 120.577 7.415C121.129 7.415 121.577 6.96728 121.577 6.415H119.577ZM121.577 16.885C121.577 16.3327 121.129 15.885 120.577 15.885C120.025 15.885 119.577 16.3327 119.577 16.885H121.577ZM119.577 27.355C119.577 27.9073 120.025 28.355 120.577 28.355C121.129 28.355 121.577 27.9073 121.577 27.355H119.577ZM121.577 37.825C121.577 37.2727 121.129 36.825 120.577 36.825C120.025 36.825 119.577 37.2727 119.577 37.825H121.577ZM119.577 48.295C119.577 48.8473 120.025 49.295 120.577 49.295C121.129 49.295 121.577 48.8473 121.577 48.295H119.577ZM121.577 58.765C121.577 58.2127 121.129 57.765 120.577 57.765C120.025 57.765 119.577 58.2127 119.577 58.765H121.577ZM124.74 65C125.292 65 125.74 64.5523 125.74 64C125.74 63.4477 125.292 63 124.74 63V65ZM133.065 63C132.512 63 132.065 63.4477 132.065 64C132.065 64.5523 132.512 65 133.065 65V63ZM141.39 65C141.942 65 142.39 64.5523 142.39 64C142.39 63.4477 141.942 63 141.39 63V65ZM149.715 63C149.162 63 148.715 63.4477 148.715 64C148.715 64.5523 149.162 65 149.715 65V63ZM154.877 61.5025C154.877 60.9502 154.429 60.5025 153.877 60.5025C153.325 60.5025 152.877 60.9502 152.877 61.5025H154.877ZM152.877 56.5075C152.877 57.0598 153.325 57.5075 153.877 57.5075C154.429 57.5075 154.877 57.0598 154.877 56.5075H152.877ZM148.702 53.01C148.15 53.01 147.702 53.4577 147.702 54.01C147.702 54.5623 148.15 55.01 148.702 55.01V53.01ZM138.352 55.01C138.904 55.01 139.352 54.5623 139.352 54.01C139.352 53.4577 138.904 53.01 138.352 53.01V55.01ZM134.177 54.01V49.6075H132.177V54.01H134.177ZM134.177 40.8025V31.9975H132.177V40.8025H134.177ZM134.177 23.1925V14.3875H132.177V23.1925H134.177ZM134.177 5.5825V1.18H132.177V5.5825H134.177ZM133.177 0.179998H130.027V2.18H133.177V0.179998ZM123.727 0.179998H120.577V2.18H123.727V0.179998ZM119.577 1.18V6.415H121.577V1.18H119.577ZM119.577 16.885L119.577 27.355H121.577L121.577 16.885H119.577ZM119.577 37.825V48.295H121.577V37.825H119.577ZM119.577 58.765V64H121.577V58.765H119.577ZM120.577 65H124.74V63H120.577V65ZM133.065 65H141.39V63H133.065V65ZM149.715 65H153.877V63H149.715V65ZM154.877 64V61.5025H152.877V64H154.877ZM154.877 56.5075V54.01H152.877V56.5075H154.877ZM153.877 53.01H148.702V55.01H153.877V53.01ZM138.352 53.01H133.177V55.01H138.352V53.01ZM197.346 64L196.959 64.3163L197.109 64.5H197.346V64ZM174.486 36.01L174.873 35.6937L173.986 34.6074V36.01H174.486ZM174.486 64V64.5H174.986V64H174.486ZM161.886 64H161.386V64.5H161.886V64ZM161.886 1.18V0.679998H161.386V1.18H161.886ZM174.486 1.18H174.986V0.679998H174.486V1.18ZM174.486 29.35H173.986V30.7596L174.874 29.6651L174.486 29.35ZM197.346 1.18V0.679998H197.108L196.958 0.864937L197.346 1.18ZM212.556 1.18L212.94 1.49987L213.623 0.679998H212.556V1.18ZM186.636 32.32L186.251 32.0001L185.984 32.3216L186.253 32.6418L186.636 32.32ZM213.276 64V64.5H214.35L213.658 63.6782L213.276 64ZM194.876 60.185C194.701 59.9711 194.386 59.9393 194.172 60.114C193.958 60.2887 193.926 60.6037 194.101 60.8175L194.876 60.185ZM188.386 53.82C188.561 54.0339 188.876 54.0657 189.09 53.891C189.303 53.7163 189.335 53.4013 189.161 53.1875L188.386 53.82ZM183.446 46.19C183.271 45.9761 182.956 45.9443 182.742 46.119C182.528 46.2937 182.496 46.6087 182.671 46.8225L183.446 46.19ZM176.956 39.825C177.131 40.0389 177.446 40.0707 177.66 39.896C177.873 39.7213 177.905 39.4063 177.731 39.1925L176.956 39.825ZM173.986 43.0075C173.986 43.2836 174.21 43.5075 174.486 43.5075C174.762 43.5075 174.986 43.2836 174.986 43.0075H173.986ZM174.986 57.0025C174.986 56.7264 174.762 56.5025 174.486 56.5025C174.21 56.5025 173.986 56.7264 173.986 57.0025H174.986ZM171.336 63.5C171.06 63.5 170.836 63.7239 170.836 64C170.836 64.2761 171.06 64.5 171.336 64.5V63.5ZM165.036 64.5C165.312 64.5 165.536 64.2761 165.536 64C165.536 63.7239 165.312 63.5 165.036 63.5V64.5ZM162.386 58.765C162.386 58.4889 162.162 58.265 161.886 58.265C161.61 58.265 161.386 58.4889 161.386 58.765H162.386ZM161.386 48.295C161.386 48.5711 161.61 48.795 161.886 48.795C162.162 48.795 162.386 48.5711 162.386 48.295H161.386ZM162.386 37.825C162.386 37.5489 162.162 37.325 161.886 37.325C161.61 37.325 161.386 37.5489 161.386 37.825H162.386ZM161.386 27.355C161.386 27.6311 161.61 27.855 161.886 27.855C162.162 27.855 162.386 27.6311 162.386 27.355H161.386ZM162.386 16.885C162.386 16.6089 162.162 16.385 161.886 16.385C161.61 16.385 161.386 16.6089 161.386 16.885H162.386ZM161.386 6.41499C161.386 6.69114 161.61 6.91499 161.886 6.91499C162.162 6.91499 162.386 6.69114 162.386 6.41499H161.386ZM165.036 1.68C165.312 1.68 165.536 1.45614 165.536 1.18C165.536 0.903856 165.312 0.679998 165.036 0.679998V1.68ZM171.336 0.679998C171.06 0.679998 170.836 0.903856 170.836 1.18C170.836 1.45614 171.06 1.68 171.336 1.68V0.679998ZM173.986 8.2225C173.986 8.49864 174.21 8.7225 174.486 8.7225C174.762 8.7225 174.986 8.49864 174.986 8.2225H173.986ZM174.986 22.3075C174.986 22.0314 174.762 21.8075 174.486 21.8075C174.21 21.8075 173.986 22.0314 173.986 22.3075H174.986ZM177.732 26.1438C177.906 25.9294 177.873 25.6145 177.658 25.4405C177.444 25.2665 177.129 25.2993 176.955 25.5137L177.732 26.1438ZM182.67 18.4712C182.496 18.6856 182.529 19.0005 182.743 19.1745C182.958 19.3485 183.273 19.3157 183.447 19.1013L182.67 18.4712ZM189.162 12.0588C189.336 11.8444 189.303 11.5295 189.088 11.3555C188.874 11.1815 188.559 11.2143 188.385 11.4287L189.162 12.0588ZM194.1 4.38618C193.926 4.60061 193.959 4.91549 194.173 5.08949C194.388 5.2635 194.703 5.23073 194.877 5.01631L194.1 4.38618ZM201.148 1.68C201.424 1.68 201.648 1.45614 201.648 1.18C201.648 0.903856 201.424 0.679998 201.148 0.679998V1.68ZM208.753 0.679998C208.477 0.679998 208.253 0.903856 208.253 1.18C208.253 1.45614 208.477 1.68 208.753 1.68V0.679998ZM208.931 4.75262C208.755 4.96486 208.784 5.28013 208.996 5.45679C209.208 5.63345 209.523 5.60461 209.7 5.39237L208.931 4.75262ZM203.22 13.1774C203.397 12.9651 203.368 12.6499 203.156 12.4732C202.943 12.2965 202.628 12.3254 202.451 12.5376L203.22 13.1774ZM195.971 20.3226C195.795 20.5349 195.824 20.8501 196.036 21.0268C196.248 21.2035 196.563 21.1746 196.74 20.9624L195.971 20.3226ZM190.26 28.7474C190.437 28.5351 190.408 28.2199 190.196 28.0432C189.983 27.8665 189.668 27.8954 189.491 28.1076L190.26 28.7474ZM189.583 36.6018C189.761 36.8131 190.076 36.8404 190.288 36.6627C190.499 36.485 190.526 36.1695 190.348 35.9582L189.583 36.6018ZM197.008 43.8782C196.831 43.6669 196.515 43.6396 196.304 43.8173C196.093 43.995 196.065 44.3104 196.243 44.5218L197.008 43.8782ZM202.903 52.4418C203.081 52.6531 203.396 52.6804 203.608 52.5027C203.819 52.325 203.846 52.0095 203.668 51.7982L202.903 52.4418ZM210.328 59.7182C210.151 59.5069 209.835 59.4796 209.624 59.6573C209.413 59.835 209.385 60.1505 209.563 60.3618L210.328 59.7182ZM209.293 63.5C209.017 63.5 208.793 63.7239 208.793 64C208.793 64.2761 209.017 64.5 209.293 64.5V63.5ZM201.328 64.5C201.604 64.5 201.828 64.2761 201.828 64C201.828 63.7239 201.604 63.5 201.328 63.5V64.5ZM197.733 63.6837L194.876 60.185L194.101 60.8175L196.959 64.3163L197.733 63.6837ZM189.161 53.1875L183.446 46.19L182.671 46.8225L188.386 53.82L189.161 53.1875ZM177.731 39.1925L174.873 35.6937L174.099 36.3263L176.956 39.825L177.731 39.1925ZM173.986 36.01V43.0075H174.986V36.01H173.986ZM173.986 57.0025V64H174.986V57.0025H173.986ZM174.486 63.5H171.336V64.5H174.486V63.5ZM165.036 63.5H161.886V64.5H165.036V63.5ZM162.386 64V58.765H161.386V64H162.386ZM162.386 48.295V37.825H161.386V48.295H162.386ZM162.386 27.355V16.885H161.386V27.355H162.386ZM162.386 6.41499V1.18H161.386V6.41499H162.386ZM161.886 1.68L165.036 1.68V0.679998L161.886 0.679998V1.68ZM171.336 1.68H174.486V0.679998H171.336V1.68ZM173.986 1.18V8.2225H174.986V1.18H173.986ZM173.986 22.3075V29.35H174.986V22.3075H173.986ZM174.874 29.6651L177.732 26.1438L176.955 25.5137L174.098 29.0349L174.874 29.6651ZM183.447 19.1013L189.162 12.0588L188.385 11.4287L182.67 18.4712L183.447 19.1013ZM194.877 5.01631L197.734 1.49506L196.958 0.864937L194.1 4.38618L194.877 5.01631ZM197.346 1.68H201.148V0.679998H197.346V1.68ZM208.753 1.68H212.556V0.679998H208.753V1.68ZM212.171 0.860125L208.931 4.75262L209.7 5.39237L212.94 1.49987L212.171 0.860125ZM202.451 12.5376L195.971 20.3226L196.74 20.9624L203.22 13.1774L202.451 12.5376ZM189.491 28.1076L186.251 32.0001L187.02 32.6399L190.26 28.7474L189.491 28.1076ZM186.253 32.6418L189.583 36.6018L190.348 35.9582L187.018 31.9982L186.253 32.6418ZM196.243 44.5218L202.903 52.4418L203.668 51.7982L197.008 43.8782L196.243 44.5218ZM209.563 60.3618L212.893 64.3218L213.658 63.6782L210.328 59.7182L209.563 60.3618ZM213.276 63.5H209.293V64.5H213.276V63.5ZM201.328 63.5H197.346V64.5H201.328V63.5ZM197.346 64L196.571 64.6326L196.871 65H197.346V64ZM174.486 36.01L175.26 35.3774L173.486 33.2047V36.01H174.486ZM174.486 64V65H175.486V64H174.486ZM161.886 64H160.886V65H161.886V64ZM161.886 1.18V0.179998H160.886V1.18H161.886ZM174.486 1.18H175.486V0.179998H174.486V1.18ZM174.486 29.35H173.486V32.1693L175.262 29.9801L174.486 29.35ZM197.346 1.18V0.179998H196.869L196.569 0.549873L197.346 1.18ZM212.556 1.18L213.324 1.81975L214.689 0.179998H212.556V1.18ZM186.636 32.32L185.867 31.6802L185.332 32.3233L185.87 32.9636L186.636 32.32ZM213.276 64V65H215.423L214.041 63.3564L213.276 64ZM195.263 59.8687C194.913 59.4409 194.283 59.3774 193.856 59.7267C193.428 60.0761 193.364 60.7061 193.714 61.1338L195.263 59.8687ZM187.999 54.1363C188.348 54.5641 188.978 54.6276 189.406 54.2783C189.834 53.9289 189.897 53.2989 189.548 52.8712L187.999 54.1363ZM183.833 45.8737C183.483 45.4459 182.853 45.3824 182.426 45.7317C181.998 46.0811 181.934 46.7111 182.284 47.1388L183.833 45.8737ZM176.569 40.1413C176.918 40.5691 177.548 40.6326 177.976 40.2833C178.404 39.9339 178.467 39.3039 178.118 38.8762L176.569 40.1413ZM173.486 43.0075C173.486 43.5598 173.934 44.0075 174.486 44.0075C175.038 44.0075 175.486 43.5598 175.486 43.0075H173.486ZM175.486 57.0025C175.486 56.4502 175.038 56.0025 174.486 56.0025C173.934 56.0025 173.486 56.4502 173.486 57.0025H175.486ZM171.336 63C170.783 63 170.336 63.4477 170.336 64C170.336 64.5523 170.783 65 171.336 65V63ZM165.036 65C165.588 65 166.036 64.5523 166.036 64C166.036 63.4477 165.588 63 165.036 63V65ZM162.886 58.765C162.886 58.2127 162.438 57.765 161.886 57.765C161.333 57.765 160.886 58.2127 160.886 58.765H162.886ZM160.886 48.295C160.886 48.8473 161.333 49.295 161.886 49.295C162.438 49.295 162.886 48.8473 162.886 48.295H160.886ZM162.886 37.825C162.886 37.2727 162.438 36.825 161.886 36.825C161.333 36.825 160.886 37.2727 160.886 37.825H162.886ZM160.886 27.355C160.886 27.9073 161.333 28.355 161.886 28.355C162.438 28.355 162.886 27.9073 162.886 27.355H160.886ZM162.886 16.885C162.886 16.3327 162.438 15.885 161.886 15.885C161.333 15.885 160.886 16.3327 160.886 16.885H162.886ZM160.886 6.41499C160.886 6.96728 161.333 7.41499 161.886 7.41499C162.438 7.41499 162.886 6.96728 162.886 6.41499H160.886ZM165.036 2.18C165.588 2.18 166.036 1.73228 166.036 1.18C166.036 0.627714 165.588 0.179998 165.036 0.179998V2.18ZM171.336 0.179998C170.783 0.179998 170.336 0.627714 170.336 1.18C170.336 1.73228 170.783 2.18 171.336 2.18V0.179998ZM173.486 8.2225C173.486 8.77478 173.934 9.2225 174.486 9.2225C175.038 9.2225 175.486 8.77478 175.486 8.2225H173.486ZM175.486 22.3075C175.486 21.7552 175.038 21.3075 174.486 21.3075C173.934 21.3075 173.486 21.7552 173.486 22.3075H175.486ZM178.12 26.4589C178.468 26.03 178.402 25.4003 177.973 25.0523C177.545 24.7042 176.915 24.7698 176.567 25.1986L178.12 26.4589ZM182.282 18.1561C181.934 18.585 181.999 19.2147 182.428 19.5627C182.857 19.9108 183.487 19.8452 183.835 19.4164L182.282 18.1561ZM189.55 12.3739C189.898 11.945 189.832 11.3153 189.403 10.9673C188.975 10.6192 188.345 10.6848 187.997 11.1136L189.55 12.3739ZM193.712 4.07112C193.364 4.49997 193.429 5.12973 193.858 5.47774C194.287 5.82575 194.917 5.76022 195.265 5.33137L193.712 4.07112ZM201.148 2.18C201.701 2.18 202.148 1.73228 202.148 1.18C202.148 0.627714 201.701 0.179998 201.148 0.179998V2.18ZM208.753 0.179998C208.201 0.179998 207.753 0.627714 207.753 1.18C207.753 1.73228 208.201 2.18 208.753 2.18V0.179998ZM208.547 4.43275C208.194 4.85723 208.252 5.48776 208.676 5.84108C209.101 6.19441 209.731 6.13672 210.084 5.71225L208.547 4.43275ZM203.604 13.4972C203.958 13.0728 203.9 12.4422 203.476 12.0889C203.051 11.7356 202.421 11.7933 202.067 12.2178L203.604 13.4972ZM195.587 20.0028C195.234 20.4272 195.292 21.0578 195.716 21.4111C196.141 21.7644 196.771 21.7067 197.124 21.2822L195.587 20.0028ZM190.644 29.0672C190.998 28.6428 190.94 28.0122 190.516 27.6589C190.091 27.3056 189.461 27.3633 189.107 27.7878L190.644 29.0672ZM189.2 36.9236C189.556 37.3463 190.187 37.4008 190.609 37.0454C191.032 36.6899 191.087 36.0591 190.731 35.6364L189.2 36.9236ZM197.391 43.5564C197.036 43.1337 196.405 43.0792 195.982 43.4346C195.559 43.7901 195.505 44.4209 195.86 44.8436L197.391 43.5564ZM202.52 52.7636C202.876 53.1863 203.507 53.2408 203.929 52.8854C204.352 52.5299 204.407 51.8991 204.051 51.4764L202.52 52.7636ZM210.711 59.3964C210.356 58.9737 209.725 58.9192 209.302 59.2746C208.879 59.6301 208.825 60.2609 209.18 60.6836L210.711 59.3964ZM209.293 63C208.741 63 208.293 63.4477 208.293 64C208.293 64.5523 208.741 65 209.293 65V63ZM201.328 65C201.881 65 202.328 64.5523 202.328 64C202.328 63.4477 201.881 63 201.328 63V65ZM198.12 63.3674L195.263 59.8687L193.714 61.1338L196.571 64.6326L198.12 63.3674ZM189.548 52.8712L183.833 45.8737L182.284 47.1388L187.999 54.1363L189.548 52.8712ZM178.118 38.8762L175.26 35.3774L173.711 36.6426L176.569 40.1413L178.118 38.8762ZM173.486 36.01V43.0075H175.486V36.01H173.486ZM173.486 57.0025V64H175.486V57.0025H173.486ZM174.486 63H171.336V65H174.486V63ZM165.036 63H161.886V65H165.036V63ZM162.886 64V58.765H160.886V64H162.886ZM162.886 48.295V37.825H160.886V48.295H162.886ZM162.886 27.355V16.885H160.886V27.355H162.886ZM162.886 6.41499V1.18H160.886V6.41499H162.886ZM161.886 2.18L165.036 2.18V0.179998L161.886 0.179998V2.18ZM171.336 2.18H174.486V0.179998H171.336V2.18ZM173.486 1.18V8.2225H175.486V1.18H173.486ZM173.486 22.3075V29.35H175.486V22.3075H173.486ZM175.262 29.9801L178.12 26.4589L176.567 25.1986L173.709 28.7199L175.262 29.9801ZM183.835 19.4164L189.55 12.3739L187.997 11.1136L182.282 18.1561L183.835 19.4164ZM195.265 5.33137L198.122 1.81012L196.569 0.549873L193.712 4.07112L195.265 5.33137ZM197.346 2.18H201.148V0.179998H197.346V2.18ZM208.753 2.18H212.556V0.179998H208.753V2.18ZM211.787 0.540251L208.547 4.43275L210.084 5.71225L213.324 1.81975L211.787 0.540251ZM202.067 12.2178L195.587 20.0028L197.124 21.2822L203.604 13.4972L202.067 12.2178ZM189.107 27.7878L185.867 31.6802L187.404 32.9597L190.644 29.0672L189.107 27.7878ZM185.87 32.9636L189.2 36.9236L190.731 35.6364L187.401 31.6764L185.87 32.9636ZM195.86 44.8436L202.52 52.7636L204.051 51.4764L197.391 43.5564L195.86 44.8436ZM209.18 60.6836L212.51 64.6436L214.041 63.3564L210.711 59.3964L209.18 60.6836ZM213.276 63H209.293V65H213.276V63ZM201.328 63H197.346V65H201.328V63ZM231.374 62.38L231.176 62.8392L231.178 62.8404L231.374 62.38ZM223.094 55.9L222.688 56.1931L223.094 55.9ZM219.944 45.91V45.41H219.436L219.444 45.9178L219.944 45.91ZM233.444 45.91L233.942 45.8752L233.91 45.41H233.444V45.91ZM236.144 52.03L235.804 52.3969L235.811 52.403L236.144 52.03ZM249.914 52.21L250.231 52.5964L250.239 52.5896L249.914 52.21ZM250.724 42.04L250.361 42.3844L250.724 42.04ZM246.404 39.25L246.207 39.7096L246.216 39.7137L246.226 39.7175L246.404 39.25ZM239.384 36.91L239.242 37.3897L239.249 37.3915L239.384 36.91ZM229.394 33.4L229.179 33.8514L229.185 33.8545L229.191 33.8573L229.394 33.4ZM222.824 28.09L222.423 28.3901L222.432 28.4011L222.824 28.09ZM222.914 8.83L223.328 9.10942L222.914 8.83ZM230.744 2.53L230.94 2.98962L230.947 2.98657L230.744 2.53ZM258.014 5.05L257.703 5.44219L257.71 5.44718L258.014 5.05ZM264.764 18.19V18.69H265.302L265.262 18.1529L264.764 18.19ZM250.904 18.19L250.404 18.2177L250.431 18.69H250.904V18.19ZM248.114 12.88L247.788 13.2596L247.795 13.2658L247.803 13.2717L248.114 12.88ZM235.424 12.61L235.102 12.2271L235.094 12.2337L235.424 12.61ZM234.884 22.33L234.521 22.6739L234.53 22.6837L234.54 22.693L234.884 22.33ZM239.024 25.03L238.82 25.4869L238.83 25.4914L238.841 25.4954L239.024 25.03ZM246.044 27.37L245.9 27.8489L245.902 27.8497L246.044 27.37ZM256.034 30.97L255.823 31.4234L256.034 30.97ZM262.694 36.37L262.298 36.6763L262.694 36.37ZM262.874 55.18L262.446 54.9214L262.874 55.18ZM255.224 62.11L255.447 62.5573L255.453 62.554L255.224 62.11ZM240.256 64.0057C239.981 63.9823 239.739 64.1864 239.715 64.4616C239.692 64.7367 239.896 64.9787 240.171 65.0021L240.256 64.0057ZM234.096 63.8828C234.361 63.9608 234.639 63.8094 234.717 63.5445C234.795 63.2796 234.644 63.0016 234.379 62.9236L234.096 63.8828ZM229.246 60.7552C229.007 60.6168 228.701 60.6983 228.563 60.9372C228.425 61.1761 228.506 61.4821 228.745 61.6205L229.246 60.7552ZM224.444 58.2852C224.636 58.4833 224.953 58.488 225.151 58.2957C225.349 58.1034 225.354 57.7869 225.161 57.5887L224.444 58.2852ZM222.165 53.4032C222.042 53.1559 221.742 53.0551 221.495 53.1779C221.248 53.3008 221.147 53.6009 221.27 53.8482L222.165 53.4032ZM219.659 48.6342C219.7 48.9074 219.954 49.0962 220.227 49.0559C220.5 49.0157 220.689 48.7615 220.649 48.4883L219.659 48.6342ZM223.319 46.41C223.595 46.41 223.819 46.1861 223.819 45.91C223.819 45.6339 223.595 45.41 223.319 45.41V46.41ZM230.069 45.41C229.792 45.41 229.569 45.6339 229.569 45.91C229.569 46.1861 229.792 46.41 230.069 46.41V45.41ZM233.194 47.7138C233.253 47.9835 233.52 48.1542 233.79 48.095C234.059 48.0358 234.23 47.7691 234.171 47.4994L233.194 47.7138ZM235.429 50.4543C235.271 50.2278 234.959 50.1722 234.733 50.3301C234.506 50.488 234.451 50.7997 234.609 51.0262L235.429 50.4543ZM237.408 53.5262C237.65 53.6583 237.954 53.5687 238.086 53.3262C238.218 53.0836 238.128 52.78 237.886 52.648L237.408 53.5262ZM241.21 53.6721C240.936 53.6371 240.685 53.8307 240.65 54.1046C240.615 54.3785 240.809 54.629 241.083 54.664L241.21 53.6721ZM244.881 54.6775C245.155 54.6464 245.353 54.3987 245.321 54.1243C245.29 53.85 245.043 53.6528 244.768 53.6839L244.881 54.6775ZM248.143 52.7534C247.895 52.875 247.793 53.1745 247.914 53.4225C248.036 53.6704 248.336 53.7729 248.583 53.6513L248.143 52.7534ZM251.401 51.3711C251.569 51.1521 251.528 50.8382 251.309 50.6701C251.09 50.5019 250.776 50.543 250.608 50.762L251.401 51.3711ZM251.797 48.1084C251.744 48.3794 251.921 48.642 252.192 48.6947C252.463 48.7475 252.725 48.5706 252.778 48.2995L251.797 48.1084ZM252.834 45.3011C252.791 45.0283 252.535 44.8417 252.263 44.8844C251.99 44.9271 251.803 45.1829 251.846 45.4557L252.834 45.3011ZM251.065 43.2949C251.21 43.5299 251.518 43.6026 251.753 43.4574C251.988 43.3122 252.061 43.0041 251.916 42.7692L251.065 43.2949ZM250.09 40.7717C249.876 40.5969 249.561 40.6285 249.386 40.8423C249.212 41.0561 249.243 41.3711 249.457 41.5459L250.09 40.7717ZM247.371 40.2144C247.619 40.3366 247.919 40.2349 248.041 39.9873C248.163 39.7396 248.062 39.4398 247.814 39.3176L247.371 40.2144ZM244.852 38.104C244.592 38.0098 244.305 38.1437 244.211 38.4033C244.117 38.6628 244.251 38.9497 244.51 39.0439L244.852 38.104ZM241.019 37.9032C241.284 37.9823 241.562 37.8319 241.641 37.5673C241.72 37.3027 241.57 37.0242 241.305 36.9451L241.019 37.9032ZM237 35.6613C236.737 35.5781 236.456 35.7241 236.373 35.9874C236.289 36.2508 236.435 36.5317 236.699 36.6149L237 35.6613ZM231.664 34.8724C231.922 34.9713 232.211 34.8424 232.31 34.5846C232.409 34.3268 232.28 34.0376 232.022 33.9387L231.664 34.8724ZM227.797 31.9482C227.564 31.8004 227.255 31.8696 227.107 32.1028C226.96 32.3361 227.029 32.645 227.262 32.7928L227.797 31.9482ZM223.874 30.0378C224.067 30.2351 224.384 30.2386 224.581 30.0455C224.778 29.8524 224.782 29.5358 224.589 29.3384L223.874 30.0378ZM221.993 25.7156C221.878 25.4648 221.581 25.3551 221.33 25.4705C221.079 25.586 220.969 25.883 221.085 26.1338L221.993 25.7156ZM219.759 21.1228C219.789 21.3973 220.037 21.5952 220.311 21.5649C220.585 21.5346 220.783 21.2876 220.753 21.0131L219.759 21.1228ZM220.776 16.052C220.81 15.778 220.616 15.5279 220.342 15.4934C220.068 15.4589 219.818 15.653 219.784 15.9269L220.776 16.052ZM221.204 10.857C221.088 11.108 221.199 11.4048 221.45 11.5199C221.701 11.635 221.997 11.5249 222.113 11.2739L221.204 10.857ZM224.861 7.1747C225.049 6.97222 225.037 6.65586 224.834 6.4681C224.632 6.28033 224.316 6.29227 224.128 6.49475L224.861 7.1747ZM228.215 3.24119C227.977 3.38054 227.897 3.68676 228.036 3.92517C228.175 4.16358 228.481 4.24388 228.72 4.10453L228.215 3.24119ZM233.657 1.97514C233.921 1.89452 234.07 1.61506 233.989 1.35094C233.909 1.08683 233.629 0.938082 233.365 1.0187L233.657 1.97514ZM239.268 -0.0950336C238.993 -0.0714588 238.789 0.170692 238.812 0.445827C238.836 0.720961 239.078 0.924891 239.353 0.901316L239.268 -0.0950336ZM246.389 1.0176C246.663 1.05068 246.912 0.855246 246.945 0.581093C246.978 0.306938 246.782 0.0578785 246.508 0.0248013L246.389 1.0176ZM254.696 2.36678C254.448 2.24435 254.148 2.34575 254.026 2.59327C253.904 2.84079 254.005 3.14069 254.253 3.26312L254.696 2.36678ZM260.387 7.99448C260.564 8.20618 260.879 8.23406 261.091 8.05675C261.303 7.87944 261.331 7.56409 261.153 7.35239L260.387 7.99448ZM264.65 14.3056C264.583 14.0379 264.311 13.8759 264.043 13.9437C263.775 14.0115 263.613 14.2834 263.681 14.5511L264.65 14.3056ZM261.299 17.69C261.022 17.69 260.799 17.9139 260.799 18.19C260.799 18.4661 261.022 18.69 261.299 18.69V17.69ZM254.369 18.69C254.645 18.69 254.869 18.4661 254.869 18.19C254.869 17.9139 254.645 17.69 254.369 17.69V18.69ZM251.15 16.5345C251.08 16.2675 250.806 16.1083 250.539 16.1788C250.272 16.2493 250.113 16.5229 250.183 16.7899L251.15 16.5345ZM248.853 14.2738C249.033 14.4831 249.349 14.5069 249.558 14.3268C249.768 14.1468 249.791 13.8311 249.611 13.6217L248.853 14.2738ZM246.851 11.4236C246.607 11.2948 246.305 11.3885 246.176 11.6328C246.047 11.877 246.141 12.1795 246.385 12.3082L246.851 11.4236ZM243.108 11.3241C243.382 11.3585 243.632 11.1643 243.666 10.8903C243.7 10.6163 243.506 10.3663 243.232 10.3319L243.108 11.3241ZM239.713 10.3196C239.439 10.3543 239.245 10.6044 239.28 10.8784C239.314 11.1523 239.564 11.3464 239.838 11.3118L239.713 10.3196ZM236.975 12.1701C237.22 12.0422 237.315 11.7401 237.187 11.4954C237.059 11.2507 236.757 11.156 236.512 11.2839L236.975 12.1701ZM234.004 13.4699C233.85 13.6991 233.911 14.0097 234.14 14.1638C234.369 14.3179 234.68 14.2571 234.834 14.0279L234.004 13.4699ZM233.865 16.6558C233.906 16.3827 233.718 16.1282 233.444 16.0875C233.171 16.0467 232.917 16.235 232.876 16.5081L233.865 16.6558ZM232.863 19.3387C232.908 19.6111 233.165 19.7953 233.438 19.75C233.71 19.7047 233.894 19.4472 233.849 19.1748L232.863 19.3387ZM234.592 21.1486C234.444 20.9153 234.135 20.8459 233.902 20.9935C233.669 21.1412 233.599 21.4501 233.747 21.6834L234.592 21.1486ZM235.518 23.5331C235.735 23.7028 236.05 23.6639 236.219 23.4461C236.389 23.2283 236.35 22.9141 236.132 22.7443L235.518 23.5331ZM238.144 24.0446C237.9 23.9143 237.597 24.0061 237.467 24.2496C237.337 24.493 237.428 24.796 237.672 24.9263L238.144 24.0446ZM240.593 26.1438C240.853 26.2355 241.139 26.0986 241.23 25.8381C241.322 25.5776 241.185 25.2922 240.924 25.2005L240.593 26.1438ZM244.422 26.3517C244.159 26.2695 243.878 26.4166 243.796 26.6802C243.714 26.9439 243.861 27.2242 244.125 27.3064L244.422 26.3517ZM248.432 28.6245C248.695 28.7085 248.976 28.5634 249.06 28.3003C249.144 28.0373 248.999 27.7559 248.736 27.6719L248.432 28.6245ZM253.777 29.4585C253.521 29.3564 253.23 29.4816 253.128 29.7382C253.026 29.9948 253.151 30.2856 253.407 30.3876L253.777 29.4585ZM257.668 32.4264C257.902 32.5733 258.21 32.5028 258.357 32.269C258.504 32.0352 258.434 31.7265 258.2 31.5796L257.668 32.4264ZM261.639 34.3856C261.448 34.1868 261.131 34.181 260.932 34.3727C260.734 34.5644 260.728 34.8809 260.92 35.0797L261.639 34.3856ZM263.558 38.7188C263.678 38.9676 263.976 39.0722 264.225 38.9524C264.474 38.8326 264.579 38.5338 264.459 38.285L263.558 38.7188ZM265.841 43.2576C265.809 42.9834 265.56 42.787 265.286 42.819C265.012 42.851 264.815 43.0993 264.847 43.3736L265.841 43.2576ZM264.828 48.2074C264.791 48.4811 264.984 48.7326 265.257 48.769C265.531 48.8054 265.783 48.613 265.819 48.3393L264.828 48.2074ZM264.464 53.1976C264.574 52.9445 264.459 52.6498 264.206 52.5393C263.953 52.4288 263.658 52.5444 263.547 52.7975L264.464 53.1976ZM260.973 56.985C260.796 57.1969 260.824 57.5122 261.036 57.6893C261.248 57.8664 261.563 57.8382 261.74 57.6263L260.973 56.985ZM257.752 61.1937C257.981 61.0392 258.041 60.7284 257.887 60.4996C257.732 60.2707 257.421 60.2104 257.192 60.3649L257.752 61.1937ZM252.215 62.8096C251.953 62.8966 251.811 63.1796 251.898 63.4417C251.985 63.7038 252.268 63.8457 252.53 63.7587L252.215 62.8096ZM246.38 64.9952C246.655 64.9707 246.858 64.7279 246.834 64.4528C246.809 64.1778 246.567 63.9747 246.291 63.9992L246.38 64.9952ZM243.254 64.13C242.23 64.13 241.231 64.0885 240.256 64.0057L240.171 65.0021C241.176 65.0874 242.203 65.13 243.254 65.13V64.13ZM234.379 62.9236C233.414 62.6391 232.477 62.3044 231.569 61.9196L231.178 62.8404C232.122 63.2403 233.095 63.5878 234.096 63.8828L234.379 62.9236ZM231.571 61.9208C230.755 61.5688 229.98 61.1802 229.246 60.7552L228.745 61.6205C229.514 62.0661 230.324 62.4722 231.176 62.8392L231.571 61.9208ZM225.161 57.5887C224.561 56.9704 224.007 56.3099 223.499 55.6069L222.688 56.1931C223.225 56.9347 223.81 57.6321 224.444 58.2852L225.161 57.5887ZM223.499 55.6069C222.991 54.9046 222.546 54.17 222.165 53.4032L221.27 53.8482C221.675 54.6649 222.148 55.4466 222.688 56.1931L223.499 55.6069ZM220.649 48.4883C220.526 47.6561 220.457 46.7942 220.443 45.9022L219.444 45.9178C219.458 46.851 219.53 47.7565 219.659 48.6342L220.649 48.4883ZM219.944 46.41H223.319V45.41H219.944V46.41ZM230.069 46.41H233.444V45.41H230.069V46.41ZM232.945 45.9448C232.988 46.5613 233.071 47.1512 233.194 47.7138L234.171 47.4994C234.059 46.9882 233.982 46.447 233.942 45.8752L232.945 45.9448ZM234.609 51.0262C234.955 51.523 235.354 51.98 235.804 52.3969L236.483 51.6631C236.085 51.2942 235.734 50.8914 235.429 50.4543L234.609 51.0262ZM235.811 52.403C236.296 52.8367 236.829 53.2112 237.408 53.5262L237.886 52.648C237.374 52.3691 236.904 52.0389 236.477 51.657L235.811 52.403ZM241.083 54.664C241.688 54.7416 242.322 54.78 242.984 54.78V53.78C242.36 53.78 241.769 53.7438 241.21 53.6721L241.083 54.664ZM242.984 54.78C243.645 54.78 244.277 54.746 244.881 54.6775L244.768 53.6839C244.205 53.7478 243.61 53.78 242.984 53.78V54.78ZM248.583 53.6513C249.182 53.3577 249.732 53.0062 250.231 52.5964L249.596 51.8236C249.159 52.1824 248.676 52.4925 248.143 52.7534L248.583 53.6513ZM250.239 52.5896C250.678 52.2131 251.066 51.807 251.401 51.3711L250.608 50.762C250.318 51.1396 249.978 51.4959 249.588 51.8304L250.239 52.5896ZM252.778 48.2995C252.882 47.7654 252.934 47.2086 252.934 46.63H251.934C251.934 47.1494 251.887 47.6419 251.797 48.1084L252.778 48.2995ZM252.934 46.63C252.934 46.1708 252.901 45.7277 252.834 45.3011L251.846 45.4557C251.904 45.8274 251.934 46.2186 251.934 46.63H252.934ZM251.916 42.7692C251.679 42.3866 251.402 42.0287 251.086 41.6956L250.361 42.3844C250.631 42.669 250.866 42.9725 251.065 43.2949L251.916 42.7692ZM251.086 41.6956C250.775 41.3683 250.443 41.0603 250.09 40.7717L249.457 41.5459C249.778 41.8083 250.079 42.0877 250.361 42.3844L251.086 41.6956ZM247.814 39.3176C247.42 39.123 247.008 38.9447 246.581 38.7825L246.226 39.7175C246.625 39.8689 247.007 40.0345 247.371 40.2144L247.814 39.3176ZM246.6 38.7904C246.077 38.5663 245.494 38.3375 244.852 38.104L244.51 39.0439C245.139 39.2723 245.704 39.4942 246.207 39.7096L246.6 38.7904ZM241.305 36.9451C240.738 36.7754 240.142 36.6032 239.518 36.4285L239.249 37.3915C239.867 37.5647 240.457 37.7353 241.019 37.9032L241.305 36.9451ZM239.525 36.4303C238.648 36.1725 237.806 35.9162 237 35.6613L236.699 36.6149C237.512 36.8718 238.36 37.1301 239.242 37.3897L239.525 36.4303ZM232.022 33.9387C231.149 33.6035 230.34 33.2715 229.596 32.9427L229.191 33.8573C229.953 34.1938 230.777 34.5321 231.664 34.8724L232.022 33.9387ZM229.608 32.9486C228.984 32.6511 228.38 32.3177 227.797 31.9482L227.262 32.7928C227.879 33.1839 228.518 33.5367 229.179 33.8514L229.608 32.9486ZM224.589 29.3384C224.113 28.8518 223.655 28.332 223.215 27.7789L222.432 28.4011C222.892 28.9801 223.373 29.5257 223.874 30.0378L224.589 29.3384ZM223.224 27.79C222.749 27.157 222.338 26.4659 221.993 25.7156L221.085 26.1338C221.459 26.9459 221.905 27.6983 222.424 28.39L223.224 27.79ZM220.753 21.0131C220.667 20.2318 220.624 19.4109 220.624 18.55H219.624C219.624 19.4444 219.669 20.3021 219.759 21.1228L220.753 21.0131ZM220.624 18.55C220.624 17.6893 220.674 16.8567 220.776 16.052L219.784 15.9269C219.677 16.7754 219.624 17.6499 219.624 18.55H220.624ZM222.113 11.2739C222.458 10.5215 222.863 9.80011 223.328 9.10942L222.499 8.55057C222.003 9.28609 221.571 10.055 221.204 10.857L222.113 11.2739ZM223.328 9.10942C223.791 8.42205 224.302 7.77722 224.861 7.1747L224.128 6.49475C223.534 7.1354 222.991 7.82076 222.499 8.55057L223.328 9.10942ZM228.72 4.10453C229.417 3.69699 230.157 3.32525 230.94 2.98957L230.547 2.07043C229.727 2.42158 228.95 2.81175 228.215 3.24119L228.72 4.10453ZM230.947 2.98657C231.817 2.59833 232.72 2.26114 233.657 1.97514L233.365 1.0187C232.39 1.31642 231.448 1.66795 230.54 2.07343L230.947 2.98657ZM239.353 0.901316C240.296 0.820498 241.266 0.779999 242.264 0.779999V-0.220001C241.239 -0.220001 240.241 -0.178404 239.268 -0.0950336L239.353 0.901316ZM242.264 0.779999C243.702 0.779999 245.077 0.85939 246.389 1.0176L246.508 0.0248013C245.154 -0.138592 243.739 -0.220001 242.264 -0.220001V0.779999ZM254.253 3.26312C255.492 3.87615 256.642 4.60251 257.703 5.44214L258.324 4.65786C257.206 3.77391 255.997 3.01024 254.696 2.36678L254.253 3.26312ZM257.71 5.44718C258.719 6.21893 259.611 7.06812 260.387 7.99448L261.153 7.35239C260.328 6.36697 259.382 5.46721 258.317 4.65282L257.71 5.44718ZM263.681 14.5511C263.973 15.7053 264.168 16.9303 264.265 18.2271L265.262 18.1529C265.162 16.8032 264.958 15.5205 264.65 14.3056L263.681 14.5511ZM264.764 17.69H261.299V18.69H264.764V17.69ZM254.369 17.69H250.904V18.69H254.369V17.69ZM251.403 18.1623C251.371 17.5976 251.288 17.0547 251.15 16.5345L250.183 16.7899C250.302 17.2408 250.376 17.7164 250.404 18.2177L251.403 18.1623ZM249.611 13.6217C249.263 13.2174 248.867 12.8397 248.424 12.4882L247.803 13.2717C248.2 13.5867 248.55 13.9208 248.853 14.2738L249.611 13.6217ZM248.439 12.5004C247.954 12.0846 247.424 11.7256 246.851 11.4236L246.385 12.3082C246.893 12.576 247.361 12.8931 247.788 13.2596L248.439 12.5004ZM243.232 10.3319C242.636 10.2571 242.013 10.22 241.364 10.22V11.22C241.975 11.22 242.556 11.2549 243.108 11.3241L243.232 10.3319ZM241.364 10.22C240.791 10.22 240.241 10.253 239.713 10.3196L239.838 11.3118C240.321 11.2508 240.829 11.22 241.364 11.22V10.22ZM236.512 11.2839C236.005 11.5489 235.535 11.8633 235.102 12.2271L235.745 12.9928C236.122 12.6762 236.532 12.402 236.975 12.1701L236.512 11.2839ZM235.094 12.2337C234.675 12.6004 234.311 13.0126 234.004 13.4699L234.834 14.0279C235.092 13.6436 235.398 13.2966 235.753 12.9863L235.094 12.2337ZM232.876 16.5081C232.801 17.0127 232.764 17.5436 232.764 18.1H233.764C233.764 17.5879 233.798 17.1067 233.865 16.6558L232.876 16.5081ZM232.764 18.1C232.764 18.5266 232.796 18.9397 232.863 19.3387L233.849 19.1748C233.792 18.8335 233.764 18.4754 233.764 18.1H232.764ZM233.747 21.6834C233.969 22.0337 234.227 22.3638 234.521 22.6739L235.246 21.9861C234.996 21.7212 234.778 21.442 234.592 21.1486L233.747 21.6834ZM234.54 22.693C234.849 22.9861 235.175 23.2661 235.518 23.5331L236.132 22.7443C235.815 22.4967 235.513 22.2376 235.227 21.967L234.54 22.693ZM237.672 24.9263C238.041 25.124 238.424 25.3108 238.82 25.4869L239.227 24.5731C238.852 24.4065 238.491 24.2303 238.144 24.0446L237.672 24.9263ZM238.841 25.4954C239.363 25.7007 239.948 25.9169 240.593 26.1438L240.924 25.2005C240.288 24.9767 239.716 24.7647 239.206 24.5646L238.841 25.4954ZM244.125 27.3064C244.689 27.4822 245.28 27.663 245.9 27.8489L246.187 26.8911C245.571 26.7061 244.982 26.5264 244.422 26.3517L244.125 27.3064ZM245.902 27.8497C246.781 28.1081 247.624 28.3663 248.432 28.6245L248.736 27.6719C247.921 27.4112 247.07 27.1507 246.185 26.8903L245.902 27.8497ZM253.407 30.3876C254.277 30.7336 255.082 31.0789 255.823 31.4234L256.244 30.5166C255.484 30.1632 254.662 29.8105 253.777 29.4585L253.407 30.3876ZM255.823 31.4234C256.461 31.7201 257.076 32.0544 257.668 32.4264L258.2 31.5796C257.572 31.1852 256.92 30.8309 256.244 30.5166L255.823 31.4234ZM260.92 35.0797C261.399 35.5769 261.859 36.1091 262.298 36.6763L263.089 36.0637C262.628 35.4691 262.145 34.9096 261.639 34.3856L260.92 35.0797ZM262.298 36.6763C262.784 37.3026 263.204 37.9831 263.558 38.7188L264.459 38.285C264.075 37.4877 263.618 36.747 263.089 36.0637L262.298 36.6763ZM264.847 43.3736C264.938 44.15 264.984 44.9654 264.984 45.82H265.984C265.984 44.93 265.936 44.0757 265.841 43.2576L264.847 43.3736ZM264.984 45.82C264.984 46.6311 264.931 47.4268 264.828 48.2074L265.819 48.3393C265.929 47.5138 265.984 46.674 265.984 45.82H264.984ZM263.547 52.7975C263.232 53.519 262.865 54.2269 262.446 54.9214L263.301 55.4386C263.743 54.7075 264.131 53.9605 264.464 53.1976L263.547 52.7975ZM262.446 54.9214C262.008 55.6465 261.517 56.3343 260.973 56.985L261.74 57.6263C262.316 56.9366 262.837 56.2073 263.301 55.4386L262.446 54.9214ZM257.192 60.3649C256.505 60.829 255.772 61.2628 254.994 61.666L255.453 62.554C256.265 62.1339 257.031 61.6806 257.752 61.1937L257.192 60.3649ZM255 61.6628C254.117 62.104 253.189 62.4864 252.215 62.8096L252.53 63.7587C253.548 63.421 254.52 63.0206 255.447 62.5572L255 61.6628ZM246.291 63.9992C245.313 64.0863 244.3 64.13 243.254 64.13V65.13C244.328 65.13 245.37 65.0852 246.38 64.9952L246.291 63.9992ZM231.374 62.38L230.978 63.2983L230.983 63.3008L231.374 62.38ZM223.094 55.9L222.283 56.4861L223.094 55.9ZM219.944 45.91V44.91H218.928L218.944 45.9256L219.944 45.91ZM233.444 45.91L234.441 45.8404L234.376 44.91H233.444V45.91ZM236.144 52.03L235.464 52.7638L235.471 52.7699L235.477 52.7759L236.144 52.03ZM249.914 52.21L250.548 52.9827L250.556 52.9761L250.564 52.9693L249.914 52.21ZM250.724 42.04L249.999 42.7287L250.724 42.04ZM246.404 39.25L246.01 40.1691L246.029 40.1775L246.049 40.185L246.404 39.25ZM239.384 36.91L239.101 37.8694L239.114 37.873L239.384 36.91ZM229.394 33.4L228.964 34.3029L228.976 34.309L228.989 34.3147L229.394 33.4ZM222.824 28.09L222.024 28.69L222.032 28.7012L222.041 28.7122L222.824 28.09ZM222.914 8.83L223.743 9.38885V9.38885L222.914 8.83ZM230.744 2.53L231.137 3.44914L231.144 3.44619L231.151 3.44314L230.744 2.53ZM258.014 5.05L257.393 5.83428L257.4 5.83937L257.406 5.84435L258.014 5.05ZM264.764 18.19V19.19H265.841L265.761 18.1157L264.764 18.19ZM250.904 18.19L249.905 18.2455L249.958 19.19H250.904V18.19ZM248.114 12.88L247.463 13.6393L247.477 13.6517L247.492 13.6635L248.114 12.88ZM235.424 12.61L234.78 11.8443L234.773 11.8508L234.765 11.8574L235.424 12.61ZM234.884 22.33L234.158 23.0177L234.176 23.0374L234.196 23.056L234.884 22.33ZM239.024 25.03L238.617 25.9438L238.637 25.9527L238.658 25.9608L239.024 25.03ZM246.044 27.37L245.756 28.3278L245.761 28.3294L246.044 27.37ZM256.034 30.97L255.612 31.8767L256.034 30.97ZM262.694 36.37L261.903 36.9826L262.694 36.37ZM262.874 55.18L262.018 54.6629V54.6629L262.874 55.18ZM255.224 62.11L255.671 63.0044L255.677 63.0013L255.683 62.998L255.224 62.11ZM240.298 63.5075C239.748 63.4608 239.264 63.869 239.217 64.4193C239.17 64.9696 239.579 65.4536 240.129 65.5003L240.298 63.5075ZM233.955 64.3624C234.485 64.5185 235.041 64.2155 235.197 63.6858C235.353 63.156 235.05 62.6 234.52 62.4439L233.955 64.3624ZM229.497 60.3226C229.019 60.0457 228.407 60.2087 228.13 60.6865C227.854 61.1644 228.016 61.7763 228.494 62.0531L229.497 60.3226ZM224.085 58.6334C224.47 59.0297 225.103 59.0392 225.499 58.6545C225.895 58.2699 225.905 57.6368 225.52 57.2405L224.085 58.6334ZM222.613 53.1807C222.367 52.6861 221.767 52.4844 221.272 52.7302C220.778 52.9759 220.576 53.5761 220.822 54.0707L222.613 53.1807ZM219.165 48.7072C219.245 49.2536 219.754 49.6312 220.3 49.5506C220.846 49.47 221.224 48.9618 221.143 48.4154L219.165 48.7072ZM223.319 46.91C223.871 46.91 224.319 46.4623 224.319 45.91C224.319 45.3577 223.871 44.91 223.319 44.91V46.91ZM230.069 44.91C229.516 44.91 229.069 45.3577 229.069 45.91C229.069 46.4623 229.516 46.91 230.069 46.91V44.91ZM232.706 47.8209C232.824 48.3604 233.357 48.7017 233.897 48.5833C234.436 48.4649 234.778 47.9317 234.659 47.3922L232.706 47.8209ZM235.839 50.1684C235.523 49.7153 234.9 49.6041 234.447 49.9199C233.994 50.2357 233.883 50.8591 234.198 51.3121L235.839 50.1684ZM237.169 53.9654C237.654 54.2295 238.261 54.0503 238.525 53.5652C238.789 53.0802 238.61 52.4729 238.125 52.2088L237.169 53.9654ZM241.273 53.1762C240.725 53.106 240.224 53.4932 240.154 54.0411C240.084 54.5889 240.471 55.0898 241.019 55.16L241.273 53.1762ZM244.937 55.1743C245.486 55.1121 245.881 54.6167 245.818 54.068C245.756 53.5192 245.261 53.1248 244.712 53.1871L244.937 55.1743ZM247.923 52.3045C247.427 52.5476 247.222 53.1467 247.465 53.6426C247.709 54.1385 248.308 54.3434 248.804 54.1003L247.923 52.3045ZM251.797 51.6757C252.134 51.2377 252.051 50.6099 251.613 50.2735C251.175 49.9371 250.548 50.0195 250.211 50.4575L251.797 51.6757ZM251.306 48.0128C251.2 48.5549 251.554 49.08 252.096 49.1855C252.638 49.2911 253.163 48.9372 253.269 48.3951L251.306 48.0128ZM253.328 45.2239C253.243 44.6782 252.731 44.3051 252.185 44.3904C251.64 44.4758 251.267 44.9873 251.352 45.533L253.328 45.2239ZM250.64 43.5578C250.93 44.0276 251.546 44.1731 252.016 43.8827C252.486 43.5924 252.631 42.9762 252.341 42.5064L250.64 43.5578ZM250.406 40.3846C249.979 40.035 249.349 40.0983 248.999 40.5258C248.65 40.9534 248.713 41.5834 249.141 41.933L250.406 40.3846ZM247.15 40.6628C247.645 40.9072 248.245 40.7038 248.489 40.2085C248.734 39.7132 248.53 39.1136 248.035 38.8692L247.15 40.6628ZM245.022 37.6341C244.503 37.4455 243.93 37.7135 243.741 38.2326C243.552 38.7517 243.82 39.3253 244.339 39.5139L245.022 37.6341ZM240.876 38.3822C241.405 38.5404 241.962 38.2397 242.12 37.7105C242.279 37.1814 241.978 36.6242 241.449 36.466L240.876 38.3822ZM237.151 35.1846C236.624 35.0182 236.062 35.3102 235.896 35.8368C235.729 36.3634 236.021 36.9252 236.548 37.0916L237.151 35.1846ZM231.485 35.3392C232.001 35.537 232.579 35.2793 232.777 34.7637C232.975 34.248 232.717 33.6696 232.202 33.4719L231.485 35.3392ZM228.065 31.5259C227.599 31.2303 226.981 31.3687 226.685 31.8351C226.389 32.3016 226.528 32.9194 226.994 33.2151L228.065 31.5259ZM223.516 30.3874C223.903 30.7822 224.536 30.7891 224.931 30.4029C225.325 30.0166 225.332 29.3835 224.946 28.9887L223.516 30.3874ZM222.447 25.5065C222.216 25.0048 221.622 24.7854 221.121 25.0164C220.619 25.2473 220.4 25.8413 220.631 26.3429L222.447 25.5065ZM219.262 21.1776C219.323 21.7266 219.817 22.1225 220.366 22.0619C220.915 22.0013 221.311 21.5072 221.25 20.9582L219.262 21.1776ZM221.272 16.1145C221.341 15.5665 220.953 15.0664 220.405 14.9973C219.857 14.9282 219.357 15.3165 219.288 15.8644L221.272 16.1145ZM220.749 10.6486C220.519 11.1506 220.739 11.7442 221.241 11.9744C221.743 12.2046 222.337 11.9843 222.567 11.4823L220.749 10.6486ZM225.228 7.51468C225.603 7.10971 225.579 6.477 225.174 6.10147C224.769 5.72594 224.137 5.74981 223.761 6.15477L225.228 7.51468ZM227.963 2.80952C227.486 3.08821 227.326 3.70067 227.604 4.17748C227.883 4.65429 228.495 4.8149 228.972 4.53621L227.963 2.80952ZM233.803 2.45335C234.331 2.29212 234.629 1.7332 234.468 1.20497C234.306 0.676748 233.747 0.379246 233.219 0.540482L233.803 2.45335ZM239.225 -0.593208C238.675 -0.546059 238.267 -0.0617542 238.314 0.488514C238.361 1.03878 238.846 1.44664 239.396 1.39949L239.225 -0.593208ZM246.329 1.514C246.877 1.58015 247.375 1.18929 247.441 0.640984C247.507 0.0926762 247.116 -0.405445 246.568 -0.4716L246.329 1.514ZM254.918 1.91861C254.423 1.67375 253.823 1.87655 253.578 2.37159C253.333 2.86662 253.536 3.46643 254.031 3.71129L254.918 1.91861ZM260.003 8.31553C260.358 8.73893 260.989 8.79468 261.412 8.44006C261.836 8.08545 261.891 7.45474 261.537 7.03134L260.003 8.31553ZM265.135 14.1829C265 13.6475 264.456 13.3234 263.92 13.459C263.385 13.5946 263.061 14.1385 263.196 14.6739L265.135 14.1829ZM261.299 17.19C260.746 17.19 260.299 17.6377 260.299 18.19C260.299 18.7423 260.746 19.19 261.299 19.19V17.19ZM254.369 19.19C254.921 19.19 255.369 18.7423 255.369 18.19C255.369 17.6377 254.921 17.19 254.369 17.19V19.19ZM251.634 16.4068C251.492 15.8729 250.945 15.5543 250.411 15.6954C249.877 15.8364 249.559 16.3837 249.7 16.9176L251.634 16.4068ZM248.474 14.5998C248.834 15.0185 249.466 15.066 249.884 14.7059C250.303 14.3458 250.35 13.7144 249.99 13.2957L248.474 14.5998ZM247.085 10.9813C246.596 10.7238 245.991 10.911 245.734 11.3996C245.476 11.8882 245.663 12.493 246.152 12.7505L247.085 10.9813ZM243.045 11.8202C243.593 11.889 244.093 11.5006 244.162 10.9526C244.231 10.4046 243.842 9.90459 243.294 9.8358L243.045 11.8202ZM239.65 9.82359C239.102 9.89282 238.714 10.3931 238.784 10.9411C238.853 11.489 239.353 11.877 239.901 11.8078L239.65 9.82359ZM237.207 12.6132C237.697 12.3574 237.886 11.7532 237.63 11.2637C237.374 10.7743 236.77 10.585 236.28 10.8408L237.207 12.6132ZM233.589 13.1909C233.281 13.6492 233.403 14.2706 233.861 14.5788C234.319 14.8869 234.941 14.7652 235.249 14.3069L233.589 13.1909ZM234.36 16.7297C234.441 16.1835 234.064 15.6745 233.518 15.5929C232.972 15.5114 232.463 15.888 232.382 16.4342L234.36 16.7297ZM232.369 19.4207C232.46 19.9655 232.975 20.3338 233.52 20.2432C234.065 20.1527 234.433 19.6376 234.342 19.0928L232.369 19.4207ZM235.014 20.8813C234.719 20.4146 234.101 20.2757 233.635 20.571C233.168 20.8664 233.029 21.4841 233.324 21.9508L235.014 20.8813ZM235.21 23.9275C235.646 24.267 236.274 24.189 236.614 23.7534C236.953 23.3178 236.875 22.6894 236.44 22.35L235.21 23.9275ZM238.38 23.6037C237.893 23.3432 237.287 23.5267 237.026 24.0137C236.766 24.5006 236.949 25.1066 237.436 25.3672L238.38 23.6037ZM240.427 26.6155C240.948 26.7988 241.519 26.525 241.702 26.0041C241.885 25.4831 241.611 24.9122 241.09 24.7289L240.427 26.6155ZM244.571 25.8744C244.044 25.71 243.483 26.0042 243.319 26.5314C243.154 27.0587 243.449 27.6193 243.976 27.7837L244.571 25.8744ZM248.28 29.1007C248.806 29.2688 249.369 28.9786 249.537 28.4525C249.705 27.9264 249.415 27.3637 248.889 27.1956L248.28 29.1007ZM253.962 28.9939C253.449 28.7897 252.867 29.0402 252.663 29.5534C252.459 30.0665 252.709 30.6481 253.223 30.8522L253.962 28.9939ZM257.402 32.8498C257.87 33.1436 258.487 33.0026 258.781 32.535C259.074 32.0673 258.933 31.45 258.466 31.1562L257.402 32.8498ZM261.999 34.0385C261.616 33.6409 260.983 33.6294 260.585 34.0128C260.188 34.3962 260.176 35.0292 260.56 35.4268L261.999 34.0385ZM263.107 38.9357C263.347 39.4333 263.944 39.6425 264.442 39.4029C264.94 39.1633 265.149 38.5657 264.909 38.0681L263.107 38.9357ZM266.337 43.1997C266.273 42.6511 265.777 42.2583 265.228 42.3224C264.679 42.3864 264.287 42.883 264.351 43.4315L266.337 43.1997ZM264.332 48.1415C264.259 48.6889 264.644 49.1918 265.191 49.2646C265.739 49.3374 266.242 48.9527 266.315 48.4052L264.332 48.1415ZM264.922 53.3977C265.143 52.8915 264.912 52.3021 264.406 52.0811C263.9 51.8601 263.31 52.0912 263.089 52.5974L264.922 53.3977ZM260.589 56.6643C260.235 57.0881 260.291 57.7187 260.715 58.0729C261.139 58.4271 261.769 58.3707 262.124 57.947L260.589 56.6643ZM258.032 61.6081C258.49 61.2991 258.61 60.6775 258.301 60.2198C257.992 59.7621 257.37 59.6415 256.913 59.9505L258.032 61.6081ZM252.058 62.3351C251.534 62.5091 251.25 63.075 251.424 63.5992C251.598 64.1234 252.164 64.4072 252.688 64.2333L252.058 62.3351ZM246.425 65.4932C246.975 65.4443 247.381 64.9586 247.332 64.4085C247.283 63.8584 246.797 63.4521 246.247 63.5011L246.425 65.4932ZM243.254 63.63C242.244 63.63 241.259 63.5891 240.298 63.5075L240.129 65.5003C241.148 65.5869 242.19 65.63 243.254 65.63V63.63ZM234.52 62.4439C233.573 62.1648 232.654 61.8365 231.764 61.4593L230.983 63.3008C231.945 63.7083 232.936 64.0621 233.955 64.3624L234.52 62.4439ZM231.769 61.4617C230.97 61.1171 230.213 60.7373 229.497 60.3226L228.494 62.0531C229.281 62.509 230.109 62.924 230.978 63.2983L231.769 61.4617ZM225.52 57.2405C224.937 56.6395 224.398 55.9974 223.904 55.3139L222.283 56.4861C222.834 57.2471 223.434 57.963 224.085 58.6334L225.52 57.2405ZM223.904 55.3139C223.412 54.6336 222.981 53.9226 222.613 53.1807L220.822 54.0707C221.24 54.9123 221.727 55.7176 222.283 56.4861L223.904 55.3139ZM221.143 48.4154C221.024 47.6059 220.957 46.7658 220.943 45.8944L218.944 45.9256C218.959 46.8794 219.032 47.8067 219.165 48.7072L221.143 48.4154ZM219.944 46.91H223.319V44.91H219.944V46.91ZM230.069 46.91H233.444V44.91H230.069V46.91ZM232.446 45.9796C232.491 46.6185 232.577 47.2326 232.706 47.8209L234.659 47.3922C234.553 46.9068 234.479 46.3899 234.441 45.8404L232.446 45.9796ZM234.198 51.3121C234.566 51.8389 234.988 52.3229 235.464 52.7638L236.823 51.2962C236.45 50.9513 236.123 50.5755 235.839 50.1684L234.198 51.3121ZM235.477 52.7759C235.992 53.2357 236.557 53.6322 237.169 53.9654L238.125 52.2088C237.646 51.9481 237.208 51.6399 236.81 51.2841L235.477 52.7759ZM241.019 55.16C241.648 55.2405 242.303 55.28 242.984 55.28V53.28C242.38 53.28 241.81 53.2449 241.273 53.1762L241.019 55.16ZM242.984 55.28C243.662 55.28 244.313 55.2452 244.937 55.1743L244.712 53.1871C244.169 53.2486 243.593 53.28 242.984 53.28V55.28ZM248.804 54.1003C249.436 53.7903 250.018 53.4181 250.548 52.9827L249.279 51.4373C248.873 51.7705 248.422 52.0599 247.923 52.3045L248.804 54.1003ZM250.564 52.9693C251.028 52.5716 251.44 52.1407 251.797 51.6757L250.211 50.4575C249.944 50.806 249.628 51.1373 249.263 51.4507L250.564 52.9693ZM253.269 48.3951C253.38 47.8272 253.434 47.2383 253.434 46.63H251.434C251.434 47.1197 251.39 47.5801 251.306 48.0128L253.269 48.3951ZM253.434 46.63C253.434 46.1469 253.399 45.6779 253.328 45.2239L251.352 45.533C251.406 45.8772 251.434 46.2425 251.434 46.63H253.434ZM252.341 42.5064C252.086 42.0937 251.788 41.7086 251.449 41.3512L249.999 42.7287C250.246 42.9891 250.459 43.2654 250.64 43.5578L252.341 42.5064ZM251.449 41.3512C251.123 41.0085 250.775 40.6863 250.406 40.3846L249.141 41.933C249.445 42.1822 249.731 42.4475 249.999 42.7287L251.449 41.3512ZM248.035 38.8692C247.626 38.6673 247.2 38.4826 246.758 38.315L246.049 40.185C246.434 40.3309 246.801 40.4903 247.15 40.6628L248.035 38.8692ZM246.797 38.3309C246.264 38.1023 245.672 37.8701 245.022 37.6341L244.339 39.5139C244.961 39.7397 245.517 39.9582 246.01 40.1691L246.797 38.3309ZM241.449 36.466C240.878 36.2954 240.279 36.1224 239.653 35.947L239.114 37.873C239.73 38.0455 240.317 38.2152 240.876 38.3822L241.449 36.466ZM239.666 35.9506C238.792 35.6937 237.954 35.4383 237.151 35.1846L236.548 37.0916C237.365 37.3497 238.216 37.6089 239.101 37.8694L239.666 35.9506ZM232.202 33.4719C231.334 33.1392 230.533 32.8103 229.798 32.4853L228.989 34.3147C229.759 34.6549 230.591 34.9964 231.485 35.3392L232.202 33.4719ZM229.823 32.4971C229.217 32.2083 228.631 31.8846 228.065 31.5259L226.994 33.2151C227.628 33.6169 228.285 33.9795 228.964 34.3029L229.823 32.4971ZM224.946 28.9887C224.482 28.5148 224.036 28.0079 223.606 27.4678L222.041 28.7122C222.511 29.3042 223.003 29.8627 223.516 30.3874L224.946 28.9887ZM223.624 27.49C223.171 26.8864 222.778 26.2259 222.447 25.5065L220.631 26.3429C221.019 27.1859 221.483 27.9689 222.024 28.69L223.624 27.49ZM221.25 20.9582C221.166 20.1967 221.124 19.3942 221.124 18.55H219.124C219.124 19.4611 219.169 20.3372 219.262 21.1776L221.25 20.9582ZM221.124 18.55C221.124 17.7091 221.173 16.8974 221.272 16.1145L219.288 15.8644C219.178 16.7348 219.124 17.6301 219.124 18.55H221.124ZM222.567 11.4823C222.901 10.7548 223.292 10.0571 223.743 9.38885L222.084 8.27114C221.573 9.02908 221.128 9.8217 220.749 10.6486L222.567 11.4823ZM223.743 9.38885C224.192 8.7227 224.687 8.09813 225.228 7.51468L223.761 6.15477C223.149 6.81449 222.59 7.52011 222.084 8.27114L223.743 9.38885ZM228.972 4.53621C229.651 4.13962 230.372 3.77709 231.137 3.44914L230.35 1.61085C229.512 1.96974 228.716 2.36912 227.963 2.80952L228.972 4.53621ZM231.151 3.44314C232.001 3.06352 232.885 2.7335 233.803 2.45335L233.219 0.540482C232.225 0.844053 231.263 1.20275 230.336 1.61686L231.151 3.44314ZM239.396 1.39949C240.324 1.31995 241.28 1.28 242.264 1.28V-0.720001C241.226 -0.720001 240.213 -0.677855 239.225 -0.593208L239.396 1.39949ZM242.264 1.28C243.684 1.28 245.039 1.35838 246.329 1.514L246.568 -0.4716C245.192 -0.637583 243.757 -0.720001 242.264 -0.720001V1.28ZM254.031 3.71129C255.239 4.30911 256.36 5.01681 257.393 5.83428L258.634 4.26571C257.488 3.35961 256.249 2.57728 254.918 1.91861L254.031 3.71129ZM257.406 5.84435C258.387 6.59479 259.252 7.41869 260.003 8.31553L261.537 7.03134C260.687 6.0164 259.714 5.09135 258.621 4.25564L257.406 5.84435ZM263.196 14.6739C263.481 15.7977 263.672 16.9939 263.766 18.2643L265.761 18.1157C265.658 16.7396 265.45 15.4281 265.135 14.1829L263.196 14.6739ZM264.764 17.19H261.299V19.19H264.764V17.19ZM254.369 17.19H250.904V19.19H254.369V17.19ZM251.902 18.1345C251.869 17.5382 251.78 16.9617 251.634 16.4068L249.7 16.9176C249.81 17.3338 249.879 17.7758 249.905 18.2455L251.902 18.1345ZM249.99 13.2957C249.62 12.8656 249.201 12.4662 248.735 12.0965L247.492 13.6635C247.866 13.9602 248.193 14.2726 248.474 14.5998L249.99 13.2957ZM248.764 12.1207C248.25 11.6803 247.69 11.3004 247.085 10.9813L246.152 12.7505C246.628 13.0012 247.064 13.2974 247.463 13.6393L248.764 12.1207ZM243.294 9.8358C242.676 9.75816 242.032 9.72 241.364 9.72V11.72C241.956 11.72 242.516 11.7538 243.045 11.8202L243.294 9.8358ZM241.364 9.72C240.772 9.72 240.2 9.7541 239.65 9.82359L239.901 11.8078C240.361 11.7497 240.848 11.72 241.364 11.72V9.72ZM236.28 10.8408C235.742 11.1223 235.242 11.4569 234.78 11.8443L236.067 13.3757C236.416 13.0826 236.795 12.8285 237.207 12.6132L236.28 10.8408ZM234.765 11.8574C234.314 12.2523 233.921 12.6971 233.589 13.1909L235.249 14.3069C235.483 13.9591 235.76 13.6447 236.082 13.3626L234.765 11.8574ZM232.382 16.4342C232.302 16.9657 232.264 17.5214 232.264 18.1H234.264C234.264 17.6101 234.296 17.1537 234.36 16.7297L232.382 16.4342ZM232.264 18.1C232.264 18.5522 232.298 18.9928 232.369 19.4207L234.342 19.0928C234.29 18.7803 234.264 18.4498 234.264 18.1H232.264ZM233.324 21.9508C233.564 22.3295 233.842 22.6851 234.158 23.0177L235.609 21.6423C235.38 21.3999 235.182 21.1462 235.014 20.8813L233.324 21.9508ZM234.196 23.056C234.517 23.3603 234.855 23.6508 235.21 23.9275L236.44 22.35C236.134 22.112 235.845 21.8633 235.571 21.604L234.196 23.056ZM237.436 25.3672C237.817 25.5708 238.21 25.763 238.617 25.9438L239.43 24.1162C239.066 23.9544 238.716 23.7835 238.38 23.6037L237.436 25.3672ZM238.658 25.9608C239.187 26.1687 239.777 26.387 240.427 26.6155L241.09 24.7289C240.459 24.5066 239.892 24.2967 239.389 24.0992L238.658 25.9608ZM243.976 27.7837C244.542 27.9601 245.135 28.1415 245.756 28.3278L246.331 26.4122C245.716 26.2277 245.129 26.0484 244.571 25.8744L243.976 27.7837ZM245.761 28.3294C246.636 28.5867 247.476 28.8439 248.28 29.1007L248.889 27.1956C248.069 26.9337 247.214 26.672 246.326 26.4106L245.761 28.3294ZM253.223 30.8522C254.085 31.1952 254.881 31.5367 255.612 31.8767L256.455 30.0633C255.686 29.7053 254.854 29.3489 253.962 28.9939L253.223 30.8522ZM255.612 31.8767C256.231 32.1646 256.827 32.489 257.402 32.8498L258.466 31.1562C257.82 30.7506 257.15 30.3863 256.455 30.0633L255.612 31.8767ZM260.56 35.4268C261.026 35.9106 261.474 36.4291 261.903 36.9826L263.484 35.7574C263.012 35.1491 262.518 34.5759 261.999 34.0385L260.56 35.4268ZM261.903 36.9826C262.366 37.5803 262.768 38.2308 263.107 38.9357L264.909 38.0681C264.511 37.24 264.036 36.4692 263.484 35.7574L261.903 36.9826ZM264.351 43.4315C264.439 44.1872 264.484 44.9831 264.484 45.82H266.484C266.484 44.9122 266.435 44.0386 266.337 43.1997L264.351 43.4315ZM264.484 45.82C264.484 46.6096 264.433 47.3833 264.332 48.1415L266.315 48.4052C266.427 47.5573 266.484 46.6954 266.484 45.82H264.484ZM263.089 52.5974C262.783 53.2982 262.426 53.9867 262.018 54.6629L263.729 55.6971C264.182 54.9478 264.58 54.1813 264.922 53.3977L263.089 52.5974ZM262.018 54.6629C261.593 55.3661 261.117 56.0332 260.589 56.6643L262.124 57.947C262.716 57.2377 263.252 56.4876 263.729 55.6971L262.018 54.6629ZM256.913 59.9505C256.242 60.4032 255.526 60.8272 254.764 61.222L255.683 62.998C256.511 62.5695 257.294 62.1064 258.032 61.6081L256.913 59.9505ZM254.776 61.2156C253.916 61.6457 253.01 62.0191 252.058 62.3351L252.688 64.2333C253.727 63.8883 254.722 63.4788 255.671 63.0044L254.776 61.2156ZM246.247 63.5011C245.284 63.5869 244.286 63.63 243.254 63.63V65.63C244.342 65.63 245.399 65.5846 246.425 65.4932L246.247 63.5011Z" fill="white"/>
</svg>
