<svg width="330" height="65" viewBox="0 0 330 65" fill="none" xmlns="http://www.w3.org/2000/svg">
<g opacity="0.33">
<mask id="path-1-inside-1" fill="white">
<path d="M89.18 1.18003L71.63 64H56.78L44.99 19.27L32.66 64L17.9 64.09L0.97998 1.18003H14.48L25.55 49.96L38.33 1.18003H52.37L64.43 49.69L75.59 1.18003H89.18ZM126.567 64.63C120.687 64.63 115.287 63.25 110.367 60.49C105.447 57.73 101.547 53.92 98.6672 49.06C95.7872 44.14 94.3472 38.59 94.3472 32.41C94.3472 26.29 95.7872 20.8 98.6672 15.94C101.547 11.02 105.447 7.18002 110.367 4.42002C115.287 1.66003 120.687 0.280029 126.567 0.280029C132.507 0.280029 137.907 1.66003 142.767 4.42002C147.687 7.18002 151.557 11.02 154.377 15.94C157.257 20.8 158.697 26.29 158.697 32.41C158.697 38.59 157.257 44.14 154.377 49.06C151.557 53.92 147.687 57.73 142.767 60.49C137.847 63.25 132.447 64.63 126.567 64.63ZM126.567 53.38C130.347 53.38 133.677 52.54 136.557 50.86C139.437 49.12 141.687 46.66 143.307 43.48C144.927 40.3 145.737 36.61 145.737 32.41C145.737 28.21 144.927 24.55 143.307 21.43C141.687 18.25 139.437 15.82 136.557 14.14C133.677 12.46 130.347 11.62 126.567 11.62C122.787 11.62 119.427 12.46 116.487 14.14C113.607 15.82 111.357 18.25 109.737 21.43C108.117 24.55 107.307 28.21 107.307 32.41C107.307 36.61 108.117 40.3 109.737 43.48C111.357 46.66 113.607 49.12 116.487 50.86C119.427 52.54 122.787 53.38 126.567 53.38ZM200.471 64L186.611 39.52H180.671V64H168.071V1.18003H191.651C196.511 1.18003 200.651 2.05003 204.071 3.79003C207.491 5.47003 210.041 7.78003 211.721 10.72C213.461 13.6 214.331 16.84 214.331 20.44C214.331 24.58 213.131 28.33 210.731 31.69C208.331 34.99 204.761 37.27 200.021 38.53L215.051 64H200.471ZM180.671 30.07H191.201C194.621 30.07 197.171 29.26 198.851 27.64C200.531 25.96 201.371 23.65 201.371 20.71C201.371 17.83 200.531 15.61 198.851 14.05C197.171 12.43 194.621 11.62 191.201 11.62H180.671V30.07ZM261.188 64L238.328 36.01V64H225.728V1.18003H238.328V29.35L261.188 1.18003H276.398L250.478 32.32L277.118 64H261.188ZM307.095 64.63C302.715 64.63 298.755 63.88 295.215 62.38C291.735 60.88 288.975 58.72 286.935 55.9C284.895 53.08 283.845 49.75 283.785 45.91H297.285C297.465 48.49 298.365 50.53 299.985 52.03C301.665 53.53 303.945 54.28 306.825 54.28C309.765 54.28 312.075 53.59 313.755 52.21C315.435 50.77 316.275 48.91 316.275 46.63C316.275 44.77 315.705 43.24 314.565 42.04C313.425 40.84 311.985 39.91 310.245 39.25C308.565 38.53 306.225 37.75 303.225 36.91C299.145 35.71 295.815 34.54 293.235 33.4C290.715 32.2 288.525 30.43 286.665 28.09C284.865 25.69 283.965 22.51 283.965 18.55C283.965 14.83 284.895 11.59 286.755 8.83003C288.615 6.07003 291.225 3.97003 294.585 2.53003C297.945 1.03003 301.785 0.280029 306.105 0.280029C312.585 0.280029 317.835 1.87003 321.855 5.05003C325.935 8.17003 328.185 12.55 328.605 18.19H314.745C314.625 16.03 313.695 14.26 311.955 12.88C310.275 11.44 308.025 10.72 305.205 10.72C302.745 10.72 300.765 11.35 299.265 12.61C297.825 13.87 297.105 15.7 297.105 18.1C297.105 19.78 297.645 21.19 298.725 22.33C299.865 23.41 301.245 24.31 302.865 25.03C304.545 25.69 306.885 26.47 309.885 27.37C313.965 28.57 317.295 29.77 319.875 30.97C322.455 32.17 324.675 33.97 326.535 36.37C328.395 38.77 329.325 41.92 329.325 45.82C329.325 49.18 328.455 52.3 326.715 55.18C324.975 58.06 322.425 60.37 319.065 62.11C315.705 63.79 311.715 64.63 307.095 64.63Z"/>
</mask>
<path d="M89.18 1.18003L71.63 64H56.78L44.99 19.27L32.66 64L17.9 64.09L0.97998 1.18003H14.48L25.55 49.96L38.33 1.18003H52.37L64.43 49.69L75.59 1.18003H89.18ZM126.567 64.63C120.687 64.63 115.287 63.25 110.367 60.49C105.447 57.73 101.547 53.92 98.6672 49.06C95.7872 44.14 94.3472 38.59 94.3472 32.41C94.3472 26.29 95.7872 20.8 98.6672 15.94C101.547 11.02 105.447 7.18002 110.367 4.42002C115.287 1.66003 120.687 0.280029 126.567 0.280029C132.507 0.280029 137.907 1.66003 142.767 4.42002C147.687 7.18002 151.557 11.02 154.377 15.94C157.257 20.8 158.697 26.29 158.697 32.41C158.697 38.59 157.257 44.14 154.377 49.06C151.557 53.92 147.687 57.73 142.767 60.49C137.847 63.25 132.447 64.63 126.567 64.63ZM126.567 53.38C130.347 53.38 133.677 52.54 136.557 50.86C139.437 49.12 141.687 46.66 143.307 43.48C144.927 40.3 145.737 36.61 145.737 32.41C145.737 28.21 144.927 24.55 143.307 21.43C141.687 18.25 139.437 15.82 136.557 14.14C133.677 12.46 130.347 11.62 126.567 11.62C122.787 11.62 119.427 12.46 116.487 14.14C113.607 15.82 111.357 18.25 109.737 21.43C108.117 24.55 107.307 28.21 107.307 32.41C107.307 36.61 108.117 40.3 109.737 43.48C111.357 46.66 113.607 49.12 116.487 50.86C119.427 52.54 122.787 53.38 126.567 53.38ZM200.471 64L186.611 39.52H180.671V64H168.071V1.18003H191.651C196.511 1.18003 200.651 2.05003 204.071 3.79003C207.491 5.47003 210.041 7.78003 211.721 10.72C213.461 13.6 214.331 16.84 214.331 20.44C214.331 24.58 213.131 28.33 210.731 31.69C208.331 34.99 204.761 37.27 200.021 38.53L215.051 64H200.471ZM180.671 30.07H191.201C194.621 30.07 197.171 29.26 198.851 27.64C200.531 25.96 201.371 23.65 201.371 20.71C201.371 17.83 200.531 15.61 198.851 14.05C197.171 12.43 194.621 11.62 191.201 11.62H180.671V30.07ZM261.188 64L238.328 36.01V64H225.728V1.18003H238.328V29.35L261.188 1.18003H276.398L250.478 32.32L277.118 64H261.188ZM307.095 64.63C302.715 64.63 298.755 63.88 295.215 62.38C291.735 60.88 288.975 58.72 286.935 55.9C284.895 53.08 283.845 49.75 283.785 45.91H297.285C297.465 48.49 298.365 50.53 299.985 52.03C301.665 53.53 303.945 54.28 306.825 54.28C309.765 54.28 312.075 53.59 313.755 52.21C315.435 50.77 316.275 48.91 316.275 46.63C316.275 44.77 315.705 43.24 314.565 42.04C313.425 40.84 311.985 39.91 310.245 39.25C308.565 38.53 306.225 37.75 303.225 36.91C299.145 35.71 295.815 34.54 293.235 33.4C290.715 32.2 288.525 30.43 286.665 28.09C284.865 25.69 283.965 22.51 283.965 18.55C283.965 14.83 284.895 11.59 286.755 8.83003C288.615 6.07003 291.225 3.97003 294.585 2.53003C297.945 1.03003 301.785 0.280029 306.105 0.280029C312.585 0.280029 317.835 1.87003 321.855 5.05003C325.935 8.17003 328.185 12.55 328.605 18.19H314.745C314.625 16.03 313.695 14.26 311.955 12.88C310.275 11.44 308.025 10.72 305.205 10.72C302.745 10.72 300.765 11.35 299.265 12.61C297.825 13.87 297.105 15.7 297.105 18.1C297.105 19.78 297.645 21.19 298.725 22.33C299.865 23.41 301.245 24.31 302.865 25.03C304.545 25.69 306.885 26.47 309.885 27.37C313.965 28.57 317.295 29.77 319.875 30.97C322.455 32.17 324.675 33.97 326.535 36.37C328.395 38.77 329.325 41.92 329.325 45.82C329.325 49.18 328.455 52.3 326.715 55.18C324.975 58.06 322.425 60.37 319.065 62.11C315.705 63.79 311.715 64.63 307.095 64.63Z" stroke="white" stroke-width="2" stroke-linecap="round" stroke-dasharray="10 10" mask="url(#path-1-inside-1)"/>
</g>
</svg>
