<?xml version="1.0" standalone="no"?>
<!DOCTYPE svg PUBLIC "-//W3C//DTD SVG 20010904//EN"
 "http://www.w3.org/TR/2001/REC-SVG-20010904/DTD/svg10.dtd">
<svg version="1.0" xmlns="http://www.w3.org/2000/svg"
 width="512.000000pt" height="512.000000pt" viewBox="0 0 512.000000 512.000000"
 preserveAspectRatio="xMidYMid meet">
<metadata>
Created by potrace 1.14, written by Peter Selinger 2001-2017
</metadata>
<g transform="translate(0.000000,512.000000) scale(0.100000,-0.100000)"
fill="#000000" stroke="none">
<path d="M2368 5115 c-2 -1 -33 -5 -69 -9 -399 -37 -816 -187 -1160 -417 -632
-422 -1044 -1103 -1126 -1864 -10 -93 -9 -463 1 -545 5 -36 10 -72 11 -80 15
-121 67 -336 116 -478 122 -354 337 -698 603 -964 53 -54 100 -98 104 -98 7 0
12 11 57 120 53 128 97 236 116 277 10 24 19 45 19 48 0 4 8 25 19 48 10 23
85 202 166 397 80 195 152 369 160 385 7 17 36 86 65 155 55 136 112 272 140
335 9 22 23 56 30 75 7 19 21 54 31 76 10 23 39 93 65 155 25 63 54 132 64
154 10 22 39 92 65 155 26 63 69 167 95 230 27 63 94 225 149 360 56 135 107
259 115 275 8 17 29 66 46 110 18 44 40 98 50 120 10 22 59 141 110 265 51
124 101 245 112 270 31 71 34 77 98 235 33 83 65 158 70 167 25 45 19 46 -155
46 -90 -1 -166 -2 -167 -3z"/>
<path d="M3770 4698 c175 -431 201 -495 210 -513 11 -24 35 -84 124 -305 37
-91 71 -174 76 -185 9 -19 61 -146 220 -535 37 -91 108 -264 158 -385 49 -121
115 -281 145 -355 31 -74 79 -191 107 -260 28 -69 72 -177 97 -239 26 -63 54
-130 63 -149 l16 -33 27 88 c49 164 78 312 95 483 9 97 8 425 -1 515 -11 99
-23 178 -31 210 -2 6 -6 28 -10 50 -22 116 -86 321 -143 460 -208 500 -565
914 -1048 1212 -41 25 -150 83 -156 83 -4 0 19 -64 51 -142z"/>
<path d="M3066 4668 c-37 -90 -68 -167 -70 -173 -2 -5 -8 -21 -13 -35 -6 -14
-21 -50 -33 -80 -12 -30 -28 -68 -35 -85 -19 -42 -204 -499 -227 -560 -10 -27
-25 -63 -32 -80 -8 -16 -100 -244 -205 -505 -106 -261 -200 -488 -209 -505 -9
-16 -16 -32 -15 -35 1 -7 -2 -15 -63 -162 l-51 -128 26 0 c182 -3 1994 0 1997
3 4 3 -166 439 -196 502 -5 11 -41 101 -80 200 -39 99 -75 189 -80 200 -5 11
-37 90 -70 175 -33 85 -65 164 -70 175 -5 11 -28 67 -50 125 -78 197 -101 255
-114 285 -8 17 -48 118 -91 225 -42 107 -83 209 -90 225 -7 17 -45 111 -85
210 -39 99 -73 181 -74 183 -2 1 -33 -71 -70 -160z"/>
<path d="M1928 1832 c-10 -2 -43 -72 -93 -195 -42 -106 -83 -205 -90 -222 -39
-90 -435 -1075 -435 -1083 0 -11 196 -109 301 -150 196 -77 373 -124 589 -157
138 -21 471 -27 622 -12 625 62 1235 376 1653 849 115 130 168 204 163 226 -5
17 -289 733 -294 741 -3 4 -2394 7 -2416 3z"/>
</g>
</svg>
