<svg width="95" height="96" viewBox="0 0 95 96" fill="none" xmlns="http://www.w3.org/2000/svg">
<path d="M84.0523 40.7761C81.5055 39.2836 78.1295 39.1045 75.2866 39.9403C74.9312 36.8358 72.9174 34.1493 70.5483 32.2388L69.6006 31.4627L68.7714 32.4179C67.1723 34.2687 66.6984 37.3731 66.9354 39.7612C67.113 41.4925 67.6461 43.2836 68.7122 44.7164C67.883 45.194 66.9946 45.8507 66.1654 46.1493C64.507 46.7463 62.6709 47.3433 60.8941 47.3433H56.9258V38.9254H49.2261V24H40.3418V31.1642H25.5348V38.9254H17.8351V47.2836H11.2015L11.0831 48.1791C10.7869 52 11.2607 55.7015 12.8599 59.2239L13.5114 60.5373L13.5706 60.6567C18.2497 68.6567 26.4232 72 35.3667 72C52.6613 72 66.9354 64.1791 73.4505 47.7612C77.8334 48 82.3347 46.6866 84.4669 42.4478L85 41.3731L84.0523 40.7761V40.7761ZM26.7193 32.9552H32.6422V39.5224H26.7193V32.9552ZM34.4782 59.3433C34.4782 60.3582 33.649 61.194 32.6422 61.194C31.6353 61.194 30.8061 60.3582 30.8061 59.3433C30.8061 58.3284 31.6353 57.4925 32.6422 57.4925C33.649 57.5522 34.4782 58.3284 34.4782 59.3433ZM26.7193 40.7164H32.6422V47.2836H26.7193V40.7164ZM19.0196 40.7164H25.5348V47.2836H19.0196V40.7164ZM35.4259 70.6866C26.0678 70.6269 21.0334 67.4627 16.8874 63.2836C18.1312 63.3433 19.3158 63.403 20.3819 63.403C21.3296 63.403 22.2772 63.403 23.1656 63.3433C25.4755 63.2239 27.4893 62.9254 29.1477 62.4478C30.5099 65.6119 32.9975 68.5373 37.4397 70.6866H35.4259ZM40.3418 47.2836H33.8267V40.7164H40.3418V47.2836ZM40.3418 39.5224H33.8267V32.9552H40.3418V39.5224ZM48.0415 47.2836H41.5264V40.7164H48.0415V47.2836ZM48.0415 39.5224H41.5264V32.9552H48.0415V39.5224ZM48.0415 31.7612H41.5264V25.194H48.0415V31.7612ZM55.7412 47.2836H49.2261V40.7164H55.7412V47.2836ZM33.116 58.1493C32.9975 58.0895 32.8198 58.0298 32.6422 58.0298C31.9314 58.0298 31.3391 58.6269 31.3391 59.3433C31.3391 60.0597 31.9314 60.6567 32.6422 60.6567C33.3529 60.6567 33.9452 60.0597 33.9452 59.3433C33.9452 59.1642 33.886 58.9851 33.8267 58.8657C33.7083 59.0448 33.5898 59.1642 33.3529 59.1642C33.0568 59.1642 32.8198 58.9254 32.8198 58.6269C32.8791 58.3881 32.9975 58.209 33.116 58.1493V58.1493Z" fill="white"/>
</svg>
