<svg width="95" height="96" viewBox="0 0 95 96" fill="none" xmlns="http://www.w3.org/2000/svg">
<path d="M46.2193 42.1759C46.62 41.5864 47.0587 41.5114 47.4145 41.5114C47.7704 41.5114 48.3632 41.5864 48.7641 42.1759C51.9227 46.5061 57.1364 55.132 60.9825 61.4948C63.4905 65.6444 65.4169 68.8314 65.8121 69.2369C67.2958 70.7595 69.3305 69.8106 70.5129 68.0836C71.6769 66.3834 72 65.1895 72 63.9158C72 63.0483 55.1362 31.7448 53.4378 29.1392C51.8046 26.633 51.2726 26 48.4772 26H46.3854C43.5983 26 43.1955 26.633 41.5621 29.1392C39.8639 31.7448 23 63.0483 23 63.9158C23 65.1895 23.3231 66.3834 24.4872 68.0836C25.6695 69.8106 27.7043 70.7595 29.1879 69.2369C29.5831 68.8314 31.5095 65.6444 34.0176 61.4948C37.8636 55.132 43.0607 46.5061 46.2193 42.1759Z" fill="white"/>
</svg>
