<svg width="95" height="96" viewBox="0 0 95 96" fill="none" xmlns="http://www.w3.org/2000/svg">
<path d="M39.347 73.6088C43.9669 73.6088 47.6939 69.8426 47.6939 65.174V56.7393H39.347C34.727 56.7393 31 60.5055 31 65.174C31 69.8426 34.727 73.6088 39.347 73.6088Z" fill="white"/>
<path d="M31 48.3044C31 43.6359 34.727 39.8696 39.347 39.8696H47.6939V56.7392H39.347C34.727 56.7392 31 52.9729 31 48.3044Z" fill="white"/>
<path d="M31 31.4348C31 26.7662 34.727 23 39.347 23H47.6939V39.8695H39.347C34.727 39.8695 31 36.1033 31 31.4348Z" fill="white"/>
<path d="M47.6938 23H56.0408C60.6608 23 64.3878 26.7662 64.3878 31.4348C64.3878 36.1033 60.6608 39.8695 56.0408 39.8695H47.6938V23Z" fill="white"/>
<path d="M64.3878 48.3044C64.3878 52.9729 60.6608 56.7392 56.0408 56.7392C51.4209 56.7392 47.6938 52.9729 47.6938 48.3044C47.6938 43.6359 51.4209 39.8696 56.0408 39.8696C60.6608 39.8696 64.3878 43.6359 64.3878 48.3044Z" fill="white"/>
</svg>
