<svg width="95" height="96" viewBox="0 0 95 96" fill="none" xmlns="http://www.w3.org/2000/svg">
<path d="M71.0945 45.3175L50.1371 23.924C48.931 22.692 46.9735 22.692 45.7655 23.924L41.414 28.367L46.9343 34.0024C48.2177 33.5603 49.6884 33.8569 50.7109 34.9006C51.7387 35.951 52.0269 37.4653 51.5832 38.7796L56.9035 44.2112C58.1906 43.7583 59.6762 44.0509 60.7036 45.1021C62.141 46.5682 62.141 48.945 60.7036 50.4118C59.2663 51.8791 56.9389 51.8791 55.5008 50.4118C54.4202 49.3079 54.1529 47.6873 54.7004 46.3279L49.739 41.2631L49.7382 54.5932C50.0888 54.7698 50.4193 55.0058 50.7113 55.3028C52.1478 56.7689 52.1478 59.1448 50.7113 60.6141C49.2744 62.0802 46.9454 62.0802 45.51 60.6141C44.0734 59.1452 44.0734 56.7693 45.51 55.3028C45.8651 54.9406 46.2758 54.6669 46.7142 54.4837V41.0302C46.2758 40.847 45.8659 40.5753 45.51 40.2108C44.4217 39.1006 44.1597 37.4703 44.7179 36.1055L39.2755 30.5497L24.9054 45.2185C23.6982 46.4518 23.6982 48.45 24.9054 49.6825L45.8632 71.076C47.0701 72.308 49.0268 72.308 50.2356 71.076L71.0949 49.7818C72.3018 48.549 72.3018 46.5496 71.0945 45.3175V45.3175Z" fill="white"/>
</svg>
