<svg width="96" height="96" viewBox="0 0 96 96" fill="none" xmlns="http://www.w3.org/2000/svg">
<path d="M78.9118 55.5532C78.2086 51.1736 75.3528 47.4949 66.8934 44.0648C63.9548 42.7143 60.6787 41.7473 59.7024 39.5203C59.3558 38.2243 59.3098 37.4943 59.5291 36.7098C60.1587 34.1638 63.1978 33.3701 65.6066 34.1001C67.158 34.62 68.6265 35.8156 69.5123 37.7228C73.6549 35.0403 73.6465 35.0579 76.5391 33.2144C75.4801 31.5725 74.9149 30.8149 74.2216 30.1124C71.7301 27.3295 68.3351 25.8962 62.9057 26.0059L60.0775 26.3716C57.3673 27.0565 54.7845 28.479 53.2699 30.3862C48.7255 35.5426 50.0215 44.5671 55.5514 48.281C60.9992 52.3699 69.0023 53.3001 70.0245 57.1237C71.0192 61.8046 66.5844 63.32 62.1764 62.7816C58.9279 62.106 57.1212 60.455 55.1679 57.4527C51.5729 59.5332 51.5729 59.5332 47.8765 61.6589C48.7531 63.5753 49.6741 64.4427 51.1434 66.1029C58.0974 73.1565 75.4992 72.8099 78.6204 62.1336C78.7469 61.7671 79.5874 59.3223 78.9118 55.5532ZM42.9571 26.571H33.9778L33.941 49.7856C33.941 54.7226 34.1963 59.2487 33.3934 60.6359C32.0798 63.3644 28.6756 63.0263 27.1242 62.4971C25.5452 61.7211 24.7423 60.6175 23.8121 59.0577C23.5567 58.6099 23.365 58.2633 23.3006 58.2364L16 62.7072C17.214 65.1988 19.0023 67.3614 21.2929 68.7662C24.7147 70.8199 29.3137 71.4495 34.1235 70.3452C37.2538 69.4334 39.9548 67.5446 41.3689 64.6697C43.4133 60.9005 42.9747 56.3384 42.9563 51.2925C43.0023 43.0602 42.9571 34.8294 42.9571 26.571Z" fill="white"/>
</svg>
