<svg width="95" height="96" viewBox="0 0 95 96" fill="none" xmlns="http://www.w3.org/2000/svg">
<path fill-rule="evenodd" clip-rule="evenodd" d="M60.8868 44.6096C60.6998 42.1923 60.1308 39.8612 59.3395 37.5776C57.7002 32.4784 55.0695 27.9657 51.3639 24.0828C50.427 23.1007 49.385 22.2009 48.7316 20.9786C48.3183 20.2054 47.9246 19.4217 47.5219 18.6424L47.2667 18C47.2238 18.1474 47.1965 18.1998 47.195 18.2528C47.1621 19.5231 46.4415 20.3846 45.544 21.1885C44.5349 22.0934 43.5955 23.0754 42.6258 24.0237C41.6313 25.3298 40.6373 26.6359 39.6438 27.9415C38.8394 29.4176 38.0359 30.8938 37.2324 32.3699L35.6204 36.7186L35.5719 36.7863C34.6846 39.6972 34.2469 42.6899 34.0317 45.7128C33.9508 46.8489 34.0428 48.0015 34.107 49.1436C34.1984 50.7762 34.4824 52.381 34.9084 53.9606C36.4557 59.6997 39.5958 64.4603 43.8886 68.5047C44.6865 69.2561 45.5051 69.9394 46.3379 70.6546C46.4804 70.1675 46.5941 69.6805 46.7235 69.1935C46.8528 68.7086 46.9837 68.2261 47.0711 67.7396C46.9832 68.2261 46.8847 68.7086 46.7872 69.1935L46.3698 70.6546L46.7427 71.9167L47.0883 73.8769L47.2531 75.9223C47.2515 76.3376 47.2349 76.754 47.2601 77.1688C47.2662 77.2748 47.4057 77.3727 47.4835 77.4746L48.1788 77.7184L48.9035 78L48.7792 76.1817L48.7736 74.3911L49.0237 71.6634L49.2051 71.0694L49.7241 70.1509C50.3649 69.6361 51.0526 69.1688 51.6363 68.596C52.6924 67.5594 53.746 66.5097 54.691 65.3747C55.9174 63.9026 56.9725 62.2957 57.8195 60.5723C58.3864 59.4196 58.9201 58.2438 59.3617 57.0391C59.7508 55.9773 59.9919 54.8615 60.2986 53.7694C60.3259 53.6906 60.3623 53.6134 60.3795 53.5332C61.0131 50.5854 61.1198 47.6079 60.8868 44.6096Z" fill="white"/>
</svg>
