<svg width="96" height="96" viewBox="0 0 96 96" fill="none" xmlns="http://www.w3.org/2000/svg">
<path d="M52.2462 24C51.9095 24 51.5728 24.0737 51.2735 24.1843C51.9095 24.5898 52.2462 25.1427 52.4332 25.7694C52.4332 25.8431 52.4707 25.9169 52.4707 25.9906C52.4707 26.0643 52.5081 26.138 52.5081 26.2118C52.5455 27.2808 52.2088 27.4282 51.9843 28.0549C51.6102 28.8659 51.7224 29.7506 52.1714 30.451C52.2088 30.5247 52.2462 30.6353 52.321 30.709C51.8347 27.6125 54.4535 27.1702 54.9399 26.2118C54.9773 25.3639 54.2664 24.811 53.7053 24.4055C53.1441 24.0737 52.6951 24 52.2462 24ZM56.1745 24.6635C56.1371 24.9584 56.1745 24.8847 56.1371 25.0322C56.1371 25.1427 56.137 25.2533 56.0996 25.3639C56.0622 25.4745 56.0622 25.5482 56.0248 25.6588C55.9874 25.7694 55.95 25.8431 55.9126 25.9537C55.8752 26.0275 55.8378 26.1012 55.8003 26.2118C55.7629 26.2486 55.7255 26.3224 55.6881 26.3592C55.6507 26.3961 55.6507 26.4329 55.6133 26.4698C55.5385 26.5435 55.501 26.6541 55.4262 26.7278C55.3514 26.8016 55.2766 26.8753 55.2017 26.949C55.1269 27.0227 55.0521 27.0965 54.9773 27.1333C54.7154 27.3176 54.4161 27.4651 54.1542 27.6494C54.0794 27.7231 53.9671 27.76 53.8923 27.8337C53.8175 27.9075 53.7427 27.9443 53.6678 28.018C53.593 28.0918 53.5182 28.1655 53.4434 28.2392C53.3685 28.3129 53.2937 28.3867 53.2563 28.4973C53.1815 28.571 53.1441 28.6816 53.0693 28.7553C53.0318 28.8659 52.9944 28.9396 52.9196 29.0502C52.8822 29.1608 52.8448 29.2345 52.8074 29.3451C52.77 29.4557 52.7325 29.5663 52.7325 29.64C52.7325 29.6769 52.7325 29.7506 52.6951 29.7875C52.6951 29.8243 52.6951 29.898 52.6577 29.9349C52.6577 30.0455 52.6577 30.1561 52.6577 30.2298C52.6577 30.3035 52.6577 30.3773 52.6577 30.451C52.6577 30.5616 52.6577 30.6353 52.6951 30.7459C52.6951 30.8565 52.7325 30.9302 52.77 31.0408C52.8074 31.1514 52.8448 31.2251 52.8822 31.3357C52.9196 31.4094 52.957 31.4463 52.957 31.52L50.1137 30.451C49.6273 30.3035 49.1784 30.1929 48.692 30.0824C48.4301 30.0086 48.1683 29.9718 47.9064 29.898C47.1581 29.7506 46.4099 29.64 45.6616 29.5663C45.6242 29.5663 45.6242 29.5663 45.5868 29.5663C44.8386 29.4925 44.1277 29.4557 43.3795 29.4557C42.8183 29.4557 42.2945 29.4925 41.7708 29.5294C41.0225 29.5663 40.2743 29.6769 39.526 29.7875C39.339 29.8243 39.1519 29.8612 38.9649 29.898C38.5907 29.9718 38.2166 30.0455 37.8425 30.1561C37.6554 30.1929 37.4684 30.2667 37.2813 30.3035C37.0943 30.3773 36.9072 30.451 36.7575 30.5247C36.6079 30.5984 36.4957 30.6353 36.346 30.709C36.3086 30.709 36.3086 30.709 36.2712 30.7459C36.159 30.8196 36.0467 30.8565 35.9345 30.9302C35.8971 30.9302 35.8597 30.9671 35.8597 30.9671C35.71 31.0408 35.5978 31.1145 35.4855 31.1514C35.4107 31.1882 35.2985 31.2251 35.2236 31.262C35.1862 31.2988 35.1488 31.2988 35.1114 31.3357C34.9992 31.4094 34.8869 31.4463 34.7747 31.52C34.6625 31.5937 34.5502 31.6306 34.4754 31.7043C34.4006 31.778 34.2883 31.8149 34.2135 31.8886C34.2135 31.8886 34.1761 31.8886 34.1761 31.9255C34.1013 31.9624 34.0265 32.0361 33.9516 32.1098C33.9516 32.1098 33.9516 32.1098 33.9142 32.1467C33.8394 32.1835 33.802 32.2573 33.7272 32.2941C33.6898 32.2941 33.6898 32.331 33.6523 32.331C33.5775 32.3678 33.5401 32.4416 33.4653 32.4784C33.4653 32.5153 33.4279 32.5153 33.4279 32.5153C33.353 32.589 33.2782 32.6627 33.2034 32.7365C33.2034 32.7365 33.2034 32.7365 33.166 32.7733C33.0912 32.8471 33.0163 32.9208 32.9415 32.9945C32.9415 32.9945 32.9415 33.0314 32.9041 33.0314C32.8293 33.1051 32.7919 33.142 32.717 33.2157C32.6796 33.2525 32.6422 33.2525 32.6422 33.2894C32.5674 33.3631 32.4926 33.4369 32.4177 33.5106C32.4177 33.5475 32.3803 33.5475 32.3803 33.5843C32.2681 33.6949 32.1933 33.7686 32.081 33.8792L32.0436 33.9161C31.8566 34.1373 31.6321 34.3216 31.4076 34.5059C31.1831 34.6902 30.9587 34.8745 30.6968 35.0588C30.4349 35.2431 30.2104 35.3906 29.9485 35.538C29.6866 35.6855 29.4248 35.7961 29.1629 35.9067C28.901 36.0173 28.6391 36.1278 28.3772 36.2016C27.8535 36.3122 27.3297 36.5333 26.8807 36.5702C26.8807 36.3859 26.7685 36.4227 26.6563 36.4227C26.544 36.4596 26.4318 36.4596 26.357 36.4965C26.2447 36.5333 26.1699 36.5702 26.0577 36.6071C25.9454 36.6439 25.8706 36.6808 25.7584 36.7545C25.6835 36.8282 25.5713 36.8651 25.4965 36.9388C25.4217 37.0126 25.3094 37.0863 25.2346 37.16C25.1598 37.2337 25.0475 37.3075 24.9727 37.3812C24.8979 37.4549 24.8231 37.5286 24.7482 37.6392C24.6734 37.7498 24.5986 37.8235 24.5612 37.9341C24.4864 38.0078 24.4489 38.1184 24.3741 38.229C24.3367 38.3396 24.2619 38.4502 24.2245 38.5608C24.1871 38.6714 24.1496 38.782 24.1122 38.8925C24.0748 39.0031 24.0748 39.0769 24.0374 39.1875V39.2243C24 39.3349 24 39.4824 24 39.5561C24.0374 39.5192 24.0374 39.5929 24.0374 39.6667C24.0374 39.7035 24.0374 39.7773 24.0374 39.8141C24.0374 39.8878 24.0748 39.9616 24.0748 40.0353C24.1122 40.109 24.1122 40.1827 24.1496 40.2565C24.1871 40.3302 24.2245 40.4039 24.2993 40.4776C24.3367 40.5514 24.4115 40.6251 24.4489 40.6988C24.5238 40.7725 24.5986 40.8463 24.6734 40.8831C24.7482 40.9569 24.8231 41.0306 24.8979 41.0675C25.1972 41.3255 25.272 41.3992 25.6461 41.6204C25.721 41.6573 25.7584 41.6941 25.8332 41.731H25.8706C25.8706 41.7678 25.8706 41.7678 25.8706 41.8047C25.8706 41.9153 25.908 41.989 25.9454 42.0996C25.9828 42.2102 26.0203 42.3208 26.0577 42.3945C26.0951 42.4682 26.1325 42.542 26.1699 42.6157C26.1699 42.6525 26.2073 42.6525 26.2073 42.6894C26.2447 42.8 26.3196 42.8737 26.357 42.9475C26.4318 43.0212 26.4692 43.1318 26.544 43.2055C26.6189 43.2792 26.6937 43.3529 26.7685 43.4267C26.8433 43.5004 26.9181 43.5741 26.993 43.6478C26.993 43.6478 26.993 43.6478 27.0304 43.6478C27.1052 43.7216 27.18 43.7584 27.2549 43.8322C27.3297 43.9059 27.4419 43.9427 27.5167 43.9796C27.5916 44.0165 27.7038 44.0902 27.816 44.1271C27.8909 44.1639 27.9657 44.2008 28.0779 44.2008C28.0779 44.2008 28.1153 44.2008 28.1153 44.2376C28.1528 44.2376 28.2276 44.2745 28.265 44.2745C28.2276 44.938 28.2276 45.5647 28.3024 45.7859C28.4146 46.0439 28.9758 45.2698 29.4996 44.422C29.4248 45.2698 29.3874 46.2651 29.4996 46.56C29.6492 46.8549 30.3601 45.8965 31.0335 44.8643C39.7879 42.8737 47.7941 48.8455 48.6546 57.2871C48.505 55.96 46.8588 55.2227 46.0732 55.4071C45.6991 56.2918 45.063 57.4714 44.0529 58.1718C44.1277 57.3608 44.0903 56.5498 43.9407 55.7388C43.6788 56.8447 43.155 57.9137 42.4068 58.7984C41.247 58.8722 40.0498 58.3192 39.4512 57.4714C39.4138 57.4345 39.3764 57.3608 39.339 57.3239C39.3016 57.2502 39.2642 57.1396 39.2268 57.0659C39.1893 56.9922 39.1519 56.8816 39.1519 56.8078C39.1519 56.7341 39.1519 56.6235 39.1519 56.5498C39.1519 56.4761 39.1519 56.4392 39.1519 56.3655C39.1519 56.2918 39.1893 56.1812 39.2268 56.1075C39.2642 56.0337 39.2642 55.9231 39.3016 55.8494C39.339 55.7757 39.3764 55.6651 39.4512 55.5914C39.6757 55.0016 39.6757 54.5224 39.2642 54.2643C39.1893 54.2275 39.1145 54.1906 39.0397 54.1537C39.0023 54.1537 38.9275 54.1169 38.89 54.1169C38.8526 54.1169 38.8152 54.08 38.7778 54.08C38.703 54.0431 38.5907 54.0431 38.5159 54.0063C38.4411 53.9694 38.3289 53.9694 38.254 53.9694C38.1792 53.9694 38.067 53.9325 37.9921 53.9325C37.9173 53.9325 37.8799 53.9325 37.8051 53.9325C37.6929 53.9325 37.618 53.9325 37.5432 53.9694C37.4684 53.9694 37.3561 54.0063 37.2813 54.0063C37.2065 54.0431 37.0943 54.0431 37.0194 54.08C36.9446 54.1169 36.8698 54.1537 36.7575 54.1906C36.6827 54.2274 36.6079 54.2643 36.5331 54.3012C33.6523 56.1443 35.3733 60.4941 37.3187 61.7474C36.5705 61.8949 35.8222 62.0424 35.5978 62.1898L35.5604 62.2267C36.0841 62.5584 36.6453 62.8165 37.2439 63.0376C38.0296 63.2957 38.89 63.5169 39.2642 63.6275C40.2743 63.8486 41.3218 63.9224 42.3694 63.8486C47.8315 63.48 52.321 59.3514 53.1441 53.9694C53.1815 54.08 53.1815 54.1906 53.2189 54.3012C53.2563 54.5224 53.2937 54.7435 53.3311 55.0016C53.3686 55.1122 53.3686 55.2227 53.3686 55.3333V55.3702C53.3686 55.4808 53.406 55.5914 53.406 55.702C53.406 55.8494 53.4434 55.96 53.4434 56.1075V56.2918C53.4434 56.3655 53.4434 56.4392 53.4434 56.4761C53.4434 56.5498 53.4434 56.6235 53.4434 56.6973V56.8816C53.4434 56.9553 53.4434 57.029 53.4434 57.1396C53.4434 57.1765 53.4434 57.2502 53.4434 57.2871C53.4434 57.3608 53.4434 57.4714 53.4434 57.5451C53.4434 57.582 53.4434 57.6188 53.4434 57.6557C53.4434 57.7663 53.406 57.84 53.406 57.9506C53.406 57.9875 53.406 58.0243 53.406 58.0612C53.406 58.1718 53.3686 58.2824 53.3686 58.4298C53.3311 58.5404 53.3311 58.651 53.2937 58.7616V58.7984C53.2563 58.909 53.2563 59.0196 53.2189 59.1302V59.1671C53.1815 59.2776 53.1815 59.3882 53.1441 59.4988V59.5357C53.1067 59.6463 53.0693 59.7569 53.0318 59.8675V59.9043C52.9944 60.0149 52.957 60.1624 52.9196 60.2729C52.8822 60.3835 52.8448 60.4941 52.77 60.6416C52.7325 60.7522 52.6951 60.8996 52.6203 61.0102C52.5829 61.1208 52.5081 61.2314 52.4707 61.3788C52.4332 61.4894 52.3584 61.6 52.321 61.7106C52.321 61.7475 52.2836 61.7843 52.2836 61.7843C52.2836 61.7843 52.2836 61.8212 52.2462 61.8212C51.4605 63.4063 50.2633 64.8071 48.7669 65.9129C48.6546 65.9867 48.5798 66.0604 48.4676 66.1341C48.4301 66.171 48.3927 66.171 48.3927 66.2078C48.3179 66.2816 48.2057 66.3184 48.1308 66.3922L48.1683 66.4659C48.3553 66.429 48.505 66.429 48.692 66.3922C49.0287 66.3553 49.328 66.2816 49.6647 66.2078C49.7396 66.2078 49.8518 66.171 49.9266 66.1341C50.0015 66.1341 50.0389 66.0973 50.1137 66.0973C50.1885 66.0973 50.3008 66.0604 50.3756 66.0604C50.4504 66.0235 50.5252 66.0235 50.6 65.9867C51.8347 65.6918 53.0318 65.2863 54.1916 64.8071C52.2088 67.4612 49.5899 69.5992 46.5221 71C47.9438 70.8894 49.3654 70.6682 50.7497 70.2627C55.7255 68.8251 59.9157 65.5075 62.4223 61.0471C61.8985 63.8486 60.7762 66.5396 59.0926 68.8988C60.2898 68.1247 61.3748 67.2031 62.3849 66.2078C65.1534 63.3694 66.9866 59.72 67.5852 55.8494C67.9967 57.7663 68.1464 59.7569 67.9593 61.7106C76.9008 49.4353 68.7075 36.7176 65.2656 33.3631C65.2656 33.3263 65.2282 33.3263 65.2282 33.2894C65.2282 33.2894 65.2282 33.2894 65.2282 33.3263C65.2282 33.3263 65.2282 33.3263 65.2282 33.2894C65.2282 33.4369 65.2282 33.5843 65.1908 33.7318C65.1534 34.0267 65.116 34.2847 65.0786 34.5427C65.0037 34.8008 64.9289 35.0957 64.8541 35.3537C64.7793 35.6118 64.667 35.8698 64.5548 36.1278C64.4426 36.3859 64.3303 36.6439 64.1807 36.8651C64.031 37.0863 63.8814 37.3443 63.7317 37.5655C63.5821 37.7867 63.395 38.0078 63.2079 38.229C63.0209 38.4502 62.8338 38.6345 62.6094 38.8557C62.4971 38.9663 62.3849 39.0769 62.2352 39.1506C62.123 39.2243 62.0482 39.298 61.9359 39.4086C61.7115 39.5929 61.487 39.7404 61.2251 39.8878C61.0006 40.0353 60.7387 40.1827 60.4769 40.2933C60.215 40.4039 59.9531 40.5145 59.6912 40.6251C59.4293 40.7357 59.1674 40.8094 58.9055 40.8831C58.6437 40.9569 58.3444 41.0306 58.0825 41.0675C57.7832 41.1043 57.5213 41.1412 57.2594 41.178C57.0724 41.178 56.8479 41.2149 56.6608 41.2149C56.3615 41.2149 56.0996 41.178 55.8378 41.178C55.5385 41.1412 55.2766 41.1043 55.0147 41.0675C54.7154 41.0306 54.4535 40.9569 54.1916 40.8463C54.4535 40.8094 54.7528 40.8094 55.0147 40.7357C55.314 40.6988 55.5759 40.6251 55.8378 40.5514C56.0996 40.4776 56.3989 40.4039 56.6234 40.2933C56.8853 40.1827 57.1472 40.0722 57.4091 39.9616C57.6709 39.851 57.8954 39.7035 58.1573 39.5561C58.3818 39.4086 58.6437 39.2243 58.8681 39.0769C59.0926 38.8925 59.3171 38.7082 59.5041 38.5239C59.7286 38.3396 59.9157 38.1184 60.1027 37.9341C60.2898 37.7129 60.4769 37.4918 60.6265 37.2706C60.6639 37.2337 60.6639 37.1969 60.7013 37.16C60.8136 36.9757 60.9632 36.7545 61.0755 36.5702C61.2251 36.3122 61.3373 36.091 61.4496 35.8329C61.5618 35.5749 61.6741 35.3169 61.7489 35.0588C61.8237 34.8008 61.8985 34.5427 61.9733 34.2847C62.0108 33.9898 62.0856 33.7318 62.0856 33.4737C62.123 33.1788 62.123 32.9208 62.123 32.6627C62.123 32.4784 62.123 32.2573 62.0856 32.0729C62.0482 31.778 62.0108 31.52 61.9733 31.262C61.9359 30.9671 61.8611 30.709 61.7863 30.451C61.7115 30.1929 61.5992 29.9349 61.5244 29.6769C61.4122 29.4188 61.2999 29.1608 61.1877 28.9396C61.038 28.6816 60.9258 28.4604 60.7762 28.2024C60.6265 27.9812 60.4395 27.76 60.2898 27.5388C60.1027 27.3176 59.9157 27.1333 59.7286 26.9122C59.6164 26.8016 59.5041 26.691 59.3919 26.6173C58.8307 26.1749 58.2695 25.8063 57.6709 25.4376C57.5961 25.4008 57.5213 25.3639 57.4091 25.3271C56.9227 24.9216 56.5486 24.811 56.1745 24.6635Z" fill="white"/>
</svg>
