<svg width="95" height="96" viewBox="0 0 95 96" fill="none" xmlns="http://www.w3.org/2000/svg">
<path d="M69 49.0667H54.1515C52.2771 49.0667 50.7576 50.563 50.7576 52.4089V58.2578C50.7576 60.1036 52.2771 61.6 54.1515 61.6H64.3333C64.5676 61.6 64.7576 61.787 64.7576 62.0178V67.3444C64.7576 67.5752 64.5676 67.7622 64.3333 67.7622H50.0152M49.9091 71H64.6515C66.5259 71 68.0455 69.5036 68.0455 67.6578V61.7044C68.0455 59.8586 66.5259 58.3622 64.6515 58.3622H54.2576C54.0233 58.3622 53.8333 58.1752 53.8333 57.9444V52.8267C53.8333 52.5959 54.0233 52.4089 54.2576 52.4089H69M28.4848 46.6644V27.1333C28.4848 25.4028 29.9094 24 31.6667 24H42.9091C44.6664 24 46.0909 25.4028 46.0909 27.1333V46.6644M31.6667 46.6644V27.76C31.6667 27.5293 31.8566 27.3422 32.0909 27.3422H42.3788C42.6131 27.3422 42.803 27.5293 42.803 27.76V46.6644M68.8939 24H53.5152C52.1093 24 50.9697 25.1223 50.9697 26.5067V43.2178C50.9697 44.6022 52.1093 45.7244 53.5152 45.7244H67.5152C67.7495 45.7244 67.9394 45.5374 67.9394 45.3067V34.0267C67.9394 33.7959 67.7495 33.6089 67.5152 33.6089H59.7727M59.7727 36.5333H64.4394C64.6737 36.5333 64.8636 36.7204 64.8636 36.9511V42.2778C64.8636 42.5085 64.6737 42.6956 64.4394 42.6956H54.5758C54.3415 42.6956 54.1515 42.5085 54.1515 42.2778V27.76C54.1515 27.5293 54.3415 27.3422 54.5758 27.3422H68.8939M27 49.0667H32.5152C34.3896 49.0667 35.9091 50.563 35.9091 52.4089V57.9444C35.9091 58.1752 36.099 58.3622 36.3333 58.3622H38.4545C38.6888 58.3622 38.8788 58.1752 38.8788 57.9444V52.4089C38.8788 50.563 40.3983 49.0667 42.2727 49.0667H47.8939M27 52.4089H32.303C32.5373 52.4089 32.7273 52.5959 32.7273 52.8267V67.3444C32.7273 67.5752 32.5373 67.7622 32.303 67.7622H27M27 71H32.5152C34.3896 71 35.9091 69.5036 35.9091 67.6578V62.0178C35.9091 61.787 36.099 61.6 36.3333 61.6H38.4545C38.6888 61.6 38.8788 61.787 38.8788 62.0178V67.6578C38.8788 69.5036 40.3983 71 42.2727 71H47.8939M47.8939 52.4089H42.5909C42.3566 52.4089 42.1667 52.5959 42.1667 52.8267V67.3444C42.1667 67.5752 42.3566 67.7622 42.5909 67.7622H47.8939" stroke="white" stroke-width="1.4"/>
</svg>
