<svg width="96" height="96" viewBox="0 0 96 96" fill="none" xmlns="http://www.w3.org/2000/svg">
<path d="M67.7461 34.6673L50.2628 24.473C49.1602 23.8423 47.7245 23.8423 46.6132 24.473L28.9431 34.6673C27.8052 35.3246 27 36.56 27 37.8814V58.243C27 59.5644 27.8263 60.8002 28.9641 61.4611L33.6326 64.1239C35.864 65.2275 36.6526 65.2275 37.6679 65.2275C40.9718 65.2275 42.859 63.2213 42.859 59.7221V39.6201C42.859 39.3362 42.7119 38.9138 42.4344 38.9138H40.205C39.9227 38.9138 39.2907 39.3362 39.2907 39.6197V59.7217C39.2907 61.2728 37.8935 62.8164 35.2824 61.5053L30.4584 58.7132C30.2903 58.6216 30.1718 58.4373 30.1718 58.243V37.8814C30.1718 37.6895 30.3918 37.4968 30.5611 37.3985L48.1741 27.2217C48.3387 27.1282 48.5805 27.1282 48.7447 27.2217L66.1427 37.3961C66.3093 37.4968 66.2506 37.6836 66.2506 37.8814V58.243C66.2506 58.4373 66.3231 58.6264 66.1586 58.7199L48.6796 68.9027C48.5298 68.9931 48.3438 68.9931 48.1797 68.9027L43.6967 66.2157C43.5615 66.1368 43.401 66.1086 43.2713 66.1814C42.024 66.8913 41.7941 66.9857 40.6241 67.393C40.3362 67.4937 39.9116 67.6685 40.7866 68.161L46.6536 71.6463C47.2154 71.9727 47.8538 72.1423 48.4961 72.1423C49.1471 72.1423 49.7846 71.9727 50.3464 71.6463L67.7457 61.4611C68.8836 60.7954 69.4228 59.5644 69.4228 58.243V37.8814C69.4228 36.56 68.8836 35.3278 67.7461 34.6673V34.6673ZM53.9246 55.0165C49.2755 55.0165 48.2514 53.7285 47.9101 51.407C47.8704 51.1569 47.6591 50.8579 47.4058 50.8579H45.1336C44.8525 50.8579 44.6265 51.2003 44.6265 51.4814C44.6265 54.4539 46.2358 58.0555 53.925 58.0555C59.4911 58.0555 62.6823 55.8836 62.6823 52.04C62.6823 48.229 60.1183 47.2289 54.7203 46.5115C49.264 45.7873 48.7098 45.4214 48.7098 44.1378C48.7098 43.0795 49.1792 41.6681 53.2193 41.6681C56.8292 41.6681 58.1597 42.4461 58.7073 44.8895C58.754 45.1192 58.963 45.284 59.1989 45.284H61.4802C61.6206 45.284 61.7546 45.2271 61.8529 45.1263C61.948 45.0181 61.9984 44.8823 61.9857 44.7366C61.6325 40.5291 58.8488 38.5682 53.2189 38.5682C48.211 38.5682 45.2236 40.6919 45.2236 44.2516C45.2236 48.1128 48.1959 49.1798 53.0032 49.6571C58.754 50.2233 59.2013 51.0673 59.2013 52.2032C59.2013 54.176 57.6241 55.0165 53.9246 55.0165Z" fill="white"/>
</svg>
