<svg width="95" height="96" viewBox="0 0 95 96" fill="none" xmlns="http://www.w3.org/2000/svg">
<mask id="path-2-inside-1" fill="white">
<path d="M53.0395 73C49.5242 73 48.4105 70.2032 47.9548 69.0594C47.2878 67.3832 47.1439 60.8784 47.2925 55.5439C47.3028 55.166 47.6145 54.8673 47.9928 54.8789C48.3691 54.8892 48.6654 55.2041 48.6547 55.5821C48.4835 61.7347 48.7265 67.3103 49.2201 68.551C49.9905 70.4855 51.1589 72.1776 54.462 71.4667C57.5977 70.791 58.772 69.5966 59.2952 66.5501C59.6966 64.2123 60.4904 57.5616 60.5882 56.2492C60.6164 55.8726 60.9418 55.589 61.3184 55.6177C61.6934 55.646 61.9748 55.9747 61.947 56.3513C61.845 57.7178 61.055 64.3556 60.6382 66.783C60.0207 70.3812 58.424 72.0132 54.7477 72.8052C54.1229 72.9395 53.5554 72.9996 53.0395 73V73ZM33.9784 59.3395C33.6432 59.3395 33.3387 59.2773 33.0748 59.1893C30.7915 58.4239 28.6166 54.688 26.6104 48.0841C25.0833 43.0572 24.1157 37.8103 24.0307 36.1049C23.7792 31.0493 25.0748 27.4725 27.8825 25.4746C33.437 21.5207 42.7809 25.2858 43.1759 25.448C43.5239 25.5908 43.6913 25.9907 43.5487 26.3408C43.4065 26.6904 43.0085 26.8582 42.6605 26.7157C42.5704 26.6788 33.6103 23.0725 28.6674 26.5935C26.2666 28.3035 25.1645 31.4809 25.3912 36.0367C25.4625 37.4735 26.3666 42.5943 27.9133 47.6842C29.7043 53.5799 31.7425 57.2999 33.5057 57.8907C33.7824 57.9833 34.6245 58.2652 35.8284 56.8108C38.0938 54.0728 40.1747 51.8874 40.1956 51.8659C40.4561 51.593 40.8874 51.584 41.159 51.8457C41.4306 52.1074 41.44 52.5408 41.1795 52.8132C41.159 52.8346 39.1097 54.987 36.8763 57.6865C35.8185 58.9645 34.8048 59.3395 33.9784 59.3395V59.3395ZM63.627 53.5713C63.4959 53.5713 63.3635 53.5335 63.2465 53.4546C62.9348 53.2431 62.8519 52.8179 63.0624 52.5043C69.4094 43.0422 71.6373 31.6092 69.7293 29.1594C67.3277 26.0765 63.9366 24.4664 59.6496 24.3733C56.4754 24.3046 53.9525 25.1189 53.54 25.2609L53.4362 25.3034C53.0216 25.4342 52.7035 25.206 52.5835 24.9391C52.4413 24.6234 52.5578 24.2501 52.8529 24.0704C52.8726 24.0588 52.9349 24.0322 53.0361 23.9949L53.0271 23.9974L53.0361 23.9944C53.7369 23.7366 56.2982 22.9648 59.4707 23.0012C64.2142 23.0519 68.1326 24.8894 70.8016 28.316C72.0643 29.9373 72.0673 33.6723 70.8097 38.5641C69.5277 43.5514 67.1154 48.9112 64.1919 53.2697C64.0613 53.4657 63.846 53.5713 63.627 53.5713V53.5713ZM63.9515 57.9516C62.8677 57.9516 61.8962 57.798 61.3146 57.4479C60.7167 57.088 60.6027 56.5989 60.5878 56.3393C60.4247 53.4606 62.0055 52.9595 62.8118 52.7308C62.6995 52.5601 62.5398 52.3593 62.3745 52.1521C61.9043 51.5617 61.2604 50.7534 60.7641 49.5445C60.6864 49.3557 60.443 48.9168 60.1612 48.4084C58.6328 45.6549 55.4527 39.9253 57.4956 36.9913C58.4411 35.6334 60.3239 35.0988 63.0979 35.397C62.2818 32.8992 58.3958 25.0859 49.1749 24.934C46.4017 24.8877 44.1273 25.7444 42.4183 27.4781C38.5921 31.3603 38.7305 38.3847 38.7326 38.4551C38.7424 38.833 38.4456 39.1475 38.0694 39.1574C37.6932 39.1694 37.3806 38.8691 37.3704 38.4911C37.3618 38.1792 37.2192 30.8077 41.4503 26.5145C43.4304 24.5054 46.037 23.5135 49.1975 23.5654C55.0966 23.6628 58.8937 26.6758 61.04 29.186C63.3797 31.9219 64.5267 34.9397 64.6211 35.947C64.6916 36.6961 64.1565 36.8458 64.0485 36.8681L63.8025 36.8737C61.0802 36.4357 59.3336 36.7398 58.6115 37.7764C57.0575 40.0077 60.0659 45.4276 61.3505 47.7421C61.6784 48.3325 61.915 48.7593 62.0235 49.0228C62.4454 50.0507 62.9958 50.7414 63.4378 51.2966C63.8268 51.7848 64.1638 52.2083 64.2842 52.7051C64.3401 52.8037 65.134 53.9836 69.8446 53.0067C71.0253 52.7621 71.7334 52.9711 71.9499 53.6288C72.3756 54.9223 69.9868 56.4311 68.6643 57.0481C67.4793 57.6015 65.5879 57.9516 63.9515 57.9516V57.9516ZM61.9462 56.2265C62.0956 56.3779 62.8434 56.6392 64.3918 56.5723C65.7686 56.5131 67.2205 56.2123 68.0916 55.8061C69.2058 55.2861 69.9496 54.7047 70.3348 54.3079L70.1213 54.3474C67.1094 54.972 64.979 54.8888 63.7893 54.0998C63.7043 54.0436 63.6278 53.9853 63.5587 53.9278C63.4297 53.9788 63.3105 54.0123 63.2256 54.0363C62.5509 54.2264 61.8531 54.4233 61.9462 56.2265ZM42.4897 60.0512C41.7415 60.0512 40.954 59.9487 40.1499 59.7466C39.3168 59.5373 37.9123 58.907 37.9336 57.8718C37.958 56.7104 39.6392 56.3621 40.2721 56.2312C42.5584 55.758 42.7074 55.5684 43.4219 54.6567C43.6303 54.3911 43.8895 54.0604 44.2431 53.6639C44.7679 53.0736 45.3414 52.7746 45.9478 52.7746C46.3701 52.7746 46.7164 52.9183 46.9453 53.014C47.6747 53.3177 48.2832 54.0522 48.5335 54.9304C48.7594 55.7228 48.6513 56.4856 48.2303 57.0781C46.848 59.0229 44.8627 60.0512 42.4897 60.0512V60.0512ZM39.4056 57.9306C39.611 58.0902 40.0227 58.3034 40.4809 58.4184C41.1774 58.5934 41.8529 58.6822 42.4901 58.6822C44.4314 58.6822 45.9901 57.8748 47.1221 56.2823C47.3583 55.9502 47.2874 55.5285 47.2242 55.3067C47.0918 54.842 46.763 54.4194 46.4243 54.2783C46.2407 54.2019 46.0883 54.1436 45.9482 54.1436C45.873 54.1436 45.6442 54.1436 45.259 54.5765C44.9336 54.9416 44.6991 55.2406 44.4929 55.504C43.6029 56.6392 43.1951 57.0245 40.5475 57.5723C39.9014 57.7053 39.57 57.8409 39.4056 57.9306V57.9306ZM44.6449 54.773C44.3144 54.773 44.024 54.5306 43.9723 54.1921C43.9552 54.0784 43.9441 53.9643 43.9382 53.8493C42.2027 53.8167 40.5283 53.0685 39.257 51.7359C37.6497 50.0511 36.9181 47.7168 37.2504 45.3319C37.6112 42.7419 37.4763 40.4556 37.4037 39.2273C37.3836 38.8858 37.3691 38.6391 37.3699 38.4684C37.3712 38.2517 37.3755 37.6773 39.2869 36.7038C39.9667 36.3576 41.3298 35.7535 42.8189 35.5986C45.2859 35.3425 46.912 36.4464 47.3988 38.7073C48.7128 44.8115 47.503 47.5113 46.6195 49.4831C46.4551 49.8504 46.2997 50.197 46.1754 50.5329L46.0656 50.829C45.5989 52.0864 45.1953 53.1727 45.3192 53.984C45.3764 54.3577 45.121 54.7069 44.7491 54.7644L44.6449 54.773V54.773ZM38.7369 38.658L38.7634 39.1467C38.8385 40.4226 38.9786 42.7968 38.5994 45.5219C38.3256 47.489 38.9235 49.4089 40.2405 50.7886C41.2811 51.8792 42.6506 52.4811 44.0582 52.4811H44.0872C44.2448 51.814 44.5065 51.1095 44.7884 50.3506L44.8973 50.0563C45.0378 49.677 45.2022 49.3098 45.3764 48.9211C46.2266 47.0231 47.2852 44.6605 46.0661 38.9969C45.8248 37.875 45.2393 37.2259 44.2772 37.0118C42.3009 36.5734 39.3557 38.0668 38.7369 38.658V38.658ZM42.8492 38.3676C42.8151 38.6095 43.2903 39.2556 43.9104 39.3419C44.5292 39.429 45.0587 38.9236 45.0924 38.6816C45.1262 38.4396 44.6513 38.1728 44.0312 38.0861C43.4116 37.9995 42.8821 38.1256 42.8492 38.3676ZM44.0526 39.58L43.8788 39.568C43.4945 39.5143 43.1059 39.2711 42.8398 38.9167C42.7463 38.7923 42.5939 38.5512 42.6242 38.3358C42.6673 38.0201 43.0508 37.8309 43.6491 37.8309C43.7827 37.8309 43.9219 37.8407 44.062 37.8605C44.3891 37.9059 44.6927 38.0007 44.9169 38.1264C45.3055 38.3444 45.3341 38.5876 45.3166 38.7134C45.2688 39.0621 44.7166 39.58 44.0526 39.58V39.58ZM43.0751 38.4079C43.0943 38.5572 43.4624 39.0497 43.9416 39.1162L44.053 39.1239C44.4954 39.1239 44.826 38.7743 44.8648 38.6597C44.8238 38.5816 44.5394 38.3877 44.0001 38.3122C43.8805 38.2951 43.7626 38.2869 43.6495 38.2869C43.3027 38.2869 43.1187 38.3654 43.0751 38.4079V38.4079ZM61.6959 37.8738C61.7297 38.1157 61.2548 38.7618 60.6352 38.8485C60.016 38.9352 59.486 38.4302 59.4519 38.1882C59.4194 37.9463 59.8943 37.679 60.5135 37.5927C61.1327 37.5057 61.6618 37.6322 61.6959 37.8738V37.8738ZM60.4921 38.9721C59.896 38.9721 59.3814 38.5061 59.3391 38.2037C59.29 37.8407 59.8849 37.5649 60.4972 37.4795C60.6322 37.4606 60.7659 37.4512 60.8944 37.4512C61.4231 37.4512 61.7732 37.6069 61.8082 37.8583C61.8309 38.0209 61.7066 38.2719 61.4927 38.4984C61.3513 38.6473 61.0545 38.9051 60.6501 38.9613L60.4921 38.9721V38.9721ZM60.8948 37.6794C60.777 37.6794 60.654 37.6884 60.5293 37.7056C59.9139 37.7918 59.5467 38.0398 59.5646 38.1728C59.5851 38.3191 59.978 38.7442 60.4926 38.7442L60.6194 38.7352C60.9555 38.6885 61.2078 38.468 61.3283 38.341C61.5174 38.1415 61.5926 37.9536 61.5836 37.8896C61.5717 37.8047 61.3445 37.6794 60.8948 37.6794ZM62.588 51.7698C62.4578 51.7698 62.3262 51.7321 62.2097 51.654C61.8971 51.4437 61.8129 51.0186 62.0226 50.7045C63.4737 48.5272 63.2081 46.3071 62.9514 44.1598C62.8417 43.2451 62.7289 42.2991 62.758 41.3913C62.7879 40.4573 62.9061 39.6868 63.0202 38.9416C63.1555 38.0587 63.2836 37.2246 63.2307 36.2345C63.2102 35.8569 63.4984 35.5347 63.8742 35.5141C64.2513 35.494 64.5712 35.7831 64.5912 36.1607C64.6519 37.2924 64.5071 38.2363 64.367 39.1497C64.259 39.8546 64.1471 40.5835 64.1202 41.4351C64.0942 42.2391 64.1962 43.0928 64.3043 43.9963C64.5776 46.2796 64.8872 48.8675 63.1551 51.4661C63.0236 51.663 62.8079 51.7698 62.588 51.7698V51.7698Z"/>
</mask>
<path d="M53.0395 73C49.5242 73 48.4105 70.2032 47.9548 69.0594C47.2878 67.3832 47.1439 60.8784 47.2925 55.5439C47.3028 55.166 47.6145 54.8673 47.9928 54.8789C48.3691 54.8892 48.6654 55.2041 48.6547 55.5821C48.4835 61.7347 48.7265 67.3103 49.2201 68.551C49.9905 70.4855 51.1589 72.1776 54.462 71.4667C57.5977 70.791 58.772 69.5966 59.2952 66.5501C59.6966 64.2123 60.4904 57.5616 60.5882 56.2492C60.6164 55.8726 60.9418 55.589 61.3184 55.6177C61.6934 55.646 61.9748 55.9747 61.947 56.3513C61.845 57.7178 61.055 64.3556 60.6382 66.783C60.0207 70.3812 58.424 72.0132 54.7477 72.8052C54.1229 72.9395 53.5554 72.9996 53.0395 73V73ZM33.9784 59.3395C33.6432 59.3395 33.3387 59.2773 33.0748 59.1893C30.7915 58.4239 28.6166 54.688 26.6104 48.0841C25.0833 43.0572 24.1157 37.8103 24.0307 36.1049C23.7792 31.0493 25.0748 27.4725 27.8825 25.4746C33.437 21.5207 42.7809 25.2858 43.1759 25.448C43.5239 25.5908 43.6913 25.9907 43.5487 26.3408C43.4065 26.6904 43.0085 26.8582 42.6605 26.7157C42.5704 26.6788 33.6103 23.0725 28.6674 26.5935C26.2666 28.3035 25.1645 31.4809 25.3912 36.0367C25.4625 37.4735 26.3666 42.5943 27.9133 47.6842C29.7043 53.5799 31.7425 57.2999 33.5057 57.8907C33.7824 57.9833 34.6245 58.2652 35.8284 56.8108C38.0938 54.0728 40.1747 51.8874 40.1956 51.8659C40.4561 51.593 40.8874 51.584 41.159 51.8457C41.4306 52.1074 41.44 52.5408 41.1795 52.8132C41.159 52.8346 39.1097 54.987 36.8763 57.6865C35.8185 58.9645 34.8048 59.3395 33.9784 59.3395V59.3395ZM63.627 53.5713C63.4959 53.5713 63.3635 53.5335 63.2465 53.4546C62.9348 53.2431 62.8519 52.8179 63.0624 52.5043C69.4094 43.0422 71.6373 31.6092 69.7293 29.1594C67.3277 26.0765 63.9366 24.4664 59.6496 24.3733C56.4754 24.3046 53.9525 25.1189 53.54 25.2609L53.4362 25.3034C53.0216 25.4342 52.7035 25.206 52.5835 24.9391C52.4413 24.6234 52.5578 24.2501 52.8529 24.0704C52.8726 24.0588 52.9349 24.0322 53.0361 23.9949L53.0271 23.9974L53.0361 23.9944C53.7369 23.7366 56.2982 22.9648 59.4707 23.0012C64.2142 23.0519 68.1326 24.8894 70.8016 28.316C72.0643 29.9373 72.0673 33.6723 70.8097 38.5641C69.5277 43.5514 67.1154 48.9112 64.1919 53.2697C64.0613 53.4657 63.846 53.5713 63.627 53.5713V53.5713ZM63.9515 57.9516C62.8677 57.9516 61.8962 57.798 61.3146 57.4479C60.7167 57.088 60.6027 56.5989 60.5878 56.3393C60.4247 53.4606 62.0055 52.9595 62.8118 52.7308C62.6995 52.5601 62.5398 52.3593 62.3745 52.1521C61.9043 51.5617 61.2604 50.7534 60.7641 49.5445C60.6864 49.3557 60.443 48.9168 60.1612 48.4084C58.6328 45.6549 55.4527 39.9253 57.4956 36.9913C58.4411 35.6334 60.3239 35.0988 63.0979 35.397C62.2818 32.8992 58.3958 25.0859 49.1749 24.934C46.4017 24.8877 44.1273 25.7444 42.4183 27.4781C38.5921 31.3603 38.7305 38.3847 38.7326 38.4551C38.7424 38.833 38.4456 39.1475 38.0694 39.1574C37.6932 39.1694 37.3806 38.8691 37.3704 38.4911C37.3618 38.1792 37.2192 30.8077 41.4503 26.5145C43.4304 24.5054 46.037 23.5135 49.1975 23.5654C55.0966 23.6628 58.8937 26.6758 61.04 29.186C63.3797 31.9219 64.5267 34.9397 64.6211 35.947C64.6916 36.6961 64.1565 36.8458 64.0485 36.8681L63.8025 36.8737C61.0802 36.4357 59.3336 36.7398 58.6115 37.7764C57.0575 40.0077 60.0659 45.4276 61.3505 47.7421C61.6784 48.3325 61.915 48.7593 62.0235 49.0228C62.4454 50.0507 62.9958 50.7414 63.4378 51.2966C63.8268 51.7848 64.1638 52.2083 64.2842 52.7051C64.3401 52.8037 65.134 53.9836 69.8446 53.0067C71.0253 52.7621 71.7334 52.9711 71.9499 53.6288C72.3756 54.9223 69.9868 56.4311 68.6643 57.0481C67.4793 57.6015 65.5879 57.9516 63.9515 57.9516V57.9516ZM61.9462 56.2265C62.0956 56.3779 62.8434 56.6392 64.3918 56.5723C65.7686 56.5131 67.2205 56.2123 68.0916 55.8061C69.2058 55.2861 69.9496 54.7047 70.3348 54.3079L70.1213 54.3474C67.1094 54.972 64.979 54.8888 63.7893 54.0998C63.7043 54.0436 63.6278 53.9853 63.5587 53.9278C63.4297 53.9788 63.3105 54.0123 63.2256 54.0363C62.5509 54.2264 61.8531 54.4233 61.9462 56.2265ZM42.4897 60.0512C41.7415 60.0512 40.954 59.9487 40.1499 59.7466C39.3168 59.5373 37.9123 58.907 37.9336 57.8718C37.958 56.7104 39.6392 56.3621 40.2721 56.2312C42.5584 55.758 42.7074 55.5684 43.4219 54.6567C43.6303 54.3911 43.8895 54.0604 44.2431 53.6639C44.7679 53.0736 45.3414 52.7746 45.9478 52.7746C46.3701 52.7746 46.7164 52.9183 46.9453 53.014C47.6747 53.3177 48.2832 54.0522 48.5335 54.9304C48.7594 55.7228 48.6513 56.4856 48.2303 57.0781C46.848 59.0229 44.8627 60.0512 42.4897 60.0512V60.0512ZM39.4056 57.9306C39.611 58.0902 40.0227 58.3034 40.4809 58.4184C41.1774 58.5934 41.8529 58.6822 42.4901 58.6822C44.4314 58.6822 45.9901 57.8748 47.1221 56.2823C47.3583 55.9502 47.2874 55.5285 47.2242 55.3067C47.0918 54.842 46.763 54.4194 46.4243 54.2783C46.2407 54.2019 46.0883 54.1436 45.9482 54.1436C45.873 54.1436 45.6442 54.1436 45.259 54.5765C44.9336 54.9416 44.6991 55.2406 44.4929 55.504C43.6029 56.6392 43.1951 57.0245 40.5475 57.5723C39.9014 57.7053 39.57 57.8409 39.4056 57.9306V57.9306ZM44.6449 54.773C44.3144 54.773 44.024 54.5306 43.9723 54.1921C43.9552 54.0784 43.9441 53.9643 43.9382 53.8493C42.2027 53.8167 40.5283 53.0685 39.257 51.7359C37.6497 50.0511 36.9181 47.7168 37.2504 45.3319C37.6112 42.7419 37.4763 40.4556 37.4037 39.2273C37.3836 38.8858 37.3691 38.6391 37.3699 38.4684C37.3712 38.2517 37.3755 37.6773 39.2869 36.7038C39.9667 36.3576 41.3298 35.7535 42.8189 35.5986C45.2859 35.3425 46.912 36.4464 47.3988 38.7073C48.7128 44.8115 47.503 47.5113 46.6195 49.4831C46.4551 49.8504 46.2997 50.197 46.1754 50.5329L46.0656 50.829C45.5989 52.0864 45.1953 53.1727 45.3192 53.984C45.3764 54.3577 45.121 54.7069 44.7491 54.7644L44.6449 54.773V54.773ZM38.7369 38.658L38.7634 39.1467C38.8385 40.4226 38.9786 42.7968 38.5994 45.5219C38.3256 47.489 38.9235 49.4089 40.2405 50.7886C41.2811 51.8792 42.6506 52.4811 44.0582 52.4811H44.0872C44.2448 51.814 44.5065 51.1095 44.7884 50.3506L44.8973 50.0563C45.0378 49.677 45.2022 49.3098 45.3764 48.9211C46.2266 47.0231 47.2852 44.6605 46.0661 38.9969C45.8248 37.875 45.2393 37.2259 44.2772 37.0118C42.3009 36.5734 39.3557 38.0668 38.7369 38.658V38.658ZM42.8492 38.3676C42.8151 38.6095 43.2903 39.2556 43.9104 39.3419C44.5292 39.429 45.0587 38.9236 45.0924 38.6816C45.1262 38.4396 44.6513 38.1728 44.0312 38.0861C43.4116 37.9995 42.8821 38.1256 42.8492 38.3676ZM44.0526 39.58L43.8788 39.568C43.4945 39.5143 43.1059 39.2711 42.8398 38.9167C42.7463 38.7923 42.5939 38.5512 42.6242 38.3358C42.6673 38.0201 43.0508 37.8309 43.6491 37.8309C43.7827 37.8309 43.9219 37.8407 44.062 37.8605C44.3891 37.9059 44.6927 38.0007 44.9169 38.1264C45.3055 38.3444 45.3341 38.5876 45.3166 38.7134C45.2688 39.0621 44.7166 39.58 44.0526 39.58V39.58ZM43.0751 38.4079C43.0943 38.5572 43.4624 39.0497 43.9416 39.1162L44.053 39.1239C44.4954 39.1239 44.826 38.7743 44.8648 38.6597C44.8238 38.5816 44.5394 38.3877 44.0001 38.3122C43.8805 38.2951 43.7626 38.2869 43.6495 38.2869C43.3027 38.2869 43.1187 38.3654 43.0751 38.4079V38.4079ZM61.6959 37.8738C61.7297 38.1157 61.2548 38.7618 60.6352 38.8485C60.016 38.9352 59.486 38.4302 59.4519 38.1882C59.4194 37.9463 59.8943 37.679 60.5135 37.5927C61.1327 37.5057 61.6618 37.6322 61.6959 37.8738V37.8738ZM60.4921 38.9721C59.896 38.9721 59.3814 38.5061 59.3391 38.2037C59.29 37.8407 59.8849 37.5649 60.4972 37.4795C60.6322 37.4606 60.7659 37.4512 60.8944 37.4512C61.4231 37.4512 61.7732 37.6069 61.8082 37.8583C61.8309 38.0209 61.7066 38.2719 61.4927 38.4984C61.3513 38.6473 61.0545 38.9051 60.6501 38.9613L60.4921 38.9721V38.9721ZM60.8948 37.6794C60.777 37.6794 60.654 37.6884 60.5293 37.7056C59.9139 37.7918 59.5467 38.0398 59.5646 38.1728C59.5851 38.3191 59.978 38.7442 60.4926 38.7442L60.6194 38.7352C60.9555 38.6885 61.2078 38.468 61.3283 38.341C61.5174 38.1415 61.5926 37.9536 61.5836 37.8896C61.5717 37.8047 61.3445 37.6794 60.8948 37.6794ZM62.588 51.7698C62.4578 51.7698 62.3262 51.7321 62.2097 51.654C61.8971 51.4437 61.8129 51.0186 62.0226 50.7045C63.4737 48.5272 63.2081 46.3071 62.9514 44.1598C62.8417 43.2451 62.7289 42.2991 62.758 41.3913C62.7879 40.4573 62.9061 39.6868 63.0202 38.9416C63.1555 38.0587 63.2836 37.2246 63.2307 36.2345C63.2102 35.8569 63.4984 35.5347 63.8742 35.5141C64.2513 35.494 64.5712 35.7831 64.5912 36.1607C64.6519 37.2924 64.5071 38.2363 64.367 39.1497C64.259 39.8546 64.1471 40.5835 64.1202 41.4351C64.0942 42.2391 64.1962 43.0928 64.3043 43.9963C64.5776 46.2796 64.8872 48.8675 63.1551 51.4661C63.0236 51.663 62.8079 51.7698 62.588 51.7698V51.7698Z" stroke="white" stroke-width="2" mask="url(#path-2-inside-1)"/>
</svg>
