<svg width="95" height="96" viewBox="0 0 95 96" fill="none" xmlns="http://www.w3.org/2000/svg">
<path fill-rule="evenodd" clip-rule="evenodd" d="M62.4198 60.314L42.8953 65.8909C42.7604 65.9315 42.6169 65.9374 42.479 65.9081C42.341 65.8788 42.2132 65.8152 42.1081 65.7235C42.0029 65.6319 41.924 65.5153 41.879 65.3851C41.834 65.255 41.8244 65.1158 41.8513 64.981L48.8298 32.7185C48.9612 32.1148 49.8234 32.0186 50.097 32.5785L63.0084 59.0681C63.0654 59.1864 63.0952 59.3154 63.0957 59.446C63.0962 59.5767 63.0675 59.7058 63.0115 59.8246C62.9555 59.9433 62.8735 60.0488 62.7713 60.1336C62.6691 60.2184 62.5492 60.2789 62.4198 60.314ZM65.7678 58.9981L50.8134 28.3263C50.6266 27.9475 50.3379 27.6248 49.978 27.3922C49.6181 27.1597 49.2003 27.026 48.7686 27.0052C48.3366 26.977 47.9048 27.0642 47.52 27.2572C47.1352 27.4503 46.812 27.7419 46.5853 28.1006L30.3691 53.4738C29.8669 54.263 29.8777 55.2377 30.3979 56.0199L38.3251 67.8805C38.6265 68.3264 39.0676 68.6661 39.5831 68.8492C40.0986 69.0323 40.661 69.0491 41.1871 68.8972L64.1946 62.3247C64.9002 62.1217 65.4762 61.6422 65.7786 61.0017C65.9269 60.687 66.0024 60.3445 65.9999 59.9984C65.9975 59.6522 65.917 59.3108 65.7642 58.9981H65.7678Z" fill="white"/>
</svg>
