<svg width="95" height="96" viewBox="0 0 95 96" fill="none" xmlns="http://www.w3.org/2000/svg">
<g clip-path="url(#clip0)">
<path d="M63.2686 56.2806L65.2024 51.3904H70.786L68.1356 43.9723L71.4499 35.5918L80.942 60.7945H73.942L72.32 56.2806H63.2686Z" fill="white" fill-opacity="0.91"/>
<path d="M57.2931 59.4204L67.4544 34.2178L60.7179 34.2183L53.7667 50.5048L48.8235 34.2183H43.6456L38.3385 50.5048L34.5953 43.0829L31.208 53.5186L34.6474 59.4204H41.2771L46.0733 44.815L50.6457 59.4204H57.2931Z" fill="white" fill-opacity="0.91"/>
<path d="M20.3946 50.7684H24.5441C25.8011 50.7684 26.9202 50.6283 27.9018 50.3476L28.9748 47.0419L31.974 37.8015C31.7459 37.4398 31.485 37.0968 31.1914 36.7742C29.6516 35.0696 27.3984 34.2178 24.4324 34.2178H14V59.4204H20.3946V50.7684ZM25.887 40.0155C26.4886 40.621 26.7892 41.4314 26.7892 42.4458C26.7892 43.4688 26.5246 44.2798 25.9959 44.8794C25.4157 45.5455 24.3481 45.8788 22.7927 45.8788H20.3946V39.1079H22.8104C24.2601 39.1079 25.2858 39.4101 25.887 40.0155Z" fill="white" fill-opacity="0.91"/>
</g>
<defs>
<clipPath id="clip0">
<rect width="67" height="67" fill="white" transform="translate(14 14)"/>
</clipPath>
</defs>
</svg>
