<svg width="95" height="96" viewBox="0 0 95 96" fill="none" xmlns="http://www.w3.org/2000/svg">
<path d="M66.4786 40.063C65.5339 39.7166 64.5461 39.3702 63.5154 39.0671C63.7731 38.028 63.9878 36.9889 64.1596 35.9931C65.0615 30.278 64.0737 26.2514 61.3253 24.6927C60.5093 24.2165 59.6075 24 58.5768 24C55.5706 24 51.7485 26.2514 47.8835 30.0182C44.0185 26.2514 40.1964 24 37.1902 24C36.1595 24 35.2577 24.2165 34.4418 24.6927C31.6933 26.2947 30.7055 30.3213 31.6074 35.9931C31.7792 36.9889 31.9939 38.028 32.2516 39.0671C31.2209 39.3702 30.2332 39.6733 29.2884 40.063C23.9203 42.1412 21 44.9987 21 48.2027C21 51.4066 23.9632 54.2642 29.2884 56.3424C30.2332 56.6888 31.2209 57.0351 32.2516 57.3382C31.9939 58.3773 31.7792 59.4164 31.6074 60.4123C30.7055 66.1274 31.6933 70.1539 34.4418 71.7126C35.2577 72.1889 36.1595 72.4054 37.1902 72.4054C40.2393 72.4054 44.0614 70.1539 47.8835 66.3872C51.7485 70.1539 55.5706 72.4054 58.5768 72.4054C59.6075 72.4054 60.5093 72.1889 61.3253 71.7126C64.0737 70.1106 65.0615 66.0841 64.1596 60.4123C63.9878 59.4164 63.7731 58.3773 63.5154 57.3382C64.5461 57.0351 65.5339 56.7321 66.4786 56.3424C71.8468 54.2642 74.767 51.4066 74.767 48.2027C74.767 44.9987 71.8468 42.1412 66.4786 40.063ZM60.1228 26.8576C61.8835 27.8967 62.4848 31.1006 61.7547 35.6467C61.6259 36.5559 61.4111 37.5085 61.1535 38.5043C58.9203 37.9847 56.5584 37.6384 54.0676 37.4219C52.6074 35.3437 51.1044 33.4819 49.6013 31.7933C52.7792 28.6327 56.0001 26.4679 58.6197 26.4679C59.178 26.4679 59.6934 26.5978 60.1228 26.8576V26.8576ZM55.313 52.5323C54.54 53.9178 53.6381 55.3033 52.6933 56.6888C51.1044 56.8187 49.5154 56.862 47.8835 56.862C46.2087 56.862 44.6197 56.8187 43.0737 56.6888C42.1289 55.3033 41.27 53.9178 40.497 52.5323C39.681 51.1035 38.908 49.6315 38.2209 48.2027C38.908 46.7739 39.681 45.3018 40.497 43.873C41.27 42.4876 42.1718 41.1021 43.1166 39.7166C44.7056 39.5867 46.2945 39.5434 47.9264 39.5434C49.6013 39.5434 51.1903 39.5867 52.7363 39.7166C53.6811 41.1021 54.54 42.4876 55.313 43.873C56.1289 45.3018 56.9019 46.7739 57.5891 48.2027C56.859 49.6315 56.1289 51.0602 55.313 52.5323ZM58.8774 51.1035C59.5216 52.6189 60.0369 54.091 60.5093 55.5631C59.0492 55.9094 57.5032 56.1692 55.8713 56.3857C56.3866 55.5631 56.9449 54.6971 57.4173 53.7879C57.9326 52.8787 58.405 51.9695 58.8774 51.1035ZM47.8835 62.8369C46.8528 61.7111 45.8651 60.4988 44.9203 59.2433C45.908 59.2865 46.8958 59.3298 47.8835 59.3298C48.8712 59.3298 49.859 59.2865 50.8467 59.2433C49.9019 60.4988 48.9142 61.7111 47.8835 62.8369ZM39.8958 56.3424C38.2638 56.1259 36.7178 55.8661 35.2577 55.5198C35.7301 54.091 36.2454 52.5756 36.8896 51.0602C37.362 51.9262 37.8344 52.8354 38.3497 53.7013C38.8651 54.6538 39.3804 55.4765 39.8958 56.3424V56.3424ZM36.8896 45.3018C36.2454 43.7864 35.7301 42.3144 35.2577 40.8423C36.7178 40.4959 38.2638 40.2361 39.8958 40.0197C39.3804 40.8423 38.8221 41.7082 38.3497 42.6174C37.8344 43.5267 37.362 44.4359 36.8896 45.3018V45.3018ZM47.8835 33.5685C48.9142 34.6942 49.9019 35.9065 50.8467 37.1621C49.859 37.1188 48.8712 37.0755 47.8835 37.0755C46.8958 37.0755 45.908 37.1188 44.9203 37.1621C45.8651 35.9065 46.8528 34.6942 47.8835 33.5685V33.5685ZM57.4173 42.6607L55.8713 40.063C57.5032 40.2794 59.0492 40.5392 60.5093 40.8856C60.0369 42.3144 59.5216 43.8297 58.8774 45.3451C58.405 44.4359 57.9326 43.5267 57.4173 42.6607V42.6607ZM34.0123 35.6467C33.2822 31.1006 33.8835 27.8967 35.6442 26.8576C36.0737 26.5978 36.589 26.4679 37.1473 26.4679C39.724 26.4679 42.9448 28.5894 46.1657 31.7933C44.6626 33.4386 43.1596 35.3437 41.6994 37.4219C39.2086 37.6384 36.8467 38.028 34.6135 38.5043C34.3559 37.5085 34.1841 36.5559 34.0123 35.6467ZM23.4049 48.2027C23.4049 46.1677 25.8528 44.0029 30.1473 42.401C31.0062 42.0546 31.9509 41.7515 32.8957 41.4917C33.5829 43.6566 34.4418 45.9513 35.4724 48.246C34.4418 50.5407 33.5399 52.7921 32.8957 54.9569C26.9693 53.2251 23.4049 50.6273 23.4049 48.2027V48.2027ZM35.6442 69.5478C33.8835 68.5087 33.2822 65.3047 34.0123 60.7586C34.1411 59.8494 34.3559 58.8969 34.6135 57.9011C36.8467 58.4206 39.2086 58.767 41.6994 58.9835C43.1596 61.0617 44.6626 62.9234 46.1657 64.612C42.9878 67.7726 39.7669 69.9375 37.1473 69.9375C36.589 69.9375 36.0737 69.8076 35.6442 69.5478ZM61.7547 60.7586C62.4848 65.3047 61.8835 68.5087 60.1228 69.5478C59.6934 69.8076 59.178 69.9375 58.6197 69.9375C56.043 69.9375 52.8222 67.8159 49.6013 64.612C51.1044 62.9667 52.6074 61.0617 54.0676 58.9835C56.5584 58.767 58.9203 58.3773 61.1535 57.9011C61.4111 58.8969 61.5829 59.8494 61.7547 60.7586V60.7586ZM65.6197 54.0044C64.7608 54.3508 63.8161 54.6538 62.8713 54.9136C62.1842 52.7488 61.3253 50.4541 60.2946 48.1594C61.3253 45.8647 62.2271 43.6133 62.8713 41.4484C68.7977 43.1803 72.3621 45.7781 72.3621 48.2027C72.3621 50.2376 69.8713 52.4024 65.6197 54.0044V54.0044Z" fill="white"/>
<path d="M47.6879 53.7841C50.7654 53.7841 53.2602 51.2631 53.2602 48.1533C53.2602 45.0435 50.7654 42.5225 47.6879 42.5225C44.6105 42.5225 42.1157 45.0435 42.1157 48.1533C42.1157 51.2631 44.6105 53.7841 47.6879 53.7841Z" fill="white"/>
</svg>
