<svg width="95" height="96" viewBox="0 0 95 96" fill="none" xmlns="http://www.w3.org/2000/svg">
<path d="M58.2959 58.1642C60.2099 57.9662 61.6619 56.3162 61.5959 54.3362C61.5299 52.3562 59.8799 50.7722 57.8999 50.7722H57.7679C55.7219 50.8382 54.1379 52.5542 54.2039 54.6002C54.2699 55.5902 54.6659 56.4482 55.2599 57.0422C53.0159 61.4642 49.5839 64.6982 44.4359 67.4042C40.9379 69.2522 37.3079 69.9122 33.6779 69.4502C30.7079 69.0542 28.3979 67.7342 26.9459 65.5562C24.8339 62.3222 24.6359 58.8242 26.4179 55.3262C27.6719 52.8182 29.6519 50.9702 30.9059 50.0462C30.6419 49.1882 30.2459 47.7362 30.0479 46.6802C20.4779 53.6102 21.4679 62.9822 24.3719 67.4042C26.5499 70.7042 30.9719 72.7502 35.8559 72.7502C37.1759 72.7502 38.4959 72.6182 39.8159 72.2882C48.2639 70.6382 54.6659 65.6222 58.2959 58.1642V58.1642Z" fill="white"/>
<path d="M69.9119 49.9806C64.8959 44.1066 57.5039 40.8726 49.0559 40.8726H47.9999C47.4059 39.6846 46.1519 38.8926 44.7659 38.8926H44.6339C42.5879 38.9586 41.0039 40.6746 41.0699 42.7206C41.1359 44.7006 42.7859 46.2846 44.7659 46.2846H44.8979C46.3499 46.2186 47.6039 45.2946 48.1319 44.0406H49.3199C54.3359 44.0406 59.0879 45.4926 63.3779 48.3306C66.6779 50.5086 69.0539 53.3466 70.3739 56.7786C71.4959 59.5506 71.4299 62.2566 70.2419 64.5666C68.3939 68.0646 65.2919 69.9786 61.1999 69.9786C58.5599 69.9786 56.0519 69.1866 54.7319 68.5926C54.0059 69.2526 52.6859 70.3086 51.7619 70.9686C54.5999 72.2886 57.5039 73.0146 60.2759 73.0146C66.6119 73.0146 71.2979 69.5166 73.0799 66.0186C74.9939 62.1906 74.8619 55.5906 69.9119 49.9806Z" fill="white"/>
<path d="M36.3839 59.2863C36.4499 61.2663 38.0999 62.8503 40.0799 62.8503H40.2119C42.2579 62.7843 43.8419 61.0683 43.7759 59.0223C43.7099 57.0423 42.0599 55.4583 40.0799 55.4583H39.9479C39.8159 55.4583 39.6179 55.4583 39.4859 55.5243C36.7799 51.0363 35.6579 46.1523 36.0539 40.8723C36.3179 36.9123 37.6379 33.4803 39.9479 30.6423C41.8619 28.2003 45.5579 27.0123 48.0659 26.9463C55.0619 26.8143 58.0319 35.5263 58.2299 39.0243C59.0879 39.2223 60.5399 39.6843 61.5299 40.0143C60.7379 29.3223 54.1379 23.7783 47.8019 23.7783C41.8619 23.7783 36.3839 28.0683 34.2059 34.4043C31.1699 42.8523 33.1499 50.9703 36.8459 57.3723C36.5159 57.8343 36.3179 58.5603 36.3839 59.2863V59.2863Z" fill="white"/>
</svg>
