<svg width="96" height="96" viewBox="0 0 96 96" fill="none" xmlns="http://www.w3.org/2000/svg">
<path fill-rule="evenodd" clip-rule="evenodd" d="M16 43.755C16 44.1097 16.1048 44.3438 16.1636 44.5713C16.5464 46.0511 17.3694 47.3209 18.3457 48.4793C19.7364 50.1301 21.4395 51.459 23.1841 52.7087C24.6973 53.7924 26.2414 54.8519 27.7606 55.9276C28.0215 56.1122 28.2681 56.3246 28.5512 56.5511C28.3076 56.6823 28.105 56.7979 27.8943 56.9043C25.8894 57.9174 23.9605 59.0531 22.1824 60.4289C21.1108 61.2583 20.0747 62.1397 19.3429 63.2915C18.1655 65.1441 17.7487 67.1178 18.6263 69.2252C18.8826 69.8407 19.2735 70.3725 19.825 70.7655C20.0038 70.8926 20.2043 71.0188 20.4135 71.0682C20.9493 71.1938 21.4952 71.2761 22.0376 71.3755L23.5735 71.3745C25.2721 71.2236 26.8182 70.6439 28.2154 69.6833C30.3991 68.1819 31.8703 66.1688 32.5028 63.5852C32.9626 61.7073 32.9814 59.8275 32.4395 57.9583C32.3894 57.7847 32.326 57.6147 32.2602 57.4467C32.1944 57.2787 32.1169 57.1152 32.0257 56.9058L35.5079 54.911L35.5601 54.9554C35.4968 55.1617 35.4294 55.3675 35.3722 55.5759C34.9584 57.0814 34.6834 58.6131 34.7822 60.1756C34.8875 61.8405 35.3539 63.399 36.3324 64.79C37.1234 65.915 39.0083 65.9569 39.849 64.8278C40.1472 64.4267 40.4364 64.0075 40.6537 63.5599C41.2214 62.392 41.747 61.2033 42.2894 60.0228L42.3841 59.8068C42.3451 60.3658 42.2995 60.8567 42.2788 61.3481C42.2464 62.1155 42.2914 62.8783 42.5548 63.6084C42.7801 64.233 43.1635 64.6997 43.8816 64.7819C44.3728 64.8379 44.7643 64.6139 45.1254 64.3298C45.6895 63.8864 46.1478 63.3385 46.4882 62.7159C47.4509 60.9546 48.4394 59.2039 49.312 57.3982C50.2559 55.4452 51.0814 53.4352 51.958 51.4489L52.1029 51.0968C52.31 51.9075 52.4543 52.7017 52.7202 53.4534C53.0291 54.3257 53.4115 55.1773 53.8277 56.0053C54.0247 56.3963 54.0019 56.65 53.729 56.978C52.5865 58.3503 51.4638 59.7392 50.34 61.1266C50.0914 61.4329 49.8437 61.7447 49.6366 62.0792C49.5115 62.2825 49.4284 62.5302 49.3935 62.7673C49.3261 63.2204 49.6072 63.6573 50.0939 63.7618C50.5385 63.8571 51.012 63.8924 51.4653 63.8591C53.0337 63.7441 54.4577 63.1957 55.7167 62.2664C57.3479 61.0626 57.8715 59.4199 57.4765 57.4729C57.3697 56.9447 57.1808 56.4311 56.9969 55.922C56.9144 55.6925 56.9088 55.5315 57.0592 55.3176C58.3633 53.4625 59.4774 51.4943 60.5135 49.4808C60.5545 49.4016 60.5966 49.3224 60.6685 49.2376C61.0042 50.9782 61.5097 52.6557 62.4151 54.1779C61.9533 54.6214 61.496 55.0235 61.0822 55.4664C60.1712 56.4422 59.3812 57.5017 58.9689 58.7937C58.7917 59.3507 58.6555 59.9168 58.7345 60.5116C58.857 61.4354 59.6167 62.0358 60.5287 61.8254C62.4805 61.3754 64.1653 60.4592 65.3965 58.8361C66.225 57.7433 66.3004 56.5244 65.9535 55.2475C65.8583 54.9004 65.7454 54.5588 65.6238 54.1607C66.1054 54.0119 66.5749 53.8333 67.0606 53.7228C69.582 53.1497 72.0762 53.2496 74.506 54.1567C75.9245 54.6864 77.0705 55.5729 77.7501 56.9674C78.5801 58.6722 78.1213 60.2896 76.5084 61.3673C76.358 61.4677 76.1858 61.5469 76.0612 61.6725C75.9847 61.7497 75.9386 61.9041 75.9574 62.0106C75.968 62.0726 76.1326 62.1503 76.2273 62.1493C76.7575 62.1453 77.1875 61.8683 77.6002 61.5837C78.6343 60.8709 79.3889 59.9118 79.5515 58.6489L79.5834 58.5541L79.5444 57.7317C79.5287 57.6843 79.556 57.6374 79.5525 57.6016C79.3327 55.7626 78.3467 54.3363 76.9125 53.2183C75.2514 51.9242 73.2901 51.3914 71.2158 51.3072C69.5253 51.2385 67.8637 51.4888 66.2705 52.0655C65.8163 52.2294 65.3661 52.4237 64.9093 52.6068C64.848 52.4963 64.7822 52.3904 64.728 52.2809C64.259 51.3243 63.6908 50.4101 63.5652 49.3133C63.4761 48.5343 63.3667 47.7564 63.5526 46.9859C63.7313 46.2448 63.9643 45.5163 64.1836 44.7852C64.2965 44.4089 64.217 44.198 63.8564 44.0285C63.7308 43.9694 63.5941 43.918 63.4584 43.8983C62.5721 43.7701 61.698 43.8433 60.8397 44.092C60.5358 44.1803 60.315 44.3498 60.2477 44.6848C60.2092 44.8771 60.1307 45.0612 60.076 45.2509C59.8516 46.0395 59.6926 46.8432 59.33 47.5944C58.4215 49.4788 57.3843 51.292 56.3229 53.0922C56.2079 53.2864 56.0869 53.4771 55.942 53.7127C55.5693 52.9358 55.1718 52.2385 55.0513 51.4212C54.915 50.4969 54.8077 49.5741 55.0386 48.6569C55.2103 47.9728 55.4346 47.3013 55.6412 46.6262C55.739 46.3053 55.6939 46.1368 55.4022 45.9678C55.2548 45.8826 55.0882 45.8069 54.9221 45.7822C54.003 45.6464 53.0975 45.7176 52.2107 46.0031C51.9357 46.0919 51.7914 46.269 51.7073 46.5516C51.4602 47.385 51.2495 48.2387 50.9026 49.0313C49.4978 52.24 48.0525 55.4321 46.6087 58.6237C46.3074 59.2902 45.9544 59.9335 45.6146 60.5823C45.5285 60.7467 45.4029 60.8915 45.2955 61.0459C45.2094 60.9445 45.176 60.8749 45.1765 60.8053C45.1791 60.3951 45.1299 59.9728 45.2084 59.5763C45.4459 58.3765 45.7194 57.1833 46.0076 55.9947C46.2456 55.0129 46.5226 54.0402 46.7864 53.0649C46.8751 52.7385 46.8766 52.4333 46.6411 52.1588C46.2456 51.6992 45.4191 51.5983 44.9289 51.9524L44.7121 52.0745L44.7542 51.7264C44.8575 50.9802 44.8782 50.2366 44.6726 49.5015C44.4164 48.5853 43.7601 48.0581 42.806 48.0873C42.3613 48.1009 41.8944 48.1766 41.4827 48.3381C39.7512 49.0141 38.4198 50.2113 37.2865 51.6518C37.1837 51.7824 37.0479 51.9015 36.9031 51.9817C35.438 52.791 33.9684 53.5901 32.4992 54.3923L30.864 55.2848C30.4254 54.8681 30.0269 54.4357 29.5747 54.0689C28.1936 52.9469 26.7903 51.8526 25.3997 50.7431C24.1671 49.7598 22.9729 48.7356 22.0593 47.4335C21.3797 46.4648 20.9417 45.4048 20.8996 44.207C20.8465 42.6809 21.281 41.2864 22.0609 39.9882C23.0585 38.3274 24.4193 36.9944 25.9152 35.7871C27.4978 34.5107 29.2095 33.427 30.9835 32.4376C33.4655 31.0537 36.0184 29.8287 38.7556 29.02C41.5622 28.1905 44.4098 27.7158 47.347 28.0468C48.5017 28.1769 49.6229 28.4403 50.6525 29.0028C51.441 29.4332 52.0877 29.9967 52.3885 30.8776C52.6852 31.7444 52.6761 32.6228 52.4705 33.5031C52.0527 35.2861 51.0728 36.7558 49.8397 38.0691C47.817 40.2218 45.3497 41.6875 42.572 42.6556C40.9692 43.2142 39.3202 43.5648 37.6268 43.7066C36.2447 43.8221 34.8916 43.7 33.583 43.2212C32.7165 42.9039 31.9619 42.4185 31.3552 41.7142C31.2469 41.5881 31.1081 41.4514 30.906 41.5694C30.708 41.6855 30.6731 41.8731 30.7394 42.0633C30.8503 42.3792 30.9526 42.7081 31.1253 42.9907C31.5593 43.6995 32.1924 44.2136 32.8892 44.6546C34.2277 45.5027 35.7236 45.7877 37.2748 45.8538C39.6287 45.9552 41.9253 45.6051 44.1895 44.9759C47.422 44.0779 50.2326 42.4917 52.4867 39.9893C54.3635 37.9056 55.704 35.554 55.9912 32.7146C56.1314 31.3287 55.9821 29.971 55.3308 28.7067C54.6243 27.3369 53.5011 26.3183 52.1581 25.6165C50.2023 24.5948 48.0915 24 45.9129 24H43.7302C41.0917 24 38.5409 24.7532 36.0614 25.6518C34.1846 26.3324 32.3443 27.1356 30.5576 28.0246C26.6668 29.9614 23.0433 32.2968 20.0671 35.5081C18.5843 37.1079 17.3289 38.8733 16.6067 40.9519C16.3955 41.5603 16.195 42.2127 16.0441 42.8418L16 43.755ZM30.1424 61.0111C29.9737 63.2608 28.9502 65.0846 27.2775 66.5618C26.3366 67.3923 25.2574 67.9836 24.0005 68.1914C23.5447 68.2666 23.0783 68.2848 22.6362 68.0966C22.0057 67.8282 21.8644 67.2707 21.8522 66.6769C21.8335 65.7304 22.1662 64.8747 22.6225 64.0604C23.218 62.9989 24.0911 62.1897 25.0234 61.4339C26.4921 60.2427 28.0853 59.2347 29.717 58.2832L29.84 58.2327C30.0922 59.161 30.2122 60.0777 30.1424 61.0111ZM42.8829 51.234C42.7639 51.9524 42.615 52.6714 42.4044 53.3676C41.6761 55.7777 40.7408 58.1131 39.7294 60.4173C39.5426 60.8436 39.2706 61.2326 39.0341 61.6367C38.9977 61.6993 38.9435 61.7533 38.8908 61.8052C38.5981 62.0933 38.3206 62.0782 38.1727 61.7013C38.0005 61.2634 37.8947 60.7947 37.8035 60.331C37.7422 60.0197 37.7569 59.6928 37.7377 59.3739C37.7574 57.1066 38.4517 55.0462 39.6297 53.128C40.1153 52.3369 40.644 51.5831 41.4518 51.0827C41.6999 50.9288 41.9785 50.8052 42.2595 50.7265C42.69 50.6059 42.9543 50.8042 42.8829 51.234ZM51.5752 62.2669L54.6993 58.6328C54.8294 59.9824 52.5267 62.6765 51.5752 62.2669ZM61.5532 59.8214C61.3324 59.9476 61.0919 60.0384 60.8655 60.1549C60.6584 60.2619 60.59 60.1539 60.5839 59.9763C60.5799 59.8558 60.5976 59.7296 60.631 59.6126C61.0529 58.1303 61.8292 56.865 62.9844 55.8357L63.0654 55.7944C63.6149 57.3256 62.9798 59.0072 61.5532 59.8214Z" fill="white"/>
</svg>
