<svg width="95" height="96" viewBox="0 0 95 96" fill="none" xmlns="http://www.w3.org/2000/svg">
<path fill-rule="evenodd" clip-rule="evenodd" d="M47.8256 29C39.3382 29 34.035 33.2225 31.9122 41.6675C35.0951 37.445 38.8081 35.8619 43.0512 36.9169C45.4721 37.5187 47.2033 39.2666 49.1178 41.2018C52.2383 44.3531 55.8503 48 63.7378 48C72.224 48 77.5285 43.7775 79.65 35.3337C76.4683 39.5562 72.7553 41.1394 68.5122 40.0831C66.0901 39.4813 64.3589 37.7334 62.4444 35.7994C59.3239 32.6457 55.7131 29 47.8256 29ZM31.9122 48C23.426 48 18.1215 52.2225 16 60.6675C19.1829 56.445 22.8959 54.8619 27.1378 55.9169C29.5599 56.5187 31.2911 58.2666 33.2056 60.2018C36.3261 63.3531 39.9369 67 47.8256 67C56.3118 67 61.6163 62.7787 63.7378 54.3337C60.5549 58.5562 56.8419 60.1394 52.5988 59.0844C50.1779 58.4813 48.4467 56.7334 46.5322 54.7994C43.4117 51.6482 39.7997 48 31.9122 48V48Z" fill="white"/>
</svg>
