<svg width="95" height="96" viewBox="0 0 95 96" fill="none" xmlns="http://www.w3.org/2000/svg">
<path d="M69.758 26.3683C72.0334 26.9019 74.1014 28.1045 75.7012 29.8243C76.582 30.7509 77.3476 31.7825 77.9812 32.8963C77.9812 33.0192 73.8772 35.8224 71.3768 37.3891C71.2856 37.4506 70.9208 37.0512 70.518 36.4445C70.0616 35.6486 69.413 34.9825 68.6329 34.5084C67.8528 34.0344 66.9665 33.7677 66.0568 33.7335C63.1764 33.5338 61.322 35.0621 61.3372 37.5735C61.3134 38.1987 61.4551 38.8191 61.7476 39.3706C62.3784 40.6992 63.5564 41.4903 67.25 43.1031C74.052 46.0599 76.9628 48.0106 78.7716 50.7831C80.7932 53.8551 81.2416 58.8163 79.8736 62.4874C78.3536 66.481 74.6296 69.192 69.3628 70.0906C66.9573 70.369 64.5268 70.3432 62.1276 70.0138C58.4661 69.4135 55.0884 67.6518 52.4832 64.9834C51.6092 64.008 49.9068 61.4659 50.0132 61.2816C50.2907 61.0735 50.5828 60.8861 50.8872 60.721L54.3832 58.6935L57.1116 57.096L57.6816 57.9485C58.6436 59.339 59.8678 60.5239 61.284 61.4352C64.324 63.048 68.4736 62.8253 70.5256 60.9591C71.2146 60.2752 71.6444 59.3688 71.7402 58.3977C71.836 57.4267 71.5918 56.4524 71.05 55.6445C70.29 54.577 68.77 53.6784 64.5216 51.8045C59.6196 49.6695 57.5068 48.3485 55.5764 46.2442C54.3713 44.8555 53.4816 43.2172 52.9696 41.4442C52.5878 39.4185 52.5313 37.344 52.8024 35.3002C53.8132 30.5155 57.3624 27.1747 62.5456 26.184C64.946 25.8839 67.3775 25.9512 69.758 26.3837V26.3683ZM47.4596 30.3927V34.3248H35.1248V69.8295H26.3772V34.3171H14.012V30.4771C13.9788 29.1552 14.0144 27.8324 14.1184 26.5143C14.164 26.4528 21.7184 26.4221 30.8384 26.4375H47.414L47.4596 30.3927Z" fill="white"/>
</svg>
