<svg width="95" height="96" viewBox="0 0 95 96" fill="none" xmlns="http://www.w3.org/2000/svg">
<path fill-rule="evenodd" clip-rule="evenodd" d="M16 0C7.16344 0 0 7.16345 0 16V80C0 88.8366 7.16344 96 16 96H79C87.8366 96 95 88.8366 95 80V16C95 7.16344 87.8366 0 79 0H16ZM46.0171 16.871L75.1006 79.5638L65.179 79.3782L59.076 65.0915L46.0447 65.0785L46.0171 65.0915H34.1573L28.5818 79.1819L18.2132 79.3767L46.0171 16.871ZM46.0915 36.9123L37.8151 56.7495H46.0164L46.4651 56.7649H55.4819L46.0915 36.9123Z" fill="white"/>
</svg>
