<svg width="95" height="96" viewBox="0 0 95 96" fill="none" xmlns="http://www.w3.org/2000/svg">
<path fill-rule="evenodd" clip-rule="evenodd" d="M16 0C7.16344 0 0 7.16345 0 16V80C0 88.8366 7.16344 96 16 96H79C87.8366 96 95 88.8366 95 80V16C95 7.16344 87.8366 0 79 0H16ZM80.4114 39.1971C83.5647 38.2677 87.3093 38.4669 90.1341 40.1265L91.1852 40.7903L90.594 41.9853C88.229 46.6986 83.2362 48.1591 78.3749 47.8936C71.1485 66.1495 55.3161 74.846 36.1334 74.846C26.2135 74.846 17.1477 71.1284 11.9579 62.2328L11.8922 62.1L11.1695 60.6396C9.3958 56.7228 8.87024 52.6069 9.19872 48.3583L9.3301 47.3625H16.6879V38.0686H25.2281V29.4385H41.6517V21.4722H51.5059V38.0686H60.0461V47.4289H64.4476C66.4185 47.4289 68.455 46.765 70.2944 46.1012C70.9322 45.871 71.6016 45.4493 72.2588 45.0352C72.5493 44.8522 72.8374 44.6707 73.1193 44.5079C71.9368 42.9147 71.3456 40.9231 71.1485 38.9979C70.8857 36.3425 71.4113 32.8905 73.185 30.8326L74.1047 29.7704L75.1558 30.6334C77.7836 32.7577 80.0172 35.7451 80.4114 39.1971ZM33.1115 31.43H26.542V38.7324H33.1115V31.43ZM33.1115 62.8303C34.2283 62.8303 35.148 61.9009 35.148 60.7723C35.148 59.6438 34.2283 58.7808 33.1115 58.7144C31.9947 58.7144 31.0749 59.6438 31.0749 60.7723C31.0749 61.9009 31.9947 62.8303 33.1115 62.8303ZM33.1115 40.0601H26.542V47.3625H33.1115V40.0601ZM25.2281 40.0601H18.0018V47.3625H25.2281V40.0601ZM15.6368 65.1538C20.2354 69.8007 25.8194 73.3192 36.1991 73.3855H38.4327C33.5056 70.9957 30.7465 67.7428 29.2355 64.2244C27.396 64.7555 25.1624 65.0874 22.6004 65.2202C21.6149 65.2865 20.5638 65.2865 19.5127 65.2865C18.3894 65.2865 17.1474 65.2266 15.8433 65.1637L15.6368 65.1538ZM34.4253 47.3625H41.6517V40.0601H34.4253V47.3625ZM34.4253 38.7324H41.6517V31.43H34.4253V38.7324ZM42.9656 47.3625H50.192V40.0601H42.9656V47.3625ZM42.9656 38.7324H50.192V31.43H42.9656V38.7324ZM42.9656 30.1023H50.192V22.7999H42.9656V30.1023ZM51.5059 47.3625H58.7322V40.0601H51.5059V47.3625ZM33.1115 59.3119C33.3085 59.3119 33.5056 59.3782 33.637 59.4446C33.5056 59.511 33.3742 59.7102 33.3085 59.9757C33.3085 60.3076 33.5713 60.5732 33.8998 60.5732C34.1626 60.5732 34.294 60.4404 34.4253 60.2412C34.491 60.374 34.5567 60.5732 34.5567 60.7723C34.5567 61.569 33.8998 62.2328 33.1115 62.2328C32.3231 62.2328 31.6662 61.569 31.6662 60.7723C31.6662 59.9757 32.3231 59.3119 33.1115 59.3119Z" fill="white"/>
</svg>
