<svg width="95" height="96" viewBox="0 0 95 96" fill="none" xmlns="http://www.w3.org/2000/svg">
<path fill-rule="evenodd" clip-rule="evenodd" d="M16 0C7.16344 0 0 7.16345 0 16V80C0 88.8366 7.16344 96 16 96H79C87.8366 96 95 88.8366 95 80V16C95 7.16344 87.8366 0 79 0H16ZM48.0626 75.025C48.0626 82.3114 42.2457 88.1895 35.0351 88.1895C27.8245 88.1895 22.0076 82.3114 22.0076 75.025C22.0076 67.7386 27.8245 61.8605 35.0351 61.8605H48.0626V75.025ZM48.0626 61.8604H35.0351C27.8245 61.8604 22.0076 55.9823 22.0076 48.6959C22.0076 41.4119 27.8207 35.5353 35.0279 35.5314C27.8207 35.5275 22.0076 29.6509 22.0076 22.3669C22.0076 15.0805 27.8245 9.20238 35.0351 9.20238H48.0626H61.0901C68.3006 9.20238 74.1176 15.0805 74.1176 22.3669C74.1176 29.6509 68.3045 35.5275 61.0972 35.5314C68.3045 35.5353 74.1176 41.4119 74.1176 48.6959C74.1176 55.9823 68.3006 61.8604 61.0901 61.8604C53.8853 61.8604 48.072 55.9918 48.0626 48.7136V61.8604ZM48.0626 48.6782C48.072 41.4048 53.8777 35.5391 61.0758 35.5314L48.0626 35.5314V48.6782Z" fill="white"/>
</svg>
