<svg width="95" height="96" viewBox="0 0 95 96" fill="none" xmlns="http://www.w3.org/2000/svg">
<path fill-rule="evenodd" clip-rule="evenodd" d="M16 0C7.16344 0 0 7.16345 0 16V80C0 88.8366 7.16344 96 16 96H79C87.8366 96 95 88.8366 95 80V16C95 7.16344 87.8366 0 79 0H16ZM51.1209 11.3865L83.5919 44.1983C85.4624 46.0879 85.4624 49.1545 83.5925 51.0454L51.2734 83.7048C49.4006 85.5944 46.3688 85.5944 44.4989 83.7048L12.0273 50.893C10.1567 49.0027 10.1567 45.9379 12.0273 44.0465L34.2921 21.5484L42.7244 30.0696C41.8596 32.1628 42.2655 34.6633 43.9516 36.3659C44.503 36.925 45.1381 37.3417 45.8174 37.6227V58.2568C45.1381 58.5378 44.5019 58.9575 43.9516 59.5129C41.7258 61.7622 41.7258 65.4063 43.9516 67.6591C46.1756 69.9077 49.7841 69.9077 52.0105 67.6591C54.2362 65.4057 54.2362 61.7616 52.0105 59.5129C51.558 59.0575 51.046 58.6955 50.5028 58.4247L50.504 37.9799L58.1911 45.748C57.3428 47.8329 57.7569 50.3184 59.4313 52.0116C61.6594 54.262 65.2655 54.262 67.4925 52.0116C69.7194 49.7618 69.7194 46.1165 67.4925 43.8679C65.9006 42.2557 63.5989 41.8068 61.6046 42.5016L53.3614 34.1709C54.0489 32.1551 53.6023 29.8326 52.0099 28.2216C50.4257 26.6207 48.1469 26.1659 46.1585 26.844L37.6054 18.2008L44.3475 11.3865C46.2192 9.49684 49.2521 9.49684 51.1209 11.3865Z" fill="white"/>
</svg>
