<svg width="96" height="96" viewBox="0 0 96 96" fill="none" xmlns="http://www.w3.org/2000/svg">
<path fill-rule="evenodd" clip-rule="evenodd" d="M16 0C7.16345 0 0 7.16345 0 16V80C0 88.8366 7.16345 96 16 96H80C88.8366 96 96 88.8366 96 80V16C96 7.16344 88.8366 0 80 0H16ZM76.125 61.6153C84.5844 65.0455 87.4402 68.7241 88.1434 73.1037C88.819 76.8728 87.9785 79.3176 87.852 79.6842C84.7308 90.3605 67.329 90.7071 60.375 83.6535C60.1651 83.4162 59.9663 83.1952 59.7773 82.9849C58.6434 81.7239 57.8594 80.852 57.1081 79.2095L57.11 79.2084C60.8045 77.0837 60.8051 77.0834 64.3996 75.0032C66.3528 78.0055 68.1595 79.6566 71.408 80.3322C75.816 80.8705 80.2508 79.3552 79.2561 74.6742C78.6636 72.4577 75.725 71.2134 72.2982 69.7625C69.8137 68.7106 67.0727 67.55 64.783 65.8315C59.2531 62.1176 57.9571 53.0931 62.5015 47.9367C64.0161 46.0295 66.5989 44.607 69.3091 43.9222L72.1373 43.5564C77.5667 43.4467 80.9617 44.88 83.4532 47.6629C84.1465 48.3654 84.7117 49.1231 85.7707 50.7649C85.1708 51.1472 84.6957 51.4495 84.2824 51.7124C82.703 52.7173 82.0274 53.1471 78.7439 55.2733C77.8581 53.3661 76.3896 52.1706 74.8382 51.6506C72.4295 50.9206 69.3904 51.7143 68.7607 54.2603C68.5414 55.0448 68.5874 55.7748 68.9341 57.0708C69.7242 58.8734 72.0212 59.8505 74.4264 60.8736C74.9927 61.1145 75.565 61.3579 76.125 61.6153ZM43.2094 44.1216H52.1887C52.1887 46.8609 52.1936 49.5973 52.1986 52.3316C52.2086 57.8405 52.2186 63.3414 52.1879 68.843C52.1906 69.5883 52.2025 70.323 52.2142 71.0461C52.2817 75.2193 52.343 79.0077 50.6005 82.2202C49.1864 85.0952 46.4854 86.9839 43.3551 87.8958C38.5453 89 33.9463 88.3704 30.5246 86.3168C28.2339 84.9119 26.4456 82.7493 25.2316 80.2578L32.5322 75.7869C32.5902 75.8111 32.7512 76.0942 32.969 76.477C32.9932 76.5196 33.0182 76.5634 33.0437 76.6083C33.9739 78.1681 34.7769 79.2716 36.3558 80.0477C37.9072 80.5768 41.3114 80.915 42.625 78.1865C43.2656 77.0797 43.2326 73.9751 43.193 70.2578C43.183 69.3157 43.1726 68.3343 43.1726 67.3361L43.2094 44.1216Z" fill="white"/>
</svg>
