<svg width="95" height="96" viewBox="0 0 95 96" fill="none" xmlns="http://www.w3.org/2000/svg">
<path fill-rule="evenodd" clip-rule="evenodd" d="M16 0C7.16344 0 0 7.16345 0 16V80C0 88.8366 7.16344 96 16 96H79C87.8366 96 95 88.8366 95 80V16C95 7.16344 87.8366 0 79 0H16ZM61.9705 35.1457C62.9377 37.9622 63.6331 40.8371 63.8616 43.8186C64.1464 47.5164 64.0161 51.1887 63.2416 54.8243C63.2273 54.8913 63.2023 54.9567 63.1773 55.0221C63.1654 55.0532 63.1535 55.0843 63.1427 55.1156C63.0276 55.5293 62.92 55.9457 62.8124 56.3622C62.5698 57.3016 62.3272 58.2409 61.9977 59.1482C61.4579 60.634 60.8056 62.0842 60.1127 63.5058C59.0775 65.6314 57.7879 67.6132 56.289 69.4288C55.134 70.8286 53.8463 72.1233 52.5554 73.4017C52.0636 73.8888 51.5114 74.314 50.9591 74.7392C50.7104 74.9307 50.4616 75.1223 50.2184 75.3194L49.5841 76.4522L49.3623 77.1848L49.0566 80.549L49.0634 82.7574L49.2153 85L48.3297 84.6527L47.4798 84.3521C47.4497 84.3122 47.4119 84.2728 47.3742 84.2335C47.293 84.1488 47.2119 84.0641 47.2068 83.9749C47.1842 83.599 47.1891 83.2222 47.1941 82.8456C47.1959 82.7095 47.1977 82.5735 47.1982 82.4375L46.9968 79.9148L46.5744 77.4973L46.1186 75.9406L46.6287 74.1387C46.6427 74.0686 46.6567 73.9985 46.6707 73.9285C46.7742 73.4102 46.8773 72.8936 46.9709 72.3733C46.8691 72.9358 46.7215 73.494 46.5731 74.0547L46.5509 74.1387C46.4952 74.3503 46.4419 74.5619 46.3886 74.7734C46.2905 75.1625 46.1925 75.5516 46.0797 75.9406C45.8896 75.7759 45.7002 75.6126 45.5114 75.4499C44.6891 74.741 43.8792 74.0428 43.0861 73.2891C37.8394 68.301 34.0014 62.4297 32.1103 55.3514C31.5896 53.4033 31.2425 51.424 31.1307 49.4104C31.12 49.2181 31.1087 49.0256 31.0973 48.833C31.0255 47.6142 30.9534 46.389 31.0387 45.1792C31.3018 41.4509 31.8367 37.7599 32.9212 34.1697L32.9805 34.0863L34.9507 28.7229C35.9328 26.9023 36.9148 25.0817 37.898 23.2611C39.1123 21.6509 40.3271 20.0401 41.5426 18.4293C41.9027 18.0739 42.2594 17.7147 42.6161 17.3555C43.4334 16.5325 44.2507 15.7094 45.1094 14.9325C46.2063 13.941 47.087 12.8785 47.1272 11.3118C47.1283 11.2713 47.1416 11.231 47.164 11.1628C47.1778 11.1211 47.1949 11.069 47.2149 11L47.5268 11.7923C47.6806 12.0926 47.8333 12.3934 47.986 12.6942C48.322 13.3561 48.658 14.0179 49.0054 14.6735C49.6374 15.8666 50.5669 16.8106 51.4948 17.7529C51.7393 18.0013 51.9837 18.2495 52.2225 18.5021C56.7516 23.291 59.9669 28.8567 61.9705 35.1457Z" fill="white"/>
</svg>
