<svg width="96" height="96" viewBox="0 0 96 96" fill="none" xmlns="http://www.w3.org/2000/svg">
<path fill-rule="evenodd" clip-rule="evenodd" d="M16 0C7.16345 0 0 7.16345 0 16V80C0 88.8366 7.16345 96 16 96H80C88.8366 96 96 88.8366 96 80V16C96 7.16344 88.8366 0 80 0H16ZM52.2355 11.7917C52.6994 11.6185 53.2212 11.503 53.743 11.503C54.4387 11.503 55.1344 11.6185 56.0041 12.1381C56.8738 12.7733 57.9754 13.6394 57.9174 14.9674C57.6946 15.4113 57.1828 15.7845 56.5919 16.2154C55.1844 17.2418 53.3281 18.5956 53.8589 22.0117C53.7703 21.9235 53.7156 21.8016 53.6688 21.6975C53.6544 21.6653 53.6407 21.6348 53.627 21.6075C52.9313 20.5105 52.7573 19.1247 53.3371 17.8544C53.4409 17.5617 53.5601 17.3358 53.6747 17.1184C53.9446 16.6067 54.1895 16.1425 54.1488 14.9674C54.1488 14.9097 54.1343 14.8519 54.1198 14.7942C54.1053 14.7364 54.0908 14.6787 54.0908 14.621C54.0908 14.5632 54.0763 14.5055 54.0619 14.4477C54.0474 14.39 54.0329 14.3323 54.0329 14.2745C53.743 13.2929 53.2212 12.4268 52.2355 11.7917ZM59.8017 12.9176C59.8017 12.8599 59.8017 12.7733 59.8307 12.5423C59.9047 12.5718 59.9786 12.6003 60.053 12.629C60.5612 12.825 61.0864 13.0275 61.744 13.5816C61.9179 13.6394 62.0339 13.6971 62.1498 13.7549C63.0775 14.3323 63.9472 14.9097 64.8168 15.6025C64.9908 15.718 65.1647 15.8912 65.3386 16.0645C65.4836 16.2377 65.6286 16.3965 65.7735 16.5553C65.9184 16.7141 66.0634 16.8729 66.2083 17.0461C66.3243 17.2193 66.4547 17.3925 66.5852 17.5657C66.7156 17.7389 66.8461 17.9122 66.962 18.0854C67.078 18.2875 67.1795 18.4751 67.2809 18.6628C67.3824 18.8504 67.4838 19.0381 67.5998 19.2402C67.7737 19.5866 67.9477 19.9908 68.1216 20.395C68.1796 20.5971 68.252 20.7992 68.3245 21.0013C68.397 21.2034 68.4695 21.4055 68.5274 21.6075C68.6434 22.0117 68.7594 22.4159 68.8173 22.8778C68.8753 23.282 68.9333 23.6862 68.9913 24.1481C69.0492 24.4368 69.0492 24.7833 69.0492 25.072C69.0492 25.4762 69.0492 25.8803 68.9913 26.3423C68.9913 26.5965 68.9454 26.8507 68.8969 27.1193C68.8683 27.2777 68.8388 27.4412 68.8173 27.6126L68.4695 28.8251C68.3535 29.2293 68.1796 29.6335 68.0056 30.0377C67.8317 30.4418 67.6578 30.7883 67.4259 31.1925C67.3389 31.3368 67.2374 31.4956 67.136 31.6544C67.0345 31.8132 66.933 31.972 66.8461 32.1163C66.8171 32.1452 66.8026 32.174 66.7881 32.2029C66.7736 32.2318 66.7591 32.2607 66.7301 32.2895C66.4982 32.636 66.2083 32.9824 65.9185 33.3288L65.9184 33.3289C65.8238 33.423 65.7293 33.5234 65.6327 33.6258C65.4332 33.8375 65.2251 34.0582 64.9908 34.2527C64.7009 34.5414 64.3531 34.8301 64.0052 35.1187L64.0051 35.1188C63.8312 35.2343 63.6427 35.3642 63.4543 35.4942C63.2659 35.6241 63.0775 35.754 62.9035 35.8694C62.7933 35.9322 62.6874 35.9949 62.5834 36.0565C62.3045 36.2216 62.0396 36.3784 61.744 36.5046L60.5264 37.0242C60.2315 37.1711 59.8531 37.2765 59.4975 37.3755C59.4337 37.3933 59.3706 37.4109 59.3089 37.4284C58.903 37.5439 58.4972 37.6594 58.0334 37.7171C57.7666 37.793 57.4748 37.819 57.1909 37.8444C57.0428 37.8576 56.8969 37.8706 56.7578 37.8903C57.1637 38.0636 57.5695 38.1791 58.0334 38.2368L58.034 38.2369C58.4396 38.2946 58.8453 38.3523 59.3089 38.41C59.505 38.41 59.7012 38.4235 59.9039 38.4374C60.1206 38.4523 60.3448 38.4678 60.5844 38.4678C60.7294 38.4678 60.8888 38.4533 61.0482 38.4389C61.2077 38.4244 61.3671 38.41 61.5121 38.41L61.5127 38.4099C61.9183 38.3522 62.324 38.2945 62.7876 38.2368C63.1934 38.1791 63.6573 38.0636 64.0631 37.9481C64.469 37.8326 64.8748 37.7171 65.2807 37.5439L66.4982 37.0242C66.9041 36.851 67.3099 36.6201 67.6578 36.3891C68.0636 36.1581 68.4115 35.9272 68.7594 35.6385C68.9333 35.4652 69.0492 35.3498 69.2232 35.2343C69.4551 35.1188 69.629 34.9456 69.803 34.7724C70.1508 34.4259 70.4407 34.1372 70.7306 33.7908L70.7307 33.7906C71.0206 33.4442 71.3104 33.0978 71.5423 32.7514C71.6583 32.5782 71.7742 32.3906 71.8902 32.2029C72.0061 32.0153 72.1221 31.8276 72.2381 31.6544C72.47 31.3079 72.6439 30.9038 72.8178 30.4996C72.9918 30.0954 73.1657 29.6912 73.2817 29.287C73.3396 29.085 73.3976 28.8685 73.4556 28.652C73.5136 28.4355 73.5715 28.2189 73.6295 28.0167L73.6297 28.0156C73.6876 27.6118 73.7456 27.2079 73.8035 26.7464C73.8615 26.5155 73.8615 26.2845 73.8615 26.0536C73.8615 26.0824 73.8759 26.0969 73.8904 26.1113C73.9049 26.1257 73.9194 26.1402 73.9194 26.169C79.2534 31.4234 91.9507 51.3439 78.0939 70.5714C78.3838 67.5112 78.1518 64.3932 77.5141 61.3907C76.5864 67.4534 73.7455 73.1697 69.4551 77.6158C67.8897 79.1748 66.2083 80.6183 64.353 81.8308C66.962 78.1354 68.7014 73.9204 69.5131 69.5321C65.6285 76.5187 59.135 81.7153 51.4238 83.9672C49.2786 84.6023 47.0755 84.9488 44.8723 85.122C49.6265 82.9279 53.685 79.5789 56.7578 75.4216C54.9605 76.1722 53.1052 76.8074 51.1919 77.2693C51.1339 77.2982 51.076 77.3126 51.018 77.3271C50.96 77.3415 50.902 77.3559 50.8441 77.3848C50.7861 77.3848 50.7136 77.3992 50.6411 77.4137C50.5687 77.4281 50.4962 77.4425 50.4382 77.4425C50.3802 77.4425 50.3367 77.457 50.2933 77.4714C50.2498 77.4858 50.2063 77.5003 50.1483 77.5003C50.0324 77.558 49.8584 77.6158 49.7425 77.6158C49.6612 77.6337 49.5814 77.6517 49.5026 77.6695C49.0749 77.7658 48.6756 77.8557 48.235 77.9045C48.0901 77.9333 47.9596 77.9478 47.8292 77.9622C47.6987 77.9766 47.5683 77.9911 47.4233 78.0199L47.3654 77.9045C47.4233 77.8467 47.4958 77.8034 47.5683 77.7601C47.6407 77.7168 47.7132 77.6735 47.7712 77.6158C47.7712 77.5801 47.7933 77.5664 47.8239 77.5476C47.8429 77.536 47.865 77.5223 47.8872 77.5003C47.9741 77.4425 48.0466 77.3848 48.119 77.3271C48.1915 77.2693 48.264 77.2116 48.351 77.1538C50.6701 75.4216 52.5254 73.2275 53.743 70.7446C53.8009 70.7446 53.8009 70.6869 53.8009 70.6869C53.8009 70.6869 53.8589 70.6292 53.8589 70.5714C53.8879 70.4848 53.9314 70.3982 53.9749 70.3116C54.0184 70.225 54.0619 70.1384 54.0908 70.0518C54.1253 69.9144 54.1803 69.7974 54.2315 69.6887C54.2663 69.6147 54.2993 69.5445 54.3228 69.4743C54.4164 69.3345 54.4722 69.157 54.5208 69.0026C54.5323 68.9658 54.5435 68.9303 54.5547 68.8969C54.6706 68.666 54.7286 68.4928 54.7866 68.3195C54.8156 68.2329 54.8446 68.1319 54.8735 68.0308C54.9025 67.9298 54.9315 67.8288 54.9605 67.7421V67.6844L55.1344 67.1647V67.107C55.1634 67.0204 55.1779 66.9338 55.1924 66.8472C55.2069 66.7606 55.2214 66.6739 55.2504 66.5873V66.5296C55.2794 66.443 55.2939 66.3564 55.3084 66.2698C55.3229 66.1832 55.3374 66.0965 55.3664 66.0099V65.9522C55.3953 65.8656 55.4098 65.779 55.4243 65.6924C55.4388 65.6057 55.4533 65.5191 55.4823 65.4325C55.4823 65.3088 55.499 65.2016 55.5144 65.1021C55.5278 65.0159 55.5403 64.9355 55.5403 64.8551V64.6819C55.5403 64.5953 55.5548 64.5231 55.5693 64.4509C55.5838 64.3788 55.5983 64.3066 55.5983 64.22V64.0468V63.6426V63.4116V63.0074V62.7187V62.3723V62.0836V61.7949C55.5983 61.6794 55.5838 61.5784 55.5693 61.4773C55.5548 61.3763 55.5403 61.2752 55.5403 61.1597C55.5403 61.0731 55.5258 60.9865 55.5113 60.8999C55.4968 60.8133 55.4823 60.7267 55.4823 60.6401V60.5823C55.4823 60.4091 55.4823 60.2359 55.4243 60.0627C55.3664 59.6585 55.3084 59.312 55.2504 58.9656C55.2214 58.879 55.2069 58.7924 55.1924 58.7058C55.1779 58.6192 55.1634 58.5325 55.1344 58.4459C53.8589 66.876 46.9015 73.343 38.4367 73.9204C36.8133 74.0359 35.1899 73.9204 33.6245 73.5739C33.4539 73.523 33.218 73.457 32.9391 73.379C32.27 73.1918 31.3529 72.9353 30.4937 72.6501C29.566 72.3036 28.6963 71.8995 27.8846 71.3798L27.9426 71.3221C28.2905 71.0911 29.45 70.8601 30.6096 70.6292C27.5947 68.666 24.9277 61.8526 29.3921 58.9656L29.7399 58.7924C29.9139 58.7346 30.0298 58.6769 30.1458 58.6192C30.2038 58.5903 30.2762 58.5759 30.3487 58.5614C30.4212 58.547 30.4937 58.5325 30.5516 58.5037C30.6096 58.5037 30.6821 58.4892 30.7546 58.4748C30.827 58.4604 30.8995 58.4459 30.9575 58.4459C31.0734 58.3882 31.1894 58.3882 31.3633 58.3882H31.6532C31.7112 58.3882 31.7837 58.4026 31.8561 58.4171C31.9286 58.4315 32.0011 58.4459 32.0591 58.4459C32.175 58.4459 32.349 58.4459 32.4649 58.5037C32.5229 58.5325 32.5954 58.547 32.6678 58.5614C32.7403 58.5759 32.8128 58.5903 32.8708 58.6192C32.8998 58.6192 32.9287 58.6336 32.9577 58.648C32.9867 58.6625 33.0157 58.6769 33.0447 58.6769C33.0737 58.6769 33.1172 58.6913 33.1607 58.7058C33.2041 58.7202 33.2476 58.7346 33.2766 58.7346L33.6245 58.9079C34.2622 59.312 34.2622 60.0627 33.9144 60.9865C33.8258 61.0747 33.771 61.1967 33.7243 61.3008C33.7098 61.333 33.6961 61.3634 33.6825 61.3907C33.6535 61.4484 33.639 61.5206 33.6245 61.5928C33.61 61.665 33.5955 61.7371 33.5665 61.7949C33.5085 61.9104 33.4506 62.0836 33.4506 62.1991V62.4878V62.8919C33.4506 63.0074 33.5085 63.1806 33.5665 63.2961C33.5955 63.3539 33.6245 63.4261 33.6535 63.4982C33.6825 63.5704 33.7115 63.6426 33.7404 63.7003C33.7694 63.7292 33.7984 63.7725 33.8274 63.8158C33.8564 63.8591 33.8854 63.9024 33.9144 63.9313C34.842 65.2593 36.6973 66.1254 38.4947 66.0099C39.6542 64.6242 40.4659 62.9497 40.8718 61.2175C41.1037 62.4878 41.1617 63.7581 41.0457 65.0283C42.6111 63.9313 43.5968 62.0836 44.1765 60.6978C45.3941 60.4091 47.9451 61.5639 48.1771 63.6426C46.8435 50.42 34.4362 41.0661 20.8693 44.1841C19.8256 45.8008 18.7241 47.302 18.4921 46.8401C18.3182 46.3782 18.3762 44.8192 18.4921 43.4912C17.6804 44.8192 16.8108 46.0317 16.6368 45.6276C16.5209 45.2811 16.5209 44.2995 16.5789 43.2602C16.5499 43.2602 16.5064 43.2458 16.4629 43.2313C16.4194 43.2169 16.3759 43.2025 16.3469 43.2025C16.3469 43.1447 16.289 43.1447 16.289 43.1447C16.115 43.1447 15.9991 43.087 15.8831 43.0292C15.7618 42.989 15.6406 42.9207 15.5389 42.8634C15.4948 42.8385 15.4544 42.8158 15.4193 42.7983C15.3919 42.7847 15.3613 42.771 15.329 42.7566C15.2244 42.7101 15.102 42.6555 15.0134 42.5673C14.9555 42.5096 14.8975 42.4663 14.8395 42.423C14.7815 42.3797 14.7235 42.3364 14.6656 42.2786H14.6076L14.2597 41.9322L13.9119 41.5857C13.8539 41.528 13.8104 41.4558 13.7669 41.3836C13.7234 41.3115 13.6799 41.2393 13.622 41.1816C13.6004 41.1386 13.5708 41.0956 13.5391 41.0496C13.4857 40.9721 13.4264 40.8861 13.39 40.7774C13.39 40.7485 13.3756 40.7341 13.3611 40.7196C13.3466 40.7052 13.3321 40.6908 13.3321 40.6619L13.1581 40.3154C13.1002 40.2 13.0422 40.0267 12.9842 39.8535C12.9721 39.8174 12.96 39.7837 12.9484 39.7516C12.9045 39.6296 12.8682 39.5287 12.8682 39.3916V39.2761H12.8103C12.7523 39.2472 12.7088 39.2184 12.6653 39.1895C12.6218 39.1606 12.5784 39.1318 12.5204 39.1029C11.9875 38.7845 11.8464 38.6612 11.4671 38.3296C11.4336 38.3003 11.3984 38.2695 11.3608 38.2368C11.2448 38.1791 11.1289 38.0636 11.0129 37.9481C10.897 37.8903 10.781 37.7749 10.6651 37.6594C10.6361 37.6016 10.5926 37.5439 10.5491 37.4862C10.5056 37.4284 10.4621 37.3707 10.4332 37.3129C10.3172 37.1975 10.2592 37.082 10.2012 36.9665C10.1722 36.9088 10.1578 36.851 10.1433 36.7933C10.1288 36.7355 10.1143 36.6778 10.0853 36.6201C10.0853 36.5623 10.0708 36.5046 10.0563 36.4468C10.0418 36.3891 10.0273 36.3314 10.0273 36.2736V36.0427C10.0273 35.9272 10.0273 35.8117 9.96932 35.8694C9.96932 35.754 9.96932 35.523 10.0273 35.3498V35.292C10.0563 35.2054 10.0708 35.1332 10.0853 35.0611C10.0998 34.9889 10.1143 34.9167 10.1433 34.8301L10.3172 34.3104C10.3462 34.2238 10.3897 34.1372 10.4332 34.0506C10.4766 33.964 10.5201 33.8774 10.5491 33.7908C10.5948 33.7225 10.6316 33.6541 10.6664 33.5893C10.7198 33.4899 10.7688 33.3988 10.839 33.3289C10.8797 33.2073 10.9489 33.1142 11.0266 33.0097C11.0597 32.9652 11.0943 32.9186 11.1289 32.8669C11.2448 32.6937 11.3608 32.5782 11.4768 32.4627C11.5347 32.405 11.6072 32.3473 11.6797 32.2895C11.7522 32.2318 11.8246 32.174 11.8826 32.1163C11.9406 32.0586 12.0131 32.0008 12.0855 31.9431C12.158 31.8853 12.2305 31.8276 12.2885 31.7699C12.3464 31.7121 12.4189 31.6688 12.4914 31.6255C12.5639 31.5822 12.6363 31.5389 12.6943 31.4812C12.8682 31.3657 12.9842 31.3079 13.1581 31.2502C13.2451 31.2213 13.3176 31.1925 13.39 31.1636C13.4625 31.1347 13.535 31.1059 13.622 31.077C13.6847 31.0457 13.7645 31.0314 13.8521 31.0156C13.9262 31.0023 14.006 30.988 14.0858 30.9615C14.1112 30.9615 14.1365 30.9603 14.1614 30.9591C14.3068 30.952 14.4337 30.9459 14.4337 31.1925C14.8472 31.1581 15.3018 31.0218 15.773 30.8805C16.0944 30.784 16.4236 30.6853 16.7528 30.6151C17.1586 30.4996 17.5644 30.3264 17.9703 30.1532L17.9703 30.1531L17.9704 30.1531C18.3762 29.9799 18.7821 29.8067 19.1879 29.5757C19.5937 29.3448 19.9416 29.1138 20.3474 28.8251C20.7533 28.5364 21.1012 28.2477 21.449 27.959C21.7969 27.6703 22.1448 27.3816 22.4347 27.0351L22.4926 26.9774L22.9565 26.5155C22.9565 26.4866 22.971 26.4722 22.9855 26.4577C23 26.4433 23.0145 26.4289 23.0145 26.4L23.3623 26.0536C23.3623 26.0179 23.3845 26.0042 23.4151 25.9854C23.434 25.9738 23.4561 25.9601 23.4783 25.9381L23.7682 25.6494C23.8261 25.6494 23.8261 25.5916 23.8261 25.5916L24.174 25.2452L24.232 25.1875L24.5799 24.841C24.5799 24.841 24.6378 24.841 24.6378 24.7833C24.6958 24.7544 24.7393 24.7111 24.7828 24.6678C24.8263 24.6245 24.8698 24.5812 24.9277 24.5523C24.9567 24.5523 24.9712 24.5379 24.9857 24.5234C25.0002 24.509 25.0147 24.4946 25.0437 24.4946C25.1017 24.4657 25.1452 24.4224 25.1886 24.3791C25.2321 24.3358 25.2756 24.2925 25.3336 24.2636L25.3916 24.2059C25.5075 24.0904 25.6235 23.9749 25.7394 23.9172C25.7394 23.8594 25.7974 23.8594 25.7974 23.8594C25.8554 23.8017 25.9279 23.7584 26.0003 23.7151C26.0728 23.6718 26.1453 23.6285 26.2033 23.5707C26.2735 23.5008 26.365 23.452 26.4648 23.3988C26.5299 23.3641 26.5985 23.3276 26.6671 23.282C26.7541 23.2243 26.841 23.181 26.928 23.1377C27.015 23.0944 27.1019 23.0511 27.1889 22.9933C27.2179 22.9645 27.2469 22.95 27.2759 22.9356C27.3048 22.9211 27.3338 22.9067 27.3628 22.8778C27.4208 22.849 27.4933 22.8201 27.5658 22.7912C27.6382 22.7624 27.7107 22.7335 27.7687 22.7046C27.881 22.6673 27.9933 22.606 28.1212 22.5361C28.1914 22.4977 28.2663 22.4568 28.3485 22.4159C28.3485 22.4159 28.4064 22.3582 28.4644 22.3582C28.5514 22.3004 28.6383 22.2571 28.7253 22.2138C28.8123 22.1705 28.8993 22.1272 28.9862 22.0695C29.0195 22.0363 29.0337 22.0222 29.0507 22.0162C29.0633 22.0117 29.0775 22.0117 29.1022 22.0117C29.2181 21.954 29.3196 21.9107 29.4211 21.8674C29.5225 21.8241 29.624 21.7808 29.7399 21.723C29.9718 21.6076 30.2617 21.4921 30.5516 21.3766L30.5516 21.3766C30.6966 21.3477 30.8415 21.3044 30.9865 21.2611C31.1314 21.2178 31.2764 21.1745 31.4213 21.1456C32.0011 20.9724 32.5809 20.8569 33.1607 20.7414L34.0303 20.5682C35.1899 20.395 36.3495 20.2218 37.509 20.164L37.5091 20.164C38.3208 20.1063 39.1325 20.0486 40.0021 20.0486C41.1617 20.0486 42.2633 20.1063 43.4228 20.2218H43.5388C44.6983 20.3373 45.8579 20.5105 47.0175 20.7414C47.2204 20.7992 47.4233 20.8425 47.6262 20.8858C47.8292 20.9291 48.0321 20.9724 48.235 21.0301C48.9887 21.2034 49.6845 21.3766 50.4382 21.6075L54.8446 23.282C54.8446 23.1975 54.8135 23.1439 54.7741 23.0759C54.7597 23.0511 54.7441 23.0243 54.7286 22.9933C54.6996 22.9067 54.6706 22.8345 54.6416 22.7624C54.6126 22.6902 54.5837 22.618 54.5547 22.5314C54.5426 22.4952 54.5305 22.4616 54.5189 22.4294C54.475 22.3075 54.4387 22.2065 54.4387 22.0695C54.3807 21.8963 54.3807 21.7808 54.3807 21.6075V21.2611V20.7992C54.4387 20.7414 54.4387 20.626 54.4387 20.5682C54.4967 20.5105 54.4967 20.395 54.4967 20.3373C54.4967 20.2218 54.5547 20.0486 54.6126 19.8753C54.6416 19.7887 54.6706 19.7166 54.6996 19.6444C54.7286 19.5722 54.7576 19.5 54.7866 19.4134C54.9025 19.2402 54.9605 19.1247 55.0185 18.9515C55.0765 18.8937 55.12 18.8216 55.1634 18.7494C55.2069 18.6772 55.2504 18.605 55.3084 18.5473C55.3664 18.3741 55.4823 18.2586 55.5983 18.1431L55.9461 17.7967C56.0041 17.7389 56.0621 17.6956 56.1201 17.6523C56.1781 17.609 56.236 17.5657 56.294 17.508C56.352 17.4502 56.4245 17.4069 56.4969 17.3636C56.5694 17.3203 56.6419 17.277 56.6999 17.2193C56.9028 17.0749 57.1202 16.945 57.3376 16.8151C57.555 16.6852 57.7725 16.5553 57.9754 16.4109C58.0913 16.3532 58.2073 16.2377 58.3233 16.1222L58.6711 15.7758C58.7291 15.718 58.7726 15.6459 58.8161 15.5737C58.8596 15.5015 58.903 15.4293 58.961 15.3716C58.99 15.3427 59.0045 15.3138 59.019 15.285C59.0335 15.2561 59.048 15.2272 59.077 15.1984C59.106 15.1695 59.135 15.1262 59.1639 15.0829C59.1929 15.0396 59.2219 14.9963 59.2509 14.9674C59.3089 14.7942 59.3669 14.6787 59.4248 14.5632C59.4538 14.4766 59.4828 14.4044 59.5118 14.3323C59.5408 14.2601 59.5698 14.1879 59.5988 14.1013C59.6278 14.0147 59.6423 13.9425 59.6568 13.8703C59.6712 13.7982 59.6857 13.726 59.7147 13.6394C59.7727 13.4661 59.7727 13.2929 59.7727 13.1197C59.8017 13.0042 59.8017 12.9754 59.8017 12.9176Z" fill="white"/>
</svg>
