<svg width="96" height="96" viewBox="0 0 96 96" fill="none" xmlns="http://www.w3.org/2000/svg">
<path fill-rule="evenodd" clip-rule="evenodd" d="M16 0C7.16344 0 0 7.16345 0 16V80C0 88.8366 7.16345 96 16 96H80C88.8366 96 96 88.8366 96 80V16C96 7.16344 88.8366 0 80 0H16ZM51.2298 9.96334L79.3577 26.3643C81.1877 27.427 82.0552 29.4095 82.0552 31.5354V64.2939C82.0552 66.4198 81.1877 68.4004 79.357 69.4714L51.3643 85.8576C50.4605 86.3829 49.4348 86.6557 48.3874 86.6557C47.3541 86.6557 46.3271 86.3829 45.4233 85.8576L35.9841 80.2504C34.5764 79.458 35.2595 79.1768 35.7226 79.0148C37.605 78.3595 37.9749 78.2077 39.9816 77.0656C40.1902 76.9484 40.4486 76.9939 40.6661 77.1207L47.8784 81.4437C48.1425 81.5891 48.4416 81.5891 48.6828 81.4437L76.8037 65.0612C77.0042 64.9472 76.9858 64.7449 76.9651 64.5175C76.9585 64.4449 76.9517 64.3696 76.9517 64.2939V31.5354C76.9517 31.4677 76.9559 31.4008 76.9601 31.3358C76.9754 31.0955 76.989 30.8822 76.7781 30.7546L48.7874 14.3856C48.5233 14.2351 48.1342 14.2351 47.8695 14.3856L19.533 30.7584C19.2606 30.9167 18.9066 31.2267 18.9066 31.5354V64.2939C18.9066 64.6065 19.0973 64.903 19.3678 65.0504L27.1287 69.5425C31.3297 71.6518 33.5775 69.1684 33.5775 66.6728V34.332C33.5775 33.876 34.5942 33.1963 35.0484 33.1963H38.6351C39.0816 33.1963 39.3183 33.876 39.3183 34.3327V66.6735C39.3183 72.3032 36.282 75.5309 30.9667 75.5309C29.3331 75.5309 28.0644 75.5309 24.4745 73.7553L16.9637 69.4714C15.133 68.4081 13.8037 66.4198 13.8037 64.2939V31.5354C13.8037 29.4095 15.0992 27.4219 16.9299 26.3643L45.3582 9.96334C47.1461 8.94873 49.4559 8.94873 51.2298 9.96334ZM47.4447 53.2958C47.9939 57.0308 49.6415 59.103 57.1211 59.103C63.073 59.103 65.6104 57.7508 65.6104 54.5769C65.6104 52.7494 64.8909 51.3915 55.6387 50.4807C47.9046 49.7126 43.1225 47.996 43.1225 41.7841C43.1225 36.057 47.9288 32.6404 55.9857 32.6404C65.0434 32.6404 69.5218 35.795 70.0901 42.5642C70.1105 42.7987 70.0295 43.0171 69.8764 43.1913C69.7183 43.3534 69.5027 43.445 69.2769 43.445H65.6066C65.2271 43.445 64.8909 43.1798 64.8156 42.8102C63.9347 38.8792 61.7941 37.6276 55.9863 37.6276C49.4865 37.6276 48.7312 39.8983 48.7312 41.6009C48.7312 43.666 49.623 44.2546 58.4013 45.4198C67.0858 46.574 71.2109 48.183 71.2109 54.3143C71.2109 60.498 66.0767 63.9922 57.1217 63.9922C44.751 63.9922 42.1619 58.1979 42.1619 53.4156C42.1619 52.9634 42.5255 52.4125 42.9777 52.4125H46.6333C47.0409 52.4125 47.3809 52.8936 47.4447 53.2958Z" fill="white"/>
</svg>
