<svg width="95" height="96" viewBox="0 0 95 96" fill="none" xmlns="http://www.w3.org/2000/svg">
<path fill-rule="evenodd" clip-rule="evenodd" d="M16 0C7.16344 0 0 7.16345 0 16V80C0 88.8366 7.16344 96 16 96H79C87.8366 96 95 88.8366 95 80V16C95 7.16344 87.8366 0 79 0H16ZM47.7428 79.2602C48.4201 80.9622 50.0755 85.122 55.2991 85.122C56.0657 85.1214 56.9092 85.032 57.8376 84.8322C63.3012 83.654 65.6741 81.226 66.5918 75.8729C67.091 72.9626 67.9503 65.9843 68.3446 62.3207C69.1912 62.6054 70.3065 62.7342 71.5159 62.7342C73.9478 62.7342 76.7586 62.2134 78.5197 61.39C80.4852 60.4722 84.0353 58.2274 83.4026 56.3031C83.0809 55.3246 82.0286 55.0138 80.2739 55.3776C74.754 56.5235 72.8529 55.6747 72.2549 55.1923C76.4276 48.8157 79.8591 41.0924 81.7081 33.891C83.5771 26.6135 83.5727 21.0568 81.6961 18.6448C77.7296 13.547 71.9062 10.8133 64.8567 10.738C60.142 10.6837 56.3355 11.832 55.294 12.2156L55.2807 12.22L55.294 12.2162C55.2126 12.2462 55.1482 12.2716 55.1015 12.2913C53.4209 11.8683 51.5861 11.6103 49.5893 11.5773C45.9366 11.5172 42.7817 12.3963 40.1754 14.196C37.6086 13.2247 25.4268 9.06268 17.9121 14.4176C13.7394 17.39 11.8139 22.7112 12.1877 30.2325C12.314 32.7696 13.7521 40.5756 16.0216 48.0541C19.0031 57.8789 22.2353 63.437 25.6287 64.5756C26.0209 64.7065 26.4734 64.799 26.9715 64.799C28.1996 64.799 29.7062 64.2412 31.2782 62.3398C33.9626 59.0918 36.468 56.3762 37.3443 55.4394C38.7151 56.1908 40.2278 56.6021 41.7731 56.6311C41.7771 56.7075 41.7826 56.7836 41.7897 56.8595C41.4803 57.2271 41.2287 57.548 41.0136 57.8225L41.0059 57.8324C39.9441 59.1887 39.7226 59.4708 36.3248 60.1748C35.3843 60.3695 32.8857 60.8877 32.8495 62.6155C32.8178 64.1556 34.9051 65.0933 36.1433 65.4047C37.3383 65.7054 38.5086 65.8579 39.6204 65.8579C42.3795 65.8579 44.7859 64.9215 46.6864 63.1285C46.6276 70.0492 46.9126 77.1718 47.7425 79.2595L47.7428 79.2602ZM48.7358 58.8719C48.7693 58.978 48.786 59.0915 48.7827 59.2091C48.5282 68.3624 48.8893 76.6573 49.6229 78.5032C50.7678 81.3811 52.5042 83.8985 57.4131 82.8409C62.0732 81.8356 63.8184 80.0587 64.5959 75.5263C65.1865 72.0826 66.349 62.3481 66.5129 60.2615C66.3017 56.0442 68.6308 55.3054 69.8221 54.9672C69.6552 54.7132 69.4178 54.4144 69.1722 54.1062L69.1712 54.1049C68.4725 53.2267 67.5161 52.0245 66.779 50.2268C66.6639 49.9469 66.3043 49.2975 65.8873 48.5445L65.8829 48.5367C63.6115 44.4403 58.8854 35.9162 61.9215 31.5512C63.3266 29.531 66.1247 28.7358 70.2473 29.1794C69.0345 25.4634 63.2593 13.8393 49.5557 13.6134C45.4343 13.5444 42.0543 14.819 39.5145 17.3983C35.4263 21.5506 34.3836 28.1193 34.1216 31.5224C34.3437 31.3949 34.5893 31.2619 34.8607 31.1235C35.871 30.6084 37.8968 29.7098 40.1097 29.4793C43.776 29.0983 46.1927 30.7406 46.9162 34.1042C48.869 43.1854 47.0711 47.202 45.758 50.1355L45.758 50.1355L45.7511 50.1509C45.5093 50.6915 45.2809 51.2023 45.098 51.6973L44.9349 52.1377L44.9332 52.1422C44.5237 53.2467 44.1471 54.2623 43.9455 55.1573C44.2119 55.0741 44.4835 55.0323 44.7597 55.0323C45.3874 55.0323 45.9021 55.2461 46.2422 55.3884C47.3262 55.8403 48.2305 56.933 48.6024 58.2396C48.663 58.4522 48.7074 58.6633 48.7358 58.8719ZM32.0118 33.7556C31.995 32.9995 31.8795 22.2587 38.0757 15.9647C38.1605 15.8786 38.246 15.7938 38.3323 15.7102C34.5956 14.472 24.938 11.9039 19.0786 16.0822C15.5107 18.6263 13.8727 23.3533 14.2097 30.131C14.3157 32.2686 15.6592 39.8869 17.9578 47.4593C20.6195 56.2303 23.6486 61.7647 26.269 62.6436C26.6802 62.7815 27.9317 63.2008 29.7208 61.0371C32.242 57.9867 34.6095 55.3973 35.6526 54.2757C35.3628 54.0306 35.0835 53.7675 34.8163 53.487C32.4275 50.9806 31.3404 47.5078 31.8341 43.9597C32.3704 40.1065 32.1698 36.7051 32.062 34.8778L32.0618 34.8753C32.0323 34.3731 32.0109 34.0089 32.0118 33.7556ZM58.4899 13.4368C62.3987 15.1174 65.2481 17.6668 67.189 19.9392C70.6661 24.0094 72.3708 28.499 72.511 29.9976C72.532 30.221 72.5168 30.4086 72.4779 30.566C72.5352 32.1394 72.3312 33.471 72.1335 34.7618L72.1334 34.7623L72.1327 34.7672C71.9723 35.8143 71.8065 36.8973 71.7666 38.1623C71.7279 39.3584 71.8796 40.6286 72.0401 41.9727C72.4311 45.2426 72.8721 48.9324 70.6084 52.6521C70.6563 52.7125 70.7034 52.7718 70.7498 52.8301L70.7524 52.8335C70.8681 52.9788 70.9807 53.1202 71.0882 53.2595C79.8344 39.4699 82.8466 23.4266 80.1025 19.8996C76.5333 15.3131 71.4937 12.9176 65.1226 12.7791C62.4814 12.722 60.1437 13.0766 58.4899 13.4368ZM69.3131 50.7979C70.7121 47.932 70.3659 45.0325 70.0298 42.2173L70.0296 42.2159C69.8665 40.8551 69.699 39.4478 69.7421 38.0972C69.7864 36.7127 69.9611 35.5696 70.1299 34.4646L70.1318 34.4527L70.1325 34.4481C70.2945 33.39 70.4494 32.3788 70.462 31.2551C66.8909 30.7937 64.5775 31.2856 63.5798 32.7192C61.2709 36.0381 65.7394 44.0985 67.6491 47.5432L67.6504 47.5454C68.1378 48.4237 68.4893 49.0588 68.6505 49.4507C68.8551 49.9497 69.0801 50.3953 69.3131 50.7979ZM72.1702 60.6822C69.869 60.7818 68.7578 60.3931 68.5357 60.1678C68.3973 57.4851 69.4343 57.1922 70.437 56.9094L70.4425 56.9079C70.5684 56.8722 70.7432 56.8228 70.932 56.7479C71.0349 56.8335 71.1485 56.9203 71.2747 57.0039C73.0428 58.1777 76.209 58.3015 80.6851 57.3722L81.0024 57.3134C80.43 57.9038 79.3245 58.7687 77.6687 59.5423C76.374 60.1467 74.2163 60.5941 72.1702 60.6822ZM36.6351 63.4287C35.9542 63.2576 35.3424 62.9404 35.0371 62.7029C35.2814 62.5696 35.7739 62.3679 36.7341 62.17C40.6689 61.3549 41.2749 60.7818 42.5975 59.0929C42.904 58.701 43.2525 58.2562 43.7361 57.713C44.3085 57.069 44.6487 57.069 44.7604 57.069C44.9685 57.069 45.1951 57.1558 45.468 57.2694C45.9712 57.4794 46.4599 58.1081 46.6566 58.7993C46.7506 59.1293 46.8559 59.7567 46.505 60.2507C44.8225 62.62 42.5061 63.8212 39.6211 63.8212C38.6742 63.8212 37.6702 63.6891 36.6351 63.4287ZM34.0826 34.7578L34.0433 34.0308C34.9629 33.1513 39.3399 30.9295 42.277 31.5818C43.7069 31.9003 44.5769 32.866 44.9355 34.535C46.7473 42.9602 45.1744 46.4752 43.9108 49.2988L43.9106 49.2994C43.6516 49.8777 43.4073 50.424 43.1985 50.9882L43.0367 51.4261L43.0345 51.432C42.6165 52.5588 42.2284 53.6049 41.9946 54.5957H41.9515C39.8597 54.5957 37.8244 53.7002 36.2778 52.0778C34.3206 50.0251 33.4321 47.1689 33.8389 44.2424C34.4023 40.1898 34.1945 36.6588 34.0828 34.7601L34.0826 34.7578ZM41.7319 35.0482C40.8104 34.9199 40.104 33.9587 40.1548 33.5987C40.2037 33.2387 40.9906 33.0511 41.9115 33.18C42.833 33.3089 43.5387 33.7059 43.4885 34.0659C43.4384 34.4259 42.6515 35.1778 41.7319 35.0482ZM41.6849 35.3846L41.9432 35.4024C42.9301 35.4024 43.7507 34.6321 43.8217 34.1131C43.8478 33.9261 43.8052 33.5642 43.2277 33.24C42.8945 33.053 42.4433 32.9119 41.9572 32.8443C41.749 32.8149 41.5421 32.8002 41.3435 32.8002C40.4544 32.8002 39.8845 33.0817 39.8204 33.5515C39.7753 33.8719 40.0019 34.2306 40.1408 34.4157C40.5362 34.9429 41.1137 35.3048 41.6849 35.3846ZM41.7782 34.7125C41.0661 34.6135 40.5191 33.8808 40.4905 33.6587C40.5553 33.5955 40.8288 33.4787 41.3441 33.4787C41.5123 33.4787 41.6875 33.4908 41.8652 33.5164C42.6667 33.6287 43.0894 33.9172 43.1503 34.0334C43.0925 34.2038 42.6013 34.724 41.9438 34.724L41.7782 34.7125ZM64.6612 33.3549C64.7241 33.8049 65.4888 34.498 66.3747 34.498L66.6096 34.4821C67.2106 34.3984 67.6516 34.0149 67.8617 33.7934C68.1796 33.4564 68.3643 33.083 68.3307 32.8411C68.2786 32.4671 67.7582 32.2354 66.9726 32.2354C66.7815 32.2354 66.5829 32.2494 66.3824 32.2775C65.4723 32.4045 64.5882 32.8149 64.6612 33.3549Z" fill="white"/>
</svg>
