<svg width="95" height="96" viewBox="0 0 95 96" fill="none" xmlns="http://www.w3.org/2000/svg">
<path fill-rule="evenodd" clip-rule="evenodd" d="M0 16C0 7.16345 7.16344 0 16 0H79C87.8366 0 95 7.16344 95 16V80C95 88.8366 87.8366 96 79 96H16C7.16344 96 0 88.8366 0 80V16ZM76.6799 35.675C75.2131 35.1372 73.6795 34.5995 72.0793 34.1289C72.4794 32.5156 72.8128 30.9023 73.0795 29.3563C74.4796 20.4831 72.9461 14.2316 68.6789 11.8116C67.4121 11.0722 66.0119 10.7361 64.4117 10.7361C59.7445 10.7361 53.8104 14.2316 47.8096 20.0798C41.8089 14.2316 35.8748 10.7361 31.2075 10.7361C29.6073 10.7361 28.2072 11.0722 26.9403 11.8116C22.6731 14.2988 21.1396 20.5503 22.5398 29.3563C22.8065 30.9023 23.1399 32.5156 23.5399 34.1289C21.9397 34.5995 20.4062 35.07 18.9393 35.675C10.605 38.9016 6.07106 43.3382 6.07106 48.3125C6.07106 53.2868 10.6716 57.7234 18.9393 60.95C20.4062 61.4878 21.9397 62.0255 23.5399 62.4961C23.1399 64.1094 22.8065 65.7227 22.5398 67.2687C21.1396 76.1419 22.6731 82.3934 26.9403 84.8134C28.2072 85.5528 29.6073 85.8889 31.2075 85.8889C35.9415 85.8889 41.8755 82.3934 47.8096 76.5452C53.8104 82.3934 59.7445 85.8889 64.4117 85.8889C66.0119 85.8889 67.4121 85.5528 68.6789 84.8134C72.9461 82.3262 74.4796 76.0747 73.0795 67.2687C72.8128 65.7227 72.4794 64.1094 72.0793 62.4961C73.6795 62.0255 75.2131 61.555 76.6799 60.95C85.0143 57.7234 89.5482 53.2868 89.5482 48.3125C89.5482 43.3382 85.0143 38.9016 76.6799 35.675ZM66.812 15.1727C69.5457 16.786 70.4791 21.7603 69.3457 28.8185C69.1456 30.2301 68.8123 31.709 68.4122 33.2551C64.9451 32.4484 61.278 31.9106 57.4108 31.5745C55.1439 28.3479 52.8102 25.4574 50.4766 22.8358C55.4106 17.9287 60.4112 14.5677 64.4784 14.5677C65.3452 14.5677 66.1453 14.7694 66.812 15.1727ZM59.3444 55.0346C58.1443 57.1856 56.7441 59.3367 55.2772 61.4878C52.8102 61.6894 50.3433 61.7566 47.8096 61.7566C45.2093 61.7566 42.7423 61.6894 40.342 61.4878C38.8752 59.3367 37.5417 57.1856 36.3415 55.0346C35.0747 52.8163 33.8745 50.5308 32.8077 48.3125C33.8745 46.0942 35.0747 43.8087 36.3415 41.5904C37.5417 39.4394 38.9418 37.2883 40.4087 35.1372C42.8757 34.9356 45.3426 34.8684 47.8763 34.8684C50.4766 34.8684 52.9436 34.9356 55.3439 35.1372C56.8108 37.2883 58.1443 39.4394 59.3444 41.5904C60.6112 43.8087 61.8114 46.0942 62.8782 48.3125L62.8781 48.3127C61.7446 50.5309 60.6112 52.7492 59.3444 55.0346ZM64.8784 52.8163C65.8786 55.169 66.6787 57.4545 67.4121 59.74C65.1451 60.2778 62.7448 60.6811 60.2112 61.0172C60.3088 60.8614 60.4075 60.7045 60.5067 60.5466L60.5068 60.5465C61.2209 59.4108 61.9676 58.2233 62.6115 56.984C63.1309 56.0676 63.6222 55.1512 64.1036 54.2532L64.104 54.2525C64.3641 53.7674 64.6212 53.2877 64.8784 52.8163ZM47.8096 71.0331C46.2094 69.2854 44.6759 67.4032 43.209 65.4538C44.7426 65.521 46.2761 65.5882 47.8096 65.5882C49.3432 65.5882 50.8767 65.521 52.4102 65.4538C50.9434 67.4032 49.4098 69.2854 47.8096 71.0331ZM35.4081 60.95C32.8744 60.6139 30.4741 60.2106 28.2072 59.6728C28.9406 57.4545 29.7407 55.1018 30.7408 52.7491C30.9317 53.099 31.1226 53.4535 31.3147 53.8101C31.8606 54.8238 32.4159 55.855 33.0078 56.8495C33.6079 57.9587 34.2079 58.9544 34.808 59.9501C35.008 60.282 35.2081 60.6139 35.4081 60.95ZM30.7408 43.8087C29.7407 41.456 28.9406 39.1705 28.2072 36.885C30.4741 36.3472 32.8744 35.9439 35.4081 35.6078C35.3566 35.6899 35.3048 35.7724 35.2529 35.8551C35.2063 35.9293 35.1595 36.0037 35.1126 36.0783L35.1125 36.0784C34.3984 37.2141 33.6517 38.4017 33.0078 39.641C32.4884 40.5573 31.9971 41.4737 31.5157 42.3716L31.5157 42.3717L31.5156 42.3718C31.2554 42.8571 30.9981 43.337 30.7408 43.8087ZM47.8096 25.5919C49.4098 27.3396 50.9434 29.2218 52.4102 31.1712L52.4101 31.1712C50.8766 31.104 49.3431 31.0368 47.8096 31.0368C46.2761 31.0368 44.7427 31.104 43.2092 31.1712L43.209 31.1712C44.6759 29.2218 46.2094 27.3396 47.8096 25.5919ZM62.6115 39.7082L60.2112 35.675C62.7448 36.0111 65.1451 36.4144 67.4121 36.9522C66.6787 39.1705 65.8786 41.5232 64.8784 43.8759C64.145 42.4643 63.4116 41.0527 62.6115 39.7082ZM26.2736 28.8185C25.1401 21.7603 26.0736 16.786 28.8072 15.1727C29.474 14.7694 30.2741 14.5677 31.1409 14.5677C35.1414 14.5677 40.142 17.8615 45.1426 22.8358C42.809 25.3902 40.4754 28.3479 38.2084 31.5745C34.3413 31.9106 30.6741 32.5156 27.207 33.2551C26.8449 31.8556 26.5921 30.5111 26.3496 29.2218L26.2736 28.8185ZM9.80486 48.3125C9.80486 45.1531 13.6053 41.7921 20.2728 39.3049C21.6063 38.7672 23.0732 38.2966 24.54 37.8933C25.6068 41.2543 26.9403 44.817 28.5405 48.3797C26.9403 51.9424 25.5402 55.4379 24.54 58.7989C15.3389 56.1101 9.80486 52.0769 9.80486 48.3125ZM28.8072 81.4523C26.0736 79.839 25.1401 74.8647 26.2736 67.8065C26.4736 66.3949 26.807 64.916 27.207 63.3699C30.6741 64.1766 34.3413 64.7144 38.2084 65.0505C40.4754 68.2771 42.809 71.1675 45.1426 73.7892C40.2087 78.6963 35.208 82.0573 31.1409 82.0573C30.2741 82.0573 29.474 81.8556 28.8072 81.4523ZM69.3457 67.8065C70.4791 74.8647 69.5457 79.839 66.812 81.4523C66.1453 81.8556 65.3452 82.0573 64.4784 82.0573C60.4779 82.0573 55.4773 78.7635 50.4766 73.7892C52.8102 71.2348 55.1439 68.2771 57.4108 65.0505C61.278 64.7144 64.9451 64.1094 68.4122 63.3699C68.7743 64.7694 69.0272 66.1138 69.2697 67.4031L69.3457 67.8065ZM75.3464 57.3201C74.0129 57.8578 72.5461 58.3284 71.0792 58.7317C70.0124 55.3707 68.6789 51.808 67.0787 48.2453C68.6789 44.6826 70.0791 41.1871 71.0792 37.8261C80.2804 40.5149 85.8144 44.5481 85.8144 48.3125C85.8144 51.4719 81.9472 54.8329 75.3464 57.3201ZM56.1574 48.2358C56.1574 53.064 52.2841 56.9781 47.5061 56.9781C42.7281 56.9781 38.8548 53.064 38.8548 48.2358C38.8548 43.4076 42.7281 39.4935 47.5061 39.4935C52.2841 39.4935 56.1574 43.4076 56.1574 48.2358Z" fill="white"/>
</svg>
