<svg width="96" height="96" viewBox="0 0 96 96" fill="none" xmlns="http://www.w3.org/2000/svg">
<path fill-rule="evenodd" clip-rule="evenodd" d="M16 0C7.16345 0 0 7.16345 0 16V80C0 88.8366 7.16345 96 16 96H80C88.8366 96 96 88.8366 96 80V16C96 7.16344 88.8366 0 80 0H16ZM9.34507 44.2759C9.27742 44.0535 9.20245 43.8071 9.20245 43.4744L9.25665 42.351C9.44231 41.577 9.68902 40.7745 9.94881 40.026C10.8372 37.4688 12.3817 35.2971 14.2058 33.329C17.8672 29.3785 22.3248 26.5054 27.1114 24.1227C29.3093 23.0291 31.5733 22.041 33.8822 21.2037C36.9324 20.0983 40.0705 19.1716 43.3164 19.1716H46.0015C48.6817 19.1716 51.2784 19.9034 53.6844 21.1602C55.3366 22.0236 56.7185 23.2767 57.5876 24.9618C58.3888 26.5172 58.5725 28.1874 58.4 29.8924C58.0467 33.3855 56.3976 36.2784 54.0888 38.8418C51.3158 41.9203 47.8581 43.8716 43.8814 44.9764C41.096 45.7504 38.2707 46.1811 35.3749 46.0564C33.4667 45.9751 31.6263 45.6244 29.9797 44.5811C29.1224 44.0386 28.3437 43.4061 27.8098 42.5341C27.6254 42.2324 27.5062 41.8877 27.3887 41.5478C27.3709 41.4961 27.353 41.4446 27.335 41.3933C27.2534 41.1593 27.2964 40.9284 27.54 40.7857C27.7886 40.6405 27.9593 40.8087 28.0926 40.9638C28.839 41.8303 29.7672 42.4273 30.8332 42.8177C32.4431 43.4068 34.1077 43.557 35.8079 43.4148C37.8912 43.2404 39.9197 42.8091 41.8916 42.122C45.3087 40.9309 48.344 39.1279 50.8323 36.4795C52.3493 34.8639 53.5549 33.0559 54.0688 30.8625C54.3218 29.7794 54.333 28.6988 53.9679 27.6325C53.5978 26.5489 52.8023 25.8556 51.8322 25.3261C50.5657 24.6341 49.1863 24.3101 47.7659 24.15C44.1524 23.7428 40.6493 24.3269 37.1966 25.3472C33.8292 26.3422 30.6887 27.8492 27.6353 29.5516C25.4529 30.7688 23.3472 32.102 21.4003 33.6722C19.5599 35.1575 17.8859 36.7973 16.6586 38.8405C15.6992 40.4375 15.1646 42.153 15.23 44.0305C15.2817 45.504 15.8206 46.808 16.6567 47.9997C17.7806 49.6016 19.2497 50.8616 20.7661 52.0713C21.3762 52.558 21.9882 53.0424 22.6004 53.5267C23.7047 54.4006 24.8091 55.2746 25.9021 56.1627C26.2818 56.4706 26.6307 56.8161 26.9855 57.1675C27.1506 57.3309 27.317 57.4957 27.4883 57.6585L29.5 56.5605C29.8758 56.3553 30.2517 56.1503 30.6275 55.9452C32.059 55.1643 33.4901 54.3835 34.9176 53.595C35.0958 53.4963 35.2628 53.3498 35.3893 53.1891C36.7835 51.4171 38.4214 49.9442 40.5515 49.1125C41.058 48.9139 41.6324 48.8208 42.1794 48.8041C43.3531 48.7681 44.1605 49.4167 44.4758 50.5438C44.7287 51.4481 44.7032 52.363 44.5761 53.2809L44.5244 53.7092L44.791 53.559C45.3941 53.1233 46.4108 53.2474 46.8974 53.8128C47.1871 54.1505 47.1852 54.526 47.0762 54.9276C46.9949 55.228 46.9126 55.5283 46.8303 55.8286C46.584 56.7274 46.3375 57.6264 46.118 58.5318C45.7635 59.994 45.4271 61.4619 45.1349 62.9379C45.0662 63.2852 45.077 63.6487 45.0878 64.0114C45.0922 64.158 45.0966 64.3045 45.0957 64.4498C45.0951 64.5355 45.1362 64.6211 45.2421 64.7459C45.2842 64.6853 45.3286 64.6259 45.373 64.5665C45.4678 64.4398 45.5625 64.3133 45.6346 64.1755C45.7187 64.0149 45.8035 63.8546 45.8882 63.6942C46.2248 63.0577 46.5614 62.421 46.8575 61.766L46.997 61.4579C48.7267 57.6342 50.457 53.8095 52.14 49.9653C52.4748 49.2005 52.7064 48.3894 52.9375 47.5803C53.001 47.358 53.0644 47.1358 53.13 46.9148C53.2334 46.5672 53.4109 46.3493 53.7492 46.2401C54.8401 45.8888 55.954 45.8013 57.0848 45.9682C57.2891 45.9987 57.4941 46.0918 57.6754 46.1967C58.0343 46.4046 58.0897 46.6119 57.9695 47.0066C57.906 47.2139 57.8412 47.4209 57.7764 47.6279C57.5816 48.2504 57.3866 48.8732 57.2281 49.5048C56.944 50.6332 57.0761 51.7684 57.2437 52.9054C57.3682 53.7499 57.7331 54.4901 58.1184 55.2718C58.1919 55.4209 58.2661 55.5714 58.3395 55.7245C58.3982 55.6291 58.4537 55.5396 58.5068 55.454C58.615 55.2797 58.7132 55.1214 58.808 54.9611C60.1139 52.7465 61.3898 50.5159 62.5074 48.1977C62.8457 47.4969 63.0399 46.7591 63.2344 46.0204C63.2964 45.7848 63.3584 45.5492 63.4251 45.3147C63.4504 45.2271 63.4798 45.1405 63.5091 45.0539C63.558 44.9099 63.6068 44.766 63.6363 44.6183C63.7192 44.2062 63.9908 43.9976 64.3646 43.889C65.4206 43.583 66.4959 43.493 67.5862 43.6507C67.7532 43.6749 67.9214 43.7382 68.0759 43.8108C68.5194 44.0194 68.6173 44.2788 68.4783 44.7418C68.4246 44.921 68.3701 45.1002 68.3157 45.2793C68.097 45.999 67.8782 46.7191 67.7021 47.4492C67.4882 48.3356 67.5921 49.2301 67.6961 50.1262C67.7033 50.1882 67.7105 50.2503 67.7176 50.3123C67.8437 51.4132 68.3323 52.3646 68.8212 53.3167C68.9315 53.5315 69.0419 53.7464 69.1481 53.963C69.1918 54.0514 69.2417 54.1379 69.2922 54.2253C69.3186 54.2712 69.3452 54.3172 69.3711 54.364C69.5407 54.296 69.7095 54.2268 69.878 54.1577C70.2678 53.9979 70.6555 53.8389 71.0457 53.698C73.0057 52.9886 75.0498 52.6807 77.1294 52.7652C79.6812 52.8688 82.0941 53.5242 84.1376 55.1162C85.9019 56.4916 87.1149 58.2463 87.3853 60.5086C87.387 60.5261 87.3828 60.5458 87.3782 60.5668C87.3713 60.5986 87.3637 60.6336 87.3753 60.6687L87.4233 61.6804L87.3841 61.7971C87.1841 63.3506 86.2558 64.5305 84.9836 65.4075C84.4759 65.7576 83.9469 66.0983 83.2947 66.1033C83.1782 66.1045 82.9757 66.0089 82.9626 65.9326C82.9395 65.8016 82.9962 65.6117 83.0903 65.5167C83.1955 65.4106 83.3283 65.3315 83.4611 65.2523C83.5217 65.2161 83.5824 65.18 83.6404 65.1412C85.6247 63.8155 86.1891 61.8256 85.168 59.7284C84.332 58.0129 82.9221 56.9224 81.1771 56.2707C78.1879 55.1547 75.1196 55.0318 72.0176 55.7369C71.6084 55.83 71.2085 55.9624 70.8067 56.0955C70.6219 56.1567 70.4368 56.218 70.2502 56.2756C70.2976 56.4311 70.344 56.5795 70.389 56.7234C70.4857 57.0328 70.5758 57.3211 70.6557 57.6126C71.0825 59.1835 70.9897 60.683 69.9704 62.0273C68.4559 64.024 66.3832 65.1512 63.9821 65.7048C62.8601 65.9636 61.9256 65.225 61.7748 64.0886C61.6776 63.3568 61.8452 62.6604 62.0632 61.9752C62.5704 60.3857 63.5423 59.0823 64.663 57.8819C65.0129 57.5073 65.3881 57.1565 65.773 56.7966C65.9481 56.6329 66.1252 56.4673 66.3028 56.2967C65.1889 54.4242 64.5671 52.3605 64.154 50.2192C64.0656 50.3235 64.0139 50.4209 63.9634 50.5183C62.6887 52.9954 61.3181 55.4166 59.7139 57.6988C59.5289 57.962 59.5357 58.16 59.6373 58.4424L59.6629 58.5133C59.8808 59.1164 60.1007 59.725 60.2272 60.3503C60.7132 62.7455 60.069 64.7663 58.0623 66.2473C56.5135 67.3905 54.7616 68.0652 52.8322 68.2067C52.2746 68.2477 51.6921 68.2042 51.1451 68.0869C50.5464 67.9584 50.2006 67.4209 50.2834 66.8636C50.3264 66.5719 50.4286 66.2671 50.5825 66.017C50.8373 65.6055 51.1419 65.2219 51.4478 64.8452L51.7099 64.5216C53.005 62.9225 54.3003 61.323 55.617 59.7414C55.9528 59.338 55.9808 59.0258 55.7385 58.5448C55.2264 57.5263 54.756 56.4786 54.376 55.4055C54.1501 54.7669 53.9956 54.1036 53.8377 53.4257C53.7669 53.1219 53.6954 52.8151 53.6165 52.5063L53.4383 52.9396C53.1146 53.673 52.7966 54.4092 52.4786 55.1452C51.7371 56.8613 50.9958 58.577 50.1831 60.2584C49.3008 62.0844 48.322 63.8647 47.3437 65.6441C47.1318 66.0294 46.9201 66.4146 46.7093 66.8003C46.2906 67.5662 45.7268 68.2402 45.0328 68.7858C44.5886 69.1352 44.107 69.4108 43.5027 69.3419C42.6192 69.2407 42.1476 68.6666 41.8704 67.8982C41.5464 67.0001 41.491 66.0617 41.5308 65.1176C41.5482 64.7077 41.5795 64.298 41.6129 63.8623C41.6287 63.6555 41.645 63.4428 41.6604 63.2215L41.5439 63.4872C41.3546 63.8993 41.1669 64.3122 40.9792 64.7252C40.5055 65.7674 40.0318 66.8095 39.5316 67.8386C39.2643 68.3892 38.9086 68.9049 38.5417 69.3984C37.5075 70.7874 35.1886 70.7359 34.2155 69.3518C33.0119 67.6406 32.4381 65.7234 32.3085 63.6752C32.187 61.753 32.5253 59.8687 33.0343 58.0166C33.0851 57.8316 33.1424 57.6482 33.1997 57.465C33.2217 57.3944 33.2438 57.3238 33.2654 57.2532L33.2013 57.1986L28.9175 59.6527C28.9548 59.7383 28.9902 59.8177 29.0238 59.8931C29.0914 60.0446 29.1519 60.1801 29.2059 60.318C29.2869 60.5247 29.3648 60.7339 29.4265 60.9474C30.0931 63.247 30.07 65.5596 29.5043 67.8697C28.7262 71.0481 26.9164 73.5246 24.23 75.3717C22.5111 76.5534 20.6091 77.2666 18.5195 77.4521L16.6299 77.4534C16.4414 77.4188 16.2526 77.386 16.0638 77.3531C15.5843 77.2697 15.1049 77.1863 14.6319 77.0754C14.3746 77.0146 14.1279 76.8594 13.908 76.703C13.2296 76.2195 12.7486 75.5653 12.4334 74.8081C11.3537 72.2156 11.8664 69.7875 13.3149 67.5084C14.2152 66.0915 15.4898 65.0072 16.8081 63.9868C18.9955 62.2942 21.3685 60.8971 23.835 59.6508C24.0071 59.5638 24.1748 59.4719 24.3559 59.3728C24.4474 59.3226 24.5424 59.2706 24.643 59.2164C24.544 59.1371 24.4486 59.0593 24.3554 58.9832C24.1208 58.7918 23.9001 58.6118 23.6705 58.4492C22.8812 57.8904 22.0865 57.3351 21.2915 56.7796C20.2039 56.0198 19.1158 55.2595 18.0404 54.4894C15.8942 52.952 13.799 51.3171 12.0882 49.2863C10.8871 47.8613 9.87468 46.2991 9.40368 44.4786C9.38652 44.4122 9.36615 44.3452 9.34507 44.2759ZM23.0762 71.5316C25.134 69.7143 26.393 67.4706 26.6005 64.703C26.6865 63.5548 26.5388 62.4271 26.2286 61.285L26.0772 61.3471C24.0699 62.5177 22.1099 63.7578 20.3032 65.2232C19.1562 66.1529 18.0822 67.1485 17.3495 68.4543C16.7882 69.4561 16.3789 70.5087 16.4019 71.6731C16.4169 72.4036 16.5907 73.0895 17.3663 73.4197C17.9102 73.6512 18.484 73.6288 19.0447 73.5364C20.591 73.2806 21.9186 72.5532 23.0762 71.5316ZM41.6853 55.3C41.9445 54.4434 42.1277 53.559 42.2741 52.6752C42.3619 52.1464 42.0367 51.9024 41.5072 52.0508C41.1614 52.1476 40.8187 52.2997 40.5135 52.489C39.5198 53.1047 38.8694 54.0319 38.2719 55.0051C36.8228 57.3649 35.9686 59.8997 35.9444 62.689C35.9517 62.8102 35.955 62.9323 35.9583 63.0545C35.9658 63.3279 35.9732 63.6017 36.0253 63.8664C36.1375 64.4368 36.2677 65.0134 36.4795 65.5521C36.6614 66.0157 37.0028 66.0344 37.3629 65.68C37.4277 65.616 37.4944 65.5496 37.5392 65.4727C37.6245 65.327 37.7134 65.183 37.8024 65.0389C38.0172 64.6912 38.2321 64.3433 38.3946 63.9725C39.6388 61.1379 40.7895 58.2649 41.6853 55.3ZM52.9674 66.2479L56.8107 61.7772C56.9708 63.4375 54.138 66.7519 52.9674 66.2479ZM64.7541 63.48C64.9196 63.4047 65.0851 63.3294 65.2424 63.2395C66.9974 62.2378 67.7787 60.1691 67.1027 58.2854L67.0031 58.3362C65.582 59.6024 64.6269 61.159 64.1079 62.9826C64.0668 63.1265 64.045 63.2817 64.05 63.4301C64.0575 63.6485 64.1416 63.7813 64.3964 63.6498C64.5136 63.5894 64.6338 63.5347 64.7541 63.48Z" fill="white"/>
</svg>
