<svg width="95" height="96" viewBox="0 0 95 96" fill="none" xmlns="http://www.w3.org/2000/svg">
<path d="M0 48V80C0 88.8366 7.16344 96 16 96H79C87.8366 96 95 88.8366 95 80V16C95 7.16345 87.8366 0 79 0H16C7.16344 0 0 7.16344 0 16V48ZM76.5548 44.16C78.8302 44.6936 80.8982 45.8961 82.498 47.616C83.3787 48.5426 84.1444 49.5742 84.778 50.688C84.778 50.8109 80.674 53.6141 78.1736 55.1808C78.0824 55.2422 77.7176 54.8429 77.3148 54.2362C76.8584 53.4403 76.2098 52.7742 75.4297 52.3001C74.6496 51.826 73.7633 51.5594 72.8536 51.5251C69.9732 51.3254 68.1188 52.8538 68.134 55.3651C68.1102 55.9904 68.2519 56.6107 68.5444 57.1622C69.1752 58.4909 70.3532 59.2819 74.0468 60.8947C80.8488 63.8515 83.7596 65.8022 85.5684 68.5747C87.59 71.6467 88.0384 76.608 86.6704 80.279C85.1504 84.2726 81.4264 86.9837 76.1596 87.8822C73.7541 88.1607 71.3236 88.1349 68.9244 87.8054C65.2628 87.2052 61.8852 85.4435 59.28 82.775C58.406 81.7997 56.7036 79.2576 56.81 79.0733C57.0874 78.8652 57.3796 78.6778 57.684 78.5126L61.18 76.4851L63.9084 74.8877L64.4784 75.7402C65.4404 77.1307 66.6646 78.3156 68.0808 79.2269C71.1208 80.8397 75.2704 80.617 77.3224 78.7507C78.0114 78.0669 78.4412 77.1605 78.537 76.1894C78.6328 75.2183 78.3886 74.244 77.8468 73.4362C77.0868 72.3686 75.5668 71.4701 71.3184 69.5962C66.4164 67.4611 64.3036 66.1402 62.3732 64.0358C61.1681 62.6472 60.2783 61.0089 59.7664 59.2358C59.3845 57.2102 59.3281 55.1356 59.5992 53.0918C60.61 48.3072 64.1592 44.9664 69.3424 43.9757C71.7428 43.6755 74.1743 43.7429 76.5548 44.1754V44.16ZM54.2564 48.1843V52.1165H41.9216V87.6211H33.174V52.1088H20.8088V48.2688C20.7756 46.9469 20.8111 45.6241 20.9152 44.3059C20.9608 44.2445 28.5152 44.2138 37.6352 44.2291H54.2108L54.2564 48.1843Z" fill="white"/>
</svg>
