<svg width="95" height="96" viewBox="0 0 95 96" fill="none" xmlns="http://www.w3.org/2000/svg">
<path fill-rule="evenodd" clip-rule="evenodd" d="M16 0C7.16344 0 0 7.16345 0 16V80C0 88.8366 7.16344 96 16 96H79C87.8366 96 95 88.8366 95 80V16C95 7.16344 87.8366 0 79 0H16ZM83.4771 19.455L65.7884 12.2698L37.2544 41.0105L19.2756 26.8154L12.1421 30.262V66.363L19.2756 69.9848L37.2544 55.9066L65.6724 84.3551L83.4771 77.1116V19.455ZM19.2756 59.5284V37.6224L30.0049 48.4293L19.2756 59.5284ZM65.6724 63.0917L47.1717 48.4293L65.6724 33.7085V63.0917Z" fill="white"/>
</svg>
