<svg width="50" height="50" viewBox="0 0 50 50" fill="none" xmlns="http://www.w3.org/2000/svg">
<path d="M35.5028 38.3274H25.0207C19.5062 38.3274 15.0399 33.8486 15.0855 28.3186C15.0855 26.7647 15.4501 25.2566 16.1337 23.8854L21.0557 13.8309C23.0154 9.80912 27.345 7.56969 31.7657 8.20953C32.1303 8.30093 32.4948 8.02672 32.5403 7.6611C32.5859 7.38689 32.4492 7.11267 32.2214 6.97556C25.841 3.09086 17.4553 5.10176 13.5815 11.5458C13.3992 11.8657 13.1713 12.2313 12.9891 12.597L6.38076 25.9421C3.14495 32.4775 5.78827 40.384 12.3054 43.6289C14.1284 44.543 16.1337 45 18.139 45H32.0391C38.3285 45 43.7521 40.5669 44.9823 34.397C45.0735 34.0314 44.8001 33.6658 44.4355 33.6201C44.1622 33.5744 43.9343 33.6658 43.7521 33.8943C41.9744 36.6822 38.8297 38.3731 35.5028 38.3274Z" fill="#FCFDFF" stroke="#FCFDFF" stroke-width="1.2312" stroke-miterlimit="10"/>
<path d="M24.9291 17.0302L21.5111 23.9312C19.8704 27.3132 21.192 31.3807 24.5645 33.0717C25.5216 33.5288 26.5243 33.803 27.5725 33.7572H34.7275C38.4645 33.7572 41.5181 30.7409 41.5181 26.9476C41.5181 25.8965 41.2902 24.8453 40.789 23.9312L37.4621 17.0302C35.7306 13.5568 31.5373 12.14 28.0737 13.8767C26.7065 14.5623 25.6127 15.6591 24.9291 17.0302Z" fill="#FCFDFF" stroke="#FCFDFF" stroke-width="1.2312" stroke-miterlimit="10"/>
</svg>
