<svg width="50" height="50" viewBox="0 0 50 50" fill="none" xmlns="http://www.w3.org/2000/svg">
<g clip-path="url(#clip0)">
<path d="M31.4959 8C32.6366 8 33.5612 8.97418 33.5612 10.1759C33.5612 11.3776 32.6366 12.3518 31.4959 12.3518H18.0714C16.9308 12.3518 16.0061 11.3776 16.0061 10.1759C16.0061 8.97418 16.9308 8 18.0714 8H31.4959Z" fill="white"/>
<path d="M31.4959 38.4623C32.6366 38.4623 33.5612 39.4365 33.5612 40.6382C33.5612 41.8399 32.6366 42.8141 31.4959 42.8141H18.0714C16.9308 42.8141 16.0061 41.8399 16.0061 40.6382C16.0061 39.4365 16.9308 38.4623 18.0714 38.4623H31.4959Z" fill="white"/>
<path d="M48.0125 23.2314C49.1531 23.2314 50.0779 24.2056 50.0779 25.4073C50.0779 26.609 49.1531 27.5832 48.0125 27.5832H12.9024C11.7618 27.5832 10.8372 26.609 10.8372 25.4073C10.8372 24.2056 11.7618 23.2314 12.9024 23.2314H48.0125Z" fill="white"/>
<path d="M39.7571 30.8468C40.8979 30.8468 41.8225 31.821 41.8225 33.0227C41.8225 34.2244 40.8979 35.1986 39.7571 35.1986H8.26134C7.12071 35.1986 6.19604 34.2244 6.19604 33.0227C6.19604 31.821 7.12071 30.8468 8.26134 30.8468H39.7571Z" fill="white"/>
<path d="M39.7573 15.6154C40.8979 15.6154 41.8226 16.5896 41.8226 17.7913C41.8226 18.9929 40.8979 19.9671 39.7573 19.9671H21.1696C20.0289 19.9671 19.1042 18.9929 19.1042 17.7913C19.1042 16.5896 20.0289 15.6154 21.1696 15.6154H39.7573Z" fill="white"/>
<path fill-rule="evenodd" clip-rule="evenodd" d="M14.9733 19.9671C16.1139 19.9671 17.0385 18.9929 17.0385 17.7913C17.0385 16.5896 16.1139 15.6154 14.9733 15.6154C13.8326 15.6154 12.908 16.5896 12.908 17.7913C12.908 18.9929 13.8326 19.9671 14.9733 19.9671Z" fill="#44B2CB"/>
<path fill-rule="evenodd" clip-rule="evenodd" d="M8.7777 19.9671C9.91833 19.9671 10.843 18.9929 10.843 17.7913C10.843 16.5896 9.91833 15.6154 8.7777 15.6154C7.63706 15.6154 6.7124 16.5896 6.7124 17.7913C6.7124 18.9929 7.63706 19.9671 8.7777 19.9671Z" fill="#44B2CB"/>
<path fill-rule="evenodd" clip-rule="evenodd" d="M2.0653 35.1986C3.20594 35.1986 4.1306 34.2244 4.1306 33.0227C4.1306 31.821 3.20594 30.8468 2.0653 30.8468C0.924667 30.8468 0 31.821 0 33.0227C0 34.2244 0.924667 35.1986 2.0653 35.1986Z" fill="#44B2CB"/>
<path fill-rule="evenodd" clip-rule="evenodd" d="M11.8758 42.8141C13.0164 42.8141 13.9412 41.8399 13.9412 40.6382C13.9412 39.4365 13.0164 38.4623 11.8758 38.4623C10.7352 38.4623 9.81055 39.4365 9.81055 40.6382C9.81055 41.8399 10.7352 42.8141 11.8758 42.8141Z" fill="#44B2CB"/>
</g>
<defs>
<clipPath id="clip0">
<rect width="50" height="50" fill="white"/>
</clipPath>
</defs>
</svg>
