<svg width="43" height="41" viewBox="0 0 43 41" fill="none" xmlns="http://www.w3.org/2000/svg">
<path d="M14.1173 25.1308L15.0757 24.1984L15.3834 23.8925C15.3834 23.8925 23.666 18.5201 28.6345 18.5201H29.0632C24.4204 18.2855 20.0238 16.4056 16.6949 13.2316L4.40224 1.22388H3.59012L2.23828 2.55094V3.34521L14.1627 15.0125C15.5216 16.3638 16.2793 18.1855 16.2708 20.0808C16.2623 21.9761 15.4883 23.7913 14.1173 25.1308Z" fill="#FD5138"/>
<path d="M22.6423 8.89513L13.6132 0.0644531H12.8011L11.4492 1.38659V2.18085L20.897 11.4259C23.213 13.6903 26.3536 14.9626 29.6285 14.9631H36.4684L37.0434 14.4057V12.5261L36.4684 11.9686H30.2287C27.3832 11.9686 24.6543 10.863 22.6423 8.89513Z" fill="#F6F6F6"/>
<path d="M22.6423 31.3021L13.6132 40.1328H12.8011L11.4492 38.8057V38.0115L20.897 28.7713C23.213 26.507 26.3536 25.2347 29.6285 25.2341H36.4684L37.0434 25.7916V27.6663L36.4684 28.2287H30.2287C27.3832 28.2287 24.6543 29.3343 22.6423 31.3021Z" fill="#F6F6F6"/>
<path d="M8.40283 15.3083L2.88954 9.92114H2.08247L0.725586 11.2482V12.0375L5.97658 17.1781C6.36397 17.5561 6.67132 18.0052 6.88102 18.4996C7.09072 18.9939 7.19866 19.5239 7.19866 20.0591C7.19866 20.5944 7.09072 21.1243 6.88102 21.6187C6.67132 22.1131 6.36397 22.5622 5.97658 22.9402L1.11399 27.7009V28.4902L2.47087 29.8173H3.27794L8.39779 24.8149C9.0367 24.1912 9.5437 23.4505 9.8898 22.635C10.2358 21.8196 10.4142 20.9455 10.4147 20.0626C10.4151 19.1798 10.2377 18.3055 9.8925 17.4897C9.5473 16.6739 9.0411 15.9327 8.40283 15.3083Z" fill="#F6F6F6"/>
<path d="M41.6689 18.52H28.6348C23.6645 18.5232 18.8986 20.4555 15.3837 23.8924L2.10742 36.877V37.6712L3.46431 38.9983H4.27642L16.6548 26.9067C18.3937 25.2007 20.4597 23.8472 22.7345 22.9236C25.0092 22 27.448 21.5245 29.911 21.5244H41.679L42.244 20.9867V19.112L41.6689 18.52Z" fill="#F6F6F6"/>
</svg>
